<?xml version="1.0" encoding="UTF-8" standalone="no"?>
<svg
   width="1024"
   height="1024"
   version="1.1"
   id="svg22"
   sodipodi:docname="accept.svg"
   inkscape:version="1.3.2 (091e20ef0f, 2023-11-25)"
   xmlns:inkscape="http://www.inkscape.org/namespaces/inkscape"
   xmlns:sodipodi="http://sodipodi.sourceforge.net/DTD/sodipodi-0.dtd"
   xmlns="http://www.w3.org/2000/svg"
   xmlns:svg="http://www.w3.org/2000/svg">
  <defs
     id="defs22" />
  <sodipodi:namedview
     id="namedview22"
     pagecolor="#ffffff"
     bordercolor="#000000"
     borderopacity="0.25"
     inkscape:showpageshadow="2"
     inkscape:pageopacity="0.0"
     inkscape:pagecheckerboard="0"
     inkscape:deskcolor="#d1d1d1"
     inkscape:zoom="0.47265625"
     inkscape:cx="512"
     inkscape:cy="510.94215"
     inkscape:window-width="1440"
     inkscape:window-height="831"
     inkscape:window-x="0"
     inkscape:window-y="0"
     inkscape:window-maximized="1"
     inkscape:current-layer="svg22" />
  <path
     fill="#FF9AA3"
     d="M312.783 932.465L753.771 932.618C749.397 933.655 743.648 933.017 739.11 933.018L712.389 933.088C709.117 935.583 705.179 937.1 701.42 938.715L686.725 944.925C630.543 968.476 568.81 979.711 507.964 979.519C465.322 979.385 422.011 972.631 381.25 960.288C364.749 955.291 348.571 949.885 332.854 942.74L321.87 937.723C318.56 936.23 315.397 935.093 312.783 932.465Z"
     id="path2" />
  <path
     d="M168.045 832.192L165.354 829.56C161.834 826.034 158.892 821.943 155.738 818.091L137.801 795.165C129.608 784.155 122.473 773.034 115.286 761.382L105.691 746.03C82.4267 705.283 65.4169 660.507 55.212 614.725C51.6029 598.533 49.1221 582.186 46.9951 565.75L44.0193 530.75C43.5917 524.009 42.9586 517.602 42.9938 510.806C43.0256 504.66 43.7296 498.712 44.0126 492.601C45.4885 460.733 49.8973 428.392 57.8411 397.446C79.2829 313.915 125.202 235.723 186.49 175.267C203.803 158.189 222.868 142.85 242.766 128.907C267.596 111.506 294.009 96.1867 321.75 83.9016C333.993 78.4797 346.544 73.9997 359.161 69.5428C370.553 65.5187 382.075 61.4486 393.769 58.3866C408.038 54.6505 422.687 51.9729 437.25 49.6654C462.849 45.6092 488.869 43.2282 514.813 43.4396C554.441 43.7626 593.229 49.1045 631.5 59.3591L645.169 62.8519C658.07 66.7401 670.967 71.7143 683.475 76.7238C745.392 101.521 801.076 138.006 847.869 185.627C917.775 256.771 963.866 352.561 976.005 451.5C979.137 477.019 979.719 502.492 979.482 528.167C979.38 539.172 978.23 550.434 977.161 561.4C969.386 641.186 939.652 716.336 895.204 782.671C887.426 794.279 878.849 805.438 870.042 816.279C865.791 821.511 860.685 826.559 856.91 832.088L899.14 831.943C895.061 837.098 890.3 841.712 885.707 846.406L865.45 866.974L800.25 932.46L753.771 932.618L312.783 932.465L252.349 932.531L237.387 932.511C234.922 932.505 232.016 932.796 229.629 932.197C225.23 931.094 221.648 929.828 218 926.961C213.567 923.477 209.685 918.865 205.719 914.825L186.799 895.856L123.499 832.073L168.045 832.192Z"
     id="path3" />
  <path
     fill="#FEFEFE"
     d="M257.464 689.862C263.011 699.956 269.953 708.679 278.063 716.824L271.662 717.122L250.205 717.222C251.307 713.453 251.82 709.505 252.708 705.675C253.956 700.291 255.555 695.047 257.464 689.862Z"
     id="path4" />
  <path
     fill="#FEFEFE"
     d="M568.492 340.688C571.621 340.893 574.064 341.658 576.621 343.531C579.979 345.991 582.79 349.987 583.185 354.243L583.206 355.075C583.615 358.65 582.55 362.554 580.424 365.511C577.578 369.469 573.974 371.24 569.246 371.888C564.59 371.666 560.506 371.23 557.01 367.781C554.757 365.558 552.643 362.124 552.611 358.87C552.562 353.915 552.678 350.77 555.868 346.654C559.275 342.258 563.285 341.253 568.492 340.688Z"
     id="path5" />
  <path
     fill="#FEFEFE"
     d="M787.374 456.596C790.517 456.467 794.157 456.846 796.922 458.473C801.038 460.895 803.747 465.734 804.625 470.315C805.321 473.947 804.34 477.491 802.287 480.515C799.418 484.743 795.678 486.397 790.903 487.426C787.874 487.616 784.984 487.493 782.264 486.026C778.379 483.93 774.757 479.875 773.656 475.525C772.658 471.582 773.774 466.828 775.993 463.5C778.849 459.215 782.545 457.645 787.374 456.596Z"
     id="path6" />
  <path
     fill="#FEFEFE"
     d="M357.281 262.574C360.411 262.199 363.721 261.949 366.698 263.17C371.178 265.008 375.413 268.397 377.044 273.119C378.49 277.301 378.113 283.158 376.144 287.056C373.695 291.905 368.952 294.313 364.063 295.987L363.25 296.393C360.135 295.811 357.222 295.862 354.239 294.652C349.854 292.873 346.876 289.045 345.099 284.75C343.313 280.436 343.628 275.315 345.667 271.13C347.999 266.346 352.497 264.092 357.281 262.574Z"
     id="path7" />
  <path
     fill="#FF9AA3"
     d="M731.895 525.717C732.891 525.949 733.398 526.063 734.188 526.75C736.671 528.909 738.981 532.474 741.238 534.971L749.318 543.75C751.396 545.91 753.501 547.563 755.16 550.112C752.782 553.54 749.322 556.634 746.438 559.673L733.414 573.662C730.314 572.806 725.869 566.179 723.437 563.574C719.075 558.903 714.139 554.751 710.201 549.699L731.895 525.717Z"
     id="path8" />
  <path
     fill="#FF9AA3"
     d="M460.412 278.55C463.42 282.544 465.72 287.253 468.249 291.576C469.256 293.298 470.258 295.59 471.75 296.903C475.243 299.977 480.327 302.013 484.25 304.601C485.504 305.428 487.077 306.324 487.677 307.75C484.392 313.121 475.457 314.738 470.986 319.078C469.446 320.574 468.577 323.134 467.542 325L460.653 336.529C458.635 333.877 456.708 331.098 455.122 328.165C453.487 325.141 452.034 321.381 449.588 318.957C444.677 314.091 437.259 312.251 432.143 307.214C435.245 305.715 438.012 303.677 440.94 301.876C443.479 300.313 446.494 298.991 448.75 297.046C450.7 295.365 451.9 292.826 453.135 290.606C455.444 286.452 457.527 282.348 460.412 278.55Z"
     id="path9" />
  <path
     fill="#FEFEFE"
     d="M475.91 185.657L476.414 185.613C481.35 185.438 487.469 187.568 491.072 190.919C494.641 194.238 497.947 200.258 498.129 205.203L498.168 206.5C498.296 207.535 498.558 207.973 498.219 209C497.181 212.152 497.121 214.859 495.05 217.707C491.321 222.836 486.452 226.249 480.103 227.188C474.867 227.183 470.643 226.876 466.03 224.029C461.293 221.104 458.028 215.773 456.814 210.469C455.608 205.202 457.008 199.512 459.948 195.056C463.539 189.614 469.732 186.803 475.91 185.657Z"
     id="path10" />
  <path
     fill="#FEFEFE"
     d="M862.399 442.571C870.588 454.166 880.694 462.577 891.919 471.051C880.758 479.821 870.832 488.483 862.103 499.797C854.486 489.092 842.264 479.872 832.391 471.313C843.605 463.813 853.937 453.022 862.399 442.571Z"
     id="path11" />
  <path
     fill="#FEFEFE"
     d="M752.515 635.14C757.783 634.504 762.48 635.17 767.078 637.976C772.474 641.268 776.181 646.78 777.544 652.907C778.8 658.554 777.404 664.819 774.209 669.613C770.552 675.1 765.013 678.587 758.574 679.728C753.066 680.417 747.403 679.102 742.763 676.092C737.777 672.858 733.847 666.611 732.715 660.837C731.62 655.25 733.088 649.156 736.338 644.548C740.397 638.792 745.732 636.37 752.515 635.14Z"
     id="path12" />
  <path
     fill="#FEFEFE"
     d="M197.528 418.62C203.713 417.999 209.821 419.037 215.22 422.212C221.841 426.106 227.214 433.136 229.102 440.635C230.845 447.557 229.184 455.313 225.498 461.318C221.183 468.349 214.218 471.973 206.413 473.845C199.38 475.434 192.233 473.46 186.226 469.655C180.079 465.762 175.336 458.897 173.881 451.744C172.42 444.556 174.197 436.695 178.329 430.672C183.012 423.845 189.518 420.216 197.528 418.62Z"
     id="path13" />
  <path
     fill="#FEFEFE"
     d="M214.755 255.988C220.475 264.467 226.352 272.804 233.459 280.216C241.954 289.077 252.94 296.782 263.569 302.826C256.358 307.111 249.281 311.136 242.802 316.561C236.97 321.446 232.427 326.801 227.514 332.521C225.625 334.721 223.84 336.934 222.25 339.361C220.634 341.828 217.595 348.592 215.076 349.713C210.818 345.071 207.747 339.317 203.835 334.375C198.886 328.123 192.885 321.211 186.632 316.266C179.963 310.992 172.512 306.993 165.355 302.469C186.162 292.306 202.515 275.347 214.755 255.988Z"
     id="path14" />
  <path
     fill="#FEFEFE"
     d="M325.459 309.15C334.56 329.866 348.9 350.695 367.565 363.786C371.441 366.504 375.557 368.916 379.616 371.35C381.698 372.598 384.312 373.754 386.083 375.408L367.222 387.345C348.869 400.176 336.229 419.192 326.195 438.817L325.75 439.443C324.405 438.324 323.581 436.428 322.724 434.924L316.504 423.093C307.141 407.12 294.82 394.086 279.513 383.749C275.067 380.747 270.257 378.253 265.672 375.459C283.368 366 300.731 352.33 311.952 335.528C317.416 327.347 321.5 318.122 325.459 309.15Z"
     id="path15" />
  <path
     fill="#FF9AA3"
     d="M234.559 747.03L373.045 746.946L651.497 746.945L750.688 746.955L775.879 746.971C779.5 746.979 784.196 746.445 787.639 747.334C791.439 748.315 793.161 751.039 795.085 754.157C794.794 755.688 794.609 757.681 793.83 759.018C793.375 759.798 791.758 759.75 790.891 759.89L232.25 759.955C231.674 759.47 231.089 759.004 230.644 758.387C229.469 756.758 228.875 753.322 229.549 751.422C230.244 749.461 232.894 748.005 234.559 747.03Z"
     id="path16" />
  <path
     fill="#FEFEFE"
     d="M616.07 154.095C620.463 162.253 624.705 170.52 629.858 178.234C641.894 196.253 657.172 210.571 674.896 222.82L692.824 234.206L689.25 235.525C680.978 238.87 673.556 243.928 666.439 249.228C647.77 263.132 633.633 279.058 622.388 299.523C620.044 303.789 617.547 308.085 615.714 312.599C615.351 313.494 615.673 313.147 614.75 313.58L613.728 311.836C609.729 304.01 605.669 296.079 600.805 288.75C584.139 263.641 560.213 246.883 533.479 233.894C561.88 220.522 588.122 198.49 605.577 172.415C609.45 166.63 612.616 160.155 616.07 154.095Z"
     id="path17" />
  <path
     fill="#FEFEFE"
     d="M238.068 495.172L243.519 510C258.203 544.761 286.795 571.384 321.572 585.587C314.523 589.412 306.962 592.546 300.075 596.631C275.659 611.113 253.836 634.187 241.405 659.788C240.84 660.985 240.582 661.822 239.5 662.645C236.393 659.644 234.223 653.332 232.004 649.5C230.182 646.353 228.036 643.365 225.93 640.402C212.448 621.438 196.177 606.047 176.114 594.25C170.918 591.195 165.331 588.895 160.09 585.917L162 585.136L165.75 583.528C172.152 580.225 178.127 575.956 183.919 571.709C210.227 552.418 228.605 526.379 238.068 495.172Z"
     id="path18" />
  <path
     fill="#FF9AA3"
     d="M239.935 789.095L274.43 788.957L337.419 788.926L531.219 788.986L703.291 788.957L759.509 788.937L788.25 788.98C790.556 789.085 792.404 790.478 794.282 791.691C794.704 796.246 795.087 801.568 793.327 805.884C790.935 811.748 786.632 814.763 780.997 817.142C778.817 817.667 776.628 818.179 774.378 818.249L747.25 818.154L689.173 818.313L424.851 818.204L292.356 818.562L260.631 818.598C255.112 818.597 247.508 819.429 242.287 817.872L241.5 817.62C239.494 817.018 237.651 816.485 235.902 815.281C231.975 812.577 229.992 809.326 229.086 804.75C229.323 804.052 229.518 803.496 229.409 802.748C229.325 802.174 229.179 801.592 229.217 801.006C229.409 798.007 232.168 794.234 234.379 792.336C236.078 790.878 237.912 789.995 239.935 789.095Z"
     id="path19" />
  <path
     fill="#FEFEFE"
     d="M772.415 284.65C781.041 284.982 787.227 286.49 793.522 292.708C798.375 297.502 801.447 305.017 801.206 311.87C800.997 317.769 798.171 324.201 794.597 328.787C779.858 347.701 762.285 364.826 746.23 382.642L706.792 425.293L622.767 516.996L529.84 618.437L510.052 640.109C505.075 645.659 500.137 651.525 494.506 656.421L422.103 577.984L401.926 556.25C398.592 552.698 394.584 549.448 391.762 545.469C388.492 540.858 386.387 533.326 387.304 527.731L387.43 527C388.499 520.554 391.189 515.391 395.836 510.807C401.053 505.66 407.23 502.324 414.75 502.539C420.741 502.71 425.817 504.445 430.69 507.903C433.861 510.153 436.576 513.338 439.258 516.135L452.665 530.409L494.481 575.187L556.529 507.75L620.902 438.365L691.499 361.747L734.991 314.811L747.568 301.25C750.66 297.844 753.55 294.283 757.031 291.25C761.3 287.53 766.927 285.629 772.415 284.65Z"
     id="path20" />
  <path
     fill="#FF9AA3"
     d="M486.438 400.287C493.106 399.73 499.843 400.145 506.498 400.698C535.531 403.114 564.007 414.469 586.882 432.502C586.076 434.672 583.489 437.069 581.905 438.794L569.75 451.925L517.366 508.854L494.759 533.027L461.7 497.44C457.143 492.752 452.545 487.305 447.23 483.52C439.36 477.915 429.886 474.02 420.278 472.801C407.136 471.134 392.287 475.17 381.881 483.387C371.2 491.82 362.759 504.991 361.366 518.768C361.308 519.344 361.273 519.865 361.133 520.429C359.929 525.283 360.201 531.408 360.579 536.356C361.48 548.126 368.733 560.156 375.583 569.45C382.28 578.538 390.633 586.53 398.285 594.816L443.941 644.044L482.83 686.641C486.726 690.762 490.236 695.499 494.495 699.208C498.854 696.86 503.257 690.507 506.703 686.814L544.562 645.294L589.853 595.753L648.778 531.206L651.732 549.367C654.523 589.514 640.055 629.264 613.617 659.368C585.891 690.938 547.13 710.241 505.08 712.73C465.896 715.049 424.043 700.721 394.802 674.368C364.035 646.639 343.699 607.779 341.766 566.08C341.12 552.154 341.775 537.726 344.416 524.022C349.922 495.443 364.098 469.699 383.551 448.329C410.012 419.261 447.28 402.083 486.438 400.287Z"
     id="path21" />
  <path
     fill="#FF9AA3"
     d="M168.045 832.192L165.354 829.56C161.834 826.034 158.892 821.943 155.738 818.091L137.801 795.165C129.608 784.155 122.473 773.034 115.286 761.382L105.691 746.03C82.4267 705.283 65.4169 660.507 55.212 614.725C51.6029 598.533 49.1221 582.186 46.9951 565.75L44.0193 530.75C43.5917 524.009 42.9586 517.602 42.9938 510.806C43.0256 504.66 43.7296 498.712 44.0126 492.601C45.4885 460.733 49.8973 428.392 57.8411 397.446C79.2829 313.915 125.202 235.723 186.49 175.267C203.803 158.189 222.868 142.85 242.766 128.907C267.596 111.506 294.009 96.1867 321.75 83.9016C333.993 78.4797 346.544 73.9997 359.161 69.5428C370.553 65.5187 382.075 61.4486 393.769 58.3866C408.038 54.6505 422.687 51.9729 437.25 49.6654C462.849 45.6092 488.869 43.2282 514.813 43.4396C554.441 43.7626 593.229 49.1045 631.5 59.3591L645.169 62.8519C658.07 66.7401 670.967 71.7143 683.475 76.7238C745.392 101.521 801.076 138.006 847.869 185.627C917.775 256.771 963.866 352.561 976.005 451.5C979.137 477.019 979.719 502.492 979.482 528.167C979.38 539.172 978.23 550.434 977.161 561.4C969.386 641.186 939.652 716.336 895.204 782.671C887.426 794.279 878.849 805.438 870.042 816.279C865.791 821.511 860.685 826.559 856.91 832.088L810.444 831.916C815.408 825.558 820.181 819.337 822.313 811.402C823.2 808.1 823.264 805.1 823.582 801.741C824.505 791.98 824.083 782.048 824.064 772.25C824.053 766.247 824.637 759.69 823.654 753.8C822.214 745.178 819.468 737.427 813.177 731.091C806.703 724.571 796.892 718.745 787.428 718.881C786.843 718.889 786.329 718.933 785.747 718.846C781.926 718.278 777.817 718.575 773.948 718.584C809.162 676.03 833.396 622.336 839.923 567.339C841.661 552.695 841.76 538.237 841.544 523.523C842.767 525.474 844.068 527.444 844.965 529.57C846.709 533.703 848.105 543.512 851.753 545.715C854.431 547.333 858.071 546.619 861 546.541C864.888 546.438 868.658 546.794 872.5 545.973C876.176 543.704 877.381 536.904 878.75 533.013C881.222 525.987 885.354 519.741 889.817 513.84C897.84 503.233 905.852 495.515 917.865 489.512L929.575 484.319C930.333 482.182 930.049 478.984 930.099 476.7L930.179 458.501C925.141 455.122 919.002 452.93 913.599 450.113C899.941 442.991 887.381 430.548 880.991 416.508C879.471 413.167 878.358 409.593 877.326 406.076C876.918 404.684 876.614 402.488 875.962 401.25C875.631 400.622 874.392 399.693 873.848 399.152C870.92 398.288 867.484 398.667 864.449 398.691C862.359 398.708 860.044 398.518 858.009 399.004L857.25 399.202C854.621 399.387 852.321 399.523 849.662 399.995C848.634 409.178 845.11 416.115 839.583 423.418C831.637 398.464 822.007 375.518 809.856 352.38C815.283 347.067 820.316 340.972 823.611 334.089C830.264 320.193 831.057 304.92 825.785 290.406C821.202 277.792 810.123 265.871 797.875 260.403C789.724 256.765 782.163 255.22 773.266 255.369C770.707 255.412 767.715 255.346 765.303 256.279L764.75 256.498C756.844 257.9 749.222 260.973 742.738 265.889C738.771 268.896 735.478 272.708 732.036 276.28L721.699 286.366L698.19 262.962C708.548 257.263 719.405 252.461 731.105 250.311L731 217.801C718.175 213.98 705.347 207.147 694.046 200.06C669.081 184.404 648.095 158.407 638.28 130.626C636.51 125.615 635.441 120.243 634.251 115.068L597.64 115.12C596.416 129.316 589.546 146.452 581.257 158.004C580.301 159.336 576.443 165.443 575.58 165.794C575.482 165.834 557.221 161.925 555.347 161.669C535.735 158.986 516.768 157.615 497 158.374C493.394 158.512 489.411 158.138 485.874 158.758C481.897 159.456 477.748 159.461 473.729 159.929C463.589 161.11 453.228 162.567 443.25 164.711C393.392 175.42 348.148 196.628 307.75 227.704C291.965 239.846 277.522 253.417 263.559 267.564L250.554 256.283C238.528 245.081 230.392 229.415 229.864 212.944L198.471 212.71C198.295 216.117 198.17 219.456 197.334 222.777C194.861 232.602 191.244 240.086 185.081 248.193C172.194 265.145 153.824 280.455 132.12 283.407L131.996 318.691C131.993 319.092 131.723 319.593 131.989 319.893C132.454 320.418 144.091 323.965 145.785 324.686C162.667 331.864 177.068 344.953 186.883 360.337C189.227 364.012 191.041 368.001 193.085 371.845C193.499 372.624 194.954 374.702 195.037 375.493C195.101 376.111 194.188 378.392 193.994 379.093L191.149 389.948C184.069 391.831 177.044 394.55 170.996 398.746C157.438 408.154 149.429 420.296 146.331 436.5C144.843 444.283 145.288 452.511 147.261 460.164L147.485 461C151.133 475.067 159.64 485.889 171.19 494.331C172.079 494.981 176.199 497.461 176.542 498.159C176.913 498.914 175.487 510.852 175.574 513.062C175.925 521.986 178.35 530.014 179.935 538.669C175.81 542.27 171.655 546.169 167.255 549.414C154.055 559.15 139.343 565.654 123.368 569.14L123.351 603.85C140.845 606.973 157.302 615.224 171.928 625.09C191.041 637.982 205.602 657.964 215.368 678.528C218.728 685.603 222.083 693.441 223.527 701.179L226.776 718.915C220.799 720.985 215.737 724.536 211.356 729.07C207.262 733.308 203.979 738.952 202.47 744.651C200.16 753.378 201.116 763.207 201.114 772.181L201.203 804C201.397 815.128 205.244 824.444 213.268 832.205L168.045 832.192Z"
     id="path22" />
</svg>
