<?xml version="1.0" encoding="UTF-8" standalone="no"?>
<svg
   width="1024"
   height="1024"
   version="1.1"
   id="svg43"
   sodipodi:docname="bqueen.svg"
   inkscape:version="1.3.2 (091e20ef0f, 2023-11-25)"
   xmlns:inkscape="http://www.inkscape.org/namespaces/inkscape"
   xmlns:sodipodi="http://sodipodi.sourceforge.net/DTD/sodipodi-0.dtd"
   xmlns="http://www.w3.org/2000/svg"
   xmlns:svg="http://www.w3.org/2000/svg">
  <defs
     id="defs43" />
  <sodipodi:namedview
     id="namedview43"
     pagecolor="#ffffff"
     bordercolor="#000000"
     borderopacity="0.25"
     inkscape:showpageshadow="2"
     inkscape:pageopacity="0.0"
     inkscape:pagecheckerboard="0"
     inkscape:deskcolor="#d1d1d1"
     inkscape:zoom="0.55795144"
     inkscape:cx="642.52904"
     inkscape:cy="655.07493"
     inkscape:window-width="1440"
     inkscape:window-height="831"
     inkscape:window-x="0"
     inkscape:window-y="0"
     inkscape:window-maximized="1"
     inkscape:current-layer="svg43" />
  <ellipse
     style="fill:#090a59;fill-opacity:1;stroke-width:5.568;stroke-linecap:round"
     id="path50"
     cx="464.42078"
     cy="246.99751"
     rx="115.14356"
     ry="97.596535" />
  <ellipse
     style="fill:#090a59;fill-opacity:1;stroke-width:5.568;stroke-linecap:round"
     id="ellipse50"
     cx="565.59406"
     cy="255.25494"
     rx="115.14356"
     ry="97.596535" />
  <ellipse
     style="fill:#090a59;fill-opacity:1;stroke-width:5.568;stroke-linecap:round"
     id="ellipse51"
     cx="510.32672"
     cy="219.47772"
     rx="115.14356"
     ry="97.596535" />
  <rect
     style="fill:#090a59;fill-opacity:1;stroke-width:5.568;stroke-linecap:round"
     id="rect49"
     width="7.0553155"
     height="15.222049"
     x="-745.11035"
     y="75.059616"
     transform="matrix(-0.96556702,-0.26015442,-0.26015442,0.96556702,0,0)" />
  <rect
     style="fill:#090a59;fill-opacity:1;stroke-width:6.44855;stroke-linecap:round"
     id="rect50"
     width="366.29358"
     height="15.972912"
     x="326.21426"
     y="263.91885" />
  <rect
     style="fill:#090a59;fill-opacity:1;stroke-width:5.568;stroke-linecap:round"
     id="rect48"
     width="7.0553155"
     height="15.222049"
     x="238.87968"
     y="340.17755"
     transform="rotate(-15.079225)" />
  <rect
     style="fill:#090a59;fill-opacity:1;stroke-width:5.57885;stroke-linecap:round"
     id="rect47"
     width="366.23981"
     height="48.589108"
     x="329.22556"
     y="321.88614" />
  <ellipse
     style="fill:#090a59;fill-opacity:1;stroke-width:5.568;stroke-linecap:round"
     id="ellipse49"
     cx="563.69995"
     cy="468.30423"
     rx="201.73897"
     ry="169.70912" />
  <ellipse
     style="fill:#090a59;fill-opacity:1;stroke-width:5.568;stroke-linecap:round"
     id="path49"
     cx="459.69992"
     cy="468.30423"
     rx="201.73897"
     ry="169.70912" />
  <rect
     style="fill:#090a59;fill-opacity:1;stroke-width:5.568;stroke-linecap:round"
     id="rect6"
     width="19.095383"
     height="39.268929"
     x="-1015.2433"
     y="-122.45247"
     transform="matrix(-0.65480701,-0.75579612,-0.75579612,0.65480701,0,0)" />
  <rect
     style="fill:#090a59;fill-opacity:1;stroke-width:5.568;stroke-linecap:round"
     id="rect45"
     width="36.965347"
     height="50.09901"
     x="698.73267"
     y="644.83661" />
  <rect
     style="fill:#090a59;fill-opacity:1;stroke-width:5.568;stroke-linecap:round"
     id="rect7"
     width="20.898155"
     height="49.816021"
     x="-859.65448"
     y="547.20392"
     transform="matrix(-0.98041434,-0.196946,-0.196946,0.98041434,0,0)" />
  <rect
     style="fill:#090a59;fill-opacity:1;stroke-width:5.568;stroke-linecap:round"
     id="rect8"
     width="24.745237"
     height="52.90699"
     x="-470.75363"
     y="934.80505"
     transform="matrix(-0.95741891,0.28870231,0.28870231,0.95741891,0,0)" />
  <ellipse
     style="fill:#090a59;fill-opacity:1;stroke-width:5.568;stroke-linecap:round"
     id="path44-3"
     cx="749.95721"
     cy="831.81946"
     rx="21.960566"
     ry="16.035921" />
  <ellipse
     style="fill:#090a59;fill-opacity:1;stroke-width:5.568;stroke-linecap:round"
     id="path44"
     cx="274.11328"
     cy="829.85107"
     rx="21.960566"
     ry="16.035921" />
  <rect
     style="fill:#090a59;fill-opacity:1;stroke-width:5.568;stroke-linecap:round"
     id="rect44"
     width="43.801979"
     height="37.826733"
     x="269.68811"
     y="832.35645" />
  <rect
     style="fill:#090a59;fill-opacity:1;stroke-width:5.568;stroke-linecap:round"
     id="rect3"
     width="24.745237"
     height="52.90699"
     x="508.45886"
     y="639.5332"
     transform="rotate(16.780281)" />
  <rect
     style="fill:#090a59;fill-opacity:1;stroke-width:5.568;stroke-linecap:round"
     id="rect5"
     width="19.095383"
     height="39.268929"
     x="-345.70792"
     y="650.33923"
     transform="rotate(-49.094982)" />
  <rect
     style="fill:#090a59;fill-opacity:1;stroke-width:5.568;stroke-linecap:round"
     id="rect4"
     width="20.898155"
     height="49.816021"
     x="148.01166"
     y="749.6308"
     transform="rotate(-11.358426)" />
  <rect
     style="fill:#090a59;fill-opacity:1;stroke-width:5.568;stroke-linecap:round"
     id="rect46"
     width="45.881187"
     height="50.173267"
     x="279.96533"
     y="644.62872" />
  <rect
     style="fill:#090a59;fill-opacity:1;stroke-width:5.6127;stroke-linecap:round"
     id="rect1"
     width="480.55939"
     height="125.55446"
     x="284.05942"
     y="829.58417" />
  <rect
     style="fill:#090a59;fill-opacity:1;stroke-width:5.5854;stroke-linecap:round"
     id="rect2"
     width="409.56436"
     height="555.95544"
     x="307.60397"
     y="369.7178" />
  <path
     fill="#FF9AA3"
     d="M308.606 154.108C313.282 153.834 317.471 154.218 321.638 156.538C326.907 159.47 330.292 164.053 331.898 169.821C333.333 174.975 332.36 181.047 329.604 185.594C326.382 190.911 321.487 193.626 315.566 194.991C310.217 195.456 304.117 195.023 299.404 192.125C295.022 189.43 291.537 183.949 290.574 178.943C289.529 173.514 290.481 167.8 293.618 163.212C297.219 157.946 302.514 155.329 308.606 154.108Z"
     id="path2"
     style="stroke:#090a59;stroke-opacity:1;stroke-width:5;stroke-dasharray:none;fill:#484a89;fill-opacity:1" />
  <path
     fill="#FF9AA3"
     d="M710.38 153.61C715.237 153.21 719.659 153.602 724 155.987C729.142 158.812 733.417 163.738 734.933 169.45C736.299 174.594 735.436 180.512 732.821 185.111C729.522 190.913 724.591 193.858 718.291 195.645C713.16 196.561 708.14 195.808 703.5 193.438C698.611 190.941 695.114 186.181 693.551 180.979L693.34 180.25C692.291 176.737 692.116 172.853 693.146 169.306L693.394 168.5C694.02 166.382 694.745 164.483 695.98 162.632C699.351 157.582 704.581 154.842 710.38 153.61Z"
     id="path3"
     style="stroke:#090a59;stroke-opacity:1;stroke-width:5;stroke-dasharray:none;fill:#484a89;fill-opacity:1" />
  <path
     fill="#FF9AA3"
     d="M659.614 422.255L661.5 422.932C664.192 423.901 666.564 425.205 668.746 427.066C677.591 434.61 681.81 444.875 682.786 456.262C684.015 470.594 680.298 484.215 671.086 495.285C666.629 499.834 662.234 502.313 656.326 504.555C657.467 496.105 658.848 487.506 659.351 478.99C659.785 471.654 659.522 464.188 659.522 456.839L659.614 422.255Z"
     id="path4"
     style="stroke:#090a59;stroke-opacity:1;stroke-width:5;stroke-dasharray:none;fill:#484a89;fill-opacity:1" />
  <path
     fill="#FF9AA3"
     d="M363.306 423.238C363.774 423.189 363.419 423.196 364.309 423.64C364.551 450.309 363.436 476.99 367.352 503.453C361.482 501.888 357.591 499.037 353.055 495.2C345.259 487.117 341.737 478.043 340.74 466.935C339.521 453.354 342.512 438.832 351.458 428.25C352.254 427.308 353.627 425.371 354.626 424.736C356.484 423.554 361.103 423.433 363.306 423.238Z"
     id="path5"
     style="stroke:#090a59;stroke-opacity:1;stroke-width:5;stroke-dasharray:none;fill:#484a89;fill-opacity:1" />
  <path
     fill="#FF9AA3"
     d="M328.295 636.71L329.169 639.38C332.92 650.798 332.511 665.039 329.945 676.703C326.074 694.3 316.107 708.344 305.529 722.503C303.97 724.589 301.677 728.69 299.557 730.039L295.25 718.733C290.861 710.11 285.889 703.573 279.273 696.581C288.834 694.235 297.328 690.7 304.94 684.258C320.103 671.427 326.702 656.217 328.295 636.71Z"
     id="path6"
     style="stroke:#090a59;stroke-opacity:1;stroke-width:5;stroke-dasharray:none;fill:#484a89;fill-opacity:1" />
  <path
     fill="#FF9AA3"
     d="M698.365 632.807C698.622 645.237 700.396 655.871 706.547 666.75C715.087 681.854 728.467 690.983 744.996 695.456C739.499 702.315 734.844 709.585 731.008 717.5L727.054 727.59L726.71 727.509C716.308 715.524 706.324 703.279 699.418 688.868C693.757 677.052 691.292 663.508 693.374 650.47C694.341 644.412 696.35 638.578 698.365 632.807Z"
     id="path7"
     style="stroke:#090a59;stroke-opacity:1;stroke-width:5;stroke-dasharray:none;fill:#484a89;fill-opacity:1" />
  <path
     fill="#FF9AA3"
     d="M511.079 69.1664C515.572 68.9663 520.194 69.9782 524.037 72.3595C529.186 75.549 533.118 81.2563 534.334 87.1635C535.548 93.0612 533.87 99.6712 530.347 104.496C525.994 110.458 520.472 112.792 513.343 113.805C508.855 114.236 503.707 112.96 499.958 110.472C494.782 107.036 491.087 100.912 490.142 94.803C489.277 89.2163 490.745 82.4881 494.243 78.0231C498.603 72.4581 504.252 70.008 511.079 69.1664Z"
     id="path8"
     style="stroke:#090a59;stroke-opacity:1;stroke-width:5;stroke-dasharray:none;fill:#484a89;fill-opacity:1" />
  <path
     fill="#FF9AA3"
     d="M401.01 341.744L414.038 341.563C407.799 348.347 401.576 355.301 394.113 360.78C371.846 377.127 342.418 382.118 315.59 377.852C310.558 376.962 305.731 375.239 300.938 373.515L330.469 341.815L401.01 341.744Z"
     id="path9"
     style="stroke:#090a59;stroke-opacity:1;stroke-width:5;stroke-dasharray:none;fill:#484a89;fill-opacity:1" />
  <path
     fill="#FF9AA3"
     d="M723.255 203.654C723.653 203.644 723.383 203.618 723.992 204L695.984 269.056L631.439 269.092C630.944 268.944 631.274 269.074 630.556 268.5C639.787 251.745 657.777 239.224 673.247 228.756L692.119 216.178C698.211 212.431 705.167 209.379 710.785 204.992C711.777 204.218 714.288 204.606 715.584 204.589C717.958 204.558 720.153 204.346 722.469 203.834L723.255 203.654Z"
     id="path10"
     style="stroke:#090a59;stroke-opacity:1;stroke-width:5;stroke-dasharray:none;fill:#484a89;fill-opacity:1" />
  <path
     fill="#FF9AA3"
     d="M276.788 408.925C285.539 413.871 294.14 418.317 303.85 421.136C316.597 424.836 329.652 425.111 342.813 424.994C332.266 439.258 330.638 457.404 332.94 474.388C332.977 474.909 332.846 475.386 332.75 475.898C327.174 476.402 321.657 476.328 316.148 475.233C293.503 470.73 279.615 451.504 267.677 433.505C269.87 425.038 273.08 416.834 276.788 408.925Z"
     id="path11"
     style="stroke:#090a59;stroke-opacity:1;stroke-width:5;stroke-dasharray:none;fill:#484a89;fill-opacity:1" />
  <path
     fill="#FF9AA3"
     d="M747.464 410.943C748.602 411.711 749.011 413.587 749.507 414.88L754.121 428.797C754.538 430.253 755.518 432.541 755.55 433.981C755.576 435.188 754.672 436.747 754.151 437.84C752.008 442.331 749.049 446.561 746.038 450.506C737.378 461.848 725.425 470.65 711.75 474.908C704.752 477.087 697.49 478.01 690.25 478.952L689.544 478.25L690.222 474.94L690.549 472.383C692.697 454.636 689.839 438.441 678.649 424.205C703.153 425.386 725.402 421.977 747.464 410.943Z"
     id="path12"
     style="stroke:#090a59;stroke-opacity:1;stroke-width:5;stroke-dasharray:none;fill:#484a89;fill-opacity:1" />
  <path
     fill="#FF9AA3"
     d="M648.229 341.754L695.252 341.472L725.559 373.567C719.372 375.405 713.253 377.541 706.914 378.806C699.735 380.237 692.578 380.628 685.284 380.888L676.605 380.41C649.048 378.107 626.167 362.475 608.712 341.904L648.229 341.754Z"
     id="path13"
     style="stroke:#090a59;stroke-opacity:1;stroke-width:5;stroke-dasharray:none;fill:#484a89;fill-opacity:1" />
  <path
     fill="#FF9AA3"
     d="M299.322 201.074C305.08 203.606 308.925 204.658 315.267 204.481L344.77 223.816C360.072 234.117 374.744 243.699 386.514 258.235C389.316 261.697 392.248 265.179 394.084 269.269L322.357 269.393L299.322 201.074Z"
     id="path14"
     style="stroke:#090a59;stroke-opacity:1;stroke-width:5;stroke-dasharray:none;fill:#484a89;fill-opacity:1" />
  <path
     fill="#FF9AA3"
     d="M287.685 557.367C291.61 559.941 295.542 562.517 299.694 564.713C309.781 570.05 319.678 573.999 328.539 581.442C348.768 598.432 361.452 624.591 363.642 650.813C364.786 664.516 364.118 679.29 359.97 692.5C351.427 719.711 329.659 740.629 311.724 761.923L300.105 775.826C302.235 765.897 303.68 753.626 301.936 743.563C301.481 740.935 308.323 732.802 310.245 730.125C323.304 711.936 336.928 694.011 339.648 670.943C341.996 651.025 337.702 628.236 326.494 611.347C321.767 604.224 315.665 597.945 310.726 590.914C302.897 579.767 296.111 568.125 287.685 557.367Z"
     id="path15"
     style="stroke:#090a59;stroke-opacity:1;stroke-width:5;stroke-dasharray:none;fill:#484a89;fill-opacity:1" />
  <path
     fill="#FF9AA3"
     d="M591.112 341.733C592.173 341.718 595.999 341.282 596.743 341.654C597.313 341.939 598.336 343.44 598.813 343.972L606.186 352.002C617.683 363.807 629.791 374.091 644.948 380.87C672.963 393.398 702.639 391.117 730.802 380.346L744.296 402.972C736.124 406.953 728.01 409.974 719.25 412.413C703.182 416.035 686.532 416.67 670.172 414.819C635.697 410.918 602.108 392.446 578.894 366.897C571.787 359.075 566.103 350.084 559.493 341.855L591.112 341.733Z"
     id="path16"
     style="stroke:#090a59;stroke-opacity:1;stroke-width:5;stroke-dasharray:none;fill:#484a89;fill-opacity:1" />
  <path
     fill="#FF9AA3"
     d="M734.514 556.983L734.968 557.426C731.609 565.327 726.505 572.904 721.699 579.995C705.279 604.222 684.205 628.265 683.606 659.123C683.17 681.623 695.298 702.022 708.551 719.175C713.686 725.821 718.841 732.206 724.604 738.332C721.177 750.255 722.569 764.732 724.6 776.727L722.569 774.265L714.465 764.333L681.585 723.237C664.132 700.094 656.303 674.09 660.477 645.281C663.503 624.397 671.394 604.081 686.949 589.33C694.266 582.391 703.141 576.721 711.641 571.334C719.289 566.488 727.253 562.432 734.514 556.983Z"
     id="path17"
     style="stroke:#090a59;stroke-opacity:1;stroke-width:5;stroke-dasharray:none;fill:#484a89;fill-opacity:1" />
  <path
     fill="#FF9AA3"
     d="M458.834 341.756L465.329 341.581C458.784 350.363 452.359 359.228 444.918 367.293C429.067 384.469 408.967 398.557 387.165 407.062C366.609 415.08 342.261 419.155 320.289 415.78C309.732 414.158 299.923 410.823 290.167 406.539L280.861 401.561C284.46 394.195 290.135 387.011 295.133 380.501C311.74 387.097 328.289 389.258 346.069 387.623C367.125 385.688 388.478 376.857 404.608 363.204C412.09 356.871 418.467 349.453 424.701 341.928L458.834 341.756Z"
     id="path18"
     style="stroke:#090a59;stroke-opacity:1;stroke-width:5;stroke-dasharray:none;fill:#484a89;fill-opacity:1" />
  <path
     fill="#FF9AA3"
     d="M757.938 497.194L755.435 510.494C754.082 515.957 752.745 521.342 750.275 526.428C741.748 543.981 726.135 552.322 710.227 561.955C701.791 567.063 692.895 572.521 685.434 578.991C669.303 592.98 659.256 611.465 654.324 632.069C647.226 661.719 650.367 690.001 666.5 716.294C678.882 736.473 695.695 754.025 709.941 772.923C714.305 778.712 719.075 784.384 722.904 790.54L706.848 784.996L690.365 778.382C688.008 777.452 684.251 776.38 682.352 774.7C677.08 770.035 672.48 763.192 667.947 757.75C649.025 735.034 631.502 712.262 629.822 681.61C628.242 652.787 629.301 621.382 641.697 594.861C648.07 581.226 657.303 569.346 668.507 559.343C677.197 551.585 687.491 545.01 697.646 539.311L723.95 525.561C737.176 518.041 747.873 508.494 757.938 497.194Z"
     id="path19"
     style="stroke:#090a59;stroke-opacity:1;stroke-width:5;stroke-dasharray:none;fill:#484a89;fill-opacity:1" />
  <path
     fill="#FF9AA3"
     d="M512.28 125.383C521.659 135.075 527.596 148.229 532.378 160.653C545.565 194.909 552.024 232.547 554.081 269.095L513.75 268.979L471.317 269.049C471.457 259.885 472.864 250.565 473.99 241.469C477.194 215.601 481.983 190.253 490.676 165.617C495.887 150.847 501.738 137.181 512.28 125.383Z"
     id="path20"
     style="stroke:#090a59;stroke-opacity:1;stroke-width:5;stroke-dasharray:none;fill:#484a89;fill-opacity:1" />
  <path
     fill="#FF9AA3"
     d="M752.312 586.191C758.056 585.515 764.178 585.865 769.811 587.204C783.008 590.342 794.322 598.95 801.384 610.446C807.762 620.829 810.706 635.112 807.782 647.091C805.932 654.671 803.208 661.765 798.395 667.995C789.732 679.206 778.041 685.846 764.071 687.716C760.36 688.302 755.83 688.24 752.103 687.721L751.25 687.593C742.011 686.265 733.687 682.663 726.358 676.854C715.948 668.602 709.014 656.564 707.63 643.336C706.217 629.818 710.07 615.199 718.563 604.5C727.283 593.515 738.515 587.79 752.312 586.191Z"
     id="path21"
     style="stroke:#090a59;stroke-opacity:1;stroke-width:5;stroke-dasharray:none;fill:#484a89;fill-opacity:1" />
  <path
     fill="#FF9AA3"
     d="M263.807 494.058C274.855 505.771 285.852 516.693 299.623 525.281C308.531 530.837 318.135 533.805 327.361 538.57C353.041 551.835 374.191 574.679 385.155 601.456C388.588 609.841 391.17 618.479 392.728 627.409C394.539 637.78 394.868 648.549 394.992 659.054C395.193 676.126 395.172 693.191 388.399 709.187C379.715 729.696 366.47 746.38 351.9 762.953C348.823 766.453 345.646 770.886 341.883 773.599C338.995 775.681 335.426 776.86 332.153 778.189L316.352 784.624L299.102 791.254C313.881 768.859 334.369 750.555 350.14 728.905C356.467 720.219 362.079 710.822 365.984 700.788C372.841 683.173 374.749 661.76 371.691 643.112C366.57 611.89 349.113 583.348 322.046 566.605C312.956 560.982 302.705 557.527 294.008 551.209C286.865 546.02 280.257 539.289 275.69 531.704C269.153 520.846 265.722 506.462 263.807 494.058Z"
     id="path22"
     style="stroke:#090a59;stroke-opacity:1;stroke-width:5;stroke-dasharray:none;fill:#484a89;fill-opacity:1" />
  <path
     fill="#FF9AA3"
     d="M262.266 584.665C275.013 582.915 287.237 587.007 297.596 594.238C308.783 602.048 316.537 615.296 318.783 628.648C320.917 641.342 317.503 656.082 310 666.577C301.258 678.806 288.708 686.39 274.002 688.875C260.71 690.583 247.966 687.215 237.043 679.481C225.583 671.367 218.056 658.967 215.892 645.113C213.712 631.152 217.398 616.74 225.813 605.443C234.788 593.395 247.65 586.81 262.266 584.665Z"
     id="path23"
     style="stroke:#090a59;stroke-opacity:1;stroke-width:5;stroke-dasharray:none;fill:#484a89;fill-opacity:1" />
  <path
     fill="#FF9AA3"
     d="M758.52 448.443C759.463 453.227 759.615 457.999 759.887 462.853C760.103 466.718 760.49 470.741 760.186 474.604C759.766 479.943 756.245 484.285 753.15 488.445C746.268 497.696 737.695 506.399 728.165 512.917C720.511 518.151 711.935 521.931 703.698 526.129C690.044 533.087 675.868 541.322 664.392 551.523C656.243 558.767 648.278 567.142 642.208 576.203C627.77 597.756 622.678 622.659 621.116 648.082C620.163 663.6 619.634 680.448 622.55 695.75C627.883 723.736 647.419 747.432 665.772 768.191L651.29 761.491C633.784 752.208 618.005 739.746 608.502 722.005C604.281 714.126 601.225 705.764 599.9 696.897C598.448 687.18 599.135 676.813 599.097 666.996L598.65 621.733L598.442 606.813C598.429 606.008 598.119 603.394 598.38 602.887C599.021 601.643 601.585 599.655 602.617 598.585L614.376 585.888C632.791 564.681 645.728 540.872 653.747 513.96L658.75 512.508C672.036 508.36 679.655 499.824 685.93 487.896L697.507 486.674C716.465 484.268 733.559 476.735 746.893 462.805C751.15 458.357 754.751 453.302 758.52 448.443Z"
     id="path24"
     style="stroke:#090a59;stroke-opacity:1;stroke-width:5;stroke-dasharray:none;fill:#484a89;fill-opacity:1" />
  <path
     fill="#FF9AA3"
     d="M264.877 444.822C271.381 455.451 280.077 465.085 290.106 472.492C303.724 482.55 318.793 486.5 335.479 484.006C337.25 485.514 338.26 489.318 339.489 491.421C346.475 503.383 356.892 509.873 370.046 513.314C371.285 519.765 373.751 526.125 376.197 532.201C383.98 551.539 395.917 569.455 409.534 585.187L419.624 596.007C421.29 597.718 423.669 599.644 425.011 601.585C426.289 603.434 425.847 680.136 425.365 688.509C425.042 694.111 424.134 699.645 422.697 705.066C415.944 730.551 396.248 747.71 374.295 760.531C369.645 762.901 364.269 766.237 359.184 767.384C379.159 743.573 398.988 719.175 402.949 687.236C403.965 679.046 403.481 670.464 403.483 662.211C403.487 648.191 402.973 634.416 400.043 620.656C392.945 587.32 371.235 555.992 342.506 537.527C332.872 531.334 322.898 527.95 312.749 523.022C292.901 513.385 275.933 496.892 262.584 479.527C261.653 468.098 262.893 456.09 264.877 444.822Z"
     id="path25"
     style="stroke:#090a59;stroke-opacity:1;stroke-width:5;stroke-dasharray:none;fill:#484a89;fill-opacity:1" />
  <path
     fill="#FF9AA3"
     d="M764.549 823.274C766.349 823.65 768.119 825.101 769.611 826.138C774.032 829.211 778.298 832.485 782.358 836.021C806.979 857.463 825.528 886.405 833.75 918.093C836.725 929.56 838.131 941.323 838.912 953.12L798.25 953.171L723.648 953.213L723.815 921.181C723.858 913.385 723.733 905.509 724.609 897.75C727.883 868.735 744.698 843.701 764.549 823.274Z"
     id="path26"
     style="stroke:#090a59;stroke-opacity:1;stroke-width:5;stroke-dasharray:none;fill:#484a89;fill-opacity:1" />
  <path
     fill="#FF9AA3"
     d="M256.875 822.91C259.872 825.106 262.504 827.7 265.13 830.316C284.929 850.038 297.889 878.671 300.517 906.425C301.96 921.668 301.068 937.68 301.078 953.013L229.75 953.208L184.883 953.12L186.467 936.656C187.709 928.247 189.101 919.663 191.504 911.5C202.558 873.954 225.892 845.913 256.875 822.91Z"
     id="path27"
     style="stroke:#090a59;stroke-opacity:1;stroke-width:5;stroke-dasharray:none;fill:#484a89;fill-opacity:1" />
  <path
     fill="#FF9AA3"
     d="M523.896 125.054C539.148 126.63 554.175 128.38 568.75 133.452C612.008 148.504 649.444 178.657 669.546 220.345L642.7 241.088C633.472 249.511 626.245 258.768 619.21 269.031C613.526 269.726 606.969 269.031 601.195 269.02L562.595 269.148C562.689 254.253 560.321 238.339 557.784 223.68C551.679 188.411 543.009 155.697 523.896 125.054Z"
     id="path28"
     style="stroke:#090a59;stroke-opacity:1;stroke-width:5;stroke-dasharray:none;fill:#484a89;fill-opacity:1" />
  <path
     fill="#FF9AA3"
     d="M500.033 124.72L500.616 124.693C501.065 125.559 496.433 132.111 495.614 133.449C483.502 153.249 477.182 177.048 472.288 199.528C467.356 222.177 463.681 245.844 462.405 269.035L404.486 269.132C401.944 265.226 399.702 261.166 396.954 257.389C393.179 252.198 388.854 247.535 384.505 242.831C376.139 234.292 365.98 227.489 356.251 220.616C360.695 210.39 366.409 200.995 373.2 192.172C397.929 160.046 433.882 136.917 473.558 128.253C482.221 126.361 491.237 125.842 500.033 124.72Z"
     id="path29"
     style="stroke:#090a59;stroke-opacity:1;stroke-width:5;stroke-dasharray:none;fill:#484a89;fill-opacity:1" />
  <path
     fill="#FF9AA3"
     d="M324.998 277.876L693.688 277.849L693.663 332.637L331.825 332.672L331.807 311.82C331.793 307.421 332.282 302.174 330.888 297.985L324.998 277.876Z"
     id="path30"
     style="stroke:#090a59;stroke-opacity:1;stroke-width:5;stroke-dasharray:none;fill:#484a89;fill-opacity:1" />
  <path
     fill="#090A59"
     d="M572.136 295.513C573.811 295.429 575.372 295.464 577 295.918C579.447 296.601 581.614 298.191 582.837 300.447C584.123 302.819 584.397 305.88 583.563 308.449C582.339 312.216 580.043 313.633 576.621 315.244C575.291 315.436 574.087 315.597 572.758 315.241C569.897 314.472 567.514 312.891 566.064 310.25C564.725 307.811 564.552 304.513 565.485 301.902C566.743 298.38 568.878 297.017 572.136 295.513Z"
     id="path31" />
  <path
     fill="#090A59"
     d="M448.762 295.513C450.22 295.53 451.783 295.853 453.182 296.25C455.576 296.93 457.815 298.968 458.896 301.193C460.089 303.648 460.27 306.396 459.264 308.961C457.891 312.461 455.217 314.094 451.931 315.502C450.44 315.573 448.753 315.754 447.307 315.318C444.922 314.598 442.5 312.27 441.349 310.113C440.204 307.969 440.167 305.204 440.936 302.931C442.319 298.846 445.097 297.24 448.762 295.513Z"
     id="path32" />
  <path
     fill="#090A59"
     d="M511.303 295.574C512.616 295.707 513.972 295.833 515.237 296.225C517.559 296.945 519.761 298.708 520.859 300.893C522.238 303.636 522.405 306.756 521.236 309.615C519.863 312.97 517.152 314.379 513.947 315.642C511.523 315.637 509.497 315.588 507.316 314.436C505.184 313.311 503.309 311.268 502.689 308.891C502.01 306.283 502.272 303.165 503.608 300.817C505.406 297.657 507.886 296.522 511.303 295.574Z"
     id="path33" />
  <path
     fill="#090A59"
     d="M387.691 296.031C389.429 295.996 391.156 295.953 392.826 296.504C395.38 297.346 397.224 299.175 398.346 301.597C399.543 304.182 399.671 306.65 398.652 309.306C397.323 312.77 394.956 314.187 391.668 315.555C389.577 315.8 387.296 315.899 385.294 315.125C382.958 314.222 381.053 312.271 380.043 310C379.084 307.845 379.149 304.713 380.059 302.559C381.672 298.744 384.018 297.456 387.691 296.031Z"
     id="path34" />
  <path
     fill="#090A59"
     d="M633.115 295.584C634.844 295.517 636.585 295.584 638.25 296.113C640.697 296.89 643.07 299.278 644.13 301.567C645.273 304.034 645.61 306.871 644.506 309.431C643.07 312.758 640.255 314.305 637.041 315.548C635.45 315.592 633.832 315.681 632.296 315.191C629.429 314.275 626.891 312.26 625.637 309.498C624.59 307.193 624.533 304.066 625.593 301.75C627.25 298.13 629.633 296.959 633.115 295.584Z"
     id="path35" />
  <path
     fill="#FF9AA3"
     d="M475.547 341.501L549.716 341.413C553.201 347.463 557.488 353.306 561.693 358.89C576.275 378.259 593.119 393.811 614.539 405.412C626.016 411.627 638.543 416.208 651.041 419.898L650.949 460.911C650.965 469.52 651.206 478.216 650.334 486.791C648.947 500.437 645.383 514.647 640.46 527.434C623.254 572.129 584.651 610.795 541.125 630.203C531.862 633.847 521.371 637.006 511.33 636.985C505.097 636.973 498.355 635.192 492.424 633.363C466.556 625.385 445.062 609.262 426.126 590.359C398.717 562.998 377.91 527.65 373.905 488.611C372.904 478.849 373.03 468.953 372.995 459.151L372.932 420.751C378.32 419.516 383.601 417.489 388.77 415.543C412.635 406.558 434.677 391.293 451.759 372.371C460.487 362.702 467.893 352.011 475.547 341.501Z"
     id="path36"
     style="stroke:#090a59;stroke-opacity:1;stroke-width:5;stroke-dasharray:none;fill:#484a89;fill-opacity:1" />
  <path
     fill="#090A59"
     d="M498.46 531.006L523.25 531.014C524.275 532 525.059 532.407 525.003 534C524.944 535.677 523.579 536.678 522.426 537.677C517.121 540.42 509.609 540.818 503.846 539.302C501.307 538.634 499.051 537.707 497.68 535.375C497.533 533.282 497.405 532.913 498.46 531.006Z"
     id="path37" />
  <path
     fill="#090A59"
     d="M577.262 414.212C587.564 413.714 600.695 415.631 609.814 420.789C611.741 421.879 612.323 422.983 612.936 425C612.79 425.931 612.72 426.927 612.105 427.694C611.358 428.626 610.038 429.148 608.889 429.3C607.605 429.47 604.454 427.516 603.114 426.96C599.723 425.551 596.176 424.329 592.592 423.513C583.761 421.502 575.168 422.235 566.456 424.322C561.607 426.22 557.232 427.924 553.151 431.29C550.497 433.478 547.764 439.574 544.743 440.602C543.662 440.97 542.425 440.8 541.449 440.189C540.315 439.48 539.81 438.402 539.574 437.124C539.108 434.595 541.848 431.37 543.404 429.551C552.061 419.43 564.328 415.249 577.262 414.212Z"
     id="path38" />
  <path
     fill="#090A59"
     d="M440.363 413.723C443.186 413.523 446.054 413.744 448.87 413.987C460.385 414.981 472.107 420.219 479.592 429.184C481.256 431.176 484.125 434.761 483.5 437.5C483.141 439.073 482.464 439.362 481.285 440.279C480.107 440.495 477.875 441.059 476.82 440.19C475.664 439.238 474.665 437.117 473.766 435.868C470.829 431.787 467.071 428.903 462.717 426.496C450.888 420.679 436.868 420.673 424.562 425.188C420.766 426.58 417.053 429.888 412.926 429.153C412.247 428.622 411.539 428.13 411.176 427.312C410.674 426.183 410.825 424.531 411.401 423.476C413.575 419.49 422.245 416.776 426.443 415.654C431.018 414.431 435.654 414.045 440.363 413.723Z"
     id="path39" />
  <path
     fill="#090A59"
     d="M612.885 450.415L614.081 450.739C615.57 451.193 616.909 451.971 617.435 453.547C617.843 454.767 617.656 456.682 617.075 457.821C614.468 462.935 607.517 465.913 602.027 464.874C600.633 464.61 597.089 462.669 596.052 463C596.463 465.649 596.904 468.696 595.904 471.25C594.776 474.131 592.124 476.411 589.25 477.457C586.754 478.366 583.815 478.412 581.406 477.24C578.962 476.052 576.82 473.817 575.975 471.203C574.686 467.214 576.174 463.704 578.059 460.261C576.041 460.793 574.279 461.417 572.477 462.476C570.535 463.616 567.892 466.169 565.5 465.875C563.783 465.664 563.325 465.064 562.323 463.75C562.192 462.982 562.083 462.259 562.281 461.486C562.999 458.674 566.739 456.014 569.108 454.649C576.73 450.26 586.398 449.62 594.5 453.063C597.4 454.294 600.654 456.388 603.695 457.003C608.544 457.985 609.14 452.785 612.477 450.659L612.885 450.415Z"
     id="path40" />
  <path
     fill="#090A59"
     d="M404.884 449.881C411.035 450.033 411.454 456.304 417.556 456.424C421.064 456.494 424.455 454.852 427.667 453.611C433.286 451.441 438.2 449.937 444.338 450.594C450.099 451.211 458.03 454.945 461.498 459.75C462.536 461.187 462.441 462.009 462.25 463.704C461.348 464.747 460.943 465.444 459.547 465.866C456.721 466.72 452.226 463.28 449.709 461.943L448.25 461.671C448.172 462.326 448.159 462.892 448.26 463.546C448.781 466.912 449.069 470.251 446.995 473.159C445.127 475.778 441.311 478.445 437.984 478.603C434.798 478.754 430.276 476.648 428.242 474.228C425.335 470.766 425.408 467.432 425.847 463.231C419.89 464.659 414.922 466.166 409.226 462.855C405.974 460.965 403.571 457.898 402.692 454.25C402.943 452.178 403.493 451.409 404.884 449.881Z"
     id="path41" />
  <path
     fill="#090A59"
     d="M496.872 568.161C501.155 567.905 505.525 568.552 509.75 569.205C514.285 569.906 518.802 568.306 523.392 568.272C531.169 568.216 536.628 571.28 542.027 576.632C537.735 581.969 532.831 584.944 526.378 586.982C519.655 589.388 510.266 589.492 503.294 588.165C494.873 586.563 488.823 584.111 482.75 577.878C482.338 576.514 482.194 576.297 483.007 575C484.797 572.144 491.948 569.243 495.216 568.508L496.872 568.161Z"
     id="path42" />
  <path
     fill="#FF9AA3"
     d="M434.374 622.137C452.592 642.754 482.372 661.631 510 665.18L512.22 665.38C516.924 665.293 522.408 663.656 526.891 662.265C550.712 654.876 572.843 639.648 590.087 621.902L590.219 666.34C590.233 678.517 589.544 691.056 592.22 703.009C605.528 762.426 668.029 777.771 716.854 797.935C730.464 803.555 744.725 810.508 757.1 818.449C751.057 824.93 744.981 831.361 739.78 838.56C726.576 856.837 717.543 880.025 715.591 902.49C714.991 909.39 715.175 916.375 715.173 923.295L715.215 953.37L613.326 953.028C616.577 948.86 620.484 945.049 624.168 941.261L650.46 915.25C653.808 911.843 656.746 908.44 656.575 903.386C656.489 900.821 655.77 898.633 654.279 896.535C651.527 892.663 647.237 889.2 643.842 885.835L614.608 857.699L638.9 833.176C643.256 828.898 648.423 824.774 652.419 820.206C653.677 818.767 654.734 817.105 655.245 815.25C655.864 813.002 656.073 809.091 654.8 807.082L654.404 806.5L653.341 804.964C649.005 799.065 641.998 793.66 636.753 788.468L623.183 774.982C620.858 772.679 618.504 769.919 615.913 767.931C614.308 766.699 612.518 765.7 610.473 765.502C606.997 765.164 603.995 766.655 601.469 768.93L573.739 796.275C570.925 799.16 567.029 802.25 564.947 805.652C563.922 807.327 563.618 809.46 563.566 811.393C563.498 813.969 563.95 817.136 565.381 819.337C568.269 823.783 573.967 827.937 577.842 831.733L603.712 857.613L601.28 859.665C594.78 865.416 588.876 872.096 582.697 878.208L571.634 889.059C569.573 891.081 567.184 893.138 565.533 895.514C563.856 897.927 563.064 900.58 562.907 903.5C562.746 906.489 563.051 909.173 564.583 911.808C567.132 916.19 572.861 920.704 576.469 924.331L604.2 952.805C601.571 954.05 525.48 952.94 515.45 952.888C518.896 948.495 523.112 944.608 527.008 940.612L544.378 922.898C547.772 919.551 552.044 916.173 554.797 912.3C556.34 910.128 556.873 907.404 556.994 904.796C557.116 902.151 556.851 899.441 555.439 897.146C552.643 892.603 547.18 888.348 543.375 884.553L516.995 857.661C519.905 853.966 523.59 850.635 526.905 847.286L545.893 828.321C550.712 823.623 555.89 819.569 556.007 812.25C556.07 808.343 555.196 805.551 552.464 802.737L530.54 780.761C526.274 776.419 521.689 770.661 516.75 767.13C515.249 766.056 513.726 765.419 511.857 765.453C509.939 765.489 508.256 766.397 506.793 767.594C501.557 771.88 496.778 777.406 491.98 782.206L471.409 802.351C468.44 805.327 467.426 808.092 467.441 812.266C467.452 815.207 468.01 817.612 469.607 820.126C471.958 823.826 476.312 827.182 479.419 830.323L506.747 857.57C504.976 860.596 500.951 863.693 498.424 866.2L475.05 889.528C472.729 891.858 467.462 896.068 466.243 898.97C466.047 899.437 466.07 899.968 465.998 900.47C465.516 903.811 465.5 908.055 467.183 911.068C469.501 915.221 474.334 919.076 477.717 922.469C487.462 932.243 498.608 941.926 506.937 952.909L417.503 953.019C425.975 942.963 435.828 933.815 445.157 924.559C448.852 920.893 453.767 916.93 456.649 912.624C458.256 910.224 459.082 907.475 459.124 904.594C459.158 902.231 458.757 899.563 457.529 897.5C456.155 895.191 453.982 893.272 452.102 891.379L442.277 881.52L418.756 857.49L444.382 831.859C448.469 827.803 453.799 823.551 456.927 818.75C458.187 816.815 458.602 815.064 458.652 812.787C458.749 808.35 457.675 805.068 454.591 801.809L432.195 779.43C428.372 775.635 424.239 770.564 419.796 767.571C417.525 766.042 415.656 765.422 412.898 765.42C410.563 765.418 408.381 766.046 406.403 767.297C401.183 770.601 396.257 776.749 391.808 781.128L369.935 802.434C367.172 805.214 365.256 807.677 365.305 811.757C365.333 814.051 365.59 816.364 366.887 818.321C369.7 822.564 375.387 826.388 379.112 829.954L407.718 857.94L381.142 883.882C376.667 888.302 370.851 893.099 367.388 898.316C366.128 900.214 365.535 902.08 365.46 904.344C365.382 906.691 365.582 908.791 366.913 910.793C368.348 912.953 370.606 914.744 372.475 916.532L382.811 926.594L408.649 952.924L309.557 953.011C309.551 939.077 310.194 924.787 309.381 910.897C307.873 885.129 298.612 859.613 283.406 838.765C277.983 831.33 271.644 824.62 265.448 817.835C281.72 807.198 300.157 799.823 318.218 792.839L341.048 783.798C357.307 777.589 373.952 771.266 388.594 761.717C395.044 757.51 400.967 752.358 406.58 747.091C421.463 733.126 431.462 713.534 433.595 693.17C434.493 684.593 434.015 675.605 434.024 666.977L434.374 622.137Z"
     id="path43"
     style="stroke:#090a59;stroke-opacity:1;stroke-width:5;stroke-dasharray:none;fill:#484a89;fill-opacity:1" />
</svg>
