<?xml version="1.0" encoding="UTF-8" standalone="no"?>
<svg
   width="1024"
   height="1024"
   version="1.1"
   id="svg28"
   sodipodi:docname="open.svg"
   inkscape:version="1.3.2 (091e20ef0f, 2023-11-25)"
   xmlns:inkscape="http://www.inkscape.org/namespaces/inkscape"
   xmlns:sodipodi="http://sodipodi.sourceforge.net/DTD/sodipodi-0.dtd"
   xmlns="http://www.w3.org/2000/svg"
   xmlns:svg="http://www.w3.org/2000/svg">
  <defs
     id="defs28" />
  <sodipodi:namedview
     id="namedview28"
     pagecolor="#ffffff"
     bordercolor="#000000"
     borderopacity="0.25"
     inkscape:showpageshadow="2"
     inkscape:pageopacity="0.0"
     inkscape:pagecheckerboard="0"
     inkscape:deskcolor="#d1d1d1"
     inkscape:zoom="0.47265625"
     inkscape:cx="512"
     inkscape:cy="510.94215"
     inkscape:window-width="1440"
     inkscape:window-height="831"
     inkscape:window-x="0"
     inkscape:window-y="0"
     inkscape:window-maximized="1"
     inkscape:current-layer="svg28" />
  <path
     d="M214.278 855.812C196.639 842.715 180.39 825.52 165.991 809.011C132.146 770.207 106.038 726.999 87.21 679.102C83.1164 668.688 78.9489 658.155 75.7169 647.439C68.4022 623.186 63.5329 597.988 59.8656 572.944C56.9695 553.166 56.4547 532.861 56.4355 512.901C56.3967 472.663 61.0016 432.037 71.3198 393.084C85.8148 338.362 111.737 286.174 145.581 240.874C218.857 142.797 328.881 77.1168 450.134 59.6301C568.859 42.5079 688.853 75.4441 784.458 147.252C879.692 218.781 946.598 329.122 963.495 447.25C966.621 469.105 967.535 490.939 967.511 512.99C967.47 551.041 963.521 589.324 954.283 626.298C951.435 637.698 947.648 648.667 943.856 659.772L934.492 685.521L921.818 712.851C917.754 721.303 913.735 729.856 909.066 737.994C900.055 753.701 889.629 768.552 878.713 782.982C856.923 811.787 833.395 838.488 806.036 862.171L805.992 872.998L820.881 872.906C824.437 872.917 828.387 872.461 831.618 874.207C833.778 875.374 835.414 877.268 836.081 879.632C837.268 883.841 836.653 889.597 836.665 893.963L836.673 923.913L836.732 959.152C836.666 960.593 836.63 962.275 835.844 963.528C834.387 965.85 831.711 967.971 828.93 968.31C824.869 968.805 820.24 968.406 816.124 968.405L788.776 968.361L700.248 968.383L394.527 968.426L257.875 968.407L215.642 968.482C208.989 968.497 201.601 969.133 195.016 968.366C192.945 968.125 190.89 967.068 189.348 965.701C186.976 963.597 186.721 961.754 186.626 958.637L186.732 907.5L186.612 890.037C186.596 887.352 186.291 884.224 186.704 881.583C187.047 879.391 187.747 877.451 189.362 875.878C193.661 871.69 206.177 873.294 212.11 873.317C212.347 867.223 212.718 861.75 214.278 855.812Z"
     id="path2" />
  <path
     fill="#FEFEFE"
     d="M406.607 180.535C408.258 180.484 409.877 180.417 411.462 180.962C413.978 181.828 416.007 183.821 417.024 186.278C419.176 191.48 414.373 201.445 412.734 206.602C411.797 209.549 411.205 212.785 409.98 215.607C408.796 218.334 406.43 219.624 403.789 220.636C402.254 220.674 400.52 220.665 399.019 220.343C396.747 219.857 394.558 217.468 393.556 215.48C392.902 214.183 392.541 212.754 392.606 211.296C392.799 207.014 395.108 201.977 396.449 197.901C397.661 194.221 398.553 190.397 399.888 186.764C401.157 183.314 403.421 181.992 406.607 180.535Z"
     id="path3" />
  <path
     fill="#FEFEFE"
     d="M339.253 737.335C342.488 737.479 355.882 752.054 359.039 755.228L340.852 772.837L340 772.982C337.52 771.619 335.517 769.087 333.51 767.091L321.645 755.405L339.253 737.335Z"
     id="path4" />
  <path
     fill="#FEFEFE"
     d="M433.26 334.519C434.573 334.44 436.349 334.181 437.591 334.69C441.92 336.461 445.897 345.036 448.504 349C452.447 354.998 457.354 361.01 460.25 367.585L459.949 368.357L457.625 368.506L429.031 368.508L429.595 338.25C430.632 336.554 431.66 335.68 433.26 334.519Z"
     id="path5" />
  <path
     fill="#FEFEFE"
     d="M588.682 334.411C590.855 334.549 592.861 335.139 594.487 336.654C595.749 337.828 596.498 339.12 596.848 340.807C597.54 344.139 596.814 348.657 596.768 352.098L596.943 368.512L573.75 368.494L564.319 368.425L564.53 367.869L564.875 367C567.399 360.314 573.234 353.454 577.29 347.555C579.591 344.209 581.726 340.269 584.427 337.267C585.578 335.987 587.172 335.189 588.682 334.411Z"
     id="path6" />
  <path
     fill="#FEFEFE"
     d="M683.871 734.436L686.5 734.523C689.819 736.481 702.174 748.088 703.676 751.5C703.647 752.466 703.658 753.407 703.212 754.292C702.069 756.564 699.558 758.623 697.767 760.431L686.35 771.755L685.419 771.599C681.997 770.918 668.824 756.258 666.394 752.752C670.308 746.264 678.236 739.585 683.871 734.436Z"
     id="path7" />
  <path
     fill="#FEFEFE"
     d="M455.039 733.727L474.742 754.107L454.768 773.991L434.953 754.423L455.039 733.727Z"
     id="path8" />
  <path
     fill="#FEFEFE"
     d="M351.098 344.717C364.702 346.327 377.273 350.384 389.94 355.441C393.222 356.751 396.868 357.808 399.947 359.516C404.217 361.884 408.254 365.293 412.029 368.382L396.537 368.465L396.043 368.606L395.25 368.858C394.435 369.112 393.614 369.354 392.853 369.75C388.16 372.187 386.345 378.695 384.702 383.322L351.098 344.717Z"
     id="path9" />
  <path
     fill="#FEFEFE"
     d="M673.911 343.132L674.508 343.5L639.21 383.582C636.056 376.226 634.686 371.982 626.812 368.809C622.018 367.817 616.093 368.383 611.133 368.037C620.517 358.04 634.9 354.604 647.543 350.638C656.298 347.892 664.952 345.177 673.911 343.132Z"
     id="path10" />
  <path
     fill="#FEFEFE"
     d="M569.2 735.332C571.216 735.985 572.322 736.964 573.796 738.475L582.554 747.628C584.542 749.676 586.964 751.8 588.534 754.178C589.105 755.045 589.339 755.689 589.325 756.75C587.929 759.721 583.883 762.406 581.505 764.75C577.769 768.434 574.359 772.984 569.992 775.916C565.277 774.512 560.773 768.301 557.167 764.981C555.1 763.079 550.938 760.209 549.678 757.755C549.183 756.79 549.462 755.735 549.705 754.75C553.218 750.553 557.112 746.699 560.945 742.797C563.512 740.184 566.026 737.194 569.2 735.332Z"
     id="path11" />
  <path
     fill="#FEFEFE"
     d="M511.601 333.465C513.222 333.461 514.681 333.592 516.133 334.349C519.395 336.049 522.732 342.995 524.835 346.243L532.573 357.875C534.986 361.373 537.211 364.271 538.66 368.312C537.064 368.914 533.98 368.529 532.215 368.533L514.75 368.569C510.189 368.577 490.334 369.417 487.861 368.022C487.868 367.252 487.881 366.517 488.116 365.776C488.79 363.652 490.446 361.522 491.687 359.679L498.25 350.019C501.136 345.679 503.719 340.381 507.188 336.548C508.432 335.174 509.988 334.33 511.601 333.465Z"
     id="path12" />
  <path
     fill="#FEFEFE"
     d="M565.416 152.566C571.778 152.291 577.082 153.733 582.675 156.687C590.497 160.819 598.213 169.838 600.808 178.374C602.351 183.446 602.01 189.329 599.339 193.975C596.602 198.735 591.732 201.106 586.631 202.437C581.206 202.946 576.46 202.32 571.5 200.036C562.776 196.019 555.163 187.215 552.058 178.159C550.175 172.663 549.949 167.146 552.662 161.87C555.438 156.472 559.91 154.273 565.416 152.566Z"
     id="path13" />
  <path
     fill="#FEFEFE"
     d="M502.074 501.536C503.85 501.381 505.723 501.173 507.458 501.694C509.616 502.342 511.962 504.03 512.863 506.158C513.803 508.381 513.842 511.393 513.919 513.767L514.182 525.802C514.821 564.659 511.485 602.662 498.944 639.699C494.933 651.547 490.259 663.13 484.848 674.409C483.153 677.943 481.49 682.171 479.017 685.202C478.138 686.279 477 686.88 475.776 687.486C473.87 687.594 471.676 687.755 469.781 687.475C467.614 687.154 465.333 685.228 464.25 683.387C461.126 678.078 464.66 673.572 467.065 668.854C486.396 630.941 494.439 586.318 495.019 543.994L494.862 520.203C494.819 516.463 494.224 511.384 495.331 507.825C496.407 504.365 499.031 503.052 502.074 501.536Z"
     id="path14" />
  <path
     fill="#FEFEFE"
     d="M416.631 399.586L451.013 399.518L517.238 399.516L576.837 399.53L609 399.606C610.35 399.656 611.741 399.847 612.966 400.447C614.782 401.337 616.572 403.41 617.174 405.339C617.997 407.979 617.55 411.579 616.137 413.951C614.87 416.079 613.339 416.829 611.029 417.487C591.414 417.644 418.462 418.832 414.25 416.955C412.052 415.975 410.268 414.21 409.556 411.893C408.764 409.317 408.814 406.315 410.146 403.924C411.564 401.379 413.995 400.422 416.631 399.586Z"
     id="path15" />
  <path
     fill="#FEFEFE"
     d="M414.328 451.224L460.726 451.317L539.324 451.068L591.358 451.05C600.97 451.061 611.09 450.438 620.628 451.63C622.7 453.104 624.688 454.731 625.356 457.314C625.875 459.319 625.816 462.346 624.75 464.172C623.178 466.867 620.995 467.785 618.077 468.474L486.015 468.405L439.039 468.469L414.559 468.421C412.987 468.342 411.367 468.075 409.993 467.267C407.762 465.954 406.287 463.838 405.813 461.287C405.39 459.013 405.878 456.633 407.239 454.75C409.055 452.239 411.407 451.663 414.328 451.224Z"
     id="path16" />
  <path
     fill="#FF9AA3"
     d="M510.627 184.195C519.392 183.506 528.629 186.558 535.644 191.764C543.782 197.802 549.964 207.518 551.375 217.642C552.765 227.615 550.302 237.609 544.182 245.622C536.89 255.171 527.144 259.948 515.422 261.543C505.175 261.622 495.82 259.867 487.619 253.262C480.085 247.194 474.337 237.69 473.344 227.977C472.314 217.907 475.086 207.097 481.662 199.25C489.336 190.094 498.742 185.231 510.627 184.195Z"
     id="path17" />
  <path
     fill="#FEFEFE"
     d="M520.964 101.136C528.561 100.051 538.762 102.385 546.242 104.127C579.041 111.763 610.328 132.845 628.194 161.718C647.589 193.059 655.246 230.057 646.702 266.222C643.822 278.412 639.406 290.818 633.351 301.804C631.214 305.683 628.54 309.374 626.091 313.068C624.163 315.975 622.387 319.552 619.372 321.406C617.752 321.458 616.008 321.585 614.409 321.283C611.876 320.806 610.075 319.455 608.75 317.257C607.299 314.852 607.085 311.333 607.852 308.658C609.133 304.19 613.063 299.755 615.412 295.702C620.017 287.755 624.071 279.102 626.566 270.244C635.297 239.257 631.835 205.278 615.959 177.195C600.271 149.446 573.685 130.331 542.828 122.745C538.59 121.704 534.359 120.986 530.011 120.603C526.865 120.326 523.263 120.4 520.25 119.499C518.107 118.859 515.535 116.252 514.533 114.298C513.425 112.137 513.271 109.532 514.107 107.25C515.278 104.056 518.135 102.623 520.964 101.136Z"
     id="path18" />
  <path
     fill="#FEFEFE"
     d="M261.251 834.609L338.056 834.516L490.004 834.483L675.547 834.508L764.28 834.47C766.397 834.521 767.781 834.674 769.586 835.844C771.769 837.26 773.514 839.665 773.985 842.25C774.397 844.515 773.808 846.682 772.499 848.548C770.872 850.868 768.853 852.029 766.124 852.589L258.124 852.425C255.884 851.127 253.453 849.064 252.693 846.472C252.043 844.253 252.287 841.174 253.571 839.25C255.593 836.222 257.796 835.365 261.251 834.609Z"
     id="path19" />
  <path
     fill="#FEFEFE"
     d="M563.798 502.221L586.569 502.853C597.464 504.456 595.968 514.752 596.855 523.308C598.498 539.164 602.075 554.702 606.451 570C615.859 602.893 630.032 635.12 648.45 664C653.97 672.656 660.299 680.714 666.438 688.93L654.123 688.994L599.421 689.379C585.488 663.789 573.909 637.601 566.354 609.353C559.173 582.507 555.869 554.673 553.193 527.055C552.746 522.444 552.335 517.794 552.387 513.157C552.4 511.989 552.207 509.748 552.549 508.672C552.805 507.869 554.313 506.081 554.919 505.426C557.416 502.729 560.366 502.463 563.798 502.221Z"
     id="path20" />
  <path
     fill="#FEFEFE"
     d="M224.54 886.592C241.962 885.525 259.875 886.319 277.351 886.364L369.388 886.443L685.912 886.522L765.833 886.508L791.281 886.512C795.2 886.518 800.479 885.839 804.113 887.226C806.522 888.145 808.723 890.318 809.594 892.744C810.471 895.187 810.368 898.534 809.12 900.837C807.728 903.406 805.728 904.648 803.01 905.489L690.966 905.591L476.279 905.557L305.72 905.553L251.437 905.498C243.036 905.484 234.219 906.017 225.856 905.382C224.742 905.298 223.627 905.002 222.592 904.588C220.244 903.648 218.213 901.56 217.266 899.213C216.467 897.232 216.32 894.832 217.156 892.853C218.651 889.311 221.151 887.978 224.54 886.592Z"
     id="path21" />
  <path
     fill="#FEFEFE"
     d="M353.143 286.869C357.877 300.636 364.559 313.109 373.327 324.734C375.495 327.61 378.017 330.186 380.299 332.969C368.222 330.57 355.902 329.601 343.675 328.19C337.282 327.452 329.686 325.835 323.343 326.373C321.26 326.55 319.176 327.51 317.448 328.646C315.303 330.057 313.842 331.91 313.335 334.454C312.722 337.528 313.317 340.774 315.089 343.371C318.012 347.655 323.917 351.389 327.902 354.842L358.732 381.055C364.948 386.423 371.368 391.825 377.014 397.797C374.919 408.48 373.841 419.29 380.144 428.886C382.492 432.461 386.25 435.548 389.678 438.056C381.11 442.057 374.066 445.463 370.48 455C367.846 462.007 367.315 470.862 370.566 477.75C371.919 480.616 373.822 483.159 376.075 485.381L359.965 503.009C352.755 494.561 344.602 486.806 336.817 478.883L290.197 432.01L273.773 415.25C271.239 412.612 268.341 410.05 266.102 407.165L274.489 386.75C281.91 370.022 291.528 354.498 302.08 339.582C306.844 332.849 311.656 325.89 317.142 319.729C323.755 312.303 331.334 305.66 338.631 298.914C342.661 295.187 348.056 288.838 353.143 286.869Z"
     id="path22" />
  <path
     fill="#FEFEFE"
     d="M671.884 288.025C676.986 291.416 681.66 295.429 686.384 299.316C711.449 319.945 731.243 345.912 745.806 374.853C750.76 384.699 754.75 395.108 759.003 405.27L663.149 500.504C658.035 495.023 653.019 488.784 647.225 484.052C649.382 481.574 651.324 479.066 652.692 476.055C655.716 469.404 655.992 461.475 653.335 454.668C649.813 445.644 643.748 441.748 635.275 438.038C639.188 434.696 642.479 431.196 644.968 426.645C651.041 415.543 650.335 405.571 646.862 393.753L691.554 358.199C696.639 354.077 703.273 349.975 707.371 344.891C709.89 341.767 710.975 338.326 710.445 334.323C710.118 331.853 707.777 329.545 705.868 328.153C704.516 327.167 702.932 326.526 701.264 326.355C695.783 325.793 689.465 327.216 684.031 327.891L647.329 332.963C657.297 318.83 666.187 304.508 671.884 288.025Z"
     id="path23" />
  <path
     fill="#FF9AA3"
     d="M214.278 855.812C196.639 842.715 180.39 825.52 165.991 809.011C132.146 770.207 106.038 726.999 87.21 679.102C83.1164 668.688 78.9489 658.155 75.7169 647.439C68.4022 623.186 63.5329 597.988 59.8656 572.944C56.9695 553.166 56.4547 532.861 56.4355 512.901C56.3967 472.663 61.0016 432.037 71.3198 393.084C85.8148 338.362 111.737 286.174 145.581 240.874C218.857 142.797 328.881 77.1168 450.134 59.6301C568.859 42.5079 688.853 75.4441 784.458 147.252C879.692 218.781 946.598 329.122 963.495 447.25C966.621 469.105 967.535 490.939 967.511 512.99C967.47 551.041 963.521 589.324 954.283 626.298C951.435 637.698 947.648 648.667 943.856 659.772L934.492 685.521L921.818 712.851C917.754 721.303 913.735 729.856 909.066 737.994C900.055 753.701 889.629 768.552 878.713 782.982C856.923 811.787 833.395 838.488 806.036 862.171C806.278 853.455 803.394 844.585 798.588 837.362C790.482 825.18 777.012 817.375 762.435 816.364C758.439 816.087 753.37 816.988 749.577 816.238C754.504 811.001 759.545 805.825 763.676 799.917C771.903 788.152 776.381 774.423 776.52 760.096C776.709 740.559 769.634 723.088 755.776 709.199C746.061 699.463 732.334 692.148 718.79 689.687C712.891 688.615 707.028 688.614 701.061 688.638L697.75 688.989C663.324 652.297 641.128 604.269 626.88 556.58C622.432 535.182 616.181 514.613 615.221 492.577C623.092 492.571 631.925 493.309 639.25 489.867C642.301 488.434 644.753 486.299 647.225 484.052C653.019 488.784 658.035 495.023 663.149 500.504L759.003 405.27C754.75 395.108 750.76 384.699 745.806 374.853C731.243 345.912 711.449 319.945 686.384 299.316C681.66 295.429 676.986 291.416 671.884 288.025C682.319 256.446 683.417 223.512 673.523 191.592C660.217 148.663 631.06 114.16 591.381 93.3656C550.105 71.734 502.69 68.5467 458.437 82.4653C419.039 94.8564 381.376 125.266 362.382 162.152C346.881 192.255 341.021 227.182 346.451 260.656C347.902 269.603 350.381 278.257 353.143 286.869C348.056 288.838 342.661 295.187 338.631 298.914C331.334 305.66 323.755 312.303 317.142 319.729C311.656 325.89 306.844 332.849 302.08 339.582C291.528 354.498 281.91 370.022 274.489 386.75L266.102 407.165C268.341 410.05 271.239 412.612 273.773 415.25L290.197 432.01L336.817 478.883C344.602 486.806 352.755 494.561 359.965 503.009L376.075 485.381C379.034 487.857 381.864 490.114 385.479 491.553C392.747 494.448 401.753 493.511 409.435 493.447C408.851 500.879 408.443 508.372 407.35 515.75C404.963 531.874 401.016 547.656 396.889 563.399C387.8 594.542 374.386 623.985 356.8 651.267C348.537 664.086 339.18 676.201 329.561 688.022L323.881 687.425C304.162 686.466 286.12 691.629 271.277 705.048C256.662 718.261 249.041 735.377 248.152 754.921C247.318 773.266 253.758 792.602 266.408 806.129L273.102 812.386C255.871 813.283 239.55 818.713 227.636 831.776C221.409 838.603 216.652 846.849 214.278 855.812Z"
     id="path24" />
  <path
     fill="#FEFEFE"
     d="M259.353 426.962L344.47 512.698L300.027 557.25L264.495 592.149C251.274 549.599 246.062 507.003 252.48 462.75L259.353 426.962Z"
     id="path25" />
  <path
     fill="#FEFEFE"
     d="M765.306 424.415L765.765 425.006C766.582 426.681 766.843 429.572 767.254 431.443L770.699 447.903C777.622 484.493 777.61 521.37 769.549 557.828C766.973 569.478 763.312 580.947 759.392 592.208L724.649 556.92L678.761 510.392C679.75 508.37 682.704 506.2 684.339 504.606L698.816 490.314L765.306 424.415Z"
     id="path26" />
  <path
     fill="#FEFEFE"
     d="M323.881 687.425C323.072 685.457 321.335 683.725 319.938 682.127L312.351 673.506L301.071 659.233C289.847 644.13 280.479 628.041 272.587 610.97C273.648 608.779 276.039 606.731 277.758 604.992L288.7 594.001L329.232 553.75C338.857 544.391 349.527 535.043 358.099 524.731L358.518 524.218L396.889 563.399C387.8 594.542 374.386 623.985 356.8 651.267C348.537 664.086 339.18 676.201 329.561 688.022L323.881 687.425Z"
     id="path27" />
  <path
     fill="#FEFEFE"
     d="M626.88 556.58L627.332 556.187L663.139 520.191L752.336 609.561C742.778 634.517 726.403 657.155 709.721 677.791C706.844 681.35 704.196 685.329 701.061 688.638L697.75 688.989C663.324 652.297 641.128 604.269 626.88 556.58Z"
     id="path28" />
</svg>
