<?xml version="1.0" encoding="UTF-8" standalone="no"?>
<svg
   width="1024"
   height="1024"
   version="1.1"
   id="svg24"
   sodipodi:docname="refresh-icon--two-arrows.svg"
   inkscape:version="1.3.2 (091e20ef0f, 2023-11-25)"
   xmlns:inkscape="http://www.inkscape.org/namespaces/inkscape"
   xmlns:sodipodi="http://sodipodi.sourceforge.net/DTD/sodipodi-0.dtd"
   xmlns="http://www.w3.org/2000/svg"
   xmlns:svg="http://www.w3.org/2000/svg">
  <defs
     id="defs24" />
  <sodipodi:namedview
     id="namedview24"
     pagecolor="#ffffff"
     bordercolor="#000000"
     borderopacity="0.25"
     inkscape:showpageshadow="2"
     inkscape:pageopacity="0.0"
     inkscape:pagecheckerboard="0"
     inkscape:deskcolor="#d1d1d1"
     inkscape:zoom="0.47265625"
     inkscape:cx="512"
     inkscape:cy="510.94215"
     inkscape:window-width="1440"
     inkscape:window-height="831"
     inkscape:window-x="0"
     inkscape:window-y="0"
     inkscape:window-maximized="1"
     inkscape:current-layer="svg24" />
  <path
     fill="#FF9AA3"
     d="M528.852 959.667C528.607 958.164 528.938 956.541 528.01 955.25L457.75 952.95C387.622 945.171 317.616 919.93 259 880.574C246.437 872.139 234.585 862.635 222.92 853.021C202.75 836.397 183.037 817.593 166.684 797.123C139.727 763.378 116.806 727.199 99.75 687.417C68.954 615.591 59.1603 534.837 68.0751 457.433C70.8782 433.094 76.4533 409.176 83.4918 385.75C88.0423 370.604 92.8826 355.748 98.9339 341.123C106.588 322.624 116.184 304.629 126.372 287.417C154.968 239.104 191.991 196.653 236.158 161.939C270.299 135.107 308.629 113.746 348.845 97.5638C380.545 84.8084 413.633 75.2498 447.5 70.5103C456.279 69.2817 464.764 67.9036 473.649 67.5241C476.634 67.3966 479.308 67.0267 482.317 67.387L481.828 67.5704L459.072 74.7782C440.324 81.3969 421.584 89.1974 403.727 97.9589C352.407 123.139 305.63 157.754 265.162 197.993C228.996 233.957 197.3 275.124 175.444 321.434C156.816 360.903 143.815 403.139 138.316 446.511C136.629 459.819 136.024 473.12 135.507 486.512C134.947 501.041 134.379 516.135 135.447 530.654C127.811 532.926 120.716 537.039 116.821 544.281C113.095 551.209 112.474 559.658 114.832 567.104C116.883 573.581 122.638 579.761 128.708 582.701C137.947 587.177 147.806 590.434 157.219 594.546C160.522 595.988 163.836 597.163 166.942 599.018L167.143 599.915C168.087 604.003 169.608 607.981 170.876 611.976L179.347 636.534C208.798 713.645 262.83 782.165 333.533 825.423C383.564 856.032 441.356 874.782 500.005 878.402C509.585 878.994 519.4 878.593 529.002 878.508L528.852 959.667Z"
     id="path2" />
  <path
     fill="#FF9AA3"
     d="M494.564 66.1245L527.539 66.5289L549.556 68.2364L573.947 70.5768C609.202 75.4798 643.002 84.9801 676.135 97.829C684.132 100.93 692.179 103.9 699.96 107.535C725.624 119.528 750.265 134.243 773.268 150.713C781.836 156.848 790.509 163.007 798.593 169.768C805.65 175.669 812.15 182.202 818.82 188.529C826.026 195.366 833.16 201.892 839.877 209.25C852.246 222.8 864.216 236.737 874.963 251.62C913.584 305.102 940.3 368.361 951.774 433.348C954.586 449.275 956.089 465.282 957.242 481.396L958.572 494.005C959.456 508.099 959.236 523.157 958.572 537.25C958.437 540.128 957.671 543.045 957.462 545.947C953.13 606.003 937.07 665.07 909.13 718.554C896.714 742.32 881.993 764.362 865.75 785.644C850.031 806.241 831.896 826.836 812.093 843.616C800.582 853.37 789.129 863.128 776.871 871.961C753.834 888.56 729.01 902.431 703.25 914.282C687.631 921.468 671.787 928.113 655.385 933.328C636.437 939.352 617.012 943.747 597.473 947.315L568.546 952.187C563.222 952.955 558.116 954.078 552.712 953.723L617.028 929.294C644.113 917.164 669.626 901.702 693.75 884.507C731.863 857.34 766.956 824.224 795.686 787.179C806.825 772.817 816.739 757.695 826.204 742.198C841.362 717.381 854.775 691.072 864.66 663.67C872.448 642.079 878.879 619.034 883.25 596.499L886.069 578.749C886.391 576.46 886.13 573.845 886.965 571.698C887.597 570.072 887.343 568.684 887.502 567L888.637 556.25C888.855 554.464 889.444 552.803 889.539 550.984C889.739 547.121 888.773 540.275 891.399 537.388L891.25 536.577C890.649 534.242 890.917 531.592 890.926 529.16L890.911 515.925L889.956 502.005C889.835 499.26 890.129 495.328 889.204 492.784C887.904 489.21 887.725 484.272 888.132 480.5C889.127 478.509 891.239 478.058 893.062 476.975C900.99 472.267 906.951 464.749 909.151 455.776C909.855 452.905 910.682 450.968 910.243 447.931C909.9 445.562 909.621 443.202 908.838 440.925C904.135 427.249 889.613 420.049 877.15 414.993C870.949 412.478 864.413 410.102 857.946 408.372C856.793 408.064 849.214 406.557 848.669 405.974C848.525 405.82 848.157 403.946 848.071 403.628L845.981 396.824C842.99 387.781 839.322 378.748 835.379 370.086C822.593 342.002 806.961 315.735 787.898 291.442C747.445 239.887 694.362 201.387 633.581 177.339C612.804 169.119 591.332 162.328 569.25 158.556L531.526 153.684C527.295 153.272 522.917 153.451 518.726 152.873C511.453 151.871 503.406 152.448 496.031 152.385L495.971 97.1226L495.783 76.5514C495.709 73.1276 496.085 69.264 494.564 66.1245Z"
     id="path3" />
  <path
     d="M482.317 67.387C486.619 66.4831 490.138 65.8803 494.564 66.1245C496.085 69.264 495.709 73.1276 495.783 76.5514L495.971 97.1226L496.031 152.385C503.406 152.448 511.453 151.871 518.726 152.873C522.917 153.451 527.295 153.272 531.526 153.684L569.25 158.556C591.332 162.328 612.804 169.119 633.581 177.339C694.362 201.387 747.445 239.887 787.898 291.442C806.961 315.735 822.593 342.002 835.379 370.086C839.322 378.748 842.99 387.781 845.981 396.824L848.071 403.628C848.157 403.946 848.525 405.82 848.669 405.974C849.214 406.557 856.793 408.064 857.946 408.372C864.413 410.102 870.949 412.478 877.15 414.993C889.613 420.049 904.135 427.249 908.838 440.925C909.621 443.202 909.9 445.562 910.243 447.931C910.682 450.968 909.855 452.905 909.151 455.776C906.951 464.749 900.99 472.267 893.062 476.975C891.239 478.058 889.127 478.509 888.132 480.5C887.725 484.272 887.904 489.21 889.204 492.784C890.129 495.328 889.835 499.26 889.956 502.005L890.911 515.925L890.926 529.16C890.917 531.592 890.649 534.242 891.25 536.577L891.399 537.388C888.773 540.275 889.739 547.121 889.539 550.984C889.444 552.803 888.855 554.464 888.637 556.25L887.502 567C887.343 568.684 887.597 570.072 886.965 571.698C886.13 573.845 886.391 576.46 886.069 578.749L883.25 596.499C878.879 619.034 872.448 642.079 864.66 663.67C854.775 691.072 841.362 717.381 826.204 742.198C816.739 757.695 806.825 772.817 795.686 787.179C766.956 824.224 731.863 857.34 693.75 884.507C669.626 901.702 644.113 917.164 617.028 929.294L552.712 953.723L529.544 960.345L528.852 959.667L529.002 878.508C519.4 878.593 509.585 878.994 500.005 878.402C441.356 874.782 383.564 856.032 333.533 825.423C262.83 782.165 208.798 713.645 179.347 636.534L170.876 611.976C169.608 607.981 168.087 604.003 167.143 599.915L166.942 599.018C163.836 597.163 160.522 595.988 157.219 594.546C147.806 590.434 137.947 587.177 128.708 582.701C122.638 579.761 116.883 573.581 114.832 567.104C112.474 559.658 113.095 551.209 116.821 544.281C120.716 537.039 127.811 532.926 135.447 530.654C134.379 516.135 134.947 501.041 135.507 486.512C136.024 473.12 136.629 459.819 138.316 446.511C143.815 403.139 156.816 360.903 175.444 321.434C197.3 275.124 228.996 233.957 265.162 197.993C305.63 157.754 352.407 123.139 403.727 97.9589C421.584 89.1974 440.324 81.3969 459.072 74.7782L481.828 67.5704L482.317 67.387Z"
     id="path4" />
  <path
     fill="#FEFEFE"
     d="M189.991 388.157C192.737 391.459 194.081 395.223 196.386 398.721C200.378 404.781 207.845 407.084 213.654 410.873C210.352 413.575 206.833 415.344 203.12 417.401C201.643 418.22 199.147 419.269 198.067 420.577C195.327 423.896 194.07 428.681 191.347 432.241L190.25 432.576C188.939 431.937 188.218 430.509 187.665 429.211C186.036 425.387 183.078 420.43 179.44 418.245C175.323 415.772 171.542 414.701 167.746 411.388C171.051 408.482 174.758 406.436 178.257 403.828C183.648 399.809 186.363 393.659 189.991 388.157Z"
     id="path5" />
  <path
     fill="#FEFEFE"
     d="M836.142 542.199C841.683 552.516 849.397 559.352 859.309 565.251C854.894 568.127 850.13 571.158 846.346 574.84C842.262 578.816 838.769 584.185 835.413 588.795C828.873 578.519 822.768 571.596 812.401 565.024C816.346 562.675 820.606 560.392 824.119 557.427C829.008 553.299 832.737 547.541 836.142 542.199Z"
     id="path6" />
  <path
     fill="#FEFEFE"
     d="M628.415 820.16C632.4 825.761 635.857 832.132 640.723 837.023C645.36 841.684 651.391 845.261 656.601 849.279C651.198 853.482 645.16 857.794 640.424 862.73C635.932 867.412 632.133 872.996 628.538 878.38C625.111 873.838 621.976 868.89 618.164 864.665C612.859 858.784 606.223 853.877 600.076 848.9C605.939 844.219 612.678 839.889 617.724 834.345C621.67 830.011 624.784 824.79 628.415 820.16Z"
     id="path7" />
  <path
     fill="#FEFEFE"
     d="M398.33 154.635C403.63 160.701 407.313 167.817 413.227 173.419C415.62 175.686 418.543 177.259 421.25 179.107C424.468 181.304 427.42 183.81 430.318 186.405C425.327 190.867 419.395 193.793 414.256 198.114C408.394 203.044 403.498 210.373 398.512 216.237C396.654 215.376 395.082 213.091 393.868 211.471C391.292 208.032 388.855 204.561 386.049 201.295C380.389 194.707 373.111 190.917 366.496 185.483C374.708 180.214 382.554 175.373 388.687 167.637L398.33 154.635Z"
     id="path8" />
  <path
     fill="#FF9AA3"
     d="M758.448 675.547C759.93 675.53 761.301 675.787 762.75 676.05C763.628 676.864 764.453 677.65 765.006 678.732C765.784 680.254 765.921 682.355 765.227 683.932C763.069 688.836 759.096 694.171 756.115 698.652C747.855 711.071 739.316 722.534 729.149 733.512C715.563 748.183 700.059 760.823 683.987 772.629C675.005 779.227 664.974 786.548 654.623 790.715C653.889 790.758 653.212 790.782 652.502 790.544C650.88 789.999 649.711 788.644 648.965 787.143C648.242 785.691 648.083 783.011 648.837 781.559C649.597 780.094 651.489 778.993 652.853 778.17C678.01 762.991 699.766 746.122 720.008 724.867C728.989 715.438 737.36 704.925 744.51 694.061L750.672 684.47C751.812 682.52 752.755 680.234 754.169 678.472C755.287 677.078 756.862 676.292 758.448 675.547Z"
     id="path9" />
  <path
     fill="#FF9AA3"
     d="M787.614 706.92C790.107 706.913 791.514 707.475 793.39 709.178C795.14 710.766 795.337 712.062 795.4 714.25C784.985 732.772 771.869 748.933 757.47 764.468C730.87 793.166 699.467 816.275 664.335 833.57L663.739 833.627C661.988 833.697 660.293 832.773 659.044 831.582C657.152 829.777 657.049 827.19 657.088 824.75C659.84 820.798 668.139 817.981 672.387 815.607L689.929 805.166L706.037 793.475C714.029 787.517 721.708 781.789 729.205 775.174C744 762.119 757.659 747.002 769.446 731.179L779.397 717.34C781.98 713.586 783.643 709.388 787.614 706.92Z"
     id="path10" />
  <path
     fill="#FEFEFE"
     d="M789.565 618.107C795.544 626.832 800.782 636.126 808.999 642.961C814.981 647.937 821.677 651.925 827.529 657.094L815.75 665.71C811.606 668.641 807.397 671.305 803.843 674.984C798.276 680.749 793.705 688.544 789.476 695.342C783.667 684.798 775.993 675.096 766.25 668.04C760.972 664.217 755.512 660.783 750.717 656.334C758.948 649.675 768.663 644.375 775.99 636.739C781.079 631.434 785.259 624.11 789.565 618.107Z"
     id="path11" />
  <path
     fill="#FF9AA3"
     d="M356.698 199.078L359.75 199.928C361.859 202.064 362.128 203.832 362.42 206.75C361.421 208.639 361.091 209.881 359.137 210.961C335.373 224.095 312.033 238.773 291.688 256.885C281.067 266.34 271.433 276.908 262.271 287.759C252.774 299.008 243.933 311.131 236.146 323.624L229.954 334.262C228.66 336.637 227.447 339.348 225.735 341.441C224.226 343.285 222.457 344.406 220.269 345.274C219.032 344.961 217.437 344.678 216.364 343.973C215.309 343.28 213.823 341.289 213.635 340.009C213.109 336.422 215.954 332.639 217.715 329.692C227.392 313.492 237.717 297.779 249.642 283.126C271.549 256.208 297.495 233.936 326.605 215.175C333.201 210.924 339.995 206.856 346.998 203.318C350.138 201.731 353.271 199.948 356.698 199.078Z"
     id="path12" />
  <path
     fill="#FF9AA3"
     d="M372.263 237.957C373.551 237.618 375.273 238.011 376.5 238.471C377.61 238.888 378.618 239.986 379.067 241.071C379.854 242.973 379.695 246.229 378.216 247.775C374.946 251.194 369.076 253.55 365 255.997L348.888 266.315C339.191 272.752 329.927 280.516 321.079 288.063C314.311 293.835 308.227 300.478 302.285 307.074C283.083 328.39 266.453 352.803 255.25 379.291C251.805 387.435 249.108 395.763 246.299 404.136C245.546 406.38 245.214 409.25 244.139 411.305C243.028 413.429 241.42 413.719 239.314 414.392C238.335 414.433 237.329 414.356 236.365 414.176C234.83 413.888 233.6 412.994 232.833 411.624C231.095 408.522 233.258 403.023 234.297 399.916C254.119 340.648 292.84 289.409 344.715 254.522C353.67 248.499 362.582 242.778 372.263 237.957Z"
     id="path13" />
  <path
     fill="#FEFEFE"
     d="M622.915 305.037C622.99 303.072 623.481 301.484 622.069 299.934L571.952 249.014C617.577 260.416 662.634 285.59 695.25 319.626C709.832 334.842 722.517 352.279 733.332 370.325C737.83 377.829 742.91 386.85 745.429 395.242L742.769 403.744L713.967 412.84L713.806 412.529C710.514 406.332 708.415 399.69 704.983 393.5C695.694 376.749 684.195 359.988 671.353 345.75C660.619 333.849 647.941 322.885 635.197 313.192C631.307 310.233 626.914 307.905 622.915 305.037Z"
     id="path14" />
  <path
     fill="#FF9AA3"
     d="M713.967 412.84C710.635 413.429 706.8 415.632 703.729 417.098C696.149 420.715 688.473 424.459 682.441 430.456C679.413 433.465 676.893 437.171 674.331 440.574C670.042 432.534 665.865 424.347 660.945 416.671C645.447 392.497 624.312 371.014 599.75 355.982C593.918 352.413 587.549 349.444 581.476 346.289C586.083 339.707 592.73 334.103 598.451 328.496L622.915 305.037C626.914 307.905 631.307 310.233 635.197 313.192C647.941 322.885 660.619 333.849 671.353 345.75C684.195 359.988 695.694 376.749 704.983 393.5C708.415 399.69 710.514 406.332 713.806 412.529L713.967 412.84Z"
     id="path15" />
  <path
     fill="#FEFEFE"
     d="M298.072 597.611C300.702 607.198 304.75 615.78 309.139 624.664C329.963 666.82 363.706 702.183 404.5 725.529C407.828 727.434 411.361 728.725 414.987 729.943L401.788 743.13C405.853 749.314 411.809 754.295 417.071 759.419L437.572 780.21L422.579 774.683C355.506 747.924 299.631 694.611 271.335 627.943L278.939 609.865C279.758 608.067 280.76 605.47 282.145 604.026C283.168 602.96 285.168 602.448 286.566 601.919L298.072 597.611Z"
     id="path16" />
  <path
     fill="#FF9AA3"
     d="M298.072 597.611L318 590.044C329.829 585.676 339.685 582.473 346.631 571.258C349.099 574.927 350.68 580.632 352.445 584.816C355.531 592.132 358.892 599.346 362.703 606.316C377.695 633.738 402.162 658.707 429.006 674.687C437.711 679.87 446.998 683.803 455.934 688.511L414.987 729.943C411.361 728.725 407.828 727.434 404.5 725.529C363.706 702.183 329.963 666.82 309.139 624.664C304.75 615.78 300.702 607.198 298.072 597.611Z"
     id="path17" />
  <path
     fill="#FEFEFE"
     d="M229.23 444.152L265.244 529.384C265.318 529.544 265.901 530.781 265.915 530.799C266.206 531.144 313.063 547.919 317.5 549.526C321.324 550.911 326.708 551.957 328.338 556.091C329.09 557.994 329.089 559.936 328.292 561.807C327.678 563.248 326.642 564.064 325.296 564.804C319.787 567.835 312.834 569.762 306.927 572.037L267.224 587.393L230.828 669.129L228.625 674.061L191.658 591.509C190.899 589.905 189.96 585.936 188.915 584.756C187.79 583.485 182.366 582.043 180.608 581.332L154.347 570.391C148.079 567.842 141.034 565.922 135.333 562.273L134.828 559C134.54 557.331 134.678 556.502 135.427 555C135.867 554.117 136.55 552.483 137.214 551.788C139.333 549.569 146.452 547.965 149.492 546.82L188.609 532.437C189.802 532.037 192.24 531.255 193.145 530.435C194.418 529.281 195.672 525.182 196.344 523.542L204.402 503.5L217.142 474.127C221.162 464.191 224.49 453.764 229.23 444.152Z"
     id="path18" />
  <path
     fill="#FEFEFE"
     d="M788.06 336.509C790.622 340.183 792.231 344.636 794.072 348.708L803.6 369.992L820.612 407.992C822.194 411.754 824.486 415.868 825.453 419.798C825.797 421.198 825.697 420.776 827.005 421.067C841.689 424.338 880.963 433.246 889.359 445.531C889.691 447.361 889.658 448.66 889.25 450.474C885.699 454.229 881.314 455.774 876.792 457.971C868.142 462.174 859.468 465.957 850.41 469.227C845.011 471.175 839.405 472.659 834.073 474.773C832.867 475.251 830.268 476.242 829.576 477.25C827.332 480.521 826.016 484.546 824.442 488.172L815.067 510L792.88 560.733L791.166 564.691L790.402 564.75L752.803 475.919C738.936 473.103 702.09 460.874 694.056 450C693.828 448.34 693.857 447.718 694.75 446.273C700.923 436.281 739.553 424.556 751.823 421.324L788.06 336.509Z"
     id="path19" />
  <path
     fill="#FEFEFE"
     d="M289.047 517.436L281.15 514.675C281.095 514.649 280.358 514.219 280.257 514.056C278.487 511.198 277.518 506.421 276.132 503.221L258.261 461.523C266.067 416.637 284.489 374.64 313.641 339.492C344.923 301.777 387.262 272.547 433.858 257.25C454.127 250.596 475.203 246.972 496.403 245.004L496.109 214.594C496.084 212.171 495.394 206.566 496.522 204.635L499 204.537C500.162 204.6 500.718 204.767 501.617 205.504C506.5 209.506 510.892 215.158 515.306 219.772L537.799 242.844L594.675 301.558L538.814 358.057L509.68 386.77C505.648 390.62 501.905 394.761 497.572 398.28C496.842 391.218 497.025 384.074 497.006 376.983L496.936 346.559L496.912 338.166C496.91 337.405 497.119 335.931 496.904 335.25C496.791 334.891 496.468 334.637 496.25 334.331C493.326 333.87 490.395 334.713 487.5 335.143C468.299 337.993 450.188 343.729 432.738 352.23C420.871 358.797 409.112 366.612 398.895 375.561C386.416 386.493 374.337 400.592 365.75 414.773C363.321 418.784 361.3 423.072 359.137 427.233C353.588 437.908 348.874 448.504 345.518 460.11C337.859 486.602 336.143 513.287 340.724 540.505C337.598 538.043 334.477 535.436 331 533.476C325.691 530.484 320.312 528.87 314.631 526.813L302.619 522.311C298.074 520.733 293.702 518.685 289.047 517.436Z"
     id="path20" />
  <path
     fill="#FF9AA3"
     d="M289.047 517.436C288.972 496.379 290.454 475.685 295.31 455.133C306.502 407.771 334.256 363.444 371.811 332.547C381.638 324.463 392.375 317.569 403.184 310.889L432.738 352.23C420.871 358.797 409.112 366.612 398.895 375.561C386.416 386.493 374.337 400.592 365.75 414.773C363.321 418.784 361.3 423.072 359.137 427.233C353.588 437.908 348.874 448.504 345.518 460.11C337.859 486.602 336.143 513.287 340.724 540.505C337.598 538.043 334.477 535.436 331 533.476C325.691 530.484 320.312 528.87 314.631 526.813L302.619 522.311C298.074 520.733 293.702 518.685 289.047 517.436Z"
     id="path21" />
  <path
     fill="#FEFEFE"
     d="M596.502 672.078C604.276 667.668 612.07 662.005 618.913 656.25C652.072 628.365 674.491 591.928 683.275 549.302C684.989 540.989 685.821 532.999 686.654 524.579C688.501 505.929 686.305 487.144 682.574 468.886L699.226 478.151C706.192 481.641 713.492 484.035 720.827 486.586C726.436 488.538 732.094 490.832 738.025 491.5L738.829 491.586C739.915 494.211 741.048 496.801 741.727 499.568C744.012 503.704 745.7 507.962 747.741 512.199L766.966 556.155C767.758 558.062 770.172 562.065 770.265 563.878C770.327 565.099 769.262 567.736 768.943 569L764.551 586.001C757.531 610.398 748.131 634.181 735.2 656.097C712.494 694.579 678.717 728.204 639.522 749.771C630.701 754.625 621.787 759.401 612.5 763.317C590.631 772.537 568.124 778.353 544.714 781.918L529.076 783.588L528.878 846.028L428.967 743.578L528.31 642.864L528.975 694.815C536.494 693.465 544.32 692.396 551.696 690.433C561.241 687.891 570.681 684.268 579.837 680.572L596.502 672.078Z"
     id="path22" />
  <path
     fill="#FBCBCC"
     d="M596.502 672.078C598.072 675.108 600.196 677.721 601.973 680.624C606.977 688.798 612.96 699.264 615.687 708.444C611.953 706.108 609.091 702.526 605.668 699.749C600.466 695.528 594.838 691.952 589.5 687.937C586.238 685.484 583.344 682.7 579.837 680.572L596.502 672.078Z"
     id="path23" />
  <path
     fill="#FF9AA3"
     d="M596.502 672.078C604.276 667.668 612.07 662.005 618.913 656.25C652.072 628.365 674.491 591.928 683.275 549.302C684.989 540.989 685.821 532.999 686.654 524.579C688.501 505.929 686.305 487.144 682.574 468.886L699.226 478.151C706.192 481.641 713.492 484.035 720.827 486.586C726.436 488.538 732.094 490.832 738.025 491.5L738.829 491.586C739.915 494.211 741.048 496.801 741.727 499.568L741.41 500.184C740.81 501.447 740.989 503.203 740.942 504.596L740.659 514.096C740.361 524.325 739.484 534.253 737.773 544.349C735.149 559.825 731.653 575.554 726.456 590.381C711.474 633.127 683.504 673.902 647.497 701.408L629.5 714.031C626.418 716.053 623.46 718.154 620.13 719.757L615.687 708.444C612.96 699.264 606.977 688.798 601.973 680.624C600.196 677.721 598.072 675.108 596.502 672.078Z"
     id="path24" />
</svg>
