<?xml version="1.0" encoding="UTF-8" standalone="no"?>
<svg
   width="1024"
   height="1024"
   version="1.1"
   id="svg31"
   sodipodi:docname="crossmark--simplified.svg"
   inkscape:version="1.3.2 (091e20ef0f, 2023-11-25)"
   xmlns:inkscape="http://www.inkscape.org/namespaces/inkscape"
   xmlns:sodipodi="http://sodipodi.sourceforge.net/DTD/sodipodi-0.dtd"
   xmlns="http://www.w3.org/2000/svg"
   xmlns:svg="http://www.w3.org/2000/svg">
  <defs
     id="defs31" />
  <sodipodi:namedview
     id="namedview31"
     pagecolor="#ffffff"
     bordercolor="#000000"
     borderopacity="0.25"
     inkscape:showpageshadow="2"
     inkscape:pageopacity="0.0"
     inkscape:pagecheckerboard="0"
     inkscape:deskcolor="#d1d1d1"
     inkscape:zoom="0.47265625"
     inkscape:cx="512"
     inkscape:cy="510.94215"
     inkscape:window-width="1440"
     inkscape:window-height="831"
     inkscape:window-x="0"
     inkscape:window-y="0"
     inkscape:window-maximized="1"
     inkscape:current-layer="svg31" />
  <path
     d="M76.9945 307.865L91.853 279.111C103.831 257.75 117.757 236.83 132.539 217.317C189.402 142.254 272.148 83.6661 361.93 55.1508C422.606 35.8799 486.956 27.7842 550.517 32.8288C613.626 37.8373 676.774 56.4605 732.877 85.6145C764.736 102.171 793.509 122.214 821.083 145.152C835.384 157.048 849.348 169.366 862.121 182.931C884.624 206.83 904.558 233.257 921.871 261.103C931.174 276.065 940.297 291.753 947.532 307.833C999.219 417.289 1005.49 548.653 964.765 662.631C945.654 716.115 916.668 767.16 879.407 810.104C874.149 816.164 868.933 822.65 863.109 828.167L841.773 849.308C825.573 864.425 807.741 878.201 789.5 890.766C703.115 950.27 599.636 980.289 494.781 976.668C369.594 972.346 247.944 919.915 162.081 828.074L152.916 818.445L127.076 787.645C93.8175 745.098 69.3861 695.721 52.8342 644.446C24.1714 555.654 25.9616 460.302 52.7606 371.307C59.238 349.797 66.73 327.9 76.9945 307.865Z"
     id="path2" />
  <path
     fill="#FF9AA3"
     d="M688.19 300.341C697.209 302.741 705.359 305.04 712.968 310.728C724.97 319.7 730.277 330.909 732.333 345.388L688.19 300.341Z"
     id="path3" />
  <path
     fill="#FF9AA3"
     d="M384.073 818.713L401.254 818.552C408.73 818.967 413.367 822.865 418.159 828.128L380.25 828.029L344.55 827.98C351.713 824.751 358.937 821.722 366.696 820.207C372.338 819.106 378.336 819.05 384.073 818.713Z"
     id="path4" />
  <path
     fill="#FF9AA3"
     d="M736.152 536.111C739.241 535.88 741.702 535.73 744.638 536.976C747.884 538.353 750.352 541.2 751.535 544.5C752.646 547.603 752.377 551.717 750.855 554.64C748.859 558.473 745.696 560.187 741.741 561.47C739.1 561.559 736.701 561.675 734.192 560.663C730.916 559.341 728.585 556.946 727.273 553.676C726.005 550.516 725.731 546.586 727.138 543.427C729.016 539.211 732.032 537.56 736.152 536.111Z"
     id="path5" />
  <path
     fill="#FF9AA3"
     d="M623.664 818.668C642.519 817.951 661.53 821.37 680.35 822.489L678.745 828.294L666.125 828.315L607.109 828.022L607.142 827.584C611.912 821.717 616.188 819.505 623.664 818.668Z"
     id="path6" />
  <path
     fill="#FEFEFE"
     d="M781.701 450.151C783.97 450.088 786.621 450.128 788.75 451.001C792.293 452.452 795.394 455.529 796.66 459.159C797.824 462.498 797.826 465.797 796.181 468.949C794.078 472.977 790.928 475.197 786.664 476.573C783.734 476.815 780.302 476.973 777.605 475.622C774.433 474.034 771.523 470.709 770.571 467.274C769.605 463.793 769.808 459.881 771.735 456.759C774.107 452.919 777.403 451.097 781.701 450.151Z"
     id="path7" />
  <path
     fill="#FF9AA3"
     d="M580.88 754.598C584.463 754.73 587.853 755.193 590.825 757.384C593.213 759.145 595.164 762.407 595.517 765.369C596.003 769.464 595.598 773.765 592.967 777.09C590.577 780.109 587.508 781.29 583.806 781.8C581.057 781.687 578.036 781.752 575.599 780.301C572.083 778.206 570.001 774.82 569.15 770.892C568.355 767.215 568.958 763.311 571.061 760.176C573.481 756.569 576.818 755.448 580.88 754.598Z"
     id="path8" />
  <path
     fill="#FF9AA3"
     d="M690.772 760.147C693.249 760.276 695.644 760.458 697.861 761.682C700.921 763.372 703.369 766.295 704.279 769.685C705.372 773.756 705.073 778.108 702.741 781.691C700.459 785.197 696.782 786.846 692.82 787.626C689.717 787.576 686.86 787.505 684.128 785.844C680.672 783.743 678.593 780.196 677.847 776.286C677.185 772.816 678.015 768.496 680.061 765.586C682.644 761.914 686.54 760.764 690.772 760.147Z"
     id="path9" />
  <path
     fill="#FF9AA3"
     d="M343.756 757.544C346.581 757.462 349.083 757.428 351.75 758.571C355.413 760.141 358.675 763.328 359.991 767.131C361.181 770.567 360.46 774.916 358.791 778.094C356.848 781.793 353.431 783.479 349.662 784.728C346.959 784.948 343.688 784.836 341.176 783.737C337.79 782.256 334.883 779.203 333.567 775.75C332.237 772.262 332.355 768.772 333.956 765.392C336.098 760.869 339.215 759.047 343.756 757.544Z"
     id="path10" />
  <path
     fill="#FF9AA3"
     d="M249.381 567.582C252.432 567.509 255.323 567.802 258.034 569.334C260.895 570.952 263.652 573.648 264.513 576.909L264.654 577.5C265.528 581.063 265.359 584.896 263.626 588.184C261.416 592.381 257.87 594.008 253.536 595.246C250.512 595.323 247.731 595.152 244.961 593.822C241.527 592.173 239.486 589.17 238.328 585.615C237.095 581.831 237.476 577.458 239.502 573.998C241.797 570.079 245.172 568.599 249.381 567.582Z"
     id="path11" />
  <path
     fill="#FEFEFE"
     d="M755.169 716.598C757.716 716.448 760.665 716.278 763.078 717.21C766.874 718.675 769.486 721.107 771.043 724.904C772.552 728.585 772.602 732.821 770.935 736.453C768.931 740.818 766.018 742.61 761.713 744.207C759.026 744.476 756.43 744.523 753.844 743.615C749.948 742.247 747.179 739.495 745.521 735.75C744.04 732.407 744.056 728.015 745.453 724.646C747.27 720.261 750.998 718.211 755.169 716.598Z"
     id="path12" />
  <path
     fill="#FEFEFE"
     d="M393.718 282.1C396.558 281.896 399.693 282.162 402.25 283.511C405.368 285.157 408.342 288.465 409.321 291.9C410.387 295.638 410.097 299.772 408.134 303.171C405.912 307.02 402.538 309.197 398.371 310.416C395.579 310.689 393.343 310.766 390.729 309.613C387.234 308.072 384 305.444 382.702 301.746C381.382 297.983 381.489 293.275 383.324 289.703C385.507 285.455 389.391 283.466 393.718 282.1Z"
     id="path13" />
  <path
     fill="#FF9AA3"
     d="M263.764 718.585C266.094 718.48 268.252 718.441 270.501 719.147C274.459 720.389 277.54 723.403 279.343 727.101C280.848 730.187 280.971 734.018 279.872 737.254L279.601 738L278.752 740.081C276.825 743.689 273.496 745.42 269.812 746.663C266.737 746.982 263.566 746.981 260.683 745.686C257.056 744.057 254.32 740.498 253.016 736.814C251.87 733.574 251.962 729.854 253.473 726.754C255.776 722.025 258.915 720.124 263.764 718.585Z"
     id="path14" />
  <path
     fill="#FEFEFE"
     d="M267.773 416.083C270.53 415.752 273.421 415.717 276 416.87C279.734 418.539 283.181 422.025 284.534 425.917C285.84 429.673 285.413 433.576 283.465 437.052C281.231 441.039 277.567 443.179 273.334 444.474C270.314 444.554 267.578 444.756 264.712 443.621C261.031 442.162 258.307 439.434 256.795 435.779C255.24 432.02 255.243 427.935 256.994 424.233C259.226 419.514 263.084 417.622 267.773 416.083Z"
     id="path15" />
  <path
     fill="#FF9AA3"
     d="M340.886 298.62L341.411 299L326.44 313.253C322.231 317.124 317.838 320.608 314.725 325.468L316.035 330.253C315.486 332.131 297.787 348.307 294.864 351.144L294.197 351.34L293.75 350.47C294.036 341.081 296.155 331.896 300.953 323.733C309.863 308.574 324.726 302.811 340.886 298.62Z"
     id="path16" />
  <path
     fill="#FF9AA3"
     d="M207.953 590.37C209.095 590.485 210.118 590.876 211.195 591.25C215.409 595.879 218.121 602.569 221.303 608.002C223.206 611.249 227.367 616.45 227.581 620.076C227.67 621.568 227.175 622.771 226.148 623.839C223.293 626.808 213.042 625.539 208.875 625.509L194.75 625.452C192.899 625.279 191.548 624.852 190.469 623.25C189.863 622.351 189.752 621.179 189.917 620.125C190.238 618.068 191.803 615.923 192.864 614.171L199.359 603.497C201.35 600.041 202.97 596.03 205.25 592.787C205.944 591.8 206.982 591.065 207.953 590.37Z"
     id="path17" />
  <path
     fill="#FEFEFE"
     d="M494.29 173.901L495.004 173.879C496.115 173.903 497.282 173.972 498.25 174.58C502.27 177.104 506.346 182.523 509.742 185.931C512.683 188.884 516.022 191.577 518.796 194.672C519.948 195.957 520.723 197.446 520.433 199.225C519.985 201.975 500.542 219.955 497.561 222.651L494.295 222.402C492.826 222.095 473.531 203.171 471.872 200.75C471.045 199.544 470.983 198.405 471.33 196.991C472.044 194.082 477.769 189.961 480.089 187.697C484.843 183.057 488.751 177.656 494.29 173.901Z"
     id="path18" />
  <path
     fill="#FEFEFE"
     d="M577.92 213.427C583.275 214.311 587.384 220.328 591.062 224.054L602.133 235.02C603.7 236.606 604.022 237.81 604.026 240C602.883 242.381 600.531 244.208 598.651 246.038L588.841 255.817C586.927 257.865 585.321 260.325 583.311 262.25C582.529 262.999 581.519 263.501 580.528 263.91C579.547 263.839 578.15 263.842 577.268 263.39C574.916 262.183 571.847 257.805 569.888 255.805C565.347 251.169 559.737 246.812 555.663 241.841C554.66 240.617 554.269 238.956 554.75 237.419C555.431 235.241 558.202 233.295 559.812 231.769L569.561 222.18C572.364 219.296 574.599 215.725 577.92 213.427Z"
     id="path19" />
  <path
     fill="#FEFEFE"
     d="M474.01 727.824L490.111 743.927C493.851 747.597 497.877 751.167 501.08 755.319L473.798 782.44L446.706 754.986L474.01 727.824Z"
     id="path20" />
  <path
     fill="#FF9AA3"
     d="M778.61 569.105C782.127 568.86 785.764 569.887 789 571.184C806.394 578.156 813.873 598.622 820.735 614.61C820.02 616.133 818.431 617.477 817.225 618.652C812.972 622.796 807.799 626.393 802.074 628.124C793.873 630.604 784.267 629.612 775.757 629.534L732.576 629.354C735.823 616.73 739.198 605.468 746.557 594.466C753.897 583.495 765.211 571.777 778.61 569.105Z"
     id="path21" />
  <path
     fill="#FEFEFE"
     d="M841.034 484.441L842.835 484.446C844.714 484.541 845.66 485.326 846.654 486.885C848.355 489.55 849.015 493.908 849.961 497C851.608 502.378 854.273 507.21 857.618 511.711C862.359 518.091 868.395 523.21 875.396 526.966C878.528 528.647 881.812 529.951 885.149 531.158C887.03 531.838 889.621 532.386 890.92 534.014C891.745 535.049 891.801 536.98 891.568 538.25C891.333 539.53 890.749 540.123 889.599 540.67C887.686 541.58 885.286 542.025 883.265 542.738C876.118 545.259 869.895 548.79 864.302 553.965C857.72 560.055 852.103 567.905 849.447 576.549C848.618 579.25 848.222 582.748 846.882 585.205C846.251 586.36 844.982 587.143 843.922 587.87C840.007 587.362 839.276 586.913 837.81 583.151C836.18 578.971 834.87 574.771 832.846 570.74C827.221 559.537 818.199 549.976 806.571 545.015C803.076 543.524 797.253 542.673 794.383 540.303C793.548 539.615 793.083 538.566 793.079 537.474C793.075 536.093 793.521 534.779 794.6 533.867C796.655 532.13 800.004 531.288 802.475 530.267C808.459 527.792 813.599 525.378 818.567 521.098C825.829 514.841 830.997 507.202 834.435 498.29C836.264 493.548 837.5 488.213 841.034 484.441Z"
     id="path22" />
  <path
     fill="#FEFEFE"
     d="M166.518 484.997C168.469 485.13 170.435 485.142 171.796 486.75C172.974 488.141 173.304 491.077 173.669 492.812C174.43 496.429 175.226 500.013 176.542 503.477C178.435 508.459 181.145 512.813 184.389 517.013C189.234 523.286 195.664 528.046 202.795 531.434C206.638 533.26 210.625 534.473 214.678 535.72C216.49 536.277 219.242 536.825 220.483 538.401C221.271 539.402 221.49 541.115 221.369 542.349C221.198 544.088 220.273 545.36 218.856 546.333C217.191 547.477 213.87 547.654 211.886 548.202C203.845 550.426 195.756 554.821 189.664 560.536C181.954 567.768 176.634 576.984 174.38 587.336C173.734 590.299 173.714 593.944 172.544 596.716C172.01 597.981 170.92 598.817 169.861 599.635L166.75 599.962C164.82 599.958 163.15 598.903 162.253 597.206C161.105 595.034 161.068 591.522 160.569 589.068C159.105 581.868 156.72 575.004 152.718 568.805C147.045 560.016 137.411 552.561 127.624 548.912C123.673 547.438 118.681 547.183 115.75 543.963C115.525 543.224 115.075 542.327 115.233 541.57C115.534 540.126 115.907 539.045 117.156 538.165C119.744 536.342 123.762 535.811 126.755 534.762C130.832 533.334 134.358 531.56 137.979 529.197C146.317 523.758 153.582 515.503 157.354 506.253C159.337 501.391 160.391 496.126 161.453 491L161.958 488.781C162.651 486.702 164.682 485.853 166.518 484.997Z"
     id="path23" />
  <path
     fill="#FF9AA3"
     d="M505.26 339.711C524.98 338.29 546.664 341.986 565.422 347.935C571.937 350.001 578.403 352.115 584.543 355.15L515.988 422.793L512.031 426.717L439.906 354.591C461.254 345.985 482.285 341.113 505.26 339.711Z"
     id="path24" />
  <path
     fill="#FF9AA3"
     d="M353.198 442.04C362.032 448.975 369.95 458.324 377.843 466.328L424.531 512.747L380.456 556.892L352.157 585.207C350.896 583.973 350.166 581.828 349.464 580.194L345.316 569.622C330.379 527.652 334.216 481.955 353.198 442.04Z"
     id="path25" />
  <path
     fill="#FF9AA3"
     d="M511.65 597.999L585.023 670.87C574.184 675.446 562.952 679.665 551.48 682.33C538.746 685.287 526.089 686.333 513.078 686.97C491.106 687.291 469.291 682.823 448.827 674.99C446.036 673.922 441.364 672.699 439.162 670.768L511.65 597.999Z"
     id="path26" />
  <path
     fill="#FF9AA3"
     d="M672.403 438.343C673.692 439.363 674.307 441.659 674.935 443.203C693.872 489.764 692.899 541.876 673.451 588.058L644.36 558.283L598.782 511.981L672.403 438.343Z"
     id="path27" />
  <path
     fill="#FEFEFE"
     d="M251.494 190.719L257.25 190.34C259.102 190.353 260.283 190.736 261.17 192.471C262.838 195.734 262.361 200.834 263.092 204.5C264.845 213.285 268.881 222.415 273.602 230C281.445 242.599 292.92 254.062 306.549 260.224C309.316 261.475 312.175 262.633 315.067 263.559C317.653 264.388 322.461 265.078 324.285 267.201C325.084 268.131 325.588 269.364 325.492 270.595C325.372 272.148 324.793 273.293 323.436 274.11C320.735 275.735 317.232 276.338 314.292 277.49C306.806 280.424 299.985 284.845 293.738 289.865C281.521 299.681 270.677 314.588 266.047 329.659C264.205 335.657 263.531 341.412 262.8 347.605C262.359 351.351 261.803 352.337 258.825 354.683L256.189 354.983C254.109 355.131 252.175 354.535 251.024 352.686C249.523 350.277 249.515 346.585 249.202 343.794C248.832 340.497 248.185 337.156 247.433 333.924C245.856 327.152 243.412 320.37 240.075 314.265C231.249 298.12 216.27 283.514 198.574 277.521C195.129 276.355 189.655 276.235 186.98 273.815C185.825 272.769 185.552 271.598 185.509 270.102C185.451 268.111 186.464 266.571 188.203 265.677C190.962 264.259 194.957 264.022 197.986 263.196C208.284 260.389 217.123 254.579 224.797 247.287C232.967 239.523 239.869 230.518 244.281 220.075C246.466 214.903 248.148 209.172 249.013 203.622C249.579 199.994 249.644 196.212 250.386 192.626C250.559 191.788 250.902 191.313 251.494 190.719Z"
     id="path28" />
  <path
     fill="#FEFEFE"
     d="M766.422 191.005C767.777 191.067 769.088 191.441 770.404 191.75C770.827 192.142 771.754 192.787 772.024 193.25C773.162 195.2 773.124 198.74 773.418 200.962C773.783 203.718 774.405 206.426 775.182 209.094C781.563 231.011 798.74 250.446 819.363 259.972C822.794 261.557 826.279 262.906 829.885 264.035C832.066 264.718 835.237 265.296 837.139 266.5C838.121 267.122 838.719 268.097 838.882 269.25C839.049 270.437 838.537 273.436 837.557 274.15C835.048 275.977 830.02 276.307 826.965 277.305C817.917 280.262 808.4 285.43 801.25 291.692C788.676 302.704 778.923 316.884 775.203 333.347C774.068 338.372 774.261 346.914 771.067 350.75C768.331 352.277 765.97 352.227 762.996 351.447C762.043 350.499 760.996 349.511 760.577 348.199C759.754 345.621 759.717 342.572 759.275 339.891C758.335 334.189 757.007 328.586 754.936 323.181C751.166 313.339 744.61 303.975 737.14 296.582C728.942 288.468 719.321 281.593 708.376 277.685C704.783 276.402 701.023 275.526 697.275 274.836C694.956 274.409 691.051 274.458 689.335 273C689.372 272.306 689.36 271.426 689.587 270.75C689.966 269.622 690.757 268.619 691.818 268.088C694.319 266.835 698.424 266.484 701.202 265.742C708.435 263.811 714.974 261.217 721.432 257.429C738.572 247.375 753.403 229.329 759.327 210.344C760.248 207.393 761.18 204.371 761.781 201.336C762.235 199.041 762.144 195.857 762.972 193.75C763.538 192.311 765.132 191.682 766.422 191.005Z"
     id="path29" />
  <path
     fill="#FEFEFE"
     d="M364.048 320.254C368.131 320.954 493.064 448.335 509.21 462.831C509.588 463.17 511.902 465.378 512.269 465.422C512.439 465.442 512.51 465.179 512.631 465.058L524.661 453.277L615.722 363.31L637.267 341.855C640.775 338.36 644.318 334.288 648.195 331.228C650.941 329.061 654.541 327.605 658.039 327.44C663.398 327.188 667.651 328.28 671.705 332.016L687.862 347.958C690.511 350.619 694.212 353.667 696.076 356.913C697.623 359.607 698.409 363.11 698.432 366.218C698.46 370.11 697.42 374.044 695.019 377.153C691.47 381.751 686.414 385.887 682.283 390.024L654.13 418.202L559.494 513.287L568.099 521.405L657.457 610.282L685.046 637.786C689.634 642.337 695.083 646.86 699.073 651.906C700.843 654.145 701.718 656.572 701.702 659.429C701.689 661.842 701.351 663.601 699.965 665.584C696.847 670.046 691.291 674.085 687.378 677.909L668.296 697.009C664.851 700.239 660.982 700.136 656.523 699.989C653.876 699.391 652.12 698.298 650.067 696.519C644.985 692.115 640.329 686.942 635.521 682.216L600.39 647.165L512.553 559.054C508.854 561.054 505.61 565.09 502.655 568.065L485.921 584.906L407.732 662.137L387.222 682.407C383.398 686.231 379.6 690.857 375.19 693.969C372.186 696.088 367.906 696.953 364.25 696.938C361.614 696.927 359.149 696.379 356.901 694.978C352.967 692.526 349.411 688.432 346.059 685.235L329.985 669.998C326.6 666.652 324.888 662.003 325.012 657.25C325.09 654.27 326.087 650.872 327.906 648.486C330.987 644.444 335.637 640.995 339.249 637.384L367.97 608.381L463.685 512.429L317.815 367.042L364.048 320.254Z"
     id="path30" />
  <path
     fill="#FF9AA3"
     d="M76.9945 307.865L91.853 279.111C103.831 257.75 117.757 236.83 132.539 217.317C189.402 142.254 272.148 83.6661 361.93 55.1508C422.606 35.8799 486.956 27.7842 550.517 32.8288C613.626 37.8373 676.774 56.4605 732.877 85.6145C764.736 102.171 793.509 122.214 821.083 145.152C835.384 157.048 849.348 169.366 862.121 182.931C884.624 206.83 904.558 233.257 921.871 261.103C931.174 276.065 940.297 291.753 947.532 307.833C999.219 417.289 1005.49 548.653 964.765 662.631C945.654 716.115 916.668 767.16 879.407 810.104C874.149 816.164 868.933 822.65 863.109 828.167L692.299 828.073L694.748 821.138C702.17 820.813 709.398 819.118 716.5 817.039C737.989 810.747 756.025 799.728 772.223 784.359C800.087 757.921 814.35 720.752 815.426 682.832C818.095 680.737 822.382 679.359 825.46 677.749C831.161 674.766 836.712 671.435 842.016 667.792C876.574 644.06 902.215 608.964 909.936 567.355C914.504 566.125 918.603 563.76 922.088 560.573C927.815 555.335 931.134 547.189 931.339 539.5C931.605 529.525 925.901 519.779 917.468 514.613C916.634 514.102 913.212 512.597 912.802 511.969C912.337 511.256 912.133 508.794 911.899 507.798L908.756 496.505C901.842 475.365 890.783 458.143 875.252 442.374C858.143 426.269 836.883 413.404 814.902 405.179L815.038 313.734C819.81 310.084 825.308 306.24 831.066 304.384C838.812 301.886 845.132 302.098 852.013 297C859.309 291.595 863.727 284.002 865.051 275.05C867.167 260.745 859.223 247.09 846.176 241.301C841.724 239.326 836.801 238.814 832.381 236.851C826.358 234.175 820.625 230.054 815.839 225.548C808.261 218.414 802.285 208.524 800.314 198.25C798.766 190.181 798.89 183.505 793.646 176.572C789.018 170.454 782.181 165.587 774.448 164.533L773.5 164.413C770.111 163.956 766.798 163.779 763.389 164.227C750.422 165.93 740.491 174.563 737.146 187.254C735.73 192.623 735.758 198.159 733.87 203.516C731.665 209.77 727.796 215.411 723.777 220.623C719.855 218.399 715.864 216.127 711.614 214.594C700.583 210.616 688.133 209.992 676.5 210.078L667.982 210.26C666.903 210.29 664.996 210.593 663.992 210.377C663.302 210.229 653.99 195.95 652.705 194.277C639.033 176.486 623.014 162.268 604.048 150.288C565.342 125.84 516.662 118.801 472.291 128.886C437.647 136.76 406.309 155.535 382.552 181.885C374.544 190.768 367.642 200.547 361.27 210.646L295.015 213.311C291.611 206.198 289.938 200.637 289.062 192.813C288.076 184.002 283.912 175.664 276.935 170.105C269.525 164.201 259.987 161.956 250.622 163.165C237.33 164.881 226.767 174.532 223.563 187.5C222.703 190.982 222.759 194.515 222.406 198.056C221.536 206.769 217.746 215.104 212.072 221.746C207.188 227.464 200.301 232.857 193.214 235.495C190.06 236.669 186.806 237.028 183.588 237.913C175.791 240.059 168.872 244.43 164.049 250.96C158.731 258.159 156.553 266.38 157.996 275.25C159.958 287.312 168.468 296.958 179.877 301.019C187.428 303.707 195.063 304.95 201.686 309.779C205.494 312.556 208.503 315.781 211.471 319.428C211.699 319.709 212.872 320.942 212.952 321.266C213.102 321.878 212.611 323.789 212.51 324.469L211.441 333.801C210.561 345.551 209.955 357.503 210.671 369.292C211.252 378.855 212.67 388.424 214.187 397.875C212.634 399.599 209.156 400.863 207 402.001L195.261 408.809C180.138 418.23 166.993 428.657 155.177 442.081C147.999 451.306 142.19 460.888 137.463 471.581L130.501 488.5L126.472 500.326C126.199 501.144 125.708 503.459 125.255 503.995C124.801 504.533 121.297 505.391 120.428 505.691C115.089 507.53 109.09 509.197 104.058 511.717C91.7303 517.892 84.7664 532.612 86.298 546C87.1757 553.671 90.8391 560.912 96.9543 565.715C101.012 568.902 125.532 580.759 126.335 583.13C127.125 585.459 127.23 588.608 127.75 591.078C128.928 596.669 130.43 602.21 132.339 607.597C143.027 637.748 167.055 662.115 195.728 675.862C197.912 676.909 207.116 680.419 208.325 681.856C208.336 681.87 208.475 682.77 208.49 682.888C209.467 690.562 209.348 698.297 210.689 705.969C216.515 739.33 233.286 771.285 260 792.547C277.327 806.337 298.242 815.721 319.805 820.59C321.677 821.013 326.761 821.583 328.25 822.664C328.323 822.718 328.506 823.662 328.517 823.75C328.686 825.055 328.584 826.37 328.768 827.689C310.095 828.071 163.962 826.909 162.081 828.074L152.916 818.445L127.076 787.645C93.8175 745.098 69.3861 695.721 52.8342 644.446C24.1714 555.654 25.9616 460.302 52.7606 371.307C59.238 349.797 66.73 327.9 76.9945 307.865Z"
     id="path31" />
</svg>
