<?xml version="1.0" encoding="UTF-8" standalone="no"?>
<svg
   width="1024"
   height="1024"
   version="1.1"
   id="svg31"
   sodipodi:docname="wbishop.svg"
   inkscape:version="1.3.2 (091e20ef0f, 2023-11-25)"
   xmlns:inkscape="http://www.inkscape.org/namespaces/inkscape"
   xmlns:sodipodi="http://sodipodi.sourceforge.net/DTD/sodipodi-0.dtd"
   xmlns="http://www.w3.org/2000/svg"
   xmlns:svg="http://www.w3.org/2000/svg">
  <sodipodi:namedview
     id="namedview31"
     pagecolor="#ffffff"
     bordercolor="#000000"
     borderopacity="0.25"
     inkscape:showpageshadow="2"
     inkscape:pageopacity="0.0"
     inkscape:pagecheckerboard="0"
     inkscape:deskcolor="#d1d1d1"
     inkscape:zoom="3.2206504"
     inkscape:cx="519.30504"
     inkscape:cy="158.50835"
     inkscape:window-width="1440"
     inkscape:window-height="831"
     inkscape:window-x="0"
     inkscape:window-y="0"
     inkscape:window-maximized="1"
     inkscape:current-layer="svg31" />
  <ellipse
     style="fill:#090a59;stroke:none;stroke-width:5.568;stroke-linecap:round"
     id="path41"
     cx="511.94711"
     cy="142.73065"
     rx="24.501917"
     ry="16.312578" />
  <rect
     style="fill:#090a59;stroke:none;stroke-width:5.568;stroke-linecap:round"
     id="rect40"
     width="52.345306"
     height="22.994919"
     x="193.21265"
     y="401.48318"
     ry="4.5772018"
     transform="rotate(-35.629421)" />
  <rect
     style="fill:#090a59;stroke:none;stroke-width:5.568;stroke-linecap:round"
     id="rect41"
     width="52.345306"
     height="22.994919"
     x="-643.5097"
     y="-193.60828"
     ry="4.5772018"
     transform="matrix(-0.81280174,-0.58254042,-0.58254042,0.81280174,0,0)" />
  <ellipse
     style="fill:#090a59;stroke:none;stroke-width:5.22818;stroke-linecap:round"
     id="path39"
     cx="514.7204"
     cy="194.74432"
     rx="92.337906"
     ry="30.823427" />
  <rect
     style="fill:#090a59;stroke:none;stroke-width:5.568;stroke-linecap:round"
     id="rect39"
     width="23.896086"
     height="33.058151"
     x="-358.44864"
     y="718.00745"
     ry="4.5772018"
     transform="matrix(-0.91885431,0.39459695,0.39459695,0.91885431,0,0)" />
  <rect
     style="fill:#090a59;stroke:none;stroke-width:5.568;stroke-linecap:round"
     id="rect38"
     width="23.896086"
     height="33.058151"
     x="617.90497"
     y="243.98032"
     ry="4.5772018"
     transform="rotate(29.67962)" />
  <rect
     style="fill:#090a59;stroke:none;stroke-width:5.568;stroke-linecap:round"
     id="rect32"
     width="47.348198"
     height="24.284735"
     x="702.93146"
     y="353.92905"
     ry="4.5772018"
     transform="rotate(36.338058)" />
  <rect
     style="fill:#090a59;stroke:none;stroke-width:5.568;stroke-linecap:round"
     id="rect33"
     width="47.348198"
     height="24.284735"
     x="-120.95514"
     y="959.9801"
     ry="4.5772018"
     transform="matrix(-0.80553487,0.59254838,0.59254838,0.80553487,0,0)" />
  <rect
     style="fill:#090a59;stroke:none;stroke-width:5.568;stroke-linecap:round"
     id="rect34"
     width="222.62436"
     height="209.01886"
     x="401.34821"
     y="551.37909"
     ry="4.5772018" />
  <rect
     style="fill:#090a59;stroke:none;stroke-width:5.81627;stroke-linecap:round"
     id="rect35"
     width="293.45111"
     height="107.76329"
     x="365.06003"
     y="619.72552"
     ry="4.5772018" />
  <rect
     style="fill:#090a59;stroke:none;stroke-width:6.04018;stroke-linecap:round"
     id="rect36"
     width="119.75891"
     height="44.471157"
     x="153.44818"
     y="886.1358"
     ry="4.6861343"
     transform="matrix(0.89426512,-0.44753758,0.56731169,0.82350315,0,0)" />
  <rect
     style="fill:#090a59;stroke:none;stroke-width:6.04018;stroke-linecap:round"
     id="rect37"
     width="119.75891"
     height="44.471157"
     x="-699.89258"
     y="422.38214"
     ry="4.6861343"
     transform="matrix(-0.89426512,-0.44753758,-0.56731169,0.82350315,0,0)" />
  <ellipse
     style="fill:#090a59;stroke:none;stroke-width:5.568;stroke-linecap:round"
     id="path32"
     cx="262.43668"
     cy="623.97083"
     rx="13.099669"
     ry="13.712171" />
  <ellipse
     style="fill:#090a59;stroke:none;stroke-width:5.568;stroke-linecap:round"
     id="ellipse32"
     cx="764.43665"
     cy="623.97083"
     rx="13.099669"
     ry="13.712171" />
  <rect
     style="fill:#090a59;stroke:none;stroke-width:5.568;stroke-linecap:round"
     id="rect11"
     width="246.16534"
     height="64.985901"
     x="398.57535"
     y="753.55505"
     ry="4.5772018" />
  <rect
     style="fill:#090a59;stroke:none;stroke-width:5.62986;stroke-linecap:round"
     id="rect10"
     width="366.04373"
     height="25.626072"
     x="328.38806"
     y="772.59692"
     ry="4.5772018" />
  <rect
     style="fill:#090a59;stroke:none;stroke-width:5.568;stroke-linecap:round"
     id="rect9"
     width="345.08746"
     height="125.18353"
     x="336.14752"
     y="795.63635"
     ry="4.5772018" />
  <rect
     style="fill:#090a59;stroke:none;stroke-width:6.14055;stroke-linecap:round"
     id="rect7"
     width="58.291065"
     height="115.73357"
     x="814.48486"
     y="286.66641"
     ry="5.0526152"
     transform="matrix(0.68267037,0.73072646,-0.73878381,0.67394249,0,0)" />
  <rect
     style="fill:#090a59;stroke:none;stroke-width:6.14055;stroke-linecap:round"
     id="rect8"
     width="58.291065"
     height="115.73357"
     x="123.79808"
     y="1035.5457"
     ry="5.0526152"
     transform="matrix(-0.68267037,0.73072646,0.73878381,0.67394249,0,0)" />
  <rect
     style="fill:#090a59;stroke:none;stroke-width:5.73766;stroke-linecap:round"
     id="rect6"
     width="558.28687"
     height="63.978539"
     x="234.20152"
     y="888.48511"
     ry="4.5772018" />
  <rect
     style="fill:#090a59;stroke:none;stroke-width:5.64866;stroke-linecap:round"
     id="rect5"
     width="320.90762"
     height="159.37192"
     x="352.04459"
     y="233.35493"
     ry="4.3105116" />
  <rect
     style="fill:#090a59;stroke:none;stroke-width:16.347;stroke-linecap:round"
     id="rect4"
     width="268.35995"
     height="270.3681"
     x="378.24185"
     y="214.13446"
     ry="4.3105116" />
  <rect
     style="fill:#090a59;stroke:none;stroke-width:7.71499;stroke-linecap:round"
     id="rect2"
     width="183.61488"
     height="706.51489"
     x="420.08691"
     y="215.2758"
     ry="2.8393464" />
  <path
     fill="#FF9AA3"
     d="M393.598 379.887C395.828 379.973 396.155 379.917 397.908 381.25C398.447 382.496 398.673 383.328 398.406 384.69C398.017 386.68 396.86 387.637 395.28 388.768C393.993 388.474 392.633 388.205 391.551 387.397C390.409 386.545 390.219 385.561 390.054 384.25C390.821 382.184 391.934 381.283 393.598 379.887Z"
     id="path2"
     style="stroke:#090a59;stroke-opacity:1;stroke-width:5;stroke-dasharray:none" />
  <path
     fill="#FF9AA3"
     d="M629.568 380.459C631.427 380.538 633.171 380.312 634.61 381.75C635.496 382.635 635.959 384.007 635.963 385.25C635.967 386.904 634.734 387.948 633.656 389.021L632.969 389.097C631.387 389.224 629.564 389.37 628.351 388.151C627.377 387.173 626.84 385.883 626.946 384.5C627.085 382.68 628.352 381.666 629.568 380.459Z"
     id="path3"
     style="stroke:#090a59;stroke-opacity:1;stroke-width:5;stroke-dasharray:none" />
  <path
     fill="#3F7992"
     d="M508.651 343.557L514 343.479C517.445 343.682 520.584 345.515 522.781 348.116C525.333 351.137 526.94 355.171 526.434 359.163C525.638 365.445 519.535 370.592 514.773 374.135C513.822 374.717 513.093 375.116 512 375.357C507.057 372.338 501.742 367.196 499.337 361.844C497.883 358.609 497.89 355.148 499.258 351.867C501.119 347.408 504.383 345.283 508.651 343.557Z"
     id="path4"
     style="stroke:#090a59;stroke-opacity:1;stroke-width:5;stroke-dasharray:none" />
  <path
     fill="#FF9AA3"
     d="M511.618 300.388C513.812 300.561 514.624 301.028 516.197 302.558C522.086 308.283 527.355 314.803 533.042 320.75L542.03 329.796C543.734 331.489 545.766 333.217 547.076 335.25C547.935 336.583 548.03 337.883 548.024 339.434C548.001 345.318 539.213 351.565 535.123 355.517C534.255 351.093 533.482 347.002 530.75 343.26C526.549 337.507 520.609 334.992 513.728 334.063C508.992 333.986 503.8 334.987 499.75 337.541C493.126 341.718 490.398 347.454 488.773 354.799L478.877 345.11C475.91 342.031 476.468 339.415 476.505 335.47C480.075 330.495 485.242 326.039 489.549 321.641C496.524 314.52 503.48 306.142 511.618 300.388Z"
     id="path5"
     style="stroke:#090a59;stroke-opacity:1;stroke-width:5;stroke-dasharray:none" />
  <path
     fill="#FF9AA3"
     d="M527.753 144.672C529.454 144.657 532.235 146.174 533.798 146.943C545.749 152.821 554.586 161.301 564.374 170.061C560.178 170.918 554.964 170.375 550.649 170.474L505.75 170.875L469.709 172.6C470.7 167.717 471.928 163.029 474.75 158.846C479.11 152.384 486.496 147.475 494.22 146.219C498.257 145.562 502.86 146.012 506.953 146.059C514.088 146.143 520.708 145.926 527.753 144.672Z"
     id="path6"
     style="stroke:#090a59;stroke-opacity:1;stroke-width:5;stroke-dasharray:none" />
  <path
     fill="#FF9AA3"
     d="M313.247 823.474L411.985 823.99C405.267 832.89 400.525 841.744 396.237 852.037L382.25 851.994L282.346 851.834C286.747 846.816 291.964 842.402 296.941 837.955L313.247 823.474Z"
     id="path7"
     style="stroke:#090a59;stroke-opacity:1;stroke-width:5;stroke-dasharray:none" />
  <path
     fill="#FF9AA3"
     d="M610.89 823.967L714.607 823.978L743.759 851.982L626.846 852.041C622.291 842.063 617.077 833 610.89 823.967Z"
     id="path8"
     style="stroke:#090a59;stroke-opacity:1;stroke-width:5;stroke-dasharray:none" />
  <path
     fill="#FF9AA3"
     d="M508.3 73.6706C515.995 73.2772 522.859 74.3849 529.38 78.7897C535.87 83.1746 541.884 91.3708 543.287 99.1446C544.831 107.697 542.857 116.198 537.938 123.34C532.577 131.125 524.445 135.782 515.277 137.374C506.775 137.671 499.919 136.536 492.825 131.561C485.702 126.567 481.104 119.689 479.75 111.046C478.377 102.283 479.991 93.3674 485.341 86.1916C491.033 78.5567 499.067 75.0084 508.3 73.6706Z"
     id="path9"
     style="stroke:#090a59;stroke-opacity:1;stroke-width:5;stroke-dasharray:none" />
  <path
     fill="#FF9AA3"
     d="M270.855 862.188L392.585 862.051C389.141 871.804 387.043 880.945 385.534 891.151L358.25 891.104L235.077 890.873L235.889 889C239.951 879.368 246.956 871.081 256.408 866.367C260.991 864.081 265.776 862.748 270.855 862.188Z"
     id="path10"
     style="stroke:#090a59;stroke-opacity:1;stroke-width:5;stroke-dasharray:none" />
  <path
     fill="#FF9AA3"
     d="M631.03 861.96L706.69 861.9C720.656 861.903 735.452 861.014 749.329 862.282C754.213 862.728 759.003 863.82 763.58 865.585C773.327 869.343 783.821 877.239 788.078 887.072C788.71 888.533 789.503 889.654 788.9 891.191L637.614 891.345L631.03 861.96Z"
     id="path11"
     style="stroke:#090a59;stroke-opacity:1;stroke-width:5;stroke-dasharray:none" />
  <path
     fill="#FF9AA3"
     d="M252.676 630.767C279.777 654.49 312.572 669.666 347.185 678.878C358.626 681.923 370.492 684.651 382.285 685.799L367.403 714.051L357.137 728.871C336.796 722.557 317.923 713.851 300.977 700.82C278.79 683.76 256.447 659.527 252.676 630.767Z"
     id="path12"
     style="stroke:#090a59;stroke-opacity:1;stroke-width:5;stroke-dasharray:none" />
  <path
     fill="#FF9AA3"
     d="M772.889 628.955L773.321 629.422C772.771 638.991 768.609 649.395 764.203 657.793C745.164 694.082 704.224 717.124 666.302 728.894L657.798 715.607L642.967 686.71L668 681.515C699.861 673.711 733.397 661.571 759.526 641.282C764.311 637.566 768.586 633.206 772.889 628.955Z"
     id="path13"
     style="stroke:#090a59;stroke-opacity:1;stroke-width:5;stroke-dasharray:none" />
  <path
     fill="#FF9AA3"
     d="M425.867 824.166L596.618 824.063C600.409 826.206 603.197 829.972 605.596 833.518C609.588 839.416 612.799 845.689 616.071 851.998L596.75 851.991L406.876 851.912C411.59 841.773 417.24 831.49 425.867 824.166Z"
     id="path14"
     style="stroke:#090a59;stroke-opacity:1;stroke-width:5;stroke-dasharray:none" />
  <path
     fill="#FF9AA3"
     d="M442.269 501.686L580.898 501.569C561.247 518.492 546.027 539.73 533.52 562.32L512.443 610.731C510.464 607.316 509.238 603.013 507.812 599.309L500.404 581.5C486.549 551.031 467.665 523.571 442.269 501.686Z"
     id="path15"
     style="stroke:#090a59;stroke-opacity:1;stroke-width:5;stroke-dasharray:none" />
  <path
     fill="#FF9AA3"
     d="M620 861.78L620.42 861.969C621.614 864.057 622.264 866.568 622.993 868.855C625.308 876.119 626.585 883.567 627.696 891.095L404.625 891.163L395.506 891.065C396.833 881.312 399.109 871.79 402.459 862.531C404.315 861.172 598.455 862.056 620 861.78Z"
     id="path16"
     style="stroke:#090a59;stroke-opacity:1;stroke-width:5;stroke-dasharray:none" />
  <path
     fill="#FF9AA3"
     d="M233.831 901.105L384.577 901.152C383.325 919.245 385.166 934.306 392.229 950.982L371.125 950.995L278.163 950.998L250.109 950.987C244.168 950.974 238.07 951.207 232.168 950.43C228.849 949.993 225.569 948.699 222.736 946.943C217.013 943.396 212.597 937.887 211.243 931.209C209.929 924.727 210.874 918.109 214.627 912.579C219.28 905.722 225.905 902.59 233.831 901.105Z"
     id="path17"
     style="stroke:#090a59;stroke-opacity:1;stroke-width:5;stroke-dasharray:none" />
  <path
     fill="#FF9AA3"
     d="M643.952 901.256L729.559 901.001L766.638 901.037C775.042 901.053 786.121 899.795 794.109 902.638C801.111 905.129 807.327 909.87 810.468 916.75C813.123 922.566 813.184 928.912 810.799 934.802C807.825 942.147 802.312 946.242 795.258 949.276C785.723 952.424 773.273 950.999 763.291 950.986L725.654 950.974L629.899 951.271C633.086 942.835 635.911 934.492 637.303 925.55C638.561 917.475 638.517 909.598 638.215 901.468L643.952 901.256Z"
     id="path18"
     style="stroke:#090a59;stroke-opacity:1;stroke-width:5;stroke-dasharray:none" />
  <path
     fill="#FF9AA3"
     d="M382.351 412.717L442.129 412.652L537.871 412.604L610.16 412.504C621.584 412.499 633.358 411.903 644.75 412.496C646.698 412.598 648.723 413.236 650.446 414.139C654.173 416.093 657.231 419.929 658.235 424.041C659.226 428.1 658.324 432.563 655.989 436C653.298 439.96 649.736 441.668 645.125 442.436L468.341 442.492L411.395 442.477C401.587 442.474 391.401 443.068 381.655 442.304C378.952 442.092 376.21 441.404 373.922 439.895C370.689 437.764 368.211 434.039 367.523 430.214C366.83 426.363 367.777 421.749 370.155 418.64C373.469 414.309 377.165 413.257 382.351 412.717Z"
     id="path19"
     style="stroke:#090a59;stroke-opacity:1;stroke-width:5;stroke-dasharray:none" />
  <path
     fill="#FF9AA3"
     d="M512.073 644.071L522.898 673C537.03 705.774 558.466 734.737 584.649 758.854L598.962 770.865L511.75 770.51L424.275 770.793C432.636 763.403 441.274 756.743 449.25 748.851C478.871 719.541 498.435 683.071 512.073 644.071Z"
     id="path20"
     style="stroke:#090a59;stroke-opacity:1;stroke-width:5;stroke-dasharray:none" />
  <path
     fill="#FF9AA3"
     d="M571.633 180.263C572.873 180.321 572.344 180.153 573.419 180.777C578.491 183.723 583.477 188.465 588.036 192.206C601.422 203.191 613.791 215.52 625.081 228.641C639.307 245.174 652.364 263.314 658.043 284.713C666.284 315.771 656.633 347.07 641.074 374.174C637.096 371.917 632.956 370.125 628.25 371.008C624.668 371.681 621.492 373.931 619.487 376.942C617.226 380.338 616.792 385.112 617.682 389.031C618.423 392.291 620.998 396.103 623.945 397.75C625.438 398.585 627.081 399.079 628.528 400L628.576 401.931C628.178 402.203 627.156 403.095 626.75 403.178C623.843 403.77 619.549 403.233 616.515 403.255L587.426 403.289C592.175 393.47 596.256 382.973 600.036 372.745C609.238 347.851 616.052 321.941 613.223 295.14C610.344 267.876 597.038 241.869 582.401 219.144C573.664 205.581 562.94 191.21 550.267 180.997L549.663 180.516L571.633 180.263Z"
     id="path21"
     style="stroke:#090a59;stroke-opacity:1;stroke-width:5;stroke-dasharray:none" />
  <path
     fill="#FF9AA3"
     d="M619.889 543.188C624.682 554.429 630.509 563.99 638.642 573.143C658.241 595.197 689.939 610.596 719.729 609.836C731.88 609.526 743.495 606.72 755.762 607.534C760.066 607.819 765.071 609.046 767.886 612.56C768.815 613.719 769.459 615.481 769.171 616.975C767.513 625.592 744.884 639.568 737.279 644.274C707.892 661.849 672.052 671.88 638.495 677.305C637.353 675.614 636.734 673.306 636.015 671.399L631.778 659.368C619.655 622.742 613.42 581.536 619.889 543.188Z"
     id="path22"
     style="stroke:#090a59;stroke-opacity:1;stroke-width:5;stroke-dasharray:none" />
  <path
     fill="#FF9AA3"
     d="M404.681 542.317C405.52 544.47 405.51 547.277 405.705 549.592L406.525 564.315C407.218 603.547 401.223 640.127 386.643 676.664C381.799 676.414 376.841 675.241 372.057 674.417C341.89 669.22 312.074 658.585 285.729 642.987C274.165 636.072 263.522 627.752 253.499 618.768C253.942 617.527 254.446 616.317 255.13 615.187C257.17 611.814 260.546 609.112 264.036 607.385C275.766 601.584 284.793 607.337 296.668 608.356C308.538 609.375 320.29 608.88 331.821 605.735C357.472 598.741 378.717 582.195 393.844 560.502C397.92 554.657 401.172 548.495 404.681 542.317Z"
     id="path23"
     style="stroke:#090a59;stroke-opacity:1;stroke-width:5;stroke-dasharray:none" />
  <path
     fill="#FF9AA3"
     d="M599.413 186.912C600.424 186.927 601.476 186.929 602.438 187.288C604.944 188.224 607.404 189.958 609.761 191.259L623.773 198.997C656.701 217.195 690.905 238.548 708.75 273.129C721.084 297.03 728.627 325.013 719.998 351.5C713.643 371.009 700.682 388.492 682.214 397.911C674.115 402.137 665.447 403.583 656.561 405.154C650.224 402.226 643.792 403.017 636.982 402.682C639.529 398.751 645.244 394.754 645.452 389.825C645.604 386.236 646.837 384.98 648.469 382.018C655.709 368.882 661.775 354.564 666.302 340.287C673.394 317.921 672.204 292.308 663.691 270.535C655.582 249.797 640.986 230.494 625.476 214.654L608.828 197.952C605.755 194.859 601.556 191.286 599.619 187.364L599.413 186.912Z"
     id="path24"
     style="stroke:#090a59;stroke-opacity:1;stroke-width:5;stroke-dasharray:none" />
  <path
     fill="#FF9AA3"
     d="M394.591 901.361L628.478 901.402C628.616 916.711 627.612 929.788 621.769 944.127L618.398 951.124L403.383 951.032C395.11 934.741 393.2 919.466 394.591 901.361Z"
     id="path25"
     style="stroke:#090a59;stroke-opacity:1;stroke-width:5;stroke-dasharray:none" />
  <path
     fill="#FF9AA3"
     d="M367.656 452.22L436.262 452.114L566.526 452.147L630.874 452.071L649.969 452.035C653.595 452.03 657.421 451.779 661.01 452.313L661.75 452.434C666.272 453.145 670.285 455.189 673.355 458.641C677.374 463.16 679.089 468.867 678.438 474.824C677.876 479.965 674.716 484.582 670.665 487.64C667.18 490.271 663.756 491.31 659.544 491.969L453.584 492.014L392.295 491.984L374.11 492.025C370.96 492.028 367.535 492.267 364.416 491.908C360.855 491.499 357.571 489.865 354.741 487.704C350.868 484.746 347.983 480.179 347.395 475.285C346.703 469.525 348.244 463.977 352.09 459.564C356.539 454.46 360.995 452.594 367.656 452.22Z"
     id="path26"
     style="stroke:#090a59;stroke-opacity:1;stroke-width:5;stroke-dasharray:none" />
  <path
     fill="#FF9AA3"
     d="M329.035 780.658L550.961 780.749L645.638 780.737L693.953 780.755C697.159 780.905 700.055 781.258 702.91 782.872C707.138 785.261 710.679 789.55 711.757 794.315C712.694 798.453 711.715 803.188 709.441 806.75C706.543 811.289 702.136 813.21 697.07 814.215C692.639 814.716 687.947 814.418 683.474 814.419L659.141 814.424L569.809 814.115L405.907 814.092L353.636 814.034C345.489 814.035 337.165 814.507 329.04 814.127C325.955 813.983 323.05 812.971 320.486 811.25C316.161 808.348 313.937 804.404 312.979 799.378C312.18 795.188 313.771 790.619 316.255 787.253C319.498 782.86 323.859 781.379 329.035 780.658Z"
     id="path27"
     style="stroke:#090a59;stroke-opacity:1;stroke-width:5;stroke-dasharray:none" />
  <defs
     id="defs28">
    <linearGradient
       id="gradient_0"
       gradientUnits="userSpaceOnUse"
       x1="468.66708"
       y1="294.88434"
       x2="300.73166"
       y2="287.02032">
      <stop
         offset="0"
         stop-color="#FB696A"
         id="stop27" />
      <stop
         offset="1"
         stop-color="#FACBC2"
         id="stop28" />
    </linearGradient>
  </defs>
  <path
     fill="url(#gradient_0)"
     d="M472.367 181.178C473.203 180.996 473.759 181.125 474.594 181.25C450.672 203.835 430.694 230.741 420.122 262.116C416.497 272.876 414.55 284.245 413.326 295.5C411.904 308.572 411.999 322.164 414.245 335.143C418.398 359.138 428.895 381.241 439.686 402.837C436.822 403.572 432.67 403.059 429.628 403.063L379 403.117C374.038 403.197 369.114 404.603 364.195 404.408C359.163 404.207 354.058 403.438 349.282 401.81C331.159 395.63 315.239 379.238 307.082 362.245C296.608 340.425 297.309 316.785 305.199 294.284C319.739 252.813 353.655 219.158 392.875 200.207C404.715 194.49 417.166 189.722 429.862 186.307L417 194.054C386.063 215.075 366.026 248.43 359.162 284.897C354.272 310.875 358.094 337.33 368.499 361.487C371.511 368.48 375.043 375.806 379.389 382.077L379.75 382.588C379.34 384.713 380.315 387.532 381.087 389.5C382.397 392.844 385.066 395.458 388.39 396.792C391.961 398.225 397.159 398.065 400.557 396.37C404.187 394.56 406.488 391.668 407.642 387.8C408.64 384.451 408.19 380.544 406.466 377.5C404.551 374.121 401.17 371.463 397.328 370.648C392.641 369.654 389.415 371.552 385.608 373.952C376.706 358.903 370.141 342.887 367.539 325.516C362.68 293.077 372.862 255.622 392.416 229.485C411.265 204.29 441.161 185.701 472.367 181.178Z"
     id="path28"
     style="stroke:#090a59;stroke-opacity:1;stroke-width:5;stroke-dasharray:none" />
  <path
     fill="#FF9AA3"
     d="M405.985 501.54C411.1 501.447 418.116 500.568 422.933 502.215L423.75 502.523C426.969 503.712 429.87 505.365 432.733 507.238C443.584 514.336 452.548 524.46 460.46 534.612C478.449 557.691 492.987 584.48 502.275 612.26C503.913 617.159 505.848 622.156 506.896 627.219C503.525 638.585 500 650.279 495.502 661.25C478.9 701.744 452.323 736.901 417.785 763.776C415.29 765.632 411.038 769.747 408.172 770.672C406.836 771.103 404.376 770.821 402.939 770.826L391.333 770.83L335.196 770.751C337.165 767.85 339.803 765.348 342.189 762.784L352.527 751.123C364.617 736.716 374.944 721.291 383.961 704.794C417.337 643.724 425.538 568.25 405.985 501.54Z"
     id="path29"
     style="stroke:#090a59;stroke-opacity:1;stroke-width:5;stroke-dasharray:none" />
  <path
     fill="#FF9AA3"
     d="M595.921 501.704L619.868 501.673C615.137 513.189 612.227 525.318 610.421 537.619C600.371 606.075 619.538 676.976 657.981 734.041C661.636 739.468 665.457 744.837 669.641 749.87C675.441 756.846 681.733 763.402 687.165 770.678L619.375 770.855L615.524 770.728C604.135 763.855 593.054 754.008 583.668 744.599C560.001 720.875 541.429 692.867 528.939 661.723C524.346 650.27 520.89 638.524 517.436 626.7C519.611 618.252 522.695 610.133 525.796 601.992C540.075 564.499 563.678 526.283 595.921 501.704Z"
     id="path30"
     style="stroke:#090a59;stroke-opacity:1;stroke-width:5;stroke-dasharray:none" />
  <path
     fill="#FF9AA3"
     d="M488.879 179.957L531.901 179.978C537.67 182.987 542.561 187.412 547.287 191.816C559.654 203.341 569.875 217.182 578.649 231.566C586.592 244.587 593.726 258.782 598.506 273.283C602.391 285.072 604.609 297.311 604.439 309.75C604.202 327.037 599.887 343.811 594.343 360.074C589.288 374.901 583.191 389.337 576.113 403.311L517.037 403.318L516.994 390.493C516.991 389.532 516.692 386.92 516.98 386.168C517.63 384.471 521.369 381.634 522.775 380.225L540.611 362.33C544.877 358.172 550.321 353.863 553.787 349.034C555.569 346.55 556.857 343.515 557.006 340.441C557.169 337.068 556.579 333.932 554.911 330.95C552.592 326.806 548.517 323.366 545.288 319.894L527.612 300.806L524.587 297.499C521.031 293.716 517.922 291.574 512.5 291.644C509.402 291.685 506.651 292.812 504.147 294.562C499.644 297.708 495.657 302.683 491.782 306.636L472.844 325.849C468.927 329.995 467.254 334.554 467.451 340.188C467.748 348.667 474.203 352.806 479.75 358.107L502.011 380.172C503.458 381.619 507.045 384.361 507.907 386.068C508.229 386.706 507.591 390.551 507.556 391.535L507.708 403.157L450.188 403.216L438.974 380.366C432.673 366.832 426.937 352.333 423.937 337.671C420.858 322.622 420.578 306.458 422.516 291.25C427.303 253.695 447.049 222.594 472.726 195.81C477.865 190.448 482.98 184.477 488.879 179.957Z"
     id="path31"
     style="stroke:#090a59;stroke-opacity:1;stroke-width:5;stroke-dasharray:none" />
  <rect
     style="fill:#090a59;stroke:none;stroke-width:19.466;stroke-linecap:round"
     id="rect1"
     width="220.88208"
     height="7.6985416"
     x="402.51672"
     y="492.78131"
     ry="1.4350176" />
</svg>
