<?xml version="1.0" encoding="UTF-8" standalone="no"?>
<svg
   width="1024"
   height="1024"
   version="1.1"
   id="svg33"
   sodipodi:docname="wking.svg"
   inkscape:version="1.3.2 (091e20ef0f, 2023-11-25)"
   xmlns:inkscape="http://www.inkscape.org/namespaces/inkscape"
   xmlns:sodipodi="http://sodipodi.sourceforge.net/DTD/sodipodi-0.dtd"
   xmlns="http://www.w3.org/2000/svg"
   xmlns:svg="http://www.w3.org/2000/svg">
  <defs
     id="defs33" />
  <sodipodi:namedview
     id="namedview33"
     pagecolor="#ffffff"
     bordercolor="#000000"
     borderopacity="0.25"
     inkscape:showpageshadow="2"
     inkscape:pageopacity="0.0"
     inkscape:pagecheckerboard="0"
     inkscape:deskcolor="#d1d1d1"
     inkscape:zoom="0.56933594"
     inkscape:cx="374.99828"
     inkscape:cy="360.94683"
     inkscape:window-width="1440"
     inkscape:window-height="831"
     inkscape:window-x="0"
     inkscape:window-y="0"
     inkscape:window-maximized="1"
     inkscape:current-layer="svg33" />
  <rect
     style="fill:#090a59;fill-opacity:1;stroke:#090a59;stroke-width:2.70624;stroke-linecap:round;stroke-dasharray:none;stroke-opacity:1"
     id="rect53"
     width="448.25955"
     height="4.2287183"
     x="287.5097"
     y="595.06274"
     ry="0.19475898" />
  <rect
     style="fill:#090a59;fill-opacity:1;stroke:none;stroke-width:5;stroke-opacity:1"
     id="rect46"
     width="18.008575"
     height="23.660378"
     x="407.22549"
     y="30.187136"
     ry="0.82553679"
     transform="rotate(27.258955)" />
  <rect
     style="fill:#090a59;fill-opacity:1;stroke:none;stroke-width:5;stroke-opacity:1"
     id="rect46-6"
     width="18.008575"
     height="23.660378"
     x="-503.9967"
     y="497.89844"
     ry="0.82553679"
     transform="matrix(-0.88894557,0.45801286,0.45801286,0.88894557,0,0)" />
  <rect
     style="fill:#090a59;fill-opacity:1;stroke:none;stroke-width:5;stroke-opacity:1"
     id="rect47"
     width="315.96152"
     height="93.054283"
     x="356.10043"
     y="209.14594"
     ry="0.82553679" />
  <rect
     style="fill:#090a59;fill-opacity:1;stroke:none;stroke-width:5;stroke-opacity:1"
     id="rect48"
     width="242.79597"
     height="75.011536"
     x="388.2659"
     y="168.90514"
     ry="0.82553679" />
  <rect
     style="fill:#090a59;fill-opacity:1;stroke:none;stroke-width:5;stroke-opacity:1"
     id="rect49"
     width="20.221678"
     height="8.6684256"
     x="455.42657"
     y="179.97617"
     ry="0.82553679"
     transform="rotate(-8.8406523)" />
  <rect
     style="fill:#090a59;fill-opacity:1;stroke:none;stroke-width:5;stroke-opacity:1"
     id="rect50"
     width="20.221678"
     height="8.6684256"
     x="-554.19305"
     y="21.80069"
     ry="0.82553679"
     transform="matrix(-0.98811959,-0.15368696,-0.15368696,0.98811959,0,0)" />
  <rect
     style="fill:#090a59;fill-opacity:1;stroke:none;stroke-width:5;stroke-opacity:1"
     id="rect51"
     width="76.708351"
     height="61.83485"
     x="470.84216"
     y="113.54097"
     ry="0.82553679" />
  <rect
     style="fill:#090a59;fill-opacity:1;stroke:none;stroke-width:5;stroke-opacity:1"
     id="rect52"
     width="125.99963"
     height="76.910904"
     x="446.29111"
     y="124.28706"
     ry="0.82553679" />
  <rect
     style="fill:#090a59;fill-opacity:1;stroke:none;stroke-width:5;stroke-opacity:1"
     id="rect44"
     width="24.441879"
     height="25.865797"
     x="720.51288"
     y="286.95468"
     ry="0.82553679"
     transform="rotate(41.228161)" />
  <rect
     style="fill:#090a59;fill-opacity:1;stroke:none;stroke-width:5;stroke-opacity:1"
     id="rect45"
     width="24.441879"
     height="25.865797"
     x="-48.784218"
     y="961.09119"
     ry="0.82553679"
     transform="matrix(-0.75209107,0.65905919,0.65905919,0.75209107,0,0)" />
  <rect
     style="fill:#090a59;fill-opacity:1;stroke:none;stroke-width:5.8831;stroke-opacity:1"
     id="rect42"
     width="35.126106"
     height="36.855667"
     x="348.83774"
     y="683.22766"
     ry="1.1365086" />
  <rect
     style="fill:#090a59;fill-opacity:1;stroke:none;stroke-width:5.8831;stroke-opacity:1"
     id="rect43"
     width="35.126106"
     height="36.855667"
     x="640.83777"
     y="683.22766"
     ry="1.1365086" />
  <rect
     style="fill:#090a59;fill-opacity:1;stroke:none;stroke-width:4.99011;stroke-opacity:1"
     id="rect37"
     width="97.676682"
     height="104.38336"
     x="326.68353"
     y="383.07889"
     ry="0.82553679" />
  <rect
     style="fill:#090a59;fill-opacity:1;stroke:none;stroke-width:4.92031;stroke-opacity:1"
     id="rect38"
     width="92.915627"
     height="106.68349"
     x="604.86108"
     y="383.08292"
     ry="0.84372783" />
  <rect
     style="fill:#090a59;fill-opacity:1;stroke:none;stroke-width:5;stroke-opacity:1"
     id="rect39"
     width="49.097771"
     height="48.996571"
     x="291.88678"
     y="415.54803"
     ry="0.82553679" />
  <rect
     style="fill:#090a59;fill-opacity:1;stroke:none;stroke-width:5;stroke-opacity:1"
     id="rect40"
     width="38.317326"
     height="58.584904"
     x="686.5849"
     y="410.1561"
     ry="0.82553679" />
  <rect
     style="fill:#090a59;fill-opacity:1;stroke:none;stroke-width:6.36055;stroke-opacity:1"
     id="rect41"
     width="353.35849"
     height="162.55574"
     x="334.78217"
     y="272.65695"
     ry="0.82553679" />
  <rect
     style="fill:#090a59;fill-opacity:1;stroke:none;stroke-width:5.1362;stroke-opacity:1"
     id="rect36"
     width="284.2739"
     height="247.84154"
     x="371.10614"
     y="535.04089"
     ry="0.7975986" />
  <rect
     style="fill:#090a59;fill-opacity:1;stroke:none;stroke-width:4.99181;stroke-opacity:1"
     id="rect35"
     width="344.50427"
     height="182.22984"
     x="339.27356"
     y="707.37738"
     ry="0.81263137" />
  <path
     fill="#ff9aa3"
     d="m 685.39,723.696 c 22.224,10.391 42.293,23.552 58.433,42.298 21.051,24.45 34.759,54.336 38.286,86.491 1.215,11.069 0.978,21.938 0.162,33.024 -2.416,1.325 -31.744,0.177 -36.616,0.151 l -60.073,-0.01 z"
     id="path35"
     style="stroke:#090a59;stroke-width:5;stroke-dasharray:none;stroke-opacity:1;fill:#090a59;fill-opacity:1" />
  <path
     fill="#ff9aa3"
     d="m 338.477,725.031 c 1.061,1.856 0.378,24.198 0.394,28.25 l -0.031,134.452 -99.285,0.289 -0.689,-0.772 c -0.032,-10.941 -0.424,-22.112 0.713,-33 1.257,-12.03 4.487,-23.518 8.605,-34.849 15.838,-43.584 48.782,-75.038 90.293,-94.37 z"
     id="path34"
     style="stroke:#090a59;stroke-width:5;stroke-dasharray:none;stroke-opacity:1;fill:#090a59;fill-opacity:1" />
  <path
     fill="#FF9AA3"
     d="M659.164 334.256L685.603 334.274L685.528 362.498L672.931 357.461C661.844 351.984 651.448 343.51 643.169 334.397L659.164 334.256Z"
     id="path2"
     style="stroke:#090a59;stroke-opacity:1;stroke-width:5;stroke-dasharray:none" />
  <path
     fill="#FF9AA3"
     d="M340.248 334.106L397.822 334.143L377.794 348.135C364.271 355.676 350.875 360.064 335.997 364.038L340.248 334.106Z"
     id="path3"
     style="stroke:#090a59;stroke-opacity:1;stroke-width:5;stroke-dasharray:none" />
  <path
     fill="#FF9AA3"
     d="M611.46 334.466L626.773 334.422C627.361 334.42 630.718 334.198 631.06 334.41C631.632 334.764 632.947 337.02 633.43 337.666C635.339 340.223 637.429 342.644 639.54 345.036C651.594 358.697 668.087 367.87 685.612 372.209L685.534 395.034C677.247 394.248 669.693 392.755 662 389.496C636.736 378.793 621.546 359.371 611.46 334.466Z"
     id="path4"
     style="stroke:#090a59;stroke-opacity:1;stroke-width:5;stroke-dasharray:none" />
  <path
     fill="#FF9AA3"
     d="M715.512 145.598C718.627 145.333 722.577 145.07 725.615 145.809L726.25 145.977C728.379 146.522 730.393 147.143 732.352 148.161C738.809 151.519 743.949 157.009 746.191 163.993C748.294 170.542 747.832 178.527 744.474 184.608C740.524 191.762 734.116 196.134 726.425 198.476C720.295 199.755 713.849 198.846 708.239 196.1C702.2 193.145 697.036 187.216 695.127 180.75C692.915 173.262 693.222 164.991 697.187 158.115C701.152 151.24 708.101 147.559 715.512 145.598Z"
     id="path5"
     style="stroke:#090a59;stroke-opacity:1;stroke-width:5;stroke-dasharray:none" />
  <path
     fill="#FF9AA3"
     d="M302.13 142.589C308.753 141.881 314.947 142.627 320.655 146.233C327.167 150.347 332.608 157.137 334.152 164.796C335.582 171.886 333.982 180.157 329.861 186.125C325.016 193.14 318.164 197.251 309.881 198.913C306.37 199.24 302.737 199.1 299.303 198.3C291.942 196.586 285.321 191.865 281.372 185.413C277.673 179.37 276.336 170.745 278.219 163.874L278.473 163C279.225 160.339 280.155 157.969 281.655 155.629C286.386 148.246 293.725 144.373 302.13 142.589Z"
     id="path6"
     style="stroke:#090a59;stroke-opacity:1;stroke-width:5;stroke-dasharray:none" />
  <path
     fill="#FF9AA3"
     d="M657.474 548.467C669.494 548.316 682.35 551.355 693.453 555.873C711.451 563.198 725.558 574.349 733.22 592.59L699.125 592.883L622.68 592.682L622.752 585.346C622.755 585.012 622.682 583.494 622.772 583.291C623.589 581.447 632.155 575.035 634.242 573.22C642.941 565.653 650.261 557.444 657.474 548.467Z"
     id="path7"
     style="stroke:#090a59;stroke-opacity:1;stroke-width:5;stroke-dasharray:none" />
  <path
     fill="#FF9AA3"
     d="M349.849 551.709L350.374 551.648C355.7 551.172 361.356 551.51 366.717 551.479C367.911 551.472 370.821 551.091 371.859 551.45C372.077 551.525 373.379 553.393 373.58 553.647L380.518 561.786C386.628 568.583 393.381 574.735 400.484 580.481L400.474 592.729L343.25 593.042L291.323 593.025C293.712 586.804 297.055 581.288 301.334 576.168C313.544 561.56 331.025 553.377 349.849 551.709Z"
     id="path8"
     style="stroke:#090a59;stroke-opacity:1;stroke-width:5;stroke-dasharray:none" />
  <path
     fill="#FF9AA3"
     d="M325.476 385.667L325.823 385.777C326.776 386.909 326.349 388.484 326.295 389.941C325.661 407.147 326.34 424.104 327.024 441.293L318.492 432.682C316.036 430.009 311.613 424.035 308.314 422.75C306.917 422.206 305.024 422.46 303.75 423.206C302.085 424.182 301.518 425.453 301.067 427.25C301.717 431.059 306.652 434.781 309.305 437.479L329.945 457.934L332.375 471.976C333.257 475.998 335.38 480.959 335.363 485.004C321.667 485.137 310.211 483.443 298.9 475.122C288.27 467.302 282.144 455.603 280.148 442.743C278.201 430.203 281.316 416.472 288.934 406.259C297.927 394.201 310.839 387.799 325.476 385.667Z"
     id="path9"
     style="stroke:#090a59;stroke-opacity:1;stroke-width:5;stroke-dasharray:none" />
  <path
     fill="#FF9AA3"
     d="M411.815 334.499L472.663 334.313C468.501 339.567 462.769 344.436 457.654 348.75C437.217 365.989 414.124 378.195 388.622 386.177C371.062 391.344 354.188 393.212 335.992 394.017L336.428 372.629C365.01 370.957 391.205 353.034 411.815 334.499Z"
     id="path10"
     style="stroke:#090a59;stroke-opacity:1;stroke-width:5;stroke-dasharray:none" />
  <path
     fill="#FF9AA3"
     d="M695.478 385.448C698.719 385.457 702.347 385.846 705.5 386.586C719.139 389.786 731.398 398.462 738.678 410.449C745.19 421.17 747.97 436.902 744.832 449.146C742.646 457.679 739.207 464.637 733.309 471.264C724.105 481.604 710.83 486.785 697.253 487.531L687.743 487.408L691.677 470.795L693.6 460.423C693.735 459.768 693.889 458.114 694.233 457.607C695.179 456.213 697.251 454.691 698.47 453.46L712.144 439.538C714.677 436.979 719.187 433.356 719.944 429.75C719.707 427.979 719.426 427.425 718.25 426.08C716.486 425.193 715.484 424.858 713.5 424.945C711.004 426.287 709.023 428.712 707.034 430.704L695.451 442.873L695.478 385.448Z"
     id="path11"
     style="stroke:#090a59;stroke-opacity:1;stroke-width:5;stroke-dasharray:none" />
  <path
     fill="#FF9AA3"
     d="M602.893 203.985C606.868 207.676 610.273 212.462 613.722 216.658L630.824 237.391C634.032 241.311 636.911 245.466 640.773 248.789C647.494 246.889 654.62 241.97 660.882 238.676L720.445 206.507L698.338 251.811L687.475 273.644L686.5 273.544C680.924 272.754 675.351 272.982 669.716 272.975L645.272 272.971L561.468 273.072L561.436 257.979C561.436 257.246 561.224 254.787 561.492 254.249C561.917 253.39 563.255 252.192 563.906 251.429L570.153 243.986L602.893 203.985Z"
     id="path12"
     style="stroke:#090a59;stroke-opacity:1;stroke-width:5;stroke-dasharray:none" />
  <path
     fill="#FF9AA3"
     d="M420.108 202.937L444.795 232.99L459.179 250.326C460.019 251.381 462.065 253.422 462.521 254.629C462.799 255.362 462.529 257.73 462.531 258.664L462.564 273.076L336.468 273.509L335.636 273.6L327.656 256.327L305.055 208.548C316.444 213.736 376.661 248.062 381.591 247.526C382.964 247.377 384.103 246.503 385.076 245.587C389.793 241.141 393.915 235.226 397.968 230.144L420.108 202.937Z"
     id="path13"
     style="stroke:#090a59;stroke-opacity:1;stroke-width:5;stroke-dasharray:none" />
  <path
     fill="#FF9AA3"
     d="M622.263 602.429L732.021 602.555C721.636 622.767 706.972 640.266 695.05 659.544L675.534 696.89C666.508 694.566 658.44 690.372 651.71 683.917C634.759 667.659 625.587 642.26 622.872 619.355C622.214 613.809 622.375 608.015 622.263 602.429Z"
     id="path14"
     style="stroke:#090a59;stroke-opacity:1;stroke-width:5;stroke-dasharray:none" />
  <path
     fill="#FF9AA3"
     d="M362.136 602.75L400.46 602.569C400.014 624.624 397.572 646.88 386.952 666.618C379.291 680.855 367.325 691.614 351.727 696.253L342.932 682.243L291.041 602.934L362.136 602.75Z"
     id="path15"
     style="stroke:#090a59;stroke-opacity:1;stroke-width:5;stroke-dasharray:none" />
  <path
     fill="#FF9AA3"
     d="M481.295 109.091C481.687 109.031 482.393 109.145 482.799 109.175C477.511 120.521 471.416 130.983 467.474 143.008C465.301 149.637 463.585 156.849 462.869 163.789C462.091 171.327 462.602 179.291 462.608 186.871L462.483 237.526C451.918 226.487 442.287 214.035 432.523 202.25C429.458 198.551 426.122 193.263 422.447 190.25C421.18 189.212 420.001 189.469 418.5 189.547C415.109 191.802 411.594 197.645 408.939 200.944L388.625 225.967L379.702 236.607L347.908 219.46C351.003 209.632 356.64 199.318 362.131 190.645C383.269 157.262 414.312 131.472 451.418 117.494C461.12 113.839 471.197 111.368 481.295 109.091Z"
     id="path16"
     style="stroke:#090a59;stroke-opacity:1;stroke-width:5;stroke-dasharray:none" />
  <path
     fill="#FF9AA3"
     d="M540.467 108.748C558.774 112.5 576.408 117.377 593.189 125.784C630.721 144.585 663.648 178.857 677.103 219.046L643.204 236.57C640.836 234.203 638.835 231.423 636.773 228.786L614.443 201.597C611.925 198.515 607.312 190.81 603.5 189.984C602.22 190.274 601.528 190.705 600.568 191.612C595.956 195.968 591.895 201.789 587.862 206.74L561.49 238.393L561.493 190.125C561.492 181.685 561.977 172.905 561.337 164.5C559.826 144.65 550.044 125.811 540.467 108.748Z"
     id="path17"
     style="stroke:#090a59;stroke-opacity:1;stroke-width:5;stroke-dasharray:none" />
  <path
     fill="#FF9AA3"
     d="M409.683 616.754C430.739 633.364 456.091 643.72 482.581 647.456C511.995 651.604 544.229 650.365 572.307 640.031C586.738 634.72 600.096 626.874 612.356 617.665C613.694 626.111 615.12 634.531 617.382 642.79C618.799 647.963 620.785 653.003 622.503 658.084C619.163 660.338 616.183 663.31 613.171 665.987C582.549 691.603 544.277 702.609 504.604 700.416C468.168 698.401 427.05 685.58 402.12 657.57C406.277 643.99 408.107 630.828 409.683 616.754Z"
     id="path18"
     style="stroke:#090a59;stroke-opacity:1;stroke-width:5;stroke-dasharray:none" />
  <path
     fill="#FF9AA3"
     d="M685.39 711.696C707.614 722.087 727.683 735.248 743.823 753.994C764.874 778.444 778.582 808.33 782.109 840.485C783.324 851.554 783.087 862.423 782.271 873.509C779.855 874.834 750.527 873.686 745.655 873.66L685.582 873.65L685.39 711.696Z"
     id="path19"
     style="stroke:#090a59;stroke-opacity:1;stroke-width:5;stroke-dasharray:none" />
  <path
     fill="#FF9AA3"
     d="M338.477 711.031C339.538 712.887 338.855 735.229 338.871 739.281L338.84 873.733L239.555 874.022L238.866 873.25C238.834 862.309 238.442 851.138 239.579 840.25C240.836 828.22 244.066 816.732 248.184 805.401C264.022 761.817 296.966 730.363 338.477 711.031Z"
     id="path20"
     style="stroke:#090a59;stroke-opacity:1;stroke-width:5;stroke-dasharray:none" />
  <path
     fill="#FF9AA3"
     d="M512.075 84.8268C515.537 89.352 518.497 94.5721 521.689 99.3213C534.935 119.03 548.149 139.598 550.943 163.778C551.501 168.602 551.331 173.611 551.367 178.464L551.434 203.399L551.098 273.055L511.875 273.073L472.791 273.073L472.754 200.349C472.763 188.321 471.856 175.43 473.18 163.484C475.389 143.545 485.266 125.291 495.9 108.687L512.075 84.8268Z"
     id="path21"
     style="stroke:#090a59;stroke-opacity:1;stroke-width:5;stroke-dasharray:none" />
  <path
     fill="#FF9AA3"
     d="M424.364 283.248L624.351 283.346L667.709 283.349L679.655 283.315C681.692 283.309 684.054 283.029 686.001 283.557L685.926 324.026L600.25 324.053L337.484 324.116L337.422 283.424L424.364 283.248Z"
     id="path22"
     style="stroke:#090a59;stroke-opacity:1;stroke-width:5;stroke-dasharray:none" />
  <path
     fill="#FF9AA3"
     d="M242.934 884.698L366.707 884.531L613.805 884.502L725.456 884.642L757.741 884.606C765.035 884.593 772.552 884.24 779.797 885.198C790.329 886.591 800.25 891.485 808.495 898.071C821.716 908.633 827.605 922.401 829.391 938.928L782.75 938.863L195.445 938.953C195.728 927.097 199.267 914.705 206.75 905.356C215.735 894.13 228.514 886.314 242.934 884.698Z"
     id="path23"
     style="stroke:#090a59;stroke-opacity:1;stroke-width:5;stroke-dasharray:none" />
  <path
     fill="#FF9AA3"
     d="M626.833 666.777C633.909 679.394 642.971 691.813 655.69 699.219C661.585 702.651 667.931 704.783 674.392 706.869C674.777 721.923 671.851 735.156 667.114 749.37C658.783 774.368 645.053 797.945 626.94 817.117C597.384 848.399 557.742 870.637 513.987 871.757C473.222 872.802 434.011 851.289 405.176 823.991C374.954 793.883 352.781 750.036 351.353 706.912L351.804 706.792C373.461 700.669 387.037 686.893 397.722 667.629C425.053 695.108 466.542 708.882 504.75 710.336C539.979 711.677 576.525 703.641 606.064 683.864C613.621 678.804 620.203 672.971 626.833 666.777Z"
     id="path24"
     style="stroke:#090a59;stroke-opacity:1;stroke-width:5;stroke-dasharray:none" />
  <path
     fill="#090A59"
     d="M509.065 792.572C513.235 792.284 517.209 792.398 521.007 794.378C525.381 796.658 528.895 800.914 530.313 805.636C531.889 810.883 531.667 815.913 528.877 820.751C526.049 825.653 522.011 828.492 516.671 830.05C514.192 830.375 511.841 830.612 509.36 830.153C504.032 829.167 499.427 826.356 496.462 821.75C493.738 817.518 492.559 812.354 493.812 807.382L493.986 806.75C494.584 804.525 495.287 802.471 496.51 800.5C499.457 795.747 503.912 793.89 509.065 792.572Z"
     id="path25"
     style="stroke:none;stroke-opacity:1;stroke-width:5;stroke-dasharray:none" />
  <path
     fill="#090A59"
     d="M507.773 733.613C512.598 733.037 517.103 733.13 521.5 735.42C526.12 737.826 529.154 742.14 530.634 747.041C532.186 752.181 531.486 757.75 528.844 762.426C526.233 767.049 522.237 769.93 517.189 771.326C512.739 772.104 508.655 772.204 504.417 770.39C500.142 768.559 495.977 763.911 494.312 759.617C492.408 754.709 492.792 748.428 495.138 743.75C497.762 738.518 502.357 735.386 507.773 733.613Z"
     id="path26"
     style="stroke:none;stroke-opacity:1;stroke-width:5;stroke-dasharray:none" />
  <path
     fill="#FF9AA3"
     d="M596.369 334.266L600.5 334.13C602.009 335.484 602.33 337.604 603.017 339.5L606.417 347.939C610.424 356.76 615.749 365.146 622.008 372.542C638.486 392.015 660.398 402.571 685.58 404.571C685.606 417.313 686.131 430.343 685.404 443.056C684.646 456.305 682.164 470.507 678.294 483.222C673.827 497.897 668.278 512.057 660.632 525.384C645.061 552.524 621.404 574.775 593.775 589.367C553.588 610.592 504.796 614.459 461.499 601.139C415.739 587.062 380.079 554.59 357.811 512.688C343.548 483.977 335.835 450.687 335.508 418.599L335.463 406.333C335.464 405.486 334.8 404.315 335.466 403.793C335.827 403.51 336.384 403.771 336.843 403.76L348.561 403.298C360.156 402.268 371.682 400.827 383 398.018C405.51 392.43 428.011 382.523 447.047 369.275C461.65 359.113 474.333 347.163 486.735 334.489L567.01 334.346C558.929 342.242 550.17 348.964 541.08 355.628C521.3 370.13 499.867 382.506 476.853 391.117C474.331 392.061 472.836 392.727 471.679 395.25C471.543 396.922 471.512 398.543 472.75 399.851C476.559 403.877 486.226 398.348 490.393 396.538C514.026 386.271 536.326 372.503 556.561 356.56L572.149 343.46L578.971 337.073C579.674 336.402 580.912 334.876 581.713 334.447C582.094 334.244 584.408 334.414 584.919 334.407L596.369 334.266Z"
     id="path27"
     style="stroke:#090a59;stroke-opacity:1;stroke-width:5;stroke-dasharray:none" />
  <path
     fill="#090A59"
     d="M487.061 532.494C491.388 532.209 493.364 534.322 497.015 536.112C503.452 539.269 510.081 540.416 517.224 539.252L518 539.115C521.684 538.483 524.855 537.458 528.144 535.673C530.014 534.657 532.193 532.809 534.273 532.401C535.442 532.172 536.79 532.54 537.714 533.25C538.976 534.219 539.824 536.19 539.877 537.75C539.937 539.52 538.84 540.711 537.713 541.93C531.498 545.823 524.824 548.536 517.475 549.311C508.363 550.272 499.564 549.007 491.417 544.704C489.589 543.738 487.358 542.658 485.861 541.25C484.395 539.87 484.3 538.177 484.474 536.25C484.632 534.495 485.839 533.593 487.061 532.494Z"
     id="path28"
     style="stroke:none;stroke-opacity:1;stroke-width:5;stroke-dasharray:none" />
  <path
     fill="#090A59"
     d="M393.041 412.186L453.25 412.015C454.968 412.087 456.877 412.748 457.88 414.246C458.614 415.343 458.805 417.425 458.473 418.693C457.987 420.554 456.245 421.511 454.625 422.2L393.496 422.353C392.16 422.235 390.692 421.676 389.878 420.573C388.93 419.287 388.559 417.408 389.053 415.836C389.656 413.914 391.296 412.887 393.041 412.186Z"
     id="path29"
     style="stroke:none;stroke-opacity:1;stroke-width:5;stroke-dasharray:none" />
  <path
     fill="#090A59"
     d="M562.161 412.101L631.474 411.962C633.157 412.031 634.239 412.365 635.321 413.692C636.386 414.998 636.823 416.756 636.424 418.412C635.943 420.405 634.622 421.172 632.947 422.026L563.396 422.25C561.836 422.096 560.305 421.066 559.459 419.75C558.74 418.632 558.535 417.626 558.763 416.322C559.134 414.201 560.458 413.225 562.161 412.101Z"
     id="path30"
     style="stroke:none;stroke-opacity:1;stroke-width:5;stroke-dasharray:none" />
  <path
     fill="#090A59"
     d="M527.999 458.458C529.168 458.633 530.71 458.754 531.731 459.386C532.853 460.081 533.661 460.919 533.987 462.229C534.899 465.894 534.708 499.414 533.351 501.391C532.416 502.754 531.386 503.48 529.75 503.581C523.221 503.985 516.464 503.573 509.91 503.613C504.513 503.646 498.678 504.247 493.34 503.635C492.234 503.508 491.607 503.191 490.844 502.391C488.638 500.08 489.319 496.32 489.309 493.355L489.307 475.75C489.288 472.605 488.312 463.231 490.276 460.936C491.231 459.819 492.481 459.141 493.966 459.063C495.241 458.996 496.686 459.498 497.626 460.364C498.409 461.085 499.119 462.044 499.25 463.124C499.614 466.131 499.206 469.636 499.196 472.694L499.126 493.558L524.127 493.529L524.114 472.436C524.115 469.384 523.785 465.874 524.352 462.869C524.745 460.785 525.811 459.932 527.51 458.78L527.999 458.458Z"
     id="path31"
     style="stroke:none;stroke-opacity:1;stroke-width:5;stroke-dasharray:none" />
  <path
     fill="#090A59"
     d="M593.064 437.579C597.048 437.315 600.819 438.269 604.283 440.26C608.535 442.704 611.991 446.961 613.199 451.75C614.441 456.675 613.685 462.068 610.973 466.393C607.544 471.86 602.948 474.082 596.883 475.419C593.251 475.527 589.808 474.998 586.5 473.404C582.13 471.298 578.452 467.346 577.014 462.673C575.497 457.741 576.036 451.195 578.659 446.74C581.759 441.473 587.365 438.902 593.064 437.579Z"
     id="path32"
     style="stroke:none;stroke-opacity:1;stroke-width:5;stroke-dasharray:none" />
  <path
     fill="#090A59"
     d="M425.946 437.136C429.63 436.89 433.218 437.545 436.512 439.236C441.072 441.577 444.875 445.863 446.417 450.78C447.959 455.699 447.54 460.471 445.134 465.056C442.068 470.897 437.292 473.729 431.173 475.54C426.257 475.976 421.826 475.361 417.54 472.769C413.254 470.177 409.935 465.696 408.779 460.816C407.554 455.638 408.995 450.066 411.936 445.742C415.202 440.94 420.427 438.296 425.946 437.136Z"
     id="path33"
     style="stroke:none;stroke-opacity:1;stroke-width:5;stroke-dasharray:none" />
</svg>
