<?xml version="1.0" encoding="UTF-8" standalone="no"?>
<svg
   width="1024"
   height="1024"
   version="1.1"
   id="svg26"
   sodipodi:docname="wknight.svg"
   inkscape:version="1.3.2 (091e20ef0f, 2023-11-25)"
   xmlns:inkscape="http://www.inkscape.org/namespaces/inkscape"
   xmlns:sodipodi="http://sodipodi.sourceforge.net/DTD/sodipodi-0.dtd"
   xmlns="http://www.w3.org/2000/svg"
   xmlns:svg="http://www.w3.org/2000/svg">
  <defs
     id="defs26" />
  <sodipodi:namedview
     id="namedview26"
     pagecolor="#ffffff"
     bordercolor="#000000"
     borderopacity="0.25"
     inkscape:showpageshadow="2"
     inkscape:pageopacity="0.0"
     inkscape:pagecheckerboard="0"
     inkscape:deskcolor="#d1d1d1"
     inkscape:zoom="0.23098361"
     inkscape:cx="71.43364"
     inkscape:cy="201.31298"
     inkscape:window-width="1440"
     inkscape:window-height="831"
     inkscape:window-x="0"
     inkscape:window-y="0"
     inkscape:window-maximized="1"
     inkscape:current-layer="svg26" />
  <ellipse
     style="fill:#090a59;fill-opacity:1;stroke-width:5.568;stroke-linecap:round"
     id="path34"
     cx="760.8371"
     cy="371.8595"
     rx="37.2855"
     ry="54.717487" />
  <rect
     style="fill:#090a59;fill-opacity:1;stroke-width:5.568;stroke-linecap:round"
     id="rect34"
     width="72.342628"
     height="133.05023"
     x="600.02411"
     y="196.81296"
     transform="rotate(22.265404)" />
  <rect
     style="fill:#090a59;fill-opacity:1;stroke-width:5.568;stroke-linecap:round"
     id="rect33"
     width="131.16039"
     height="219.58995"
     x="465.29953"
     y="368.80322" />
  <ellipse
     style="fill:#090a59;fill-opacity:1;stroke-width:7.72339;stroke-linecap:round"
     id="path33"
     cx="623.0213"
     cy="294.12473"
     rx="145.92191"
     ry="147.88362" />
  <ellipse
     style="fill:#090a59;fill-opacity:1;stroke-width:5.568;stroke-linecap:round"
     id="path32"
     cx="742.92297"
     cy="649.18958"
     rx="24.392542"
     ry="24.551086" />
  <rect
     style="fill:#090a59;fill-opacity:1;stroke-width:5.08416;stroke-linecap:round"
     id="rect31"
     width="531.04675"
     height="24.212858"
     x="231.31799"
     y="879.48438" />
  <ellipse
     style="fill:#090a59;fill-opacity:1;stroke-width:5.568;stroke-linecap:round"
     id="path31"
     cx="319.15143"
     cy="260.77972"
     rx="44.468456"
     ry="37.875134" />
  <ellipse
     style="fill:#090a59;fill-opacity:1;stroke-width:7.35916;stroke-linecap:round"
     id="path30"
     cx="743.85736"
     cy="495.98312"
     rx="100.6121"
     ry="107.20753" />
  <ellipse
     style="fill:#090a59;fill-opacity:1;stroke-width:5.568;stroke-linecap:round"
     id="path29"
     cx="665.5365"
     cy="465.91467"
     rx="127.09531"
     ry="223.54088" />
  <ellipse
     style="fill:#090a59;fill-opacity:1;stroke-width:3.90023;stroke-linecap:round"
     id="path28"
     cx="402.31091"
     cy="809.93774"
     rx="112.49926"
     ry="122.51775" />
  <ellipse
     style="fill:#090a59;fill-opacity:1;stroke-width:3.87091;stroke-linecap:round"
     id="ellipse29"
     cx="588.31091"
     cy="808.10291"
     rx="112.49926"
     ry="120.68287" />
  <ellipse
     style="fill:#090a59;fill-opacity:1;stroke-width:4.91299;stroke-linecap:round"
     id="path27"
     cx="496.7923"
     cy="725.33331"
     rx="181.42004"
     ry="193.69208" />
  <ellipse
     style="fill:#090a59;stroke-width:5.65899;stroke-linecap:round;fill-opacity:1"
     id="path1"
     cx="501.10312"
     cy="192.82811"
     rx="194.26906"
     ry="110.19731" />
  <path
     fill="#FF9AA3"
     d="M436.117 94.1308C437.716 95.2525 458.877 154.051 460.924 160.112C448.024 161.184 436.052 162.499 423.66 166.469C420.048 160.148 415.337 154.741 410.428 149.417C397.816 137.107 383.545 127.951 367.93 119.91C389.047 107.357 412.332 99.7927 436.117 94.1308Z"
     id="path2"
     style="stroke:#090a59;stroke-opacity:1;stroke-width:5;stroke-dasharray:none" />
  <path
     fill="#FF9AA3"
     d="M500.448 86.7457L508.516 86.8426L505.452 163.294C493.956 161.211 483.06 160.048 471.369 159.993L467.734 150.44L446.019 91.8962C464.153 88.4007 482.031 87.079 500.448 86.7457Z"
     id="path3"
     style="stroke:#090a59;stroke-opacity:1;stroke-width:5;stroke-dasharray:none" />
  <path
     fill="#FF9AA3"
     d="M665.727 140.639C670.863 143.814 675.639 147.957 680.314 151.778C689.228 159.065 697.845 166.748 705.936 174.942L649.984 224.25L643.429 230.04L614.015 205.92L665.727 140.639Z"
     id="path4"
     style="stroke:#090a59;stroke-opacity:1;stroke-width:5;stroke-dasharray:none" />
  <path
     fill="#FF9AA3"
     d="M518.064 87.2562C540.702 88.1739 564.711 93.1985 586.233 100.15C586.286 101.329 585.3 102.839 584.808 103.906L580.532 112.931L561.385 153.25L551.404 175.145C539.625 170.7 527.336 167.21 514.91 165.155L518.064 87.2562Z"
     id="path5"
     style="stroke:#090a59;stroke-opacity:1;stroke-width:5;stroke-dasharray:none" />
  <path
     fill="#FF9AA3"
     d="M730.856 368.777L753.394 378.137C773.607 387.006 789.189 398.38 804.023 414.666C804.031 418.34 802.948 422.279 802.096 425.834C797.974 443.026 789.986 457.568 778.127 470.65C767.966 481.121 756.399 488.222 744.071 495.77C745.415 479.875 746.155 463.886 745.338 447.931C743.972 421.238 738.684 394.29 730.856 368.777Z"
     id="path6"
     style="stroke:#090a59;stroke-opacity:1;stroke-width:5;stroke-dasharray:none" />
  <path
     fill="#FF9AA3"
     d="M595.363 103.239C617.372 111.505 638.058 122.02 657.856 134.665L613.396 191.799L606.051 200.94C601.84 199.102 597.686 195.9 593.635 193.599C582.944 187.528 572.048 181.808 560.482 177.571L595.363 103.239Z"
     id="path7"
     style="stroke:#090a59;stroke-opacity:1;stroke-width:5;stroke-dasharray:none" />
  <path
     fill="#FF9AA3"
     d="M712.771 181.557C718.886 187.456 724.48 194.813 729.599 201.56C739.815 215.023 748.909 228.716 756.968 243.58L692.667 274.795L685.644 278.304L650.857 236.628L712.771 181.557Z"
     id="path8"
     style="stroke:#090a59;stroke-opacity:1;stroke-width:5;stroke-dasharray:none" />
  <path
     fill="#FF9AA3"
     d="M811.885 423.463C821.331 436.544 830.599 451.268 835.06 466.922C835.715 469.218 834.486 472.372 833.825 474.66C831.04 484.292 827.155 493.506 822.232 502.245C812.148 520.15 796.185 536.011 778.014 545.636C768.689 550.576 759.164 553.751 749.043 556.608C742.164 558.217 735.329 559.749 728.268 560.287C734.456 542.511 739.163 525.619 742.295 507.059L755.685 499.89C761.812 496.215 768.043 492.395 773.556 487.825C787.108 476.593 798.934 460.558 805.616 444.295C808.386 437.554 810.121 430.515 811.885 423.463Z"
     id="path9"
     style="stroke:#090a59;stroke-opacity:1;stroke-width:5;stroke-dasharray:none" />
  <path
     fill="#FF9AA3"
     d="M761.077 252.461L761.89 253.047C764.011 255.262 765.921 261.066 767.253 264.011C779.934 292.061 789.056 322.84 792.162 353.5L738.465 353.512L727.82 353.522C727.239 353.522 725.507 353.722 725 353.525C724.678 353.4 724.473 353.078 724.21 352.855L690.789 286.541L761.077 252.461Z"
     id="path10"
     style="stroke:#090a59;stroke-opacity:1;stroke-width:5;stroke-dasharray:none" />
  <path
     fill="#FF9AA3"
     d="M764.685 646.98C766.626 650.351 768.013 654.11 769.867 657.554C775.621 668.244 784.598 676.891 795.649 681.959C809.758 688.43 824.587 689.72 839.244 684.332C836.108 691.727 831.849 698.769 826.599 704.85C814.487 718.876 797.537 728.702 779.25 731.94C775.589 732.589 771.764 732.758 768.059 733.044C762.532 733.082 757.218 732.885 751.75 732.034C729.515 728.576 710.85 716.976 697.611 698.749C695.174 695.394 693.02 691.9 690.885 688.349C690.461 687.644 689.207 686.025 689.054 685.292C688.701 683.594 689.489 680.013 689.719 678.242L692.4 659.037C694.606 658.557 697.429 658.922 699.706 658.946L711.343 658.698C729.984 657.797 747.383 653.939 764.685 646.98Z"
     id="path11"
     style="stroke:#090a59;stroke-opacity:1;stroke-width:5;stroke-dasharray:none" />
  <path
     fill="#FF9AA3"
     d="M839.634 485.478C842.04 494.215 843.274 503.827 843.452 512.874C844.139 547.872 832.051 582.176 807.531 607.526C787.073 628.676 759.323 642.282 730.442 647.238C719.655 649.089 708.796 649.509 697.875 649.646C696.67 649.662 695.778 649.623 694.628 649.25C696.253 639.306 699.876 629.093 703.314 619.611C705.599 613.308 721.952 572.361 724.858 570.058C725.265 569.735 729.355 569.726 730.211 569.653C734.829 569.256 739.454 568.427 744 567.527C754.887 565.371 765.744 561.869 775.779 557.118C806.697 542.478 828.122 517.414 839.634 485.478Z"
     id="path12"
     style="stroke:#090a59;stroke-opacity:1;stroke-width:5;stroke-dasharray:none" />
  <path
     fill="#FF9AA3"
     d="M680.883 669.477C681.077 669.735 681.377 669.94 681.464 670.25C681.649 670.911 681.021 673.537 680.916 674.346L679.661 686.483C677.327 712.913 678.094 739.606 678.113 766.121L420.92 765.995L420.094 765.725C425.593 764.075 431.384 763.025 436.97 761.631L476.074 751.307C547.26 730.877 616.288 706.09 680.883 669.477Z"
     id="path13"
     style="stroke:#090a59;stroke-opacity:1;stroke-width:5;stroke-dasharray:none" />
  <path
     fill="#FF9AA3"
     d="M330.481 146.294C332.129 152.897 332.779 160.257 333.723 167.025C335.815 182.025 337.501 197.386 342.52 211.75C344.622 217.766 347.7 223.639 350.601 229.302C343.88 232.915 336.914 236.265 330.404 240.242C318.194 247.703 307.025 256.94 297.967 268.054C293.761 273.215 290.159 279.042 286.525 284.618C280.104 283.047 273.001 283.12 266.42 282.394C245.802 280.121 227.96 274.565 210.518 263.057C203.587 258.127 197.157 252.491 192.142 245.573C184.491 235.018 179.013 219.678 181.167 206.54C191.92 212.57 202.174 217.091 214.537 218.574C238.505 221.45 263.069 212.539 280.579 196.176C288.073 189.173 294.394 181.022 301.378 173.529C310.414 163.835 320.08 154.522 330.481 146.294Z"
     id="path14"
     style="stroke:#090a59;stroke-opacity:1;stroke-width:5;stroke-dasharray:none" />
  <path
     fill="#FF9AA3"
     d="M298.485 775.609C303.874 775.235 309.438 775.534 314.853 775.533L345.721 775.521L444.656 775.535L624.679 775.77L691.988 775.52C694.84 775.567 697.294 775.961 699.888 777.241C704.604 779.568 708.46 783.86 709.892 788.956C711.21 793.645 710.383 799.231 707.947 803.426C705.013 808.481 700.7 811.566 695.128 812.975L664.359 812.998L602.81 813.002L415.996 813.002L333.817 812.955L310.941 812.915C306.501 812.903 301.181 813.413 296.91 812.208C291.902 810.795 287.202 807.618 284.721 802.968C282.469 798.747 281.52 793.309 283.143 788.695L283.404 788C284.523 784.945 286.291 782.292 288.75 780.132C291.696 777.542 294.732 776.384 298.485 775.609Z"
     id="path15"
     style="stroke:#090a59;stroke-opacity:1;stroke-width:5;stroke-dasharray:none" />
  <path
     fill="#FF9AA3"
     d="M232.356 887.551L762.259 887.643L762.278 937.652L232.1 937.58L232.356 887.551Z"
     id="path16"
     style="stroke:#090a59;stroke-opacity:1;stroke-width:5;stroke-dasharray:none" />
  <path
     fill="#FF9AA3"
     d="M305.319 822.692C309.379 822.03 314.328 822.546 318.488 822.551L345.39 822.512L450.482 822.473L610.179 822.467L660.635 822.485C669.255 822.491 678.172 822.019 686.75 822.635C698.276 823.463 709.588 826.632 720 831.576C740.077 841.107 753.505 857.376 760.83 878.069L691.75 878.124L234.98 878.017C238.302 869.187 242.169 861.172 247.921 853.641C261.935 835.289 282.92 825.641 305.319 822.692Z"
     id="path17"
     style="stroke:#090a59;stroke-opacity:1;stroke-width:5;stroke-dasharray:none" />
  <path
     fill="#FF9AA3"
     d="M543.576 181.769L552.158 184.808C597.684 200.665 637.423 232.939 667.158 270.356C677.273 283.084 686.399 296.326 693.49 311.002L689.014 347.891C683.002 384.525 670.223 420.562 650.882 452.307C635.696 477.23 615.281 500.61 592.408 518.75C577.774 530.356 561.682 540.059 545.144 548.668C504.51 569.821 461.097 583.016 416.743 593.768L357.455 604.733C366.198 590.767 377.76 578.475 389.564 567.055C396.418 560.425 403.337 553.814 410.694 547.74C419.655 540.342 429.175 533.76 437.346 525.446C446.295 525.632 456.26 523.188 464.945 521.006C484.896 515.992 502.675 508.056 520.495 497.921C551.506 480.283 579.489 456.799 597.835 425.734C622.549 383.885 630.825 330.783 618.454 283.581C607.328 241.129 581.743 204.092 543.576 181.769Z"
     id="path18"
     style="stroke:#090a59;stroke-opacity:1;stroke-width:5;stroke-dasharray:none" />
  <path
     fill="#FF9AA3"
     d="M728.806 399.661C740.089 446.266 738.673 497.077 724.005 542.791L714.037 569.935L707.634 584.59C707.225 585.629 706.856 586.762 706.164 587.655C704.625 589.646 701.838 591.31 699.842 592.882C690.376 600.339 680.243 607.404 670.016 613.784C615.209 647.97 554.928 671.333 493.494 690.58C438.011 707.963 381.185 721.663 323.89 731.525L316.368 732.72C316.492 713.486 318.633 694.513 323.678 675.915L326.126 667.469C326.231 667.122 326.647 665.25 326.871 665.01C326.877 665.003 328.017 664.812 328.043 664.808L349.211 661.77L408.25 650.5C469.697 636.771 531.222 618.233 586.053 586.634C630.419 561.065 669.524 526.028 695.665 481.608C710.808 455.877 721.093 428.41 728.806 399.661Z"
     id="path19"
     style="stroke:#090a59;stroke-opacity:1;stroke-width:5;stroke-dasharray:none" />
  <path
     fill="#FF9AA3"
     d="M359.569 140.373C358.211 140.506 356.692 140.789 355.642 141.75C354.388 142.898 353.714 144.612 354.162 146.289C354.993 149.397 358.543 153.09 360.372 155.861C362.642 159.302 364.665 162.913 366.479 166.614C372.036 177.948 375.197 189.504 376.258 202.058C376.784 208.288 376.529 214.733 376.49 220.988L360.151 225.011C357.858 222.942 356.093 219.337 354.75 216.562C345.518 197.479 344.442 174.102 341.68 153.343L337.096 117.459C345.891 120.656 356.225 123.796 364.152 128.81C370.575 131.529 376.654 135.366 382.454 139.214C401.04 151.546 414.239 165.546 422.753 186.433C424.204 189.994 425.352 193.624 426.144 197.388C426.67 199.89 426.874 203.474 427.99 205.75C428.714 207.229 430.1 207.833 431.5 208.494C434.856 208.592 437.899 207.901 441.206 207.586C445.913 207.138 450.816 207.173 455.536 207.349C485.354 208.457 515.21 222.009 535.712 243.681C558.892 268.185 570.076 300.451 568.935 333.904C567.68 370.693 551.624 404.014 524.801 428.987C507.245 445.333 485.39 457.154 463.072 465.588C464.569 456.056 466.3 446.631 467.032 437L467.616 426.004C467.647 425.21 467.56 423.188 467.978 422.565C468.388 421.953 469.772 421.15 470.392 420.657L477.063 415.112C482.482 410.18 487.584 404.792 492.055 398.987C516.268 367.559 517.749 319.841 494.25 287.639C487.986 279.056 480.328 271.56 471.979 265.017C469.808 263.316 466.834 260.535 464 260.117C462.784 259.938 461.887 260.221 460.75 260.588C459.665 261.632 458.606 262.367 458.475 264C458.336 265.733 458.872 267.03 460.09 268.25C463.947 272.113 469.354 274.975 473.477 278.75C488.93 292.898 499.865 312.511 501.402 333.638C503.113 357.155 495.913 380.863 480.213 398.681C460.321 421.258 432.134 432.152 402.547 433.83C396.516 434.172 390.311 434.197 384.286 433.771C378.092 433.333 371.78 432.434 365.569 432.57C356.692 432.764 347.538 435.044 339.133 437.78C327.938 441.424 316.319 446.269 308.221 455.139C302.261 461.668 297.842 469.979 296.612 478.81C296.181 481.909 296.462 485.073 295.973 488.166C293.582 503.282 284.394 515.576 271.75 523.904C262.5 529.996 252.644 533.697 241.54 534.334C225.878 535.233 209.193 529.343 197.538 518.852C186.141 508.593 178.367 494.295 177.539 478.799C176.988 468.483 178.699 459.027 183.38 449.8C188.557 439.594 196.685 430.025 203.148 420.52L273.719 321.529C279.09 313.921 283.475 305.729 288.315 297.789C294.765 287.209 301.909 276.834 310.313 267.708C317.937 259.427 327.182 253.155 336.754 247.361C346.14 241.68 355.419 236.641 365.766 232.915C369.17 231.689 373.676 229.913 377.25 229.506C378.043 229.415 378.745 229.631 379.512 229.75C381.006 229.981 381.97 230.009 383.25 229.091C384.66 228.08 385.217 226.515 385.377 224.848C388.124 196.171 382.139 165.875 363.131 143.385C362.141 142.214 360.9 141.135 359.569 140.373Z"
     id="path20"
     style="stroke:#090a59;stroke-opacity:1;stroke-width:5;stroke-dasharray:none" />
  <path
     fill="#090A59"
     d="M230.505 454.079C234.321 453.887 237.684 453.92 241.198 455.728C245.226 457.8 248.11 461.666 249.471 465.933C250.882 470.358 250.216 475.206 247.955 479.25C245.518 483.609 241.581 486.017 236.922 487.435C232.988 488.076 229.247 487.809 225.646 485.971C221.126 483.663 218.435 480.409 216.994 475.534C215.758 471.357 216.413 466.131 218.575 462.39C221.354 457.58 225.323 455.381 230.505 454.079Z"
     id="path21"
     style="stroke:none;stroke-opacity:1;stroke-width:5;stroke-dasharray:none" />
  <path
     fill="#090A59"
     d="M348.26 298.212C354.146 297.858 360.179 298.405 365.319 301.468C370.351 304.467 374.12 309.468 375.461 315.178L375.645 316C376.157 318.215 376.304 320.176 376.07 322.434C375.429 328.616 372.307 334.494 367.369 338.29C362.089 342.349 356.513 342.866 350.112 342.123L348.536 342.181L347.581 342.353C342.07 343.241 335.393 340.635 331.039 337.4C325.779 333.491 322.835 328.399 322.005 321.843C321.295 316.235 322.853 311.125 326.48 306.8C332.145 300.046 339.968 298.758 348.26 298.212Z"
     id="path22"
     style="stroke:none;stroke-opacity:1;stroke-width:5;stroke-dasharray:none" />
  <path
     fill="#FF9AA3"
     d="M329.958 320.566C331.594 321.418 333.523 322.792 335.404 322.428L335.786 317.362C335.919 321.414 336.08 325.018 337.175 328.94L337.927 331.826C334.097 328.703 331.738 325.199 329.958 320.566Z"
     id="path23"
     style="stroke:none;stroke-opacity:1;stroke-width:5;stroke-dasharray:none" />
  <path
     fill="#FAFCFA"
     d="M329.958 320.566C329.887 319.323 329.977 318.097 330.25 316.881C331.031 313.399 335.243 310.739 338.036 308.925C337.004 311.755 336.266 314.388 335.786 317.362L335.404 322.428C333.523 322.792 331.594 321.418 329.958 320.566Z"
     id="path24"
     style="stroke:none;stroke-opacity:1;stroke-width:5;stroke-dasharray:none" />
  <path
     fill="#E9A351"
     d="M344.585 314.023C346.205 311.042 348.542 308.801 351.81 307.733C354.81 306.752 357.761 306.929 360.571 308.401C364.01 310.202 366.302 313.677 367.28 317.353C368.193 320.782 368.066 324.553 366.173 327.65C364.373 330.595 361.194 333.095 357.78 333.799C354.524 334.47 351.286 333.77 348.547 331.922C345.943 330.164 344.823 327.912 343.542 325.118C343.209 321.143 343.037 317.788 344.585 314.023Z"
     id="path25"
     style="stroke:none;stroke-opacity:1;stroke-width:5;stroke-dasharray:none" />
  <path
     fill="#FAFCFA"
     d="M344.585 314.023C347.472 312.882 350.087 312.058 353.12 313.344C354.324 314.443 355.439 315.494 355.391 317.25C355.33 319.488 354.07 321.908 352.333 323.294C349.612 325.464 346.843 325.085 343.542 325.118C343.209 321.143 343.037 317.788 344.585 314.023Z"
     id="path26"
     style="stroke:none;stroke-opacity:1;stroke-width:5;stroke-dasharray:none" />
</svg>
