<?xml version="1.0" encoding="UTF-8" standalone="no"?>
<svg
   width="1024"
   height="1024"
   version="1.1"
   id="svg40"
   sodipodi:docname="wpawn.svg"
   inkscape:version="1.3.2 (091e20ef0f, 2023-11-25)"
   xmlns:inkscape="http://www.inkscape.org/namespaces/inkscape"
   xmlns:sodipodi="http://sodipodi.sourceforge.net/DTD/sodipodi-0.dtd"
   xmlns="http://www.w3.org/2000/svg"
   xmlns:svg="http://www.w3.org/2000/svg">
  <defs
     id="defs40" />
  <sodipodi:namedview
     id="namedview40"
     pagecolor="#ffffff"
     bordercolor="#000000"
     borderopacity="0.25"
     inkscape:showpageshadow="2"
     inkscape:pageopacity="0.0"
     inkscape:pagecheckerboard="0"
     inkscape:deskcolor="#d1d1d1"
     inkscape:zoom="0.55795144"
     inkscape:cx="757.23435"
     inkscape:cy="590.55318"
     inkscape:window-width="1440"
     inkscape:window-height="831"
     inkscape:window-x="0"
     inkscape:window-y="0"
     inkscape:window-maximized="1"
     inkscape:current-layer="svg40" />
  <rect
     style="fill:#090a59;fill-opacity:1;stroke-width:5.568;stroke-linecap:round"
     id="rect42"
     width="15.009901"
     height="19.95792"
     x="-773.78754"
     y="221.13626"
     transform="matrix(-0.61984397,-0.78472508,-0.78472508,0.61984397,0,0)" />
  <rect
     style="fill:#090a59;fill-opacity:1;stroke-width:5.568;stroke-linecap:round"
     id="rect46"
     width="27.660891"
     height="30.405941"
     x="658.2475"
     y="767.08417" />
  <rect
     style="fill:#090a59;fill-opacity:1;stroke-width:5.568;stroke-linecap:round"
     id="rect45"
     width="82.054459"
     height="74.564354"
     x="302.31189"
     y="736.11389" />
  <rect
     style="fill:#090a59;fill-opacity:1;stroke-width:5.79605;stroke-linecap:round"
     id="rect44"
     width="57.823372"
     height="176.24626"
     x="613.24841"
     y="642.18066" />
  <rect
     style="fill:#090a59;fill-opacity:1;stroke-width:5.79605;stroke-linecap:round"
     id="rect43"
     width="57.823372"
     height="176.24626"
     x="355.24841"
     y="642.18066" />
  <rect
     style="fill:#090a59;fill-opacity:1;stroke-width:5.568;stroke-linecap:round"
     id="rect41"
     width="15.009901"
     height="19.95792"
     x="-137.06738"
     y="1027.228"
     transform="rotate(-51.695259)" />
  <ellipse
     style="fill:#090a59;fill-opacity:1;stroke-width:5.568;stroke-linecap:round"
     id="ellipse41"
     cx="731.65002"
     cy="801.43427"
     rx="61.871841"
     ry="60.674664" />
  <ellipse
     style="fill:#090a59;fill-opacity:1;stroke-width:5.568;stroke-linecap:round"
     id="path41"
     cx="290.04855"
     cy="807.13965"
     rx="61.871841"
     ry="60.674664" />
  <rect
     style="fill:#090a59;fill-opacity:1;stroke-width:5.568;stroke-linecap:round"
     id="rect6"
     width="15.927405"
     height="28.849607"
     x="573.86609"
     y="469.70578"
     transform="rotate(22.527599)" />
  <rect
     style="fill:#090a59;fill-opacity:1;stroke-width:5.568;stroke-linecap:round"
     id="rect5"
     width="15.927405"
     height="28.849607"
     x="-373.06427"
     y="861.37079"
     transform="matrix(-0.92369509,0.38312842,0.38312842,0.92369509,0,0)" />
  <rect
     style="fill:#090a59;fill-opacity:1;stroke-width:5.568;stroke-linecap:round"
     id="rect4"
     width="15.927405"
     height="28.849607"
     x="434.40109"
     y="513.44818"
     transform="rotate(6.7745364)" />
  <rect
     style="fill:#090a59;fill-opacity:1;stroke-width:5.568;stroke-linecap:round"
     id="rect3"
     width="623.86633"
     height="58.623764"
     x="198.21288"
     y="859.94556" />
  <rect
     style="fill:#090a59;fill-opacity:1;stroke-width:5.58999;stroke-linecap:round"
     id="rect2"
     width="562.72504"
     height="95.623764"
     x="231.74753"
     y="814.07428" />
  <rect
     style="fill:#090a59;fill-opacity:1;stroke-width:5.568;stroke-linecap:round"
     id="rect1"
     width="284.599"
     height="404.97525"
     x="370.89603"
     y="492.73761" />
  <ellipse
     style="fill:#090a59;fill-opacity:1;stroke-width:5.94026;stroke-linecap:round"
     id="path1"
     cx="511.94305"
     cy="302.95544"
     rx="222.2599"
     ry="220.9901" />
  <path
     fill="#FF9AA3"
     d="M790.462 797.411C791.414 798.385 791.39 799.684 791.656 801C793.547 810.354 792.738 820.611 792.529 830.122L765.375 830.244C764.496 830.241 763.897 830.19 763.023 829.996C762.928 828.911 788.008 800.363 790.462 797.411Z"
     id="path2"
     style="stroke:#090a59;stroke-opacity:1;stroke-width:5;stroke-dasharray:none" />
  <path
     fill="#FF9AA3"
     d="M232.4 796.716L252.023 819.309C254.788 822.667 258.173 826.243 260.341 830L259.521 830.473L232.54 830.566C230.463 818.705 230.251 808.577 232.4 796.716Z"
     id="path3"
     style="stroke:#090a59;stroke-opacity:1;stroke-width:5;stroke-dasharray:none" />
  <path
     fill="#FF9AA3"
     d="M537.442 517.995L595.673 518.001L581.356 532.822L566.488 547.871L537.442 517.995Z"
     id="path4"
     style="stroke:#090a59;stroke-opacity:1;stroke-width:5;stroke-dasharray:none" />
  <path
     fill="#FF9AA3"
     d="M429.45 518.112L487.035 517.993L472.477 533.79L458.263 548.604L429.45 518.112Z"
     id="path5"
     style="stroke:#090a59;stroke-opacity:1;stroke-width:5;stroke-dasharray:none" />
  <path
     fill="#FF9AA3"
     d="M652.918 582.354C654.454 583.842 656.856 602.666 657.711 606.626C661.576 624.532 668.313 641.236 674.183 658.485L661.857 646.067L627.594 610.691L652.918 582.354Z"
     id="path6"
     style="stroke:#090a59;stroke-opacity:1;stroke-width:5;stroke-dasharray:none" />
  <path
     fill="#FF9AA3"
     d="M370.27 583.194L396.721 611.691L363.429 646.305L349.47 661.103C359.051 635.862 366.579 609.973 370.27 583.194Z"
     id="path7"
     style="stroke:#090a59;stroke-opacity:1;stroke-width:5;stroke-dasharray:none" />
  <path
     fill="#FF9AA3"
     d="M568.108 792.619L601.989 830.017C597.946 830.494 593.662 830.212 589.577 830.221L567.75 830.256L533.378 830.17C533.453 829.07 564.249 796.642 568.108 792.619Z"
     id="path8"
     style="stroke:#090a59;stroke-opacity:1;stroke-width:5;stroke-dasharray:none" />
  <path
     fill="#FF9AA3"
     d="M454.53 792.145L489.822 830.089L455.25 830.307L419.32 830.071L454.53 792.145Z"
     id="path9"
     style="stroke:#090a59;stroke-opacity:1;stroke-width:5;stroke-dasharray:none" />
  <path
     fill="#FF9AA3"
     d="M347.527 792.156C352.139 795.758 356.224 800.909 360.274 805.167L384.352 830.014L348.843 830.146L311.407 830.132C315.174 825.303 319.975 820.826 324.25 816.401L347.527 792.156Z"
     id="path10"
     style="stroke:#090a59;stroke-opacity:1;stroke-width:5;stroke-dasharray:none" />
  <path
     fill="#FF9AA3"
     d="M318.69 395.527L384.627 395.455L384.678 395.826C379.721 403.417 372.746 410.024 366.314 416.364L344.744 435.13C334.587 423.159 325.83 409.484 318.69 395.527Z"
     id="path11"
     style="stroke:#090a59;stroke-opacity:1;stroke-width:5;stroke-dasharray:none" />
  <path
     fill="#FF9AA3"
     d="M676.611 791.139L713.991 830.31L678.25 830.401L640.038 830.453L676.611 791.139Z"
     id="path12"
     style="stroke:#090a59;stroke-opacity:1;stroke-width:5;stroke-dasharray:none" />
  <path
     fill="#FF9AA3"
     d="M374.497 518.139L415.254 518.02C421.845 523.647 427.735 530.083 433.663 536.386C439.398 542.483 445.342 548.607 450.422 555.266C448.462 558.689 444.822 561.895 442.099 564.778L425.765 581.887L403.604 604.592C402.592 604.006 401.94 603.277 401.116 602.456C397.14 598.494 372.553 573.582 372.116 571.769C371.902 570.88 372.387 568.523 372.484 567.5L373.572 555.643L374.497 518.139Z"
     id="path13"
     style="stroke:#090a59;stroke-opacity:1;stroke-width:5;stroke-dasharray:none" />
  <path
     fill="#FF9AA3"
     d="M607.636 518.263L651.636 518.338C651.37 535.611 650.082 552.793 652.623 569.979L629.693 594.682C626.859 597.69 624.03 601.213 620.75 603.729L619.672 602.976L572.832 554.439L607.636 518.263Z"
     id="path14"
     style="stroke:#090a59;stroke-opacity:1;stroke-width:5;stroke-dasharray:none" />
  <path
     fill="#FEDABB"
     d="M499.752 518.124L525.757 517.896L560.461 554.221L518.173 598.121L511.879 604.865L464.223 555.136L499.752 518.124Z"
     id="path15"
     style="stroke:#090a59;stroke-opacity:1;stroke-width:5;stroke-dasharray:none" />
  <path
     fill="#FF9AA3"
     d="M344.644 674.762C351.606 680.587 357.782 688.233 364.027 694.869L394.774 727.538C382.981 741.399 369.43 754.213 356.878 767.425L349.03 775.692C348.567 776.18 347.278 777.854 346.75 778.096C346.448 778.235 346.091 778.176 345.761 778.215C342.553 772.08 340.16 765.717 335.871 760.194C325.985 747.464 310.237 739.269 294.384 737.25C305.733 726.81 316.338 716.011 325.3 703.407C331.981 694.01 337.682 683.949 344.644 674.762Z"
     id="path16"
     style="stroke:#090a59;stroke-opacity:1;stroke-width:5;stroke-dasharray:none" />
  <path
     fill="#FF9AA3"
     d="M680.099 674.218C690.698 691.017 701.203 707.185 714.997 721.6C720.335 727.178 726.403 732.194 732.389 737.06C716.503 739.28 701.063 744.652 691.181 758.052C688.765 761.328 687.093 765.102 684.651 768.348C683.036 770.494 680.834 772.409 678.906 774.281L675.948 777.326L629.138 727.522L680.099 674.218Z"
     id="path17"
     style="stroke:#090a59;stroke-opacity:1;stroke-width:5;stroke-dasharray:none" />
  <path
     fill="#FF9AA3"
     d="M457.501 561.726L505.646 611.501C505.402 612.375 504.287 613.231 503.637 613.9L496.93 620.815C483.889 634.346 470.202 647.371 457.905 661.586L409.342 611.562L457.501 561.726Z"
     id="path18"
     style="stroke:#090a59;stroke-opacity:1;stroke-width:5;stroke-dasharray:none" />
  <path
     fill="#FF9AA3"
     d="M566.414 560.867L614.639 610.894C613.567 612.698 611.523 614.288 610.035 615.773L600.755 625.14L565.898 661.467L517.771 611.607L566.414 560.867Z"
     id="path19"
     style="stroke:#090a59;stroke-opacity:1;stroke-width:5;stroke-dasharray:none" />
  <path
     fill="#FEDABB"
     d="M402.97 618.658C409.771 624.097 415.539 631.162 421.592 637.421L452.087 668.751L402.057 720.682L401.25 720.951L353.052 670.182L402.97 618.658Z"
     id="path20"
     style="stroke:#090a59;stroke-opacity:1;stroke-width:5;stroke-dasharray:none" />
  <path
     fill="#FF9AA3"
     d="M565.102 674.486L616.132 727.777L568.487 778.228C566.063 775.601 563.354 772.929 561.403 769.929C558.865 766.025 557.209 761.578 554.64 757.681C546.458 745.266 530.703 739.636 516.843 736.773L516.532 724.005L565.102 674.486Z"
     id="path21"
     style="stroke:#090a59;stroke-opacity:1;stroke-width:5;stroke-dasharray:none" />
  <path
     fill="#FF9AA3"
     d="M458.481 674.213L497.86 714.228L504.932 721.602C505.487 722.194 507.069 723.535 507.31 724.155C507.47 724.565 507.294 726.591 507.292 727.022L507.25 735.065C507.243 735.324 507.273 736.63 506.974 736.887C506.613 737.195 503.324 737.615 502.653 737.758C495.879 739.198 489.035 741.403 482.997 744.838C476.097 748.764 469.922 754.376 466.25 761.489C464.856 764.188 463.786 767.234 462.174 769.795C460.626 772.253 457.642 774.662 455.53 776.686C454.965 777.25 455.323 777.05 454.399 777.17L407.283 727.94L458.481 674.213Z"
     id="path22"
     style="stroke:#090a59;stroke-opacity:1;stroke-width:5;stroke-dasharray:none" />
  <path
     fill="#FEDABB"
     d="M620.624 616.951L672.97 669.076L623.381 720.524L622.628 720.811L571.822 668.08L620.624 616.951Z"
     id="path23"
     style="stroke:#090a59;stroke-opacity:1;stroke-width:5;stroke-dasharray:none" />
  <path
     fill="#FEDABB"
     d="M507.146 746.181C510.38 745.621 514.255 745.912 517.504 746.34C528.23 747.754 540.515 753.117 547.15 761.973C549.273 764.808 550.07 768.563 552.018 771.531C555.059 776.161 559.083 780.577 562.483 784.976L520.75 829.95L517.356 830.054L503.192 830.095C501.058 828.693 499.199 826.452 497.4 824.643L487.497 814.338L460.158 784.743C464.268 780.707 468.65 775.899 471.461 770.854C473.048 768.007 474.04 764.578 476.034 762C483.447 752.413 495.447 747.681 507.146 746.181Z"
     id="path24"
     style="stroke:#090a59;stroke-opacity:1;stroke-width:5;stroke-dasharray:none" />
  <path
     fill="#FEDABB"
     d="M732.835 746.21C744.441 745.554 756.628 748.46 766.299 755.045C777.296 762.532 785.495 774.56 787.93 787.671L750.348 830.02L738.75 830.064L726.51 830.107L682.346 784.253L698.997 762.5C707.815 751.945 719.393 747.323 732.835 746.21Z"
     id="path25"
     style="stroke:#090a59;stroke-opacity:1;stroke-width:5;stroke-dasharray:none" />
  <path
     fill="#FEDABB"
     d="M280.756 746.158C288.645 745.247 296.971 746.226 304.474 748.816C317.413 753.282 328.362 762.453 334.449 774.811C336.36 778.69 337.607 782.856 339.517 786.752L339.815 787.35C335.604 792.877 330.125 797.813 325.288 802.811L299.403 830.361L296.125 830.465L272.164 830.488L235.088 785.283C236.892 779.522 239.125 773.909 242.775 769.045C252.101 756.615 265.401 748.46 280.756 746.158Z"
     id="path26"
     style="stroke:#090a59;stroke-opacity:1;stroke-width:5;stroke-dasharray:none" />
  <path
     fill="#FF9AA3"
     d="M347.631 159.434L440.028 159.995L438.25 162.144C428.232 174.906 419.954 193.719 418.968 210.097C418.563 216.826 419.385 223.353 420.235 230.005L400.75 230.061L307.173 229.873C310.531 219.83 314.257 209.989 319.191 200.602C327.077 185.597 337.034 172.585 347.631 159.434Z"
     id="path27"
     style="stroke:#090a59;stroke-opacity:1;stroke-width:5;stroke-dasharray:none" />
  <path
     fill="#FEDABB"
     d="M670.069 159.77L676.773 159.536C687.537 172.283 697.342 186.249 704.871 201.159C709.556 210.435 713.275 220.226 716.731 230.016L627.75 230.187L606.986 230.309C606.484 222.456 605.926 214.742 604.272 207.028C600.438 189.151 592.223 174.579 581.47 160.022L670.069 159.77Z"
     id="path28"
     style="stroke:#090a59;stroke-opacity:1;stroke-width:5;stroke-dasharray:none" />
  <path
     fill="#FF9AA3"
     d="M296.336 319.965L428.619 320.013C423.462 336.139 416.476 350.844 407.961 365.435L393.049 386.532L314.433 386.488C305.101 365.591 298.118 342.888 296.336 319.965Z"
     id="path29"
     style="stroke:#090a59;stroke-opacity:1;stroke-width:5;stroke-dasharray:none" />
  <path
     fill="#FF9AA3"
     d="M530.772 395.12C534.712 396.024 540.026 395.407 544.1 395.413L575.522 395.46L703.834 395.443C701.856 399.88 699.185 404.071 696.646 408.208C689.763 419.426 681.895 429.638 672.914 439.252L637.25 439.151L463.065 439.493C470.57 434.837 478.836 431.286 486.524 426.885C502.513 417.731 516.792 407.091 530.772 395.12Z"
     id="path30"
     style="stroke:#090a59;stroke-opacity:1;stroke-width:5;stroke-dasharray:none" />
  <path
     fill="#FF9AA3"
     d="M626.27 239.249L719.913 239.351C726.304 262.588 729.104 286.302 727.499 310.378L692.75 310.345L590.345 310.413C600.181 288.358 605.241 263.49 606.886 239.467L626.27 239.249Z"
     id="path31"
     style="stroke:#090a59;stroke-opacity:1;stroke-width:5;stroke-dasharray:none" />
  <path
     fill="#FF9AA3"
     d="M304.269 239.082L423.179 238.99C428.735 245.365 433.38 253.338 435.219 261.642C438.003 274.219 436.071 287.308 434.05 299.844C433.528 303.083 433.081 308.039 431.327 310.817L428.625 310.9L295.919 310.644C294.125 287.154 297.026 261.508 304.269 239.082Z"
     id="path32"
     style="stroke:#090a59;stroke-opacity:1;stroke-width:5;stroke-dasharray:none" />
  <path
     fill="#FF9AA3"
     d="M586.242 319.457L726.88 319.733C725.148 342.643 718.07 365.573 708.524 386.364L683.125 386.18L540.116 386.119C558.442 366.458 576.123 344.622 586.242 319.457Z"
     id="path33"
     style="stroke:#090a59;stroke-opacity:1;stroke-width:5;stroke-dasharray:none" />
  <path
     fill="#FF9AA3"
     d="M504.831 84.7207L512.032 84.5908C559.079 84.331 607.498 100.709 644.713 129.449C653.077 135.909 660.587 143.227 668.078 150.652L597.692 150.892L580.433 150.96C578.544 150.973 575.901 151.35 574.093 151.008C572.863 150.775 569.104 146.709 567.958 145.764C564.998 143.325 561.829 141.18 558.547 139.2C546.293 131.808 534.178 127.577 520.06 125.559C498.06 124.196 478.745 128.877 460.499 141.375L451.312 148.344C450.517 148.939 448.996 150.355 448.108 150.67C446.549 151.222 443.651 150.912 441.959 150.918L426.696 150.943L355.956 150.826C383.619 121.482 420.252 100.483 459.46 90.9523C474.367 87.3289 489.54 85.5519 504.831 84.7207Z"
     id="path34"
     style="stroke:#090a59;stroke-opacity:1;stroke-width:5;stroke-dasharray:none" />
  <path
     fill="#FF9AA3"
     d="M226.216 839.682L264.706 839.551L333.761 839.536L562.343 839.497L721.156 839.617L772.75 839.633C781.192 839.625 790.031 839.057 798.433 839.666C803.014 839.998 807.859 842.772 811.199 845.844C817.523 851.661 819.446 857.662 819.79 866.122L795.25 866.067L200.785 865.959C202.254 859.589 203.746 854.613 207.857 849.447C212.754 843.292 218.556 840.52 226.216 839.682Z"
     id="path35"
     style="stroke:#090a59;stroke-opacity:1;stroke-width:5;stroke-dasharray:none" />
  <path
     fill="#FF9AA3"
     d="M349.755 448.191L371.618 448.085L411.975 448.045L535.051 448.012L628.388 448.032L658.713 448.015C664.323 448.017 670.113 447.75 675.699 448.173C680.663 448.549 685.11 450.151 689.299 452.83C695.693 456.921 700.688 463.67 702.249 471.14C703.902 479.047 702.539 487.836 697.982 494.552C692.562 502.541 684.288 506.682 675.048 508.508L585.62 508.411L470.334 508.39L388.769 508.427L362.799 508.453C358.139 508.453 353.238 508.743 348.607 508.261C342.56 507.632 336.771 504.997 332.085 501.156C325.737 495.953 321.91 488.649 321.236 480.463C320.578 472.462 322.942 464.833 328.179 458.724C333.665 452.324 341.456 448.82 349.755 448.191Z"
     id="path36"
     style="stroke:#090a59;stroke-opacity:1;stroke-width:5;stroke-dasharray:none" />
  <path
     fill="#FF9AA3"
     d="M504.773 134.694L507.152 134.52C529.487 133.298 549.614 141.858 565.983 156.888C586.661 175.874 596.911 201.828 597.868 229.653C598.25 240.732 596.954 252.16 595.062 263.06C587.953 304.014 567.42 343.944 538.955 374.25C514.063 400.752 482.843 422.393 448.497 434.561C443.182 436.444 437.239 439.19 431.568 439.354L353.752 439.481L377.481 417.675C391.05 404.099 404.063 388.278 414.288 372.051C429.324 348.19 439.987 321.4 444.478 293.506C446.07 283.619 447.067 272.02 444.735 262.144C443.474 256.805 442.003 251.736 439.511 246.831C435.015 237.977 429.453 232.105 428.231 221.787C425.961 202.629 434.344 182.054 446.064 167.269C455.966 154.777 470.46 143.875 485.574 138.666C491.821 136.513 498.236 135.475 504.773 134.694Z"
     id="path37"
     style="stroke:#090a59;stroke-opacity:1;stroke-width:5;stroke-dasharray:none" />
  <path
     fill="#090A59"
     d="M508.782 166.14C515.68 165.291 522.478 166.779 528.354 170.477C534.517 174.355 539.233 181.238 540.77 188.332C542.394 195.829 540.902 204.005 536.673 210.417C531.785 217.827 525.247 221.664 516.619 223.378C509.331 224.071 502.556 223.26 496.343 219.163C489.789 214.842 485.21 208.033 483.75 200.296C482.28 192.504 484.459 184.281 489.02 177.852C493.925 170.939 500.553 167.533 508.782 166.14Z"
     id="path38" />
  <path
     fill="#E59F58"
     d="M510.719 175.121C514.522 174.894 518.28 175.706 521.64 177.5C526.47 180.081 530.113 184.511 531.483 189.834C532.856 195.175 531.708 200.846 528.784 205.471C525.394 210.834 520.177 213.29 514.212 214.492C509.481 214.632 504.942 214.126 500.903 211.38C496.536 208.409 493.373 202.646 492.614 197.5C491.886 192.566 493.553 187.322 496.473 183.329C500.101 178.366 504.752 176.078 510.719 175.121Z"
     id="path39" />
  <path
     fill="#FF9AA3"
     d="M192.445 875.595L246.15 875.327L344.527 875.375L638.879 875.345L778.38 875.456L812.516 875.493C818.641 875.502 826.294 874.666 832.208 876.234L833 876.459C839.777 878.333 845.432 881.853 849.964 887.226C855.293 893.545 857.564 902.263 856.864 910.413C856.133 918.917 851.929 927.241 845.337 932.73C841.083 936.272 836.405 938.475 831.056 939.838C826.167 940.921 820.912 940.505 815.93 940.488L793.49 940.484L705.619 940.442L358.68 940.437L238.341 940.484L207.722 940.487C202.643 940.489 195.645 941.383 190.814 939.818L190 939.532C183.156 937.204 177.477 933.716 172.877 928.023C167.261 921.072 165.075 912.364 166.048 903.54C166.955 895.318 170.898 887.933 177.348 882.722C181.858 879.08 186.839 876.861 192.445 875.595Z"
     id="path40"
     style="stroke:#090a59;stroke-opacity:1;stroke-width:5;stroke-dasharray:none" />
</svg>
