<?xml version="1.0" encoding="UTF-8" standalone="no"?>
<svg
   width="1024"
   height="1024"
   version="1.1"
   id="svg26"
   sodipodi:docname="wrook.svg"
   inkscape:version="1.3.2 (091e20ef0f, 2023-11-25)"
   xmlns:inkscape="http://www.inkscape.org/namespaces/inkscape"
   xmlns:sodipodi="http://sodipodi.sourceforge.net/DTD/sodipodi-0.dtd"
   xmlns="http://www.w3.org/2000/svg"
   xmlns:svg="http://www.w3.org/2000/svg">
  <defs
     id="defs26" />
  <sodipodi:namedview
     id="namedview26"
     pagecolor="#ffffff"
     bordercolor="#000000"
     borderopacity="0.25"
     inkscape:showpageshadow="2"
     inkscape:pageopacity="0.0"
     inkscape:pagecheckerboard="0"
     inkscape:deskcolor="#d1d1d1"
     inkscape:zoom="1.1386719"
     inkscape:cx="488.72727"
     inkscape:cy="515.07375"
     inkscape:window-width="1440"
     inkscape:window-height="831"
     inkscape:window-x="0"
     inkscape:window-y="0"
     inkscape:window-maximized="1"
     inkscape:current-layer="svg26" />
  <rect
     style="fill:#090a59;stroke-width:5.568;stroke-linecap:round"
     id="rect27"
     width="18.226416"
     height="29.87307"
     x="258.02432"
     y="440.8497"
     transform="rotate(-13.580569)" />
  <rect
     style="fill:#090a59;stroke-width:5.568;stroke-linecap:round"
     id="rect28"
     width="18.226416"
     height="29.87307"
     x="334.84967"
     y="453.77673"
     transform="rotate(-4.2476923)" />
  <rect
     style="fill:#090a59;stroke-width:5.568;stroke-linecap:round"
     id="rect29"
     width="18.226416"
     height="29.87307"
     x="420.82889"
     y="457.27786"
     transform="rotate(5.9405183)" />
  <rect
     style="fill:#090a59;stroke-width:5.568;stroke-linecap:round"
     id="rect30"
     width="18.226416"
     height="29.87307"
     x="515.17053"
     y="417.51556"
     transform="rotate(17.206604)" />
  <rect
     style="fill:#090a59;stroke-width:5.568;stroke-linecap:round"
     id="rect31"
     width="18.226416"
     height="29.87307"
     x="635.26129"
     y="366.48157"
     transform="rotate(32.899913)" />
  <rect
     style="fill:#090a59;stroke-width:5.568;stroke-linecap:round"
     id="rect33"
     width="18.226416"
     height="29.87307"
     x="-224.26559"
     y="922.53564"
     transform="matrix(-0.83962069,0.54317318,0.54317318,0.83962069,0,0)" />
  <rect
     style="fill:#090a59;stroke-width:5.568;stroke-linecap:round"
     id="rect34"
     width="18.226416"
     height="29.87307"
     x="-464.70395"
     y="720.95782"
     transform="matrix(-0.95524427,0.29581815,0.29581815,0.95524427,0,0)" />
  <rect
     style="fill:#090a59;stroke-width:5.568;stroke-linecap:round"
     id="rect35"
     width="18.226416"
     height="29.87307"
     x="-599.18567"
     y="563.41229"
     transform="matrix(-0.99462988,0.10349594,0.10349594,0.99462988,0,0)" />
  <rect
     style="fill:#090a59;stroke-width:5.568;stroke-linecap:round"
     id="rect36"
     width="18.226416"
     height="29.87307"
     x="-687.80334"
     y="377.82248"
     transform="matrix(-0.99725317,-0.07406832,-0.07406832,0.99725317,0,0)" />
  <rect
     style="fill:#090a59;stroke-width:5.568;stroke-linecap:round"
     id="rect37"
     width="18.226416"
     height="29.87307"
     x="-738.69379"
     y="200.07672"
     transform="matrix(-0.97204069,-0.23481247,-0.23481247,0.97204069,0,0)" />
  <rect
     style="fill:#090a59;stroke-width:5.568;stroke-linecap:round"
     id="rect31-3"
     width="18.226416"
     height="29.87307"
     x="703.95795"
     y="346.68527"
     transform="rotate(43.473563)" />
  <rect
     style="fill:#090a59;stroke-width:5.568;stroke-linecap:round"
     id="rect32"
     width="18.226416"
     height="29.87307"
     x="-38.667561"
     y="1050.7605"
     transform="matrix(-0.72569191,0.68801981,0.68801981,0.72569191,0,0)" />
  <ellipse
     style="fill:#090a59;stroke-width:5.568;stroke-linecap:round"
     id="ellipse27"
     cx="680.55206"
     cy="326.92047"
     rx="9.8170195"
     ry="13.633334" />
  <ellipse
     style="fill:#090a59;stroke-width:5.568;stroke-linecap:round"
     id="path27"
     cx="343.79581"
     cy="328.9787"
     rx="9.8170195"
     ry="13.633334" />
  <rect
     style="fill:#090a59;stroke-width:6.40457;stroke-linecap:round"
     id="rect10"
     width="344.06519"
     height="18.668953"
     x="339.36365"
     y="321.741" />
  <rect
     style="fill:#090a59;stroke-width:5.568;stroke-linecap:round"
     id="rect9"
     width="476.29501"
     height="46.943398"
     x="275.62952"
     y="738.75128" />
  <rect
     style="fill:#090a59;stroke-width:7.69179;stroke-linecap:round"
     id="rect8"
     width="370.41235"
     height="137.13991"
     x="326.96228"
     y="663.5354" />
  <rect
     style="fill:#090a59;stroke-width:5.65586;stroke-linecap:round"
     id="rect7"
     width="279.97943"
     height="543.22467"
     x="371.1218"
     y="317.80444" />
  <rect
     style="fill:#090a59;stroke-width:5.568;stroke-linecap:round"
     id="rect6"
     width="528.15778"
     height="134.8885"
     x="246.31903"
     y="781.5506" />
  <rect
     style="fill:#090a59;stroke-width:5.568;stroke-linecap:round"
     id="rect2"
     width="22.525536"
     height="37.504555"
     x="189.452"
     y="312.70731"
     transform="rotate(-26.414408)"
     inkscape:transform-center-x="0.91147641"
     inkscape:transform-center-y="0.13038418" />
  <rect
     style="fill:#090a59;stroke-width:5.568;stroke-linecap:round"
     id="rect3"
     width="22.525536"
     height="37.504555"
     x="175.65097"
     y="322.05594"
     transform="rotate(-28.971447)" />
  <rect
     style="fill:#090a59;stroke-width:5.568;stroke-linecap:round"
     id="rect4"
     width="22.525536"
     height="37.504555"
     x="-731.95813"
     y="-123.03049"
     transform="matrix(-0.90809594,-0.41876218,-0.41876218,0.90809594,0,0)" />
  <rect
     style="fill:#090a59;stroke-width:6.62027;stroke-linecap:round"
     id="rect5"
     width="360.26059"
     height="29.84403"
     x="336.48096"
     y="191.95219"
     ry="0" />
  <rect
     style="fill:#090a59;stroke-width:12.2078;stroke-linecap:round"
     id="rect1"
     width="368.67236"
     height="79.683533"
     x="328.26855"
     y="229.9977" />
  <path
     fill="#FF9AA3"
     d="M509.971 493.095L510.86 493.037C515.263 492.839 519.403 494.163 522.598 497.243C524.78 499.346 526.397 501.875 527.122 504.839C528.114 508.89 527.596 513.862 527.613 518.063L527.68 543.152L513.431 543.212L496.317 543.318L496.302 517.405C496.306 513.358 495.925 508.672 496.594 504.691C496.847 503.186 497.696 501.519 498.512 500.25C501.21 496.057 505.264 494.116 509.971 493.095Z"
     id="path2"
     style="stroke:#090a59;stroke-opacity:1;stroke-width:5;stroke-dasharray:none" />
  <path
     fill="#FF9AA3"
     d="M496.38 553.088L527.57 553.086L527.642 604.318L496.434 604.293L496.38 553.088Z"
     id="path3"
     style="stroke:#090a59;stroke-opacity:1;stroke-width:5;stroke-dasharray:none" />
  <path
     fill="#FF9AA3"
     d="M496.473 614.077L527.491 614.055C528.339 631.753 531.248 648.994 535.843 666.091L526.544 666.144L488.622 666.187L492.827 648.523C495.032 637.123 496.173 625.676 496.473 614.077Z"
     id="path4"
     style="stroke:#090a59;stroke-opacity:1;stroke-width:5;stroke-dasharray:none" />
  <path
     fill="#FF9AA3"
     d="M331.758 242.503L392.167 242.465L392.021 279.982L332.147 279.706C331.184 277.019 331.833 271.958 331.829 269.017L331.758 242.503Z"
     id="path5"
     style="stroke:#090a59;stroke-opacity:1;stroke-width:5;stroke-dasharray:none" />
  <path
     fill="#FF9AA3"
     d="M631.514 242.419L692.03 242.507L692.081 279.894L631.533 280.003L631.514 242.419Z"
     id="path6"
     style="stroke:#090a59;stroke-opacity:1;stroke-width:5;stroke-dasharray:none" />
  <path
     fill="#FF9AA3"
     d="M481.07 242.469L543.772 242.403L543.577 279.911L481.296 279.706L481.07 242.469Z"
     id="path7"
     style="stroke:#090a59;stroke-opacity:1;stroke-width:5;stroke-dasharray:none" />
  <path
     fill="#FF9AA3"
     d="M371.609 522.68L432.093 522.569L432.131 565.058L425.512 565.038L365.668 565.381C365.436 564.079 365.934 562.598 366.188 561.291L367.943 551.87L371.609 522.68Z"
     id="path8"
     style="stroke:#090a59;stroke-opacity:1;stroke-width:5;stroke-dasharray:none" />
  <path
     fill="#FF9AA3"
     d="M592.088 522.558L653.413 522.621L659.062 564.978L592.12 565.119L592.088 522.558Z"
     id="path9"
     style="stroke:#090a59;stroke-opacity:1;stroke-width:5;stroke-dasharray:none" />
  <path
     fill="#FF9AA3"
     d="M509.35 82.2129C521.24 81.4527 533.637 84.5598 543.385 91.512C556.868 101.127 562.831 113.079 565.451 129.155L517.463 129.483L459.415 129.507C461.122 118.902 464.073 109.408 471.25 101.121C480.976 89.8902 494.592 83.2258 509.35 82.2129Z"
     id="path10"
     style="stroke:#090a59;stroke-opacity:1;stroke-width:5;stroke-dasharray:none" />
  <path
     fill="#FF9AA3"
     d="M430.624 452.249L454.507 452.203C442.744 465.503 434.991 481.327 432.753 499.019C432.175 503.588 432.305 508.408 432.208 513.017L396.75 513.043L372.28 513.072L372.717 483.482L372.325 463.068C372.226 460.43 371.175 454.72 372.032 452.45L430.624 452.249Z"
     id="path11"
     style="stroke:#090a59;stroke-opacity:1;stroke-width:5;stroke-dasharray:none" />
  <path
     fill="#FF9AA3"
     d="M569.345 452.478L653.519 452.314L652.647 512.448C652.431 512.632 652.261 512.89 652 512.998C651.501 513.205 649.611 513.034 648.994 513.04L639.366 513.068L591.991 513.136C592.162 496.488 588.745 480.544 579.916 466.24C576.855 461.283 573.139 456.876 569.345 452.478Z"
     id="path12"
     style="stroke:#090a59;stroke-opacity:1;stroke-width:5;stroke-dasharray:none" />
  <path
     fill="#FF9AA3"
     d="M322.37 675.83L392.588 675.899C377.735 700.811 356.158 722.534 334.16 741.111C332.688 742.447 329.932 744.852 327.882 744.848L267.519 744.605C272.846 737.773 279.963 732.049 285.789 725.589C299.618 710.255 311.831 693.575 322.37 675.83Z"
     id="path13"
     style="stroke:#090a59;stroke-opacity:1;stroke-width:5;stroke-dasharray:none" />
  <path
     fill="#FF9AA3"
     d="M701.122 675.796L701.558 675.805C704.485 679.378 706.785 683.617 709.293 687.501L721.306 704.913C731.79 719.145 743.777 731.544 755.646 744.581L715.145 744.835C709.322 744.852 701.896 745.717 696.25 744.656C694.342 744.297 691.886 742.18 690.276 741.075C683.525 735.953 676.818 730.882 670.579 725.124C659.583 714.975 649.804 703.34 640.931 691.31C637.334 686.434 633.406 681.345 630.563 675.995L701.122 675.796Z"
     id="path14"
     style="stroke:#090a59;stroke-opacity:1;stroke-width:5;stroke-dasharray:none" />
  <path
     fill="#FF9AA3"
     d="M485.145 675.858C490.591 675.858 538.517 675.41 539.155 675.856C539.809 676.313 541.983 683.376 542.424 684.5C545.133 691.405 548.376 698.197 551.897 704.728C559.739 719.277 570.114 733.001 581.886 744.578L540.75 744.917L443.49 744.622C447.972 739.438 452.61 734.298 456.714 728.811C468.876 712.555 478.252 694.918 485.145 675.858Z"
     id="path15"
     style="stroke:#090a59;stroke-opacity:1;stroke-width:5;stroke-dasharray:none" />
  <path
     fill="#FF9AA3"
     d="M493.541 215.25L703.924 215.4L696.536 232.528L533.25 232.554L329.594 232.491L321.732 215.507L493.541 215.25Z"
     id="path16"
     style="stroke:#090a59;stroke-opacity:1;stroke-width:5;stroke-dasharray:none" />
  <path
     fill="#FF9AA3"
     d="M592.944 574.637L661.243 574.755C666.163 594.082 671.554 612.947 679.277 631.385C684.279 643.326 690.267 654.713 696.02 666.292L624.335 666.429C607.985 638.725 595.11 606.986 592.944 574.637Z"
     id="path17"
     style="stroke:#090a59;stroke-opacity:1;stroke-width:5;stroke-dasharray:none" />
  <path
     fill="#FF9AA3"
     d="M364.098 574.736L431.575 574.885C431.597 581.013 430.558 587.224 429.522 593.25C426.066 613.35 418.387 631.481 408.975 649.459C406.07 655.007 403.221 660.955 399.5 665.992L397.125 666.138L328.056 666.032C335.755 650.691 343.342 635.511 349.636 619.504C355.366 604.931 359.835 589.79 364.098 574.736Z"
     id="path18"
     style="stroke:#090a59;stroke-opacity:1;stroke-width:5;stroke-dasharray:none" />
  <path
     fill="#FF9AA3"
     d="M340.722 338.698L682.294 338.681C679.028 342.974 675.392 347.413 672.986 352.255C670.658 356.941 669.387 362.057 668.162 367.114L664.795 381.609L360.138 381.615C357.568 373.554 355.646 365.048 352.257 357.297C349.254 350.429 345.222 344.641 340.722 338.698Z"
     id="path19"
     style="stroke:#090a59;stroke-opacity:1;stroke-width:5;stroke-dasharray:none" />
  <path
     fill="#FF9AA3"
     d="M363.186 391.464L662.067 391.48L654.065 442.648L646.009 442.645L557.782 442.88C548.586 433.986 533.685 429.446 521.25 427.904C505.294 425.926 488.974 428.779 474.784 436.3C472.424 437.551 470.263 439.054 468.087 440.594C467.277 441.167 465.857 442.497 465.019 442.791C463.871 443.192 460.735 442.842 459.392 442.853L439.376 442.784L371.15 442.721L363.186 391.464Z"
     id="path20"
     style="stroke:#090a59;stroke-opacity:1;stroke-width:5;stroke-dasharray:none" />
  <path
     fill="#FF9AA3"
     d="M402.027 242.426L471.492 242.462L471.575 286.5C472.304 287.953 472.697 288.47 474.064 289.347C480.17 290.176 549.657 290.015 551.2 289.116C551.913 288.7 552.867 287.898 553.25 287.136C554.224 285.2 553.634 280.331 553.631 278.047L553.556 251.733C553.544 249.081 553.011 244.921 553.8 242.468L621.528 242.481L621.555 273.086C621.565 277.578 620.758 283.575 622.22 287.75C622.841 288.355 623.548 289.154 624.398 289.441C628.195 290.725 634.507 289.92 638.541 289.92L679.4 289.9L691.357 289.898C693.638 289.909 696.201 289.747 698.348 290.628L699 290.922C703.057 292.707 706.358 295.43 708.451 299.402C710.878 304.007 711.676 309.52 710.1 314.547C708.469 319.751 704.7 324.591 699.75 326.991C694.7 329.44 689.403 328.949 683.964 328.959L666.75 328.936L374.264 329.046L342.81 329.037C337.421 329.03 330.996 329.69 325.75 328.466C321.978 327.587 318.193 325.548 315.522 322.726C311.401 318.372 310.227 313.063 310.422 307.242C310.682 299.442 315.957 292.801 323.413 290.533C326.175 289.693 329.256 289.852 332.115 289.84L345.208 289.788L388.137 289.635C390.946 289.624 397.229 290.328 399.75 289.351C400.177 289.186 401.076 288.109 401.459 287.75C402.762 283.344 402.003 276.925 402.012 272.27L402.027 242.426Z"
     id="path21"
     style="stroke:#090a59;stroke-opacity:1;stroke-width:5;stroke-dasharray:none" />
  <path
     fill="#FF9AA3"
     d="M676.689 165.808C677.771 161.667 677.573 157.615 677.59 153.372L677.79 136.328L739.464 136.016L708.686 205.374C705.883 205.967 702.286 205.582 699.388 205.58L681.856 205.578L608.91 205.573L315.984 205.547L284.406 136.002L346.951 136.306L346.954 150.518C346.975 158.082 346.414 165.149 352.192 171.048C356.705 175.655 362.957 177.325 369.25 177.369C375.311 177.412 381.616 175.335 385.901 170.965C391.585 165.17 390.981 158.771 391.004 151.33L390.998 136.101L431.703 136.157L431.703 151.721C431.717 158.827 430.799 166.25 436.103 171.909C440.592 176.697 445.619 176.742 451.69 176.817C460.19 176.921 471.567 178.799 478.051 172.332C483.341 167.056 482.544 160.385 482.541 153.557L482.508 139.274L541.05 139.441L541.294 153.832C541.403 160.333 540.742 167.219 545.69 172.296C551.199 177.951 559.503 176.772 566.719 176.798C574.304 176.825 582.56 178.03 588.32 172.019C593.711 166.394 592.591 158.564 592.606 151.428L592.618 136.271L633.047 136.425L633.195 154.418C633.236 157.973 632.975 161.998 634.129 165.397C635.611 169.768 638.569 173.307 642.764 175.298C647.094 177.353 652.023 176.787 656.68 176.714C659.515 176.669 662.803 176.865 665.5 175.909C670.929 173.985 674.197 170.903 676.689 165.808Z"
     id="path22"
     style="stroke:#090a59;stroke-opacity:1;stroke-width:5;stroke-dasharray:none" />
  <path
     fill="#FF9AA3"
     d="M329.562 754.746L764.814 754.62C771.137 755.373 778.852 760.511 782.675 765.447C786.993 771.023 788.779 778.482 787.739 785.429L787.607 786.25C786.543 793.25 782.577 799.658 776.843 803.833C773.789 806.057 769.711 807.735 765.969 808.312C758.541 809.459 750.121 808.659 742.544 808.657L693.75 808.608L397.808 808.557L304.776 808.623L274.926 808.649C269.363 808.652 263.568 808.942 258.035 808.462C252.254 807.959 246.682 804.872 242.506 800.969C237.237 796.046 234.234 789.495 234.043 782.273C233.856 775.248 236.759 768.261 241.614 763.25C245.341 759.402 250.591 756.468 255.848 755.408C263.521 753.861 272.855 754.878 280.705 754.875L329.562 754.746Z"
     id="path23"
     style="stroke:#090a59;stroke-opacity:1;stroke-width:5;stroke-dasharray:none" />
  <path
     fill="#FF9AA3"
     d="M433.254 818.249L664.467 818.372L733.661 818.438L753.572 818.452C757.679 818.446 761.997 818.183 766.077 818.645C771.43 819.253 777.107 822.568 780.916 826.335C785.919 831.282 788.514 837.938 788.57 844.935C788.635 852.927 786.33 860.086 780.586 865.842C776.545 869.891 771.635 872.53 765.944 873.432C759.655 874.428 752.677 873.938 746.305 873.947L711.761 873.958L590.25 873.967L360.995 873.996L292.443 873.991L271.069 873.96C266.81 873.95 262.433 874.148 258.196 873.664C252.414 873.003 247.442 871.156 243.049 867.238C236.949 861.799 233.811 854.372 233.601 846.25C233.418 839.164 236.332 832.245 241.233 827.196C245.685 822.609 251.758 819.698 258.055 818.787C263.844 817.95 270.329 818.487 276.195 818.479L311.958 818.433L433.254 818.249Z"
     id="path24"
     style="stroke:#090a59;stroke-opacity:1;stroke-width:5;stroke-dasharray:none" />
  <path
     fill="#484A89"
     d="M508.851 437.216C526.93 436.153 544.515 442.995 557.962 454.924C571.865 467.257 580.023 484.686 581.747 503.099C582.454 510.648 582.025 518.501 582.021 526.083C582.012 541.51 581.557 557.057 582.6 572.455C585.51 615.404 604.092 656.655 628.712 691.436C635.735 701.357 643.258 711.258 651.514 720.194C659.591 728.934 668.498 736.749 677.427 744.588L596.156 744.81C592.931 742.686 589.755 739.099 587.131 736.241C581.292 729.879 575.948 723.243 570.934 716.214C552.112 689.826 540.702 657.063 538.169 624.8C537.122 611.468 537.644 597.952 537.715 584.591L537.928 527.131C537.898 516.766 539.328 504.114 533.669 494.953C529.677 488.491 522.924 484.878 515.679 483.328C510.181 482.732 504.942 483.481 500 486.035C494.379 488.939 489.549 494.13 487.586 500.203L487.347 500.967C485.61 506.173 486.334 512.736 486.34 518.209L486.382 543.081L486.447 592.54C486.446 606.907 486.608 621.195 484.966 635.5C481.315 667.308 467.009 700.32 447.283 725.393C441.924 732.205 435.845 738.325 429.772 744.489L346.941 744.754C349.268 741.128 353.919 737.498 357.065 734.475L370.758 720.345C384.677 704.646 396.546 688.461 407.679 670.67C419.848 651.223 430.114 630.727 436.141 608.5C443.53 581.246 441.821 553.188 441.896 525.221C441.923 515.266 441.233 504.636 443.256 494.844C445.894 482.078 451.988 469.945 460.619 460.176C473.314 445.808 489.9 438.467 508.851 437.216Z"
     id="path25" />
  <path
     fill="#FF9AA3"
     d="M217.64 884.059C227.049 883.375 236.743 883.77 246.184 883.771L296.382 883.83L450.683 883.869L681.525 883.905L759.159 883.906L801.25 884.001C805.288 884.125 809.344 885.374 812.967 887.132C820.342 890.71 825.328 896.768 827.818 904.55C830.135 911.793 828.659 921.037 825.013 927.577C820.674 935.361 813.808 939.624 805.377 941.827L804.708 941.934C797.161 943.241 788.724 942.566 781.06 942.57L740.641 942.613L590.736 942.611L341.496 942.652L261.578 942.634C248.131 942.629 234.273 943.33 220.869 942.459C212.807 941.934 205.313 937.467 200.156 931.416C194.707 925.023 192.714 916.832 193.567 908.572C194.305 901.428 198.477 894.671 204.043 890.258C208.065 887.068 212.671 885.181 217.64 884.059Z"
     id="path26"
     style="stroke:#090a59;stroke-opacity:1;stroke-width:5;stroke-dasharray:none" />
</svg>
