<?xml version="1.0" encoding="UTF-8" standalone="no"?>
<svg
   width="1024"
   height="1024"
   version="1.1"
   id="svg43"
   sodipodi:docname="avocado.svg"
   inkscape:version="1.3.2 (091e20ef0f, 2023-11-25)"
   xmlns:inkscape="http://www.inkscape.org/namespaces/inkscape"
   xmlns:sodipodi="http://sodipodi.sourceforge.net/DTD/sodipodi-0.dtd"
   xmlns="http://www.w3.org/2000/svg"
   xmlns:svg="http://www.w3.org/2000/svg">
  <defs
     id="defs43" />
  <sodipodi:namedview
     id="namedview43"
     pagecolor="#ffffff"
     bordercolor="#000000"
     borderopacity="0.25"
     inkscape:showpageshadow="2"
     inkscape:pageopacity="0.0"
     inkscape:pagecheckerboard="0"
     inkscape:deskcolor="#d1d1d1"
     inkscape:zoom="0.47265625"
     inkscape:cx="512"
     inkscape:cy="510.94215"
     inkscape:window-width="1440"
     inkscape:window-height="831"
     inkscape:window-x="0"
     inkscape:window-y="0"
     inkscape:window-maximized="1"
     inkscape:current-layer="svg43" />
  <path
     fill="#FF9AA3"
     d="M180.872 851.684L175.631 846.775C115.781 786.502 71.3046 709.799 50.6768 627.232C40.4994 586.495 36.2137 545.155 36.4885 503.25C36.5886 487.984 37.7642 472.672 39.3904 457.5C45.8883 396.878 62.95 337.272 91.5102 283.25C107.335 253.317 126.913 225.369 149.038 199.783C155.893 191.856 162.582 183.699 170.048 176.338C188.775 157.873 208.324 140.056 229.44 124.324L254.849 107.157C294.972 81.2096 339.581 60.5803 385.75 48.0128C429.219 36.1803 474.146 30.8398 519.145 31.1769C641.552 32.094 762.782 83.8763 848.594 171.166C899.206 222.649 939.774 286.621 962.746 355.212C980.125 407.105 988.093 463.623 987.595 518.29C987.414 538.124 985.483 557.629 982.678 577.25L976.27 614.84C961.255 682.953 930.907 749.145 888.2 804.34C881.899 812.484 875.095 820.71 868.052 828.225L844.3 852.651C842.488 851.734 837.452 852.245 835.3 852.239L805.102 852.316L731.632 852.298L692.043 852.119L729.451 826.326C747.735 810.972 762.862 788.88 771.016 766.524C777.719 748.144 780.711 729.121 782.403 709.713C787.905 705.581 792.649 700.046 797.25 694.944C805.682 685.596 813.781 676.155 820.819 665.697C827.773 655.362 834.485 644.861 839.968 633.656C852.731 607.572 860.026 578.874 860.389 549.769C860.583 534.235 858.565 518.994 855.569 503.797C848.627 468.584 828.429 433.45 803.778 407.666C799.364 403.05 795.031 398.166 789.704 394.585C791.815 393.612 793.741 392.175 794.592 389.924C795.264 388.149 795.048 386.282 794.704 384.463L783.1 333.913L775.521 298L765.712 252.173C763.562 243.917 760.627 235.866 757.27 228.029C745.983 201.685 726.209 179.689 702.557 163.75C695.036 158.682 687.1 153.936 678.656 150.582C652.959 140.378 624.677 137.581 598.846 148.675C590.591 140.741 582.361 132.432 572.304 126.778C566.545 123.54 560.483 121.524 554.156 119.743C554.006 119.701 551.774 119.115 551.745 119.07C551.697 118.997 553.734 109.884 553.641 107.266C553.539 104.394 552.412 101.076 550.803 98.6934C548.228 94.8801 544.022 92.3888 539.591 91.3939C531.252 89.5214 520.388 88.0541 512.954 93.1298C510.122 95.063 507.206 98.1513 505.682 101.203C503.797 104.978 503.248 109.97 502.393 114.103L497.793 136.865L487.463 190.245C475.228 193.208 463.636 196.743 452.354 202.421C427.149 215.107 406.342 236.594 391.767 260.469C374.272 289.126 364.462 322.54 360.384 355.74L357.189 386.663C355.583 397.808 352.556 409.498 348.795 420.107C335.194 458.474 314.249 491.644 292.967 526.019C283.948 540.587 275.092 555.407 267.667 570.859C253.423 600.502 243.932 631.878 240.594 664.641C239.202 678.3 239.097 691.786 239.521 705.494C240.207 714.783 241.012 723.908 242.816 733.067C249.882 768.955 266.54 801.226 294.481 825.206C302.828 832.369 312.215 838.699 321.652 844.347C326.028 846.967 330.718 849.273 334.931 852.13L180.872 851.684Z"
     id="path2" />
  <path
     d="M191.239 547.012C188.806 541.513 185.015 536.717 181.264 532.06C169.916 517.967 156.993 507.31 141.691 497.788C164.063 485.398 179.079 469.233 191.317 446.885C196.912 456.634 203.286 465.465 210.618 473.958C215.704 479.778 221.753 485.173 227.911 489.836L235.241 494.979C236.485 495.801 238.189 496.61 239.116 497.775C231.482 503.214 223.895 508.56 216.991 514.936C206.707 524.435 198.654 535.182 191.239 547.012Z"
     id="path3" />
  <path
     fill="#FEFEFE"
     d="M241.995 333.713C244.159 327.218 248.36 320.498 251.678 314.483C266.57 287.484 283.732 262.581 304.698 239.939C348.395 192.75 404.934 154.987 468.354 141C477.565 138.968 487.591 136.383 497 136.031L497.793 136.865L487.463 190.245C475.228 193.208 463.636 196.743 452.354 202.421C427.149 215.107 406.342 236.594 391.767 260.469C374.272 289.126 364.462 322.54 360.384 355.74L357.189 386.663C355.583 397.808 352.556 409.498 348.795 420.107C335.194 458.474 314.249 491.644 292.967 526.019C283.948 540.587 275.092 555.407 267.667 570.859C253.423 600.502 243.932 631.878 240.594 664.641C239.202 678.3 239.097 691.786 239.521 705.494C224.427 688.045 212.482 668.709 203.139 647.59L195.148 627.773L194.636 627.75L192.979 624.05C187.875 613.123 179.559 608.664 168.694 604.73L175.715 602.273C181.96 599.84 188.597 594.33 191.214 588.012L191.366 587.623L190.787 586.297C190.035 583.674 190.565 580.044 190.381 577.25C189.934 570.491 189.203 563.949 189.285 557.146C189.332 553.298 189.13 550.356 191.239 547.012C198.654 535.182 206.707 524.435 216.991 514.936C223.895 508.56 231.482 503.214 239.116 497.775C238.189 496.61 236.485 495.801 235.241 494.979L227.911 489.836C221.753 485.173 215.704 479.778 210.618 473.958C211.099 470.803 212.52 467.675 213.679 464.713L220.458 449C224.406 440.384 228.282 430.777 233.353 422.793C221.755 406.751 207.619 394.822 190.79 384.597C206.803 374.737 220.824 363.46 232.128 348.292C235.64 343.58 238.42 338.342 241.995 333.713Z"
     id="path4" />
  <path
     d="M306.809 255.073C311.468 265.466 318.162 271.306 328.525 275.719C317.58 281.222 311.964 285.093 306.336 296.327C301.386 287.037 295.522 279.301 285.213 275.58L284.418 275.298L284.826 275.184C296.036 271.804 301.496 265.023 306.809 255.073Z"
     id="path5" />
  <path
     d="M191.366 587.623L195.112 578.602C196.866 587.769 200.632 594.75 208.5 600.011C211.797 602.216 215.445 603.597 219.134 604.979C211.067 607.467 202.788 612.058 198.486 619.693C197.083 622.183 196.136 625.099 195.148 627.773L194.636 627.75L192.979 624.05C187.875 613.123 179.559 608.664 168.694 604.73L175.715 602.273C181.96 599.84 188.597 594.33 191.214 588.012L191.366 587.623Z"
     id="path6" />
  <path
     d="M233.353 422.793C221.755 406.751 207.619 394.822 190.79 384.597C206.803 374.737 220.824 363.46 232.128 348.292C235.64 343.58 238.42 338.342 241.995 333.713C245.326 339.133 248.554 344.672 252.382 349.761C263.149 364.074 276.285 374.547 291.309 384.11C271.352 395.962 252.252 412.459 240.809 432.95L233.353 422.793Z"
     id="path7" />
  <path
     d="M497.793 136.865L502.393 114.103C503.248 109.97 503.797 104.978 505.682 101.203C507.206 98.1513 510.122 95.063 512.954 93.1298C520.388 88.0541 531.252 89.5214 539.591 91.3939C544.022 92.3888 548.228 94.8801 550.803 98.6934C552.412 101.076 553.539 104.394 553.641 107.266C553.734 109.884 551.697 118.997 551.745 119.07C551.774 119.115 554.006 119.701 554.156 119.743C560.483 121.524 566.545 123.54 572.304 126.778C582.361 132.432 590.591 140.741 598.846 148.675C624.677 137.581 652.959 140.378 678.656 150.582C687.1 153.936 695.036 158.682 702.557 163.75C726.209 179.689 745.983 201.685 757.27 228.029C760.627 235.866 763.562 243.917 765.712 252.173L775.521 298L783.1 333.913L794.704 384.463C795.048 386.282 795.264 388.149 794.592 389.924C793.741 392.175 791.815 393.612 789.704 394.585C795.031 398.166 799.364 403.05 803.778 407.666C828.429 433.45 848.627 468.584 855.569 503.797C858.565 518.994 860.583 534.235 860.389 549.769C860.026 578.874 852.731 607.572 839.968 633.656C834.485 644.861 827.773 655.362 820.819 665.697C813.781 676.155 805.682 685.596 797.25 694.944C792.649 700.046 787.905 705.581 782.403 709.713C780.711 729.121 777.719 748.144 771.016 766.524C762.862 788.88 747.735 810.972 729.451 826.326L692.043 852.119L731.632 852.298L805.102 852.316L835.3 852.239C837.452 852.245 842.488 851.734 844.3 852.651C807.039 886.4 765.229 914.972 719.709 936.437C654.679 967.103 581.635 982.789 509.841 982.501C412.548 982.111 316.15 952.547 236.18 897.072C216.592 883.483 197.688 868.632 180.872 851.684L334.931 852.13C330.718 849.273 326.028 846.967 321.652 844.347C312.215 838.699 302.828 832.369 294.481 825.206C266.54 801.226 249.882 768.955 242.816 733.067C241.012 723.908 240.207 714.783 239.521 705.494C239.097 691.786 239.202 678.3 240.594 664.641C243.932 631.878 253.423 600.502 267.667 570.859C275.092 555.407 283.948 540.587 292.967 526.019C314.249 491.644 335.194 458.474 348.795 420.107C352.556 409.498 355.583 397.808 357.189 386.663L360.384 355.74C364.462 322.54 374.272 289.126 391.767 260.469C406.342 236.594 427.149 215.107 452.354 202.421C463.636 196.743 475.228 193.208 487.463 190.245L497.793 136.865Z"
     id="path8" />
  <path
     fill="#FEFEFE"
     d="M585.685 266.551C587.055 266.477 588.305 266.487 589.643 266.847C591.749 267.414 593.509 269.206 594.5 271.099C595.613 273.229 595.837 275.483 595.051 277.75C594.015 280.736 591.73 282.227 588.96 283.435C587.765 283.485 586.493 283.566 585.326 283.261C583.063 282.67 581.109 281.09 579.914 279.105C578.743 277.16 578.678 274.733 579.33 272.587C580.293 269.416 582.915 267.906 585.685 266.551Z"
     id="path9" />
  <path
     fill="#FEFEFE"
     d="M336.797 741.531C337.935 741.589 339.151 741.692 340.25 742.002C342.655 742.68 344.913 744.727 345.969 746.963C346.995 749.134 347.148 751.897 346.279 754.148C345.118 757.157 342.383 758.719 339.551 759.853C337.784 759.983 335.385 759.932 333.728 759.217C331.774 758.373 330.357 756.411 329.567 754.502C328.637 752.255 328.549 748.97 329.632 746.75C331.136 743.666 333.722 742.583 336.797 741.531Z"
     id="path10" />
  <path
     fill="#FEFEFE"
     d="M618.175 361.06C619.743 361.198 621.526 361.241 622.946 361.977C625.354 363.225 627.215 365.749 627.855 368.359C628.448 370.776 628.229 373.203 626.914 375.336C625.221 378.079 622.775 379.088 619.775 379.868C618.093 379.727 616.38 379.609 614.849 378.833C612.567 377.676 610.78 375.704 609.991 373.25C609.19 370.759 609.668 368.221 611.014 366C612.795 363.059 614.947 361.908 618.175 361.06Z"
     id="path11" />
  <path
     fill="#FEFEFE"
     d="M326.508 672.526C328.267 672.438 330.283 672.201 331.988 672.718C334.285 673.416 336.136 674.935 337.199 677.097C338.503 679.746 338.682 682.808 337.572 685.552C336.368 688.529 334.412 689.836 331.579 691.09C330.239 691.313 328.716 691.353 327.388 691.037C324.889 690.441 322.406 688.611 321.167 686.354C319.81 683.884 319.735 680.767 320.69 678.155C321.741 675.283 323.894 673.855 326.508 672.526Z"
     id="path12" />
  <path
     fill="#FEFEFE"
     d="M617.642 418.049C618.991 417.951 620.591 417.775 621.906 418.123C623.845 418.635 625.534 420.452 626.486 422.139C627.991 424.805 628.242 428.201 627.211 431.085C626.057 434.311 623.492 436.128 620.575 437.619C619.301 437.64 617.907 437.734 616.654 437.487C614.487 437.06 612.391 435.048 611.263 433.236C609.97 431.157 609.417 428.482 610.102 426.094C611.222 422.183 614.295 419.922 617.642 418.049Z"
     id="path13" />
  <path
     fill="#FEFEFE"
     d="M683.999 768.983C685.846 769.021 688.245 769.175 689.736 770.364C691.949 772.128 693.261 774.51 693.613 777.307C693.903 779.607 694.12 783.903 692.603 785.757L692.25 786.159C690.8 787.974 689.538 788.777 687.471 789.871C685.828 789.987 684.078 789.946 682.5 789.418C680.612 788.786 679.124 786.831 678.288 785.108C676.919 782.287 677.158 777.541 678.191 774.628C679.229 771.702 681.272 770.229 683.999 768.983Z"
     id="path14" />
  <path
     fill="#FEFEFE"
     d="M297.181 623.535C298.293 623.573 299.412 623.658 300.5 623.906C303.197 624.52 305.266 626.175 306.601 628.58C307.791 630.726 308.116 634.397 307.271 636.704C306.075 639.973 303.65 641.583 300.571 642.85L296.604 642.489C294.003 642.001 291.559 639.934 290.245 637.688C289.156 635.826 289.103 631.711 289.858 629.744C291.219 626.192 293.9 624.871 297.181 623.535Z"
     id="path15" />
  <path
     fill="#FEFEFE"
     d="M372.566 465.561C374.194 465.488 376.169 465.258 377.733 465.708C380.007 466.364 382.153 468.641 383.159 470.719C384.359 473.201 384.357 476.465 383.417 479.025C382.437 481.696 380.005 483.254 377.576 484.445C375.825 484.512 373.687 484.763 371.985 484.325C369.674 483.731 367.981 481.895 366.922 479.839C365.605 477.284 365.62 474.053 366.539 471.373C367.58 468.34 369.777 466.858 372.566 465.561Z"
     id="path16" />
  <path
     fill="#FEFEFE"
     d="M290.523 698.514C292.166 698.426 293.999 698.241 295.608 698.639C297.978 699.226 299.909 701.334 301.054 703.403C302.333 705.716 302.906 708.718 301.945 711.25C300.798 714.272 298.216 715.851 295.48 717.251C294.145 717.492 291.983 717.759 290.676 717.363C288.195 716.612 286.196 714.986 284.881 712.743C283.689 710.71 283.519 707.864 284.143 705.629C285.167 701.961 287.393 700.329 290.523 698.514Z"
     id="path17" />
  <path
     fill="#FEFEFE"
     d="M677.494 533.092C679.049 533.144 680.616 533.281 682.086 533.836C684.33 534.683 686.096 536.94 686.971 539.11C687.955 541.554 687.837 545.378 686.77 547.75C685.269 551.084 683.184 552.191 679.866 553.413C678.483 553.444 676.739 553.316 675.458 552.771C673.388 551.889 671.484 549.542 670.75 547.458C669.783 544.713 669.948 540.749 671.294 538.127C672.702 535.387 674.658 534.094 677.494 533.092Z"
     id="path18" />
  <path
     fill="#FEFEFE"
     d="M408.641 384.106C410.253 384.161 412.342 384.21 413.794 384.98C415.951 386.124 417.661 388.52 418.272 390.86C418.939 393.411 418.778 396.455 417.429 398.75C415.664 401.754 413.368 402.736 410.131 403.627C408.361 403.362 406.414 403.139 404.837 402.233C402.812 401.07 401.226 398.895 400.591 396.667C399.909 394.276 400.148 391.085 401.421 388.919C403.106 386.052 405.573 385.003 408.641 384.106Z"
     id="path19" />
  <path
     fill="#FEFEFE"
     d="M411.569 312.986C413.321 312.907 415.093 312.864 416.75 313.538C419.289 314.571 421.195 316.979 422.122 319.5C422.883 321.567 423.06 324.74 422.076 326.75C420.43 330.112 418.23 331.176 414.834 332.422C413.639 332.454 412.434 332.323 411.262 332.09C408.864 331.611 406.63 329.847 405.414 327.743C404.027 325.343 403.827 322.188 404.696 319.566C405.853 316.074 408.418 314.48 411.569 312.986Z"
     id="path20" />
  <path
     fill="#FEFEFE"
     d="M344.171 535.071C345.87 534.941 347.832 534.963 349.438 535.587C351.648 536.447 353.16 538.303 354.009 540.481C354.884 542.724 354.952 546.714 353.834 548.879C352.203 552.04 350.215 553.368 346.936 554.524C345.361 554.518 343.688 554.584 342.212 553.957C339.615 552.852 337.818 550.708 336.856 548.087C336.132 546.115 336.113 542.697 337.017 540.75C338.6 537.338 340.819 536.306 344.171 535.071Z"
     id="path21" />
  <path
     fill="#FEFEFE"
     d="M600.011 309.139C601.498 309.233 603.428 309.197 604.787 309.876C607.158 311.06 608.639 314.03 609.212 316.496C609.904 319.474 609.86 323.411 608.186 326.035C606.665 328.42 604.455 329.237 601.826 329.893C600.515 329.774 599.034 329.66 597.815 329.131C595.378 328.075 593.562 325.064 592.834 322.612C592.05 319.971 592.163 316.162 593.524 313.75C595.06 311.029 597.066 309.915 600.011 309.139Z"
     id="path22" />
  <path
     fill="#FEFEFE"
     d="M649.083 482.079C650.559 481.948 652.097 481.771 653.556 482.113C655.802 482.64 657.565 484.143 658.75 486.082C660.35 488.698 660.777 492.309 660.001 495.25C659.06 498.812 657.157 500.635 654.067 502.482C652.909 502.519 651.765 502.568 650.621 502.348C647.897 501.822 645.613 500.036 644.204 497.654C642.591 494.929 642.372 491.534 643.161 488.517C644.001 485.305 646.34 483.648 649.083 482.079Z"
     id="path23" />
  <path
     fill="#FEFEFE"
     d="M703.141 720.516L706.25 720.717C708.614 721.108 710.502 722.756 711.752 724.732C713.681 727.781 713.787 732.054 712.832 735.436C711.928 738.634 709.955 740.362 707.087 741.817C705.698 741.759 704.001 741.83 702.674 741.395C700.428 740.659 698.756 739.287 697.632 737.2C696.237 734.612 695.909 730.323 696.773 727.515C697.903 723.846 699.866 722.256 703.141 720.516Z"
     id="path24" />
  <path
     fill="#FEFEFE"
     d="M725.538 590.07C727.103 589.991 728.804 590.058 730.288 590.626C732.629 591.524 734.405 593.864 735.359 596.105C736.395 598.538 736.453 602.844 735.413 605.25C734.122 608.238 731.861 609.664 729.01 610.949C727.686 611.036 726.419 611.054 725.123 610.716C722.505 610.034 720.878 608.287 719.633 605.962C718.206 603.297 718.062 599.598 719.055 596.75C720.27 593.262 722.302 591.641 725.538 590.07Z"
     id="path25" />
  <path
     fill="#FEFEFE"
     d="M700.593 661.552L704.5 661.509C706.887 661.814 708.738 663.525 710.093 665.413C711.969 668.026 712.579 672.098 711.913 675.233C711.15 678.821 709.032 680.561 706.032 682.413C704.453 682.491 702.656 682.701 701.092 682.459C699.527 682.216 697.986 680.936 697.057 679.707C694.765 676.674 694.271 672.388 695.019 668.75C695.767 665.112 697.579 663.492 700.593 661.552Z"
     id="path26" />
  <path
     fill="#FEFEFE"
     d="M629.084 790.546C630.781 790.359 632.941 790.22 634.606 790.615C636.772 791.129 639.073 793.3 640.04 795.25C641.247 797.684 641.385 801.339 640.395 803.86C638.986 807.452 636.777 808.724 633.41 810.268C631.906 810.343 630.211 810.244 628.75 809.867C625.918 809.137 623.559 806.892 622.25 804.339C621.214 802.32 621.04 799.455 621.823 797.313C623.108 793.802 625.872 792.068 629.084 790.546Z"
     id="path27" />
  <path
     fill="#FEFEFE"
     d="M392.512 795.079C394.331 795.03 396.104 794.992 397.843 795.609C400.497 796.552 402.581 798.655 403.747 801.189C404.756 803.38 404.895 806.27 403.9 808.5C402.383 811.9 399.863 813.629 396.482 814.903C394.663 814.886 392.573 814.814 390.849 814.195C388.409 813.319 386.084 810.78 385.071 808.438C384.223 806.477 384.149 803.601 384.974 801.612C386.455 798.039 389.125 796.49 392.512 795.079Z"
     id="path28" />
  <path
     fill="#FF9AA3"
     d="M544.775 152.767L548.227 136.924C558.917 140.471 568.772 146.017 577.048 153.68C578.491 155.016 580.676 156.714 581.766 158.337L582.037 158.986L580.404 162.278C574.381 161.106 568.511 158.613 562.683 156.732C556.913 154.87 550.798 153.488 544.775 152.767Z"
     id="path29" />
  <path
     fill="#D5EDA0"
     d="M726.302 294.418C738.156 298.547 748.648 304.042 759.254 310.683L765.185 343.666L726.302 294.418Z"
     id="path30" />
  <path
     fill="#FEFEFE"
     d="M522.617 107.943L534.705 109.351L522.255 169.888L519.993 181.75C519.653 183.601 519.463 185.921 518.377 187.479L506.313 187.849C508.721 169.78 513.128 151.514 516.79 133.65L519.999 117.75C520.671 114.447 521.123 110.995 522.617 107.943Z"
     id="path31" />
  <path
     fill="#D5EDA0"
     d="M596.045 174.275L622.795 202.518C622.378 206.78 620.926 210.896 620.268 215.131L618.65 230.031C618.511 231.996 618.761 235.638 617.75 237.194L616.68 236.011C608.003 226.95 598.424 219.052 588.1 211.933C588.722 198.642 591.037 186.643 596.045 174.275Z"
     id="path32" />
  <path
     fill="#FEFEFE"
     d="M544.775 152.767C550.798 153.488 556.913 154.87 562.683 156.732C568.511 158.613 574.381 161.106 580.404 162.278C574.21 174.497 571.144 187.78 569.397 201.267C558.894 196.132 548.879 192.954 537.469 190.482C537.224 187.829 538.361 184.189 538.861 181.506L544.775 152.767Z"
     id="path33" />
  <path
     fill="#D5EDA0"
     d="M693.538 285.189L752.266 360.052C744.224 357.702 736.977 354.048 729.302 350.804L701.02 339.266C695.891 322.127 693.767 303.033 693.538 285.189Z"
     id="path34" />
  <path
     fill="#D5EDA0"
     d="M639.064 219.297L670.098 256.997C671.746 259.064 674.911 261.844 675.967 264.053C676.619 265.417 675.805 269.24 675.655 270.831C675.104 276.689 674.656 282.522 674.615 288.412C674.521 301.907 676.181 315.23 678.899 328.432C674.352 325.765 669.698 323.114 665.444 319.995C663.865 318.838 661.77 317.424 660.611 315.847C659.253 313.999 658.707 310.952 658.069 308.763L654.173 296.664L644.479 272.813C637.509 254.798 637.051 238.224 639.064 219.297Z"
     id="path35" />
  <path
     fill="#D5EDA0"
     d="M667.04 222.086C685.205 222.231 702.965 228.897 719 236.954C725.79 240.365 732.574 243.968 738.86 248.251C740.56 249.409 745.038 252.149 746.053 253.695C747.073 255.248 747.514 258.648 747.95 260.47L752.956 284.101C742.676 279.214 732.125 274.729 721.006 272.127C717.342 271.27 713.626 270.521 709.892 270.041C709.065 269.935 705.565 269.84 705.021 269.462C704.188 268.883 703.04 267.07 702.367 266.246L695.472 257.539L667.04 222.086Z"
     id="path36" />
  <path
     fill="#D5EDA0"
     d="M626.302 161.199C634.747 160.01 644.993 161.425 653.298 163.176C686.444 170.165 714.755 193.869 732.905 221.834L724.313 217.574C700.944 206.89 675.427 199.146 649.512 203.229L613.279 163.31L626.302 161.199Z"
     id="path37" />
  <path
     fill="#FEFEFE"
     d="M782.403 709.713C783.009 694.61 784.286 679.24 783.364 664.131C780.673 620.022 764.293 579.993 742.442 542.104L709.34 487.632C698.423 468.926 687.135 450.416 679.199 430.176C674.02 416.968 670.35 403.301 667.977 389.318L661.24 341.86L679.342 350.996L732.921 374.158C751.532 381.846 770.261 389.27 789.704 394.585C795.031 398.166 799.364 403.05 803.778 407.666C828.429 433.45 848.627 468.584 855.569 503.797C858.565 518.994 860.583 534.235 860.389 549.769C860.026 578.874 852.731 607.572 839.968 633.656C834.485 644.861 827.773 655.362 820.819 665.697C813.781 676.155 805.682 685.596 797.25 694.944C792.649 700.046 787.905 705.581 782.403 709.713Z"
     id="path38" />
  <path
     fill="#FEFEFE"
     d="M507.392 241.159L508.183 241.067C519.094 240.14 528.873 243.823 536.974 251.047C547.659 260.575 555.491 274.155 561.18 287.125C571.098 309.736 576.48 333.853 577.144 358.543L577.072 395.862C577.598 408.59 579.893 420.718 583.517 432.909C590.163 455.269 603.553 475.88 615.665 495.626C641.695 538.064 664.55 584.036 667.372 634.624C669.765 677.523 654.402 721.148 625.575 753.047C597.675 783.921 559.315 800.518 518.125 802.451C483.988 802.877 450.412 792.837 422.772 772.632C412.485 765.111 402.7 755.67 394.523 745.898C386.129 735.866 379.238 724.77 372.771 713.427C365.9 701.378 359.106 689.246 357.089 675.355C355.922 667.319 356.234 658.714 356.344 650.613C357.046 599.196 374.982 551.504 401.203 507.816C415.096 484.669 431.371 461.855 439.347 435.771C443.242 423.034 445.796 409.705 446.434 396.387L446.561 355.054C446.892 342.769 449.116 330.144 452.103 318.266C457.035 298.654 464.814 278.548 477.07 262.311C484.745 252.144 494.316 243.001 507.392 241.159Z"
     id="path39" />
  <path
     d="M502.804 491.704L503.202 491.646C531.359 489.032 561.684 498.226 583.77 515.77C616.799 542.008 636.786 582.206 641.13 623.914C645.08 661.845 633.855 701.093 609.606 730.569C588.231 756.551 556.369 772.607 523.121 775.897C491.245 778.243 459.101 768.249 434.193 748.209C405.99 725.518 388.548 691.901 384.772 656.021C380.445 614.895 392.99 570.073 419.204 537.905C440.862 511.328 468.616 495.165 502.804 491.704Z"
     id="path40" />
  <path
     fill="#744E4D"
     d="M511.299 508.229C517.88 508.385 524.281 508.65 530.75 510.035C547.359 513.59 563.061 522.445 575.808 533.473C602.639 556.685 618.982 593.45 621.375 628.58C623.684 662.489 614.63 694.322 592.012 720.124C577.925 736.195 558.844 748.404 538.05 753.736C530.614 755.643 523.186 756.422 515.553 756.932C488.507 757.621 461.659 747.159 441.75 728.851C418.572 707.538 405.573 678.555 404.294 647.191C402.79 610.317 415.089 571.473 440.515 544.235C459.31 524.1 483.234 509.333 511.299 508.229Z"
     id="path41" />
  <path
     d="M509.993 526.708C528.306 525.326 548.819 533.356 562.715 544.988C587.42 565.67 600.797 598.672 603.276 630.255C605.509 658.716 596.874 688.287 577.999 709.916C561.891 728.373 540.79 737.318 516.759 739.004C494.695 739.323 473.819 731.705 456.797 717.695C436.568 701.046 424.734 675.812 422.436 649.932C419.541 617.333 430.829 582.376 451.985 557.5C467.416 539.355 486.091 528.659 509.993 526.708Z"
     id="path42" />
  <path
     fill="#FEFEFE"
     d="M505.595 548.661C508.126 548.8 510.696 549.182 512.939 550.45C515.915 552.132 518.716 555.896 519.401 559.254C520.37 564.001 519.172 569.097 515.299 572.261C512.972 574.161 509.558 575.099 506.831 576.325C498.77 579.948 491.358 584.93 485.854 591.92C478.486 601.276 475.167 612.576 473.799 624.259C473.056 630.605 474.716 637.817 470.496 643.25C466.846 647.949 462.698 648.981 457.105 649.582C454.343 649.345 451.299 648.704 448.994 647.099C445.8 644.874 443.548 641.634 442.856 637.782C442.121 633.692 443.469 628.554 444.162 624.497C447.162 606.951 451.275 590.496 462.096 575.979C472.558 561.943 488.112 551.22 505.595 548.661Z"
     id="path43" />
</svg>
