<?xml version="1.0" encoding="UTF-8" standalone="no"?>
<svg
   width="1024"
   height="1024"
   version="1.1"
   id="svg70"
   sodipodi:docname="bunny.svg"
   inkscape:version="1.3.2 (091e20ef0f, 2023-11-25)"
   xmlns:inkscape="http://www.inkscape.org/namespaces/inkscape"
   xmlns:sodipodi="http://sodipodi.sourceforge.net/DTD/sodipodi-0.dtd"
   xmlns="http://www.w3.org/2000/svg"
   xmlns:svg="http://www.w3.org/2000/svg">
  <sodipodi:namedview
     id="namedview70"
     pagecolor="#ffffff"
     bordercolor="#000000"
     borderopacity="0.25"
     inkscape:showpageshadow="2"
     inkscape:pageopacity="0.0"
     inkscape:pagecheckerboard="0"
     inkscape:deskcolor="#d1d1d1"
     inkscape:zoom="0.47265625"
     inkscape:cx="512"
     inkscape:cy="510.94215"
     inkscape:window-width="1440"
     inkscape:window-height="831"
     inkscape:window-x="0"
     inkscape:window-y="0"
     inkscape:window-maximized="1"
     inkscape:current-layer="svg70" />
  <path
     d="M634.132 76.9895C651.679 63.262 673.41 47.9686 696.943 50.8075C708.303 52.1779 717.747 58.1885 724.713 67.1045C732.091 76.5489 736.553 89.882 738.392 101.623L740.46 120.355C748.179 123.978 755.266 128.349 762.519 132.81C776.916 141.663 790.552 151.288 803.763 161.826C850.864 199.396 891.567 245.869 921.478 298.264C937.032 325.509 949.855 354.523 960.529 384C968.743 406.686 974.346 430.626 978.743 454.312C989.58 512.69 990.625 573.172 980.48 631.75C972.9 675.52 958.915 718.379 940.061 758.561L918.034 800.247C915.011 805.355 912.14 810.51 908.731 815.38L932.042 856.052L931.881 973.81L91.4357 973.936L91.6008 855.995L91.7187 855.593L91.9267 854.928C93.9931 848.174 97.7823 841.768 101.339 835.697L116.655 811.62C111.6 805.402 107.528 798.438 103.355 791.616C80.9374 754.966 65.0297 714.375 53.8601 672.992C27.7678 576.319 32.709 469.541 67.1608 375.589L79.4573 346C86.5045 329.927 94.0332 313.93 102.827 298.723C133.219 246.168 174.225 198.243 222.25 161.013L248.997 142.138L271.549 127.825C274.901 125.902 278.365 123.615 282.112 122.613C283.783 103.156 286.77 83.8388 299.078 67.9566C306.205 58.7605 315.792 53.0959 327.373 51.7528C350.512 49.0691 371.776 64.1686 388.948 77.6542C393.146 75.7033 398.249 75.0306 402.77 74.0164L430.647 68.3214C489.713 58.3966 548.713 58.7345 607.5 70.4875L634.132 76.9895Z"
     id="path2" />
  <path
     fill="#FEFEFE"
     d="M476.884 263.149C478.531 263.39 479.028 263.638 480.25 264.768C480.548 266.822 480.167 267.166 479.262 268.97C477.637 268.65 477.198 268.733 476.027 267.5C475.714 265.462 476.085 264.995 476.884 263.149Z"
     id="path3" />
  <path
     fill="#FEFEFE"
     d="M365.442 776.232C366.637 776.8 366.768 776.882 367.464 778C367.594 780.407 367.737 781.817 366.335 783.9C365.205 783.068 364.41 782.729 364.105 781.25C363.65 779.041 364.228 777.89 365.442 776.232Z"
     id="path4" />
  <path
     fill="#FEFEFE"
     d="M552.908 371.706C555.084 372.054 555.301 371.9 556.835 373.623C556.972 375.822 556.642 375.949 555.437 377.695C553.947 377.362 553.139 377.174 552.05 376C551.637 373.9 552.02 373.585 552.908 371.706Z"
     id="path5" />
  <path
     fill="#FEFEFE"
     d="M707.4 610.7C709.578 611.185 710.186 611.411 711.503 613.25C711.476 615.54 711.302 615.739 709.942 617.607L708 617.393C706.83 616.655 706.442 616.281 705.907 615C705.848 613.063 706.32 612.278 707.4 610.7Z"
     id="path6" />
  <path
     fill="#FEFEFE"
     d="M677.459 488.864C678.195 488.859 679.031 488.815 679.75 488.975C681.2 489.299 681.657 490.088 682.434 491.25C682.423 493.072 681.9 493.836 680.851 495.294C679.968 495.416 679.098 495.624 678.232 495.318C677.095 494.916 676.646 494.453 676.25 493.289C675.672 491.59 676.694 490.266 677.459 488.864Z"
     id="path7" />
  <path
     fill="#FEFEFE"
     d="M644.912 745.782L647.5 746.608C648.502 747.718 649.06 748.14 649.015 749.75C648.97 751.366 647.771 752.309 646.667 753.283L644 752.49C642.922 751.842 642.428 751.019 642.474 749.75C642.542 747.893 643.749 747.045 644.912 745.782Z"
     id="path8" />
  <path
     fill="#FEFEFE"
     d="M420.937 299.97C422.068 300.228 422.886 300.536 423.896 301.107C424.623 302.341 425.145 303.256 424.84 304.75C424.488 306.47 423.119 307.135 421.816 308.068C420.618 307.694 419.491 307.366 418.587 306.426C417.437 305.231 417.566 304.011 417.531 302.5C418.486 301.027 419.4 300.644 420.937 299.97Z"
     id="path9" />
  <path
     fill="#FEFEFE"
     d="M661.795 350.443C663.234 350.75 664.641 351.083 665.655 352.25C666.749 353.509 666.524 354.481 666.507 356C665.58 357.836 664.692 358.288 662.872 359.174C661.557 358.912 660.804 358.555 659.692 357.808C658.688 355.976 658.57 355.637 658.67 353.557C659.527 351.942 660.233 351.368 661.795 350.443Z"
     id="path10" />
  <path
     fill="#FEFEFE"
     d="M733.45 673.944L736 674.455C737.167 674.871 737.96 675.549 738.527 676.636C739.183 677.893 739.291 679.438 738.828 680.776C738.14 682.76 736.757 683.364 734.976 684.187L734.363 684.088C732.654 683.734 731.23 683.242 730.333 681.633C729.58 680.281 729.35 678.72 729.843 677.25C730.473 675.375 731.873 674.858 733.45 673.944Z"
     id="path11" />
  <path
     fill="#FEFEFE"
     d="M356.864 684.417C358.869 684.431 360.725 684.439 362.25 685.977C363.243 686.978 363.555 688.047 363.564 689.41C363.578 691.697 362.098 692.616 360.581 694.068L359.275 694.154C357.608 694.226 356.395 694.095 355.182 692.843C354.016 691.637 353.716 690.154 353.852 688.528C354.012 686.598 355.51 685.601 356.864 684.417Z"
     id="path12" />
  <path
     fill="#FEFEFE"
     d="M536.535 256.488C538.227 256.645 540.114 256.841 541.349 258.154C542.544 259.425 542.687 261.071 542.48 262.75C542.258 264.553 540.463 265.681 539.116 266.642C538.408 266.608 537.694 266.594 537 266.431C535.597 266.101 534.459 265.427 533.689 264.197C532.883 262.908 532.474 261.232 533.032 259.75C533.664 258.072 535.071 257.367 536.535 256.488Z"
     id="path13" />
  <path
     fill="#FEFEFE"
     d="M346.908 726.482C348.819 726.817 350.628 727.112 351.831 728.805C352.742 730.086 353.019 732 352.541 733.5C351.973 735.28 350.799 735.929 349.287 736.885L347.426 736.706C345.942 736.502 345.025 736.011 344.161 734.756C343.258 733.444 343.006 731.806 343.351 730.265C343.79 728.304 345.35 727.502 346.908 726.482Z"
     id="path14" />
  <path
     fill="#FEFEFE"
     d="M284.491 676.898L285.245 676.886C287.052 676.928 288.787 677.321 290.008 678.75C290.899 679.793 291.249 681.099 291.15 682.449C290.981 684.764 289.782 685.653 288.114 687.073C286.294 687.127 284.611 687.127 283.184 685.862C282.139 684.935 281.489 683.17 281.539 681.779C281.616 679.625 283.01 678.274 284.491 676.898Z"
     id="path15" />
  <path
     fill="#FEFEFE"
     d="M315.92 621.385L318.002 621.423C319.556 621.525 320.794 622.127 321.802 623.332C322.725 624.436 322.963 625.797 322.798 627.188C322.529 629.444 321.386 630.219 319.771 631.583C317.697 631.629 315.734 631.764 314.128 630.218C312.79 628.93 312.621 627.516 312.57 625.75C313.275 623.706 314.322 622.798 315.92 621.385Z"
     id="path16" />
  <path
     fill="#FEFEFE"
     d="M534.459 423.486C536.358 423.486 538.219 423.633 539.662 425.002C541.39 426.64 541.353 428.049 541.415 430.25C540.544 432.145 539.713 432.863 538.012 434.042C536.045 434.124 533.705 434.131 532.3 432.481C531.411 431.437 531.152 430.008 531.262 428.683C531.483 426.038 532.549 425.146 534.459 423.486Z"
     id="path17" />
  <path
     fill="#FEFEFE"
     d="M515.475 379.931C517.589 380.223 519.224 380.386 520.548 382.207C521.496 383.511 521.78 385.364 521.365 386.919C520.826 388.941 519.355 389.818 517.676 390.797C515.959 390.741 514.803 390.646 513.25 389.883C511.438 387.604 511.308 386.359 511.622 383.5C512.664 381.75 513.773 381.012 515.475 379.931Z"
     id="path18" />
  <path
     fill="#FEFEFE"
     d="M690.508 427.431C692.544 427.625 694.622 427.855 695.883 429.706C696.652 430.835 696.855 433.013 696.429 434.314C695.682 436.596 694.413 437.3 692.433 438.431C690.439 438.167 688.919 437.894 687.624 436.222C686.224 434.415 686.395 432.885 686.634 430.75C687.749 429.038 688.726 428.397 690.508 427.431Z"
     id="path19" />
  <path
     fill="#FEFEFE"
     d="M646.49 653.518L649.5 653.497C650.871 653.635 652.059 654.501 652.884 655.57C653.768 656.715 654.07 658.267 653.83 659.681C653.464 661.83 652.037 662.692 650.34 663.776L649.436 663.885C647.745 664.057 645.981 663.833 644.689 662.636C643.429 661.468 642.815 660.076 642.907 658.352C643.032 656.01 644.821 654.882 646.49 653.518Z"
     id="path20" />
  <path
     fill="#FEFEFE"
     d="M580.582 310.415C582.696 310.741 584.953 311.338 586.201 313.25C586.972 314.432 587.009 315.799 586.686 317.138C586.114 319.506 584.514 320.396 582.529 321.572C580.619 321.61 578.661 321.515 577.338 319.909C576.136 318.45 575.945 316.406 576.38 314.636C576.931 312.392 578.746 311.532 580.582 310.415Z"
     id="path21" />
  <path
     fill="#FEFEFE"
     d="M613.113 286.046L615.25 285.775C617.165 285.765 618.888 286.352 620.15 287.827C621.326 289.201 621.678 290.57 621.522 292.365C621.281 295.124 619.801 296.19 617.754 297.864L614.5 298.077C612.921 297.996 611.683 297.139 610.667 295.98C609.4 294.536 609.267 292.907 609.432 291.036C609.645 288.608 611.313 287.449 613.113 286.046Z"
     id="path22" />
  <path
     fill="#FEFEFE"
     d="M671.549 711.013C672.801 710.904 674.25 710.848 675.481 711.16C677.33 711.628 679.114 713.249 679.97 714.932C680.732 716.432 680.765 718.932 680.176 720.491C679.199 723.071 677.548 724.076 675.174 725.283C674.109 725.385 672.997 725.455 671.937 725.25C670.093 724.893 668.538 723.553 667.502 722.041C666.324 720.323 666.154 717.774 666.723 715.795C667.425 713.352 669.477 712.189 671.549 711.013Z"
     id="path23" />
  <path
     fill="#FEFEFE"
     d="M495.017 310.955C496.152 310.863 497.369 310.763 498.5 310.93C500.363 311.206 502.695 312.511 503.759 314.091C504.913 315.805 504.904 319.002 504.332 320.901C503.504 323.652 501.063 325.098 498.657 326.287C497.622 326.388 496.502 326.338 495.481 326.13C493.715 325.769 491.906 324.32 490.928 322.824C489.754 321.03 489.476 318.743 489.954 316.681C490.616 313.823 492.644 312.403 495.017 310.955Z"
     id="path24" />
  <path
     fill="#FEFEFE"
     d="M509.56 451.618C513.389 451.452 517.246 451.482 520.738 453.307C522.635 454.299 524.554 455.799 525.097 457.979C525.451 459.398 525.144 460.806 524.345 462.009C522.35 465.014 518.568 466.181 515.222 466.803C512.288 467.02 509.566 466.92 506.688 466.26C503.474 465.524 500.924 463.639 499.16 460.893C498.863 459.144 498.748 457.824 499.791 456.288C501.973 453.078 506.028 452.26 509.56 451.618Z"
     id="path25" />
  <path
     fill="#FEFEFE"
     d="M489.902 607.979L489.912 594.864L536.065 593.68L536.052 606.408L489.902 607.979Z"
     id="path26" />
  <path
     fill="#FEFEFE"
     d="M362.983 558.798L391.514 569.47L391.113 595.942L390.159 596.081C388.862 596.157 386.925 595.376 385.653 595.002C379.748 593.268 374.5 590.793 370.153 586.337C367.341 583.456 364.565 579.619 363.41 575.744C362.046 571.167 362.958 563.676 362.983 558.798Z"
     id="path27" />
  <path
     fill="#FEFEFE"
     d="M660.219 555.431L660.597 555.512C662.299 558.121 661.037 575.262 660.906 579.18C654.544 587.536 643.028 591.873 633.414 595.264L632.602 594.75L632.439 570.01L660.219 555.431Z"
     id="path28" />
  <path
     fill="#FEFEFE"
     d="M329.94 426.927L332.25 427.527C333.471 428.714 333.738 429.018 333.644 430.75C333.484 433.71 331.888 436.947 331.126 439.832C328.65 449.197 327.57 459.23 328.946 468.879C331.23 484.897 339.417 497.088 350.04 508.864C352.531 511.624 356.314 515.001 357.652 518.463C358.217 519.927 358.082 520.579 357.549 522.011C356.107 523.095 356.04 523.151 354.242 523.172C342.939 514.886 332.143 501.58 326.411 488.857C318.76 471.873 317.768 450.802 324.597 433.39C325.756 430.435 326.919 428.226 329.94 426.927Z"
     id="path29" />
  <path
     fill="#FEFEFE"
     d="M550.948 606.318L550.865 595.534L619.499 573.849L619.542 588.236L550.948 606.318Z"
     id="path30" />
  <path
     fill="#FEFEFE"
     d="M253.866 734.372C255.148 728.154 256.775 722.214 259.984 716.685C265.003 731.362 274.026 743.04 288.159 749.993C293.197 752.47 298.141 753.949 303.695 754.785L305.815 770.592C287.551 768.693 272.98 758.415 260.183 745.952C258.454 744.268 255.111 741.573 254.163 739.401C253.636 738.192 253.882 735.708 253.866 734.372Z"
     id="path31" />
  <path
     fill="#FEFEFE"
     d="M717.788 768.169L719.531 754.491C725.241 753.943 731.114 752.637 736.391 750.331C751.201 743.858 760.196 730.699 765.931 716.237C771.202 727.184 771.597 737.879 769.975 749.768C763.629 751.611 757.455 755.184 751.384 757.838C744.745 760.741 737.805 763.144 730.957 765.513C726.981 766.888 722.723 768.593 718.5 768.86L717.788 768.169Z"
     id="path32" />
  <path
     fill="#FEFEFE"
     d="M404.519 588.788L404.528 573.239L475.323 594.718L475.388 599.233C474.987 601.247 475.046 603.438 474.957 605.489L404.519 588.788Z"
     id="path33" />
  <path
     fill="#FF9AA3"
     d="M536.052 606.408L536.039 628.475L489.998 628.079L489.902 607.979L536.052 606.408Z"
     id="path34" />
  <path
     fill="#FF9AA3"
     d="M253.866 734.372C253.882 735.708 253.636 738.192 254.163 739.401C255.111 741.573 258.454 744.268 260.183 745.952C272.98 758.415 287.551 768.693 305.815 770.592L309.773 791.55L299.028 791.316C285.228 789.539 271.221 780.416 263.079 769.314C255.639 759.17 251.845 746.936 253.866 734.372Z"
     id="path35" />
  <path
     fill="#FF9AA3"
     d="M769.975 749.768C767.482 763.522 761.219 774.228 749.622 782.264C739.587 789.219 726.399 793.06 714.237 790.551L713.403 790.365L716.693 775.177C717.078 773.122 717.058 770.044 717.788 768.169L718.5 768.86C722.723 768.593 726.981 766.888 730.957 765.513C737.805 763.144 744.745 760.741 751.384 757.838C757.455 755.184 763.629 751.611 769.975 749.768Z"
     id="path36" />
  <path
     fill="#FEFEFE"
     d="M525.893 895.389C526.511 890.469 527.43 885.78 529.406 881.205L550.969 883.788C569.944 885.339 588.165 883.989 606.929 881.214C608.789 880.939 611.032 880.155 612.415 881.742C615.834 885.665 617.187 894.645 618.186 899.721L595.779 900.204L539.806 899.999L529.869 899.961C529.203 899.958 527.331 900.171 526.75 899.949C526.424 899.824 526.229 899.483 525.969 899.25L525.893 895.389Z"
     id="path37" />
  <path
     fill="#FEFEFE"
     d="M405.657 898.149C405.194 892.316 407.93 884.901 410.705 879.82L429.75 882.989C451.729 885.757 473.154 884.468 494.903 880.865C496.46 884.669 498.509 889.596 498.369 893.775C498.299 895.852 497.69 898.119 497.309 900.169L436.825 900.213L417.52 900.264C413.825 900.272 409.874 900.575 406.25 899.881L405.657 898.149Z"
     id="path38" />
  <path
     fill="#FF9AA3"
     d="M530.893 650.881C543.2 653.803 555.673 659.311 567.462 663.946L586.628 709.889L576.162 706.829C572.212 705.558 569.909 704.811 566.055 706.636C561.757 708.671 560.497 715.249 558.998 719.38L530.893 650.881Z"
     id="path39" />
  <path
     fill="#FF9AA3"
     d="M490.284 651.96L491 652.037L491.431 652.75L462.162 721.665C458.632 717.58 454.817 710.721 449.899 708.554L449.395 708.34C445.076 708.558 440.824 710.26 436.749 711.6L456.375 663.584L490.284 651.96Z"
     id="path40" />
  <path
     fill="#FF9AA3"
     d="M405.657 898.149L406.25 899.881C409.874 900.575 413.825 900.272 417.52 900.264L436.825 900.213L497.309 900.169C499.548 900.541 500.869 900.611 502.366 902.508C504.468 905.171 504.766 909.072 504.303 912.327C503.943 914.848 502.853 916.94 500.75 918.442C491.424 925.105 423.337 923.336 409.248 920.62C405.954 919.985 402.882 919.153 401.037 916.047C399.297 913.116 399.227 908.827 400.026 905.618C400.714 902.856 402.332 901.467 404.712 900.064L405.25 899.755L405.657 898.149Z"
     id="path41" />
  <path
     fill="#FF9AA3"
     d="M525.893 895.389L525.969 899.25C526.229 899.483 526.424 899.824 526.75 899.949C527.331 900.171 529.203 899.958 529.869 899.961L539.806 899.999L595.779 900.204L618.186 899.721C619.861 900.548 621.813 901.561 623.026 903.005C624.843 905.169 625.693 908.209 625.475 911C625.246 913.947 623.694 916.552 621.394 918.37C612.546 925.364 545.47 922.935 532 920.961C527.433 920.292 523.869 919.065 521.065 915.234C519.774 913.471 520.104 907.88 520.556 905.75C521.011 903.608 522.21 901.604 524.054 900.39L524.75 899.964C525.959 898.965 525.743 896.834 525.893 895.389Z"
     id="path42" />
  <path
     fill="#FF9AA3"
     d="M375.964 899.524C378.665 901.276 380.758 903.222 381.406 906.547C381.943 909.303 382.147 913.077 380.438 915.405C377.674 919.171 373.86 920.194 369.436 920.819C347.289 923.947 323.345 923.545 301.078 922.302C294.768 921.95 283.963 922.408 278.821 918.416C277.04 917.032 275.74 914.737 275.545 912.489C275.264 909.248 275.233 905.323 277.56 902.769C278.879 901.321 280.587 900.558 282.481 900.214C290.941 899.286 300.215 900.034 308.75 900.045L359.303 899.958L369.346 899.981C371.53 899.993 373.885 900.256 375.964 899.524Z"
     id="path43" />
  <path
     fill="#FF9AA3"
     d="M740.679 894.13C741.069 896.001 741.057 897.847 741.088 899.75L741.763 900.053C744.352 901.249 746.492 902.386 747.585 905.19C748.679 907.996 749.039 912.123 747.683 914.881C746.254 917.79 743.574 919.284 740.564 920.148C731.85 922.647 721.035 922.407 711.971 922.61C695.857 922.971 679.561 923.08 663.471 922.011C658.896 921.707 650.912 921.953 647.013 919.525C643.931 917.606 642.479 914.555 641.802 911.107C641.351 908.811 641.724 906.538 643.019 904.56C644.238 902.7 646.461 900.994 648.459 900.052L740.741 900.062L740.679 894.13Z"
     id="path44" />
  <path
     fill="#FF9AA3"
     d="M619.542 588.236L619.636 634.774L619.675 649.622C619.678 652.109 620.027 654.937 619.026 657.25C617.583 658.632 616.252 659.795 614.133 659.701C611.588 659.589 608.671 658.339 606.262 657.535L591.902 652.681L551.052 638.644L551.032 626.917L571.727 627.454C574.351 627.466 577.515 627.82 580.041 627.299C580.986 627.104 581.874 626.521 582.575 625.876C584.202 624.379 584.627 622.888 584.596 620.709C584.574 619.144 584.09 617.669 582.905 616.587C582.059 615.814 581.076 615.196 579.919 615.034C576.82 614.6 573.198 614.973 570.053 614.986L551.01 615.108L550.948 606.318L619.542 588.236Z"
     id="path45" />
  <path
     fill="#FF9AA3"
     d="M404.519 588.788L474.957 605.489C475.046 603.438 474.987 601.247 475.388 599.233L475.455 601.031C475.452 602.176 475.141 614.871 475.083 614.923C474.959 615.035 470.173 614.988 469.669 614.994L450.475 615.245C448.101 615.267 444.5 614.857 442.303 615.518C441.218 615.844 440.291 616.409 439.529 617.25C438.437 618.455 437.926 619.881 437.995 621.5C438.061 623.071 438.714 624.571 439.892 625.622C440.688 626.332 441.732 626.89 442.779 627.102C445.879 627.731 449.89 627.226 453.068 627.175L474.819 626.803L474.561 638.839L443.3 649.009L423.682 655.518C420.154 656.693 415.966 658.519 412.229 658.665C410.288 658.741 408.436 658.378 407.088 656.875C405.884 655.533 405.129 653.564 404.884 651.795C404.003 645.435 404.643 638.104 404.63 631.656L404.519 588.788Z"
     id="path46" />
  <path
     fill="#FEFEFE"
     d="M648.459 900.052C648.346 888.164 652.044 876.814 659.715 867.615C667.533 858.24 677.453 852.554 689.733 851.496C702.129 850.427 714.676 854.662 724.17 862.653C733.21 870.262 739.707 882.321 740.679 894.13L740.741 900.062L648.459 900.052Z"
     id="path47" />
  <path
     fill="#FEFEFE"
     d="M282.481 900.214L282.159 897C282.06 884.846 287.585 873.533 295.921 864.923C305.135 855.404 317.494 850.055 330.75 850.087C342.597 850.116 354.084 855.654 362.252 864.074C372.061 874.185 376.095 885.522 375.964 899.524C373.885 900.256 371.53 899.993 369.346 899.981L359.303 899.958L308.75 900.045C300.215 900.034 290.941 899.286 282.481 900.214Z"
     id="path48" />
  <path
     fill="#FEFEFE"
     d="M354.426 591.219C357.731 595.788 361.746 599.723 366.081 603.307C359.536 616.24 352.879 628.977 347.694 642.543C328.617 692.462 326.053 747.349 343.674 798.094C345.537 803.458 347.718 808.647 350.047 813.822L356.213 826.824C357.13 828.664 358.979 831.319 358.902 833.302L355.123 832.755L341.364 831.329C333.042 814.719 326.353 798.408 322.028 780.282C306.619 715.7 319.784 647.426 354.426 591.219Z"
     id="path49" />
  <path
     fill="#FEFEFE"
     d="M669.527 591.535C672.46 595.182 674.78 599.654 677.062 603.734L685.843 619.867C710.75 669.57 714.094 730.82 701.792 784.5C698.061 800.779 692.433 816.099 687.211 831.886L673.838 833.868C673.219 834.022 672.87 833.933 672.25 833.832C671.704 832.142 669.982 827.87 670.126 826.301C670.26 824.851 671.72 822.22 672.288 820.815L677.199 808.041C680.341 799.313 683.14 790.182 685.078 781.104C694.802 735.542 693.837 684.494 676.138 640.885C670.644 627.351 663.716 615.144 655.817 602.901C661.633 599.492 665.21 596.708 669.527 591.535Z"
     id="path50" />
  <path
     fill="#FF9AA3"
     d="M666.182 147.561C668.353 147.265 670.789 147.099 672.723 148.295C675.418 149.963 676.769 153.8 677.44 156.729C678.689 162.18 678.39 168.206 678.083 173.775C676.422 203.904 664.548 234.173 649.775 260.181L638.98 277.325C637.073 280.064 634.899 282.538 633.146 285.391L632.843 285.893L622.923 278.571L603.528 267.568C606.215 251.126 612.027 234.078 618.18 218.585C625.41 200.383 634.053 182.402 645.578 166.5C651.025 158.985 657.515 151.305 666.182 147.561Z"
     id="path51" />
  <path
     fill="#FF9AA3"
     d="M354.105 146.481C358.222 146.373 362.102 147.906 365.478 150.2C370.598 153.679 374.775 159.317 378.308 164.312C391.096 182.389 401.214 204.221 408.17 225.157C413.148 240.14 416.642 255.316 419.734 270.78C414.38 273.144 409.52 275.785 404.594 278.965L393.35 285.658C379.851 270.338 368.781 253.229 360.224 234.697C351.103 214.943 343.915 191.244 344.319 169.365C344.418 164.048 344.727 158.631 346.73 153.63C348.24 149.858 350.538 148.118 354.105 146.481Z"
     id="path52" />
  <defs
     id="defs53">
    <linearGradient
       id="gradient_0"
       gradientUnits="userSpaceOnUse"
       x1="687.94818"
       y1="285.35812"
       x2="611.81006"
       y2="130.21429">
      <stop
         offset="0"
         stop-color="#FFC5C6"
         id="stop52" />
      <stop
         offset="1"
         stop-color="white"
         id="stop53" />
    </linearGradient>
  </defs>
  <path
     fill="url(#gradient_0)"
     d="M686.653 217.389C692.583 195.939 700.488 160.243 688.816 139.671C685.921 134.567 681.656 131.616 676.036 130.199C669.213 128.479 661.99 131.307 656.194 134.841C647.743 139.993 640.971 147.72 634.947 155.459C616.224 179.514 603.417 208.219 594.511 237.25C593.351 241.029 589.133 259.067 588.127 260.149L575.269 256.24C577.969 238.85 582.501 221.255 587.847 204.517C598.058 172.549 612.513 138.272 640.325 117.788C652.081 109.13 665.903 104.132 680.601 106.393C690.997 107.992 698.994 113.065 705.124 121.528C716.831 137.69 716.646 159.778 713.558 178.598C710.955 194.465 705.281 210.212 699.316 225.097C692.718 241.849 683.769 257.942 674.155 273.128C667.467 283.692 660.809 293.865 652.665 303.391C652.065 303.399 646.42 297.619 645.189 296.608C650.309 290.95 654.195 284.689 658.218 278.243C670.301 258.889 678.815 238.748 686.653 217.389Z"
     id="path53" />
  <path
     fill="#FEFEFE"
     d="M346.055 104.673C359.185 103.428 372.027 109.027 382.467 116.577C392.981 124.182 401.443 134.464 408.695 145.112C431.673 178.846 442.946 217.443 449.384 257.332C444.936 259.706 439.39 261.28 434.682 263.382L432.662 252.201C431.089 244.657 428.826 237.277 426.578 229.913C418.774 204.353 406.78 177.983 390.454 156.649C384.777 149.231 378.451 141.984 370.528 136.889C364.018 132.702 356.797 130.353 349.046 132.201C342.276 133.815 338.037 137.822 334.436 143.484C331.556 148.844 329.935 154.793 329.284 160.827C326.902 182.92 331.845 205.642 339.439 226.297C346.362 245.129 355.001 262.154 366.426 278.666C370.643 284.762 375.502 290.456 380.139 296.237L372.434 303.432C365.075 295.919 359.055 287.158 353.143 278.494C332.774 248.642 316.047 215.074 310.489 179.01C307.435 159.192 307.713 136.212 320.25 119.447C326.911 110.54 335.101 106.213 346.055 104.673Z"
     id="path54" />
  <path
     fill="#FEFEFE"
     d="M509.952 650.037C511.324 650.134 512.94 649.866 513.851 651.107C514.769 652.357 515.398 654.558 515.998 656L519.952 665.5L543.006 721.903C545.904 728.927 548.198 737.047 551.912 743.645C552.733 745.103 553.784 745.899 555.293 746.573C557.285 747.463 559.464 747.889 561.536 747.012C562.963 746.409 564.393 745.291 565.275 744.012C566.921 741.626 567.739 737.931 568.701 735.169L574.419 720.213L586.853 723.202C590.596 724.205 596.429 726.732 600.267 725.343C602.14 724.665 604.012 722.502 604.803 720.727C605.457 719.259 605.676 717.669 605.392 716.086C604.618 711.771 601.909 706.811 600.205 702.691L585.854 668.43C594.465 671.487 604.364 675.697 613.434 676.616C616.701 676.948 620.383 676.85 622.974 674.591C623.558 674.081 623.779 673.871 624.5 673.484C625.738 674.968 626.311 677.602 626.915 679.446C631.234 692.636 632.444 707.977 631.29 721.797C628.755 752.151 613.314 779.578 590.136 798.952C569.598 816.118 544.734 825.897 518 827.297C510.573 827.686 503.274 827.098 495.881 826.421L492.75 826.012C483.57 824.678 474.384 822.732 465.672 819.49C445.101 811.833 427.279 797.495 414.295 779.925C388.338 744.796 384.611 696.732 390.862 654.8L391.345 656.759C393.118 663.767 395.979 671.3 402.75 674.926C409.746 678.673 417.074 675.751 424 673.575L437.804 668.982L424.432 701.739C422.319 706.668 419.458 711.754 417.887 716.85C417.377 718.503 417.202 720.228 417.644 721.922C419.596 729.401 427.211 726.554 432.424 725.136L441.116 722.798C441.48 722.7 443.548 722.023 443.773 722.083C443.893 722.115 445.14 723.828 445.295 724.03L452.64 734.396C454.917 737.822 456.973 742.593 460.793 744.481C462.452 745.301 464.769 745.278 466.485 744.626C467.93 744.077 469.086 742.92 469.853 741.597C474.081 734.307 476.911 724.983 480.304 717.221L498.334 676.497L509.952 650.037Z"
     id="path55" />
  <path
     fill="#FF9AA3"
     d="M388.948 77.6542C393.146 75.7033 398.249 75.0306 402.77 74.0164L430.647 68.3214C489.713 58.3966 548.713 58.7345 607.5 70.4875L634.132 76.9895C595.53 112.694 573.528 161.7 562.692 212.547L559.117 232.112C558.682 235.071 558.763 241.793 557.315 244.136C543.958 242.396 530.628 240.905 517.143 240.606C500.618 240.238 483.883 241.537 467.491 243.602C459.915 182.605 435.666 119.464 388.948 77.6542Z"
     id="path56" />
  <path
     fill="#FEFEFE"
     d="M619.444 336.589L625 336.503C629.099 336.946 633.068 340.114 635.56 343.271C638.438 346.918 640.506 351.144 642.464 355.33C649.35 370.059 651.381 384.859 649.634 400.902L654.123 405.746C663.915 418.153 667.645 438.044 665.701 453.526L665.574 454.5C664.922 459.756 663.451 464.83 661.023 469.553C650.497 490.035 627.893 496.027 606.375 492.017C603.741 491.526 601.115 490.986 598.556 490.186C594.911 489.046 591.025 486.895 587.25 488.093C583.657 490.992 584.526 494.824 583.97 498.981C583.646 501.399 582.959 503.811 582.046 506.071C576.345 520.181 564.429 529.814 550.609 535.533C525.936 545.743 498.013 545.985 473.361 535.567C458.95 529.476 445.163 518.235 441.058 502.5C440.167 499.084 440.73 493.997 439.26 490.98C438.536 489.493 436.503 487.96 434.831 487.872C431.858 487.714 427.953 489.173 425.017 489.865C411.878 492.964 400.128 493.737 387.352 488.615C376.643 484.321 368.195 475.744 363.657 465.161C355.925 447.129 358.456 426.453 367.938 409.546C369.141 407.401 370.496 405.121 372.097 403.25C372.852 402.367 375.293 400.454 375.668 399.558C375.737 399.393 375.576 397.785 375.561 397.484L375.258 390.178C375.138 386.022 375.304 381.792 375.719 377.656C376.446 370.421 378.48 363.109 381.134 356.362C383.696 350.218 387.515 344.098 393.006 340.166C396.891 337.385 401.776 336.205 406.5 337.092C414.109 338.519 420.438 343.294 425.854 348.571C437.105 359.532 446.345 373.601 452.313 388.149C457.101 399.823 460.427 412.481 462.136 424.993C462.866 430.342 463.438 435.772 463.549 441.171L463.458 453.75C463.334 456.149 461.813 461.597 462.474 463.75C462.595 464.141 462.95 464.417 463.187 464.75C466.006 464.522 469.438 462.322 472.117 461.247C475.306 459.968 478.621 459.002 481.908 458.007L480.607 462.5C479.781 467.378 481.119 472.407 483.938 476.422C488.837 483.396 496.543 485.721 504.503 487.182L503.844 496.078C502.93 501.482 500.73 506.116 496.069 509.25C494.202 510.505 491.05 511.799 488.804 511.242C487.053 510.808 485.23 510.148 483.406 510.283C481.144 510.449 480.175 510.953 478.685 512.654C478.451 514.806 478.25 516.867 479.598 518.716C481.544 521.387 485.232 522.409 488.349 522.679C498.273 523.537 504.987 518.1 512.182 512.24C515.194 514.876 518.425 517.412 521.913 519.389C527.074 522.315 534.465 523.901 540.297 522.022C542.612 521.276 545.142 519.501 546.2 517.244C546.868 515.82 546.833 513.917 546.229 512.484C543.832 506.793 538.063 511.711 534.594 511.687C533.138 511.677 530.521 510.538 529.25 509.91C525.604 508.107 522.414 504.173 521.175 500.346L520.913 499.5C519.659 495.62 519.874 491.518 519.848 487.478L527.75 485.442C534.18 483.241 539.913 478.893 542.879 472.679C545.036 468.158 545.081 463.756 543.419 459.097L543.142 458.335C546.184 459.251 549.296 460.129 552.251 461.301C554.748 462.291 557.979 464.873 560.5 465.028C562.227 463.783 561.41 461.348 561.174 459.44C558.451 437.41 561.501 415.727 568.898 394.868C571.732 386.876 574.906 379.145 579.366 371.91C588.023 357.867 601.735 340.635 618.691 336.758L619.444 336.589Z"
     id="path57" />
  <path
     d="M411.265 401.614C414.046 401.367 416.967 401.443 419.664 402.183L420.5 402.427C423.354 403.241 426.233 404.548 428.669 406.262C436.547 411.807 440.926 421.229 442.525 430.494C444.464 441.733 442.72 453.705 435.945 463.144C430.37 470.911 423.468 475.278 414.122 476.858C407.637 477.283 401.589 475.837 396.15 472.205C388.35 466.997 383.85 458.298 382.208 449.232C380.192 438.105 382.506 425.113 389.063 415.778C394.718 407.725 401.581 403.281 411.265 401.614Z"
     id="path58" />
  <path
     fill="#FEFEFE"
     d="M400.093 416.505C401.229 416.421 402.446 416.289 403.578 416.443C405.014 416.638 406.218 417.532 407.017 418.712C408.633 421.097 408.522 425.231 408.007 428C407.063 433.077 404.397 436.498 400.335 439.463L397 439.555C395.578 439.37 394.479 437.973 393.75 436.826C391.988 434.055 391.916 429.752 392.689 426.667C393.855 422.017 396.101 419.019 400.093 416.505Z"
     id="path59" />
  <path
     d="M604.55 401.567C611.343 400.794 617.128 401.985 622.952 405.588C632.727 411.635 639.142 422.13 641.697 433.172C644.029 443.252 642.845 455.428 637.209 464.29C632.776 471.259 626.701 475.636 618.621 477.402C611.418 478.191 605.223 477.225 598.974 473.437C589.7 467.815 583.945 457.787 581.415 447.429C578.784 436.655 579.781 425.022 585.636 415.478C590.181 408.07 596.051 403.621 604.55 401.567Z"
     id="path60" />
  <path
     fill="#FEFEFE"
     d="M599.159 416.505L602.25 416.506C603.875 416.874 605.324 418.655 606.046 420.097C607.62 423.239 607.375 428.176 606.203 431.407C604.859 435.111 602.566 438.069 598.983 439.76L595.721 439.76C594.068 439.48 592.94 438.308 592.147 436.909C590.41 433.844 590.672 428.857 591.582 425.568C592.739 421.382 595.497 418.623 599.159 416.505Z"
     id="path61" />
  <path
     fill="#FF9AA3"
     d="M282.112 122.613C281.63 132.565 281.55 142.221 282.488 152.165C283.78 165.866 286.911 179.645 290.63 192.875C299.044 222.805 312.216 251.872 329.232 277.948C336.181 288.598 343.825 299.201 351.983 308.953C352.583 309.669 358.57 316.374 358.567 316.461C358.546 317.113 354.094 322.504 353.402 323.497C350.089 328.249 347.448 333.662 345.198 338.989C340.598 349.879 338.145 361.154 336.6 372.827C336.07 376.83 336.496 383.155 335.034 386.759C334.051 389.183 331.704 391.715 330.138 393.82L322.208 405.062C305.212 430.48 294.578 458.139 303.63 488.617C304.646 492.039 305.871 495.322 307.347 498.57C312.184 509.214 318.792 518.963 326.607 527.635C333.692 535.499 341.369 542.706 349.891 548.993L349.982 572.117C342.506 575.441 334.899 578.598 327.807 582.703C302.14 597.559 281.794 621.106 271.134 648.825C267.846 657.376 265.478 666.266 263.835 675.271L262.43 684.151C262.351 684.858 262.388 687.013 262.13 687.475C261.885 687.915 260.15 688.875 259.655 689.231C255.756 692.032 252.307 695.055 249.088 698.629C246.545 701.976 243.833 705.325 241.799 709.012C235.315 720.763 232.654 735.899 234.396 749.188C236.92 768.438 247.208 784.969 262.656 796.576C274.092 805.169 287.749 810.203 302.016 811.165C304.36 811.323 306.688 811.397 309.036 811.334C309.653 811.318 311.736 811.039 312.208 811.203C312.465 811.293 313.101 813.788 313.393 814.609C315.376 820.178 317.883 825.594 320.218 831.027C309.28 832.789 299.263 836.778 290.377 843.505C287.246 845.875 284.392 848.464 281.705 851.326C280.909 852.174 278.214 855.95 277.408 856.161C275.175 856.743 270.567 856.061 268.138 856.048L239.026 856.071L91.6008 855.995L91.7187 855.593L91.9267 854.928C93.9931 848.174 97.7823 841.768 101.339 835.697L116.655 811.62C111.6 805.402 107.528 798.438 103.355 791.616C80.9374 754.966 65.0297 714.375 53.8601 672.992C27.7678 576.319 32.709 469.541 67.1608 375.589L79.4573 346C86.5045 329.927 94.0332 313.93 102.827 298.723C133.219 246.168 174.225 198.243 222.25 161.013L248.997 142.138L271.549 127.825C274.901 125.902 278.365 123.615 282.112 122.613Z"
     id="path62" />
  <path
     fill="#FEFEFE"
     d="M188.113 575.156L189.5 575.51C192.191 576.509 194.528 585.968 195.536 588.75C195.752 589.345 196.314 591.213 196.71 591.54C200.78 594.901 211.089 594.283 213.595 599.25L213.422 599.909C212.448 603.637 200.155 604.79 197.389 607.442C196.565 608.232 195.575 611.51 195.164 612.67C193.696 616.811 192.392 620.971 190.352 624.876C189.777 624.626 188.711 624.332 188.25 623.961C185.313 621.602 183.503 613.312 182.333 609.786C182.182 609.331 181.776 607.532 181.487 607.228C180.961 606.674 179.115 606.144 178.378 605.857C175.002 604.544 167.124 602.473 165.108 599.5C167.278 595.814 174.097 594.463 177.907 592.786C178.936 592.333 180.717 591.723 181.364 590.828C182.189 589.688 182.792 587.276 183.317 585.879C184.7 582.195 185.988 578.491 188.113 575.156Z"
     id="path63" />
  <path
     fill="#FEFEFE"
     d="M244.517 283.748C245.876 284.862 246.376 286.511 246.992 288.104L251.269 299.916C251.645 300.846 252.218 302.794 252.825 303.534C253.247 304.049 256.774 304.919 257.618 305.198C262.956 306.965 267.71 308.482 272.353 311.776C270.739 312.805 269.152 313.737 267.39 314.491C265.245 315.409 252.69 319.667 252.143 320.444C251.562 321.271 251.195 323.586 250.875 324.676C249.466 329.476 247.914 336.969 244.419 340.628L242.859 339.639C239.704 334.264 238.074 326.299 237.064 320.201C231.232 318.167 223.875 315.909 218.617 312.75C217.578 312.126 217.822 312.279 217.557 311.25C221.49 307.974 227.503 306.659 232.25 304.983C233.234 304.636 236.118 303.844 236.819 303.201C237.46 302.614 238.152 299.302 238.481 298.302C240.098 293.385 241.451 287.976 244.517 283.748Z"
     id="path64" />
  <path
     fill="#FEFEFE"
     d="M192.901 362.264C193.629 362.385 194.611 362.624 195.091 363.25C196.215 364.715 196.921 367.315 197.557 369.086L202.412 383.81C202.728 384.766 203.221 387.205 203.782 387.945C204.174 388.461 206.409 389.122 207.079 389.376L221.75 394.488C223.972 395.256 227.109 395.894 228.75 397.627C228.94 398.829 229.051 399.137 228.608 400.25C226.088 401.88 222.957 402.694 220.123 403.639L204.028 409.153L195.14 434.605C194.241 434.594 192.899 434.792 192.25 433.958C191.267 432.697 190.668 429.905 190.162 428.354L185.284 413.274C184.963 412.296 184.519 409.995 183.961 409.225C183.706 408.872 181.823 408.194 181.34 407.977C177.256 406.14 172.943 404.658 168.699 403.238C165.495 402.166 162.079 401.252 159.317 399.25C159.512 397.985 160.07 397.347 161.146 396.661C162.96 395.505 165.951 394.948 168.035 394.251L180.009 389.845C180.937 389.478 183.728 388.442 184.236 387.724C184.844 386.865 185.216 384.344 185.559 383.173L188.838 372.612C189.865 369.144 190.705 365.193 192.901 362.264Z"
     id="path65" />
  <path
     fill="#FEFEFE"
     d="M240.121 479.63C240.858 479.896 241.551 480.121 242.078 480.75C243.777 482.778 244.763 487.153 245.555 489.694C247.679 496.502 249.491 503.797 252.692 510.195C253.602 512.013 266.879 515.394 269.711 516.325C272.653 517.294 279.082 518.679 280.503 521.5C277.705 525.728 260.185 529.194 254.634 531.644C253.574 532.112 252.663 532.634 252.058 533.674C250.249 536.785 249.354 541.183 248.287 544.627L242.06 562.946L240.75 562.978C240.085 562.632 239.676 562.573 239.297 561.888C238.168 559.841 237.599 557.227 236.879 555L232.605 541.213C232.074 539.417 231.087 534.034 230.005 532.757C229.726 532.428 227.266 531.724 226.657 531.503L213.185 526.788C209.52 525.546 205.09 524.661 202.373 521.75L202.469 520.75C204.662 518.996 207.604 518.129 210.228 517.19L224.835 512.466C225.995 512.11 227.79 511.676 228.75 510.93C231.445 508.835 232.137 503.156 233.101 499.985C235.109 493.39 236.92 485.714 240.121 479.63Z"
     id="path66" />
  <path
     fill="#FF9AA3"
     d="M740.46 120.355C748.179 123.978 755.266 128.349 762.519 132.81C776.916 141.663 790.552 151.288 803.763 161.826C850.864 199.396 891.567 245.869 921.478 298.264C937.032 325.509 949.855 354.523 960.529 384C968.743 406.686 974.346 430.626 978.743 454.312C989.58 512.69 990.625 573.172 980.48 631.75C972.9 675.52 958.915 718.379 940.061 758.561L918.034 800.247C915.011 805.355 912.14 810.51 908.731 815.38L932.042 856.052L743.209 855.976C731.538 842.993 718.281 835.298 701.117 832.267L705.931 818.276C706.175 817.531 707.508 812.871 707.723 812.729C708.089 812.487 713.613 812.885 714.48 812.895C719.121 812.948 723.991 812.723 728.581 812.005C738.184 810.504 747.968 806.46 756.083 801.171C773.568 789.777 784.284 772.741 788.629 752.5C792.966 732.297 786.504 710.225 773.7 694.348C771.524 691.65 769.199 689.119 766.726 686.692C765.677 685.662 763.387 683.974 762.699 682.806C762.067 681.732 761.909 678.446 761.661 677.077C759.898 666.677 756.286 656.087 752.006 646.473C742.758 625.697 729.067 607.788 710.312 594.703C699.037 586.838 686.518 581.038 673.747 576.084L673.602 555.208C673.582 553.375 673.077 550.001 673.526 548.312C673.827 547.182 679.77 543.472 681.137 542.465C686.787 538.303 691.922 533.524 696.776 528.467C714.585 509.914 724.131 487.93 723.526 462.129C722.912 435.914 711.245 411.353 692.363 393.401C691.277 388.489 691.215 383.163 690.53 378.156C688.905 366.272 686.112 354.431 681.636 343.287C679.455 337.86 676.948 332.581 673.772 327.659L668.829 320.674C668.683 320.477 667.376 318.892 667.359 318.702C667.289 317.913 670.278 314.624 670.883 313.87C680.56 301.8 689.555 289.278 697.519 276.009C721.109 236.705 736.995 192.363 740.263 146.493C740.88 137.833 740.615 129.03 740.46 120.355Z"
     id="path67" />
  <path
     fill="#FEFEFE"
     d="M837.652 578.394L849.165 607.372L877.192 618.476C875.983 619.763 871.738 620.951 869.977 621.694L849.336 630.406C847.547 633.547 846.428 637.331 845.117 640.71L838.029 659.035C836.622 658.714 835.814 656.14 835.25 654.866L828.014 636.318C827.49 634.937 826.371 630.997 825.431 630.036C824.534 629.119 820.09 627.983 818.541 627.36C811.654 624.589 804.539 621.79 797.884 618.517L821.5 608.981C822.77 608.47 825.484 607.58 826.448 606.716C827.544 605.733 828.585 601.705 829.179 600.135L837.652 578.394Z"
     id="path68" />
  <path
     fill="#FEFEFE"
     d="M797.167 441.873C799.034 444.15 800.227 448.088 801.423 450.836L811.718 474.896C812.46 476.521 813.511 479.744 814.862 480.862C816.446 482.174 820.101 483.276 822.115 484.236C830.798 488.378 839.798 492.186 847.789 497.577C839.474 502.527 829.882 506.249 821.07 510.305C819.383 511.082 814.091 512.969 813.076 514.388C811.541 516.534 810.474 520.368 809.459 522.845L802.717 538.921C801.051 543.082 799.619 547.411 797.444 551.338C792.76 542.068 789.233 532.254 785.231 522.677C784.432 520.763 782.647 515.235 781.138 514.072C778.415 511.972 773.588 510.433 770.406 508.964C762.323 505.231 753.982 501.507 746.256 497.105C753.973 491.741 763.427 488.439 771.708 483.979C774.182 482.647 778.375 481.257 780.365 479.421C781.982 477.931 783.462 472.784 784.374 470.661C788.478 461.114 792.081 450.929 797.167 441.873Z"
     id="path69" />
  <path
     fill="#FEFEFE"
     d="M784.929 239.647L797.789 268.845C798.74 270.856 800.2 274.98 801.826 276.402C802.918 277.357 804.991 278.069 806.307 278.69L815.391 282.885L837.294 293.72C828.704 298.262 819.518 301.791 810.742 305.978C807.986 307.293 804.111 308.674 801.921 310.764C799.216 313.347 797.32 319.977 795.84 323.382C792.304 331.517 788.864 339.877 784.814 347.756C784.459 347.707 784.014 347.851 783.75 347.609C782.745 346.685 781.331 342.419 780.786 341.099L772.319 320.443C771.197 317.688 770.05 313.703 768.411 311.284C766.491 308.449 737.769 296.64 732.673 294.223C739.371 290.107 746.838 287.379 753.863 283.86L764.161 278.611C765.161 278.087 766.981 277.407 767.796 276.686C769.198 275.446 770.635 271.2 771.459 269.443C776.086 259.576 779.932 249.327 784.929 239.647Z"
     id="path70" />
</svg>
