<?xml version="1.0" encoding="UTF-8" standalone="no"?>
<svg
   width="1024"
   height="1024"
   version="1.1"
   id="svg45"
   sodipodi:docname="cat.svg"
   inkscape:version="1.3.2 (091e20ef0f, 2023-11-25)"
   xmlns:inkscape="http://www.inkscape.org/namespaces/inkscape"
   xmlns:sodipodi="http://sodipodi.sourceforge.net/DTD/sodipodi-0.dtd"
   xmlns="http://www.w3.org/2000/svg"
   xmlns:svg="http://www.w3.org/2000/svg">
  <defs
     id="defs45" />
  <sodipodi:namedview
     id="namedview45"
     pagecolor="#ffffff"
     bordercolor="#000000"
     borderopacity="0.25"
     inkscape:showpageshadow="2"
     inkscape:pageopacity="0.0"
     inkscape:pagecheckerboard="0"
     inkscape:deskcolor="#d1d1d1"
     inkscape:zoom="0.47265625"
     inkscape:cx="512"
     inkscape:cy="510.94215"
     inkscape:window-width="1440"
     inkscape:window-height="831"
     inkscape:window-x="0"
     inkscape:window-y="0"
     inkscape:window-maximized="1"
     inkscape:current-layer="svg45" />
  <path
     d="M243.937 889.432L243.654 889.119C240.888 886.161 237.032 883.866 233.732 881.51L216.923 869.358C201.896 858.186 187.183 845.674 173.871 832.512C149.029 807.95 126.444 780.794 107.75 751.234C98.3242 736.33 90.1769 720.87 82.6392 704.944C52.9405 642.194 36.19 572.371 37.6797 502.71C38.4509 466.647 42.5917 431 51.25 395.933C63.0072 348.315 83.7212 301.249 110.12 259.93L124.333 239.838C140.618 217.167 158.797 195.492 178.987 176.184C192.888 162.89 207.158 150.231 222.478 138.591C233.248 130.408 244.555 122.421 256.044 115.269L270.356 107.093C292.208 94.2109 314.568 82.7163 338.131 73.2563C395.792 50.1068 458.037 38.9472 520.119 40.3492C636.188 42.9704 751.419 89.9122 836.498 168.834L855.915 187.282C900.243 233.719 936.333 289.747 958.8 350C978.505 402.844 987.34 459.18 985.963 515.484C983.909 599.446 959.214 682.248 913.75 753.065C893.514 784.585 868.878 813.558 841.731 839.309C825.298 854.897 807.795 869.513 789.098 882.319L773.734 891.964C778.636 906.694 777.021 919.135 772.131 933.575L816.856 933.502L816.779 983.229L195.779 983.04L195.975 934.149L243.986 933.669C240.302 924.397 238.01 915.875 239.305 905.721C240.059 899.804 241.569 894.928 243.937 889.432Z"
     id="path2" />
  <path
     fill="#FEFEFE"
     d="M294.01 348.469L297.027 348.44C298.662 348.566 299.855 349.586 300.795 350.881C301.81 352.278 302.023 354.004 301.667 355.667C301.207 357.813 299.749 358.631 298.033 359.762L295.825 359.963C294.134 360.033 292.754 359.6 291.573 358.353C290.414 357.13 289.92 355.244 290.072 353.59C290.288 351.238 292.344 349.88 294.01 348.469Z"
     id="path3" />
  <path
     fill="#FEFEFE"
     d="M278.469 803.112C279.511 803.221 280.593 803.334 281.59 803.67C283.314 804.251 285.349 805.972 286 807.698C286.553 809.163 286.672 811.657 285.943 813.077C284.78 815.337 282.59 816.347 280.323 817.156C278.665 817.114 276.872 817.197 275.43 816.258C273.792 815.192 272.472 813.229 272.101 811.313C271.728 809.387 272.21 807.87 273.274 806.275C274.677 804.174 276.076 803.662 278.469 803.112Z"
     id="path4" />
  <path
     fill="#FEFEFE"
     d="M639.047 758.534C640.416 758.466 642.042 758.3 643.394 758.562C644.979 758.87 646.68 760.228 647.532 761.555C648.679 763.341 648.907 765.627 648.324 767.692C647.629 770.152 645.769 771.394 643.647 772.555L639.75 772.476C637.787 772.146 636.316 770.897 635.216 769.285C634.048 767.572 633.635 765.355 634.18 763.341C634.822 760.968 637.081 759.711 639.047 758.534Z"
     id="path5" />
  <path
     fill="#FEFEFE"
     d="M660.972 665.024C663.547 665.28 665.942 665.653 667.695 667.765C669.577 670.033 669.635 671.914 669.429 674.75C667.727 677.93 666.139 678.89 662.859 680.341C661.679 680.295 660.35 680.287 659.235 679.861C657.545 679.214 655.558 677.118 654.894 675.436C654.223 673.739 654.367 671.739 655.096 670.091C656.306 667.356 658.239 665.999 660.972 665.024Z"
     id="path6" />
  <path
     fill="#FEFEFE"
     d="M733.6 802.993C734.967 803.062 736.524 803.161 737.813 803.647C739.473 804.273 741.361 806.023 742.063 807.659C742.792 809.358 742.837 812.088 741.992 813.751C740.691 816.31 738.482 817.24 735.873 818.018C734.477 817.973 733.011 817.903 731.66 817.52C729.903 817.022 728.515 815.868 727.734 814.211C726.833 812.3 726.779 810.232 727.54 808.25C728.63 805.412 730.997 804.183 733.6 802.993Z"
     id="path7" />
  <path
     fill="#FEFEFE"
     d="M352.58 665.016C353.664 664.994 354.748 665.108 355.815 665.307C358.065 665.726 359.958 667.17 361.161 669.114C362.338 671.018 362.794 673.346 362.102 675.5C361.183 678.358 358.664 679.894 356.105 681.099C354.746 681.112 353.19 681.225 351.868 680.887C349.882 680.379 347.917 678.511 346.963 676.75C345.875 674.739 345.79 672.58 346.573 670.438C347.574 667.697 350.131 666.27 352.58 665.016Z"
     id="path8" />
  <path
     fill="#FEFEFE"
     d="M613.099 314.992C614.661 314.96 616.505 314.786 617.953 315.465C621.032 316.909 623.242 319.974 624.439 323.062C625.908 326.852 627.058 332.49 625.266 336.32C623.476 340.146 619.725 342.111 615.91 343.354C614.1 343.474 612.117 343.425 610.383 342.843C607.717 341.948 605.279 339.521 604.204 336.944C602.428 332.683 603.191 327.526 604.873 323.364C606.632 319.009 608.815 316.778 613.099 314.992Z"
     id="path9" />
  <path
     fill="#FEFEFE"
     d="M471.918 505.742L472.087 506.259C475.329 515.896 481.499 521.107 490.363 525.45C487.867 526.881 485.067 528.266 482.819 530.062C477.678 534.169 474.621 540.24 472.074 546.144C467.405 536.979 462.897 529.872 452.891 525.975C463.249 520.877 467.153 516.076 471.918 505.742Z"
     id="path10" />
  <path
     fill="#FEFEFE"
     d="M395.732 314.508C397.822 314.548 399.824 314.625 401.75 315.529C405.496 317.288 407.685 321.087 409.104 324.821C410.624 328.818 410.69 333.17 408.824 337.083C407.22 340.448 404.598 341.886 401.235 343.098C398.362 343.451 395.358 343.439 392.645 342.324C389.563 341.057 387.754 338.677 386.601 335.646C385.014 331.472 385.996 325.156 387.845 321.216C389.604 317.47 391.966 315.893 395.732 314.508Z"
     id="path11" />
  <path
     fill="#FEFEFE"
     d="M536.721 193.13C538.935 196.875 541.261 200.806 544.469 203.787C547.804 206.887 552.279 209.119 556.196 211.426C553.206 213.628 549.758 215.135 546.662 217.182C541.651 220.494 539.181 225.465 536.577 230.689C534.66 227.158 532.59 222.837 529.678 220.006C526.372 216.791 520.059 214.093 515.98 211.682C519.884 209.628 524.32 207.693 527.72 204.872C531.56 201.687 534.156 197.336 536.721 193.13Z"
     id="path12" />
  <path
     fill="#FEFEFE"
     d="M416.901 753.139C419.602 754.138 422.194 761.988 424.453 764.695C427.953 768.888 432.891 771.476 437.525 774.208C434.84 776.327 431.777 777.991 429.053 780.102C422.982 784.806 420.857 790.169 417.599 796.772C415.793 795.197 414.778 791.859 413.561 789.701C409.642 782.749 403.286 778.377 396.698 774.231C406.224 769.078 411.984 762.677 416.901 753.139Z"
     id="path13" />
  <path
     fill="#FEFEFE"
     d="M407.282 437.194C408.259 437.036 409.476 437.032 410.449 437.188C411.894 437.42 413.339 438.718 413.97 440C414.607 441.291 414.582 443.182 414.037 444.5C413.29 446.307 411.9 447.103 410.059 447.447L397.954 449.517C375.312 454.411 353.277 461.526 331.618 469.668L330.857 469.508C327.995 467.429 325.49 462.503 323.581 459.512C329.963 456.501 337.167 454.713 343.906 452.605C364.448 446.18 385.836 439.643 407.282 437.194Z"
     id="path14" />
  <path
     fill="#FEFEFE"
     d="M600.17 434.997L603.023 434.951C607.815 435.139 613.178 436.914 617.912 437.936C639.539 442.604 661.136 447.491 681.564 456.205C684.452 457.436 689.585 459.295 691.566 461.75C692.623 463.061 692.833 464.858 692.555 466.5C692.227 468.432 690.557 469.248 689.129 470.36C687.617 470.688 686.023 470.999 684.5 470.542C682.176 469.844 679.791 468.114 677.569 467.058C673.963 465.344 670.119 463.977 666.397 462.534C650.356 456.317 633.6 452.506 616.844 448.73C613.76 448.036 600.626 446.33 598.755 444.873C597.521 443.912 596.928 442.821 596.872 441.281C596.765 438.295 598.172 436.975 600.17 434.997Z"
     id="path15" />
  <path
     fill="#FEFEFE"
     d="M395.42 414.782C399.241 414.576 406.045 413.549 409.277 415.657C410.305 416.328 411.17 417.431 411.421 418.621C411.745 420.155 411.601 421.783 410.701 423.099C409.97 424.167 408.751 425.107 407.493 425.441C405.943 425.852 403.923 425.61 402.297 425.601L392.607 425.75C366.53 426.915 340.962 430.513 315.545 436.404L306.424 438.841L301.737 427.452C332.76 419.863 363.507 415.758 395.42 414.782Z"
     id="path16" />
  <path
     fill="#FEFEFE"
     d="M471.911 759.971C473.233 759.901 474.693 759.796 476 760.042C477.73 760.369 478.731 761.504 479.75 762.826C480.525 765.386 480.34 768.039 480.359 770.686L480.412 784.595L480.289 834.594L480.173 853.744C480.147 856.635 480.514 860.208 479.75 863.002L477.125 863.214L467.994 863.036L467.926 793.125L467.766 773.059C467.745 770.38 467.324 766.874 467.927 764.293C468.421 762.174 470.202 761.076 471.911 759.971Z"
     id="path17" />
  <path
     fill="#FEFEFE"
     d="M539.053 760.551C540.37 760.487 542.06 760.263 543.335 760.645C544.948 761.129 546.56 762.248 547.189 763.871C547.54 764.778 548.071 860.74 547.495 862.25C547.378 862.557 547.167 862.82 547.003 863.106L544.625 863.361L535.255 863.365L535.311 766.485C535.66 763.535 536.776 762.325 539.053 760.551Z"
     id="path18" />
  <path
     fill="#FEFEFE"
     d="M603.881 414.05C618.092 413.133 632.739 414.342 646.898 415.715C665.079 417.478 683.106 419.864 700.938 423.907C704.597 424.737 711.611 425.535 714.349 428.197C715.791 429.599 715.976 431.078 715.969 433C715.134 435.334 713.754 436.512 711.967 438.106C711.013 438.317 710.27 438.41 709.295 438.236C704.607 437.401 699.983 435.661 695.32 434.6L667.77 429.75C647.148 426.762 626.843 425.491 606.026 425.007C604.172 424.963 603.143 424.905 601.856 423.437C600.199 421.547 600.302 419.595 600.495 417.25C601.341 415.658 602.392 415.019 603.881 414.05Z"
     id="path19" />
  <path
     fill="#FF9AA3"
     d="M379.907 542.129C384.241 543.84 388.363 546.589 392.377 548.964L406.045 556.497L396.767 582.486C394.919 587.637 393.251 592.993 390.869 597.923L389.767 597.756C379.325 590.93 370.818 582.623 362.012 573.907C367.125 562.793 372.514 551.927 379.907 542.129Z"
     id="path20" />
  <path
     fill="#FEFEFE"
     d="M392.896 391.246C396.01 392.102 399.13 392.358 402.345 392.448C404.468 392.508 407.5 392.258 409.424 393.241C410.844 393.967 411.849 395.63 412.143 397.152C412.474 398.868 412.152 400.878 411.019 402.25C409.837 403.682 408.221 404.232 406.414 404.263C400.871 404.357 394.951 403.364 389.416 402.852L358.618 400.345C335.4 398.757 312.335 399.669 289.168 401.429L288.336 390.137L361.506 389.095C367.453 390.043 373.736 389.714 379.751 390.118C383.803 390.39 387.93 391.823 391.955 391.352L392.896 391.246Z"
     id="path21" />
  <path
     fill="#FEFEFE"
     d="M502.417 429.753L512.242 429.832C513.163 436.206 513.859 441.448 518.075 446.626C521.195 450.457 525.521 452.985 530.478 453.426C537.687 454.067 545.617 451.617 549.75 445.335C551.065 443.336 551.645 441.224 553.54 439.652C556.058 439.31 557.91 439.189 560.024 440.75C560.556 441.567 560.93 442.161 560.984 443.161C561.247 448.041 558.262 453.054 554.883 456.374C548.799 462.352 540.314 464.576 531.961 464.461C523.359 464.342 516.077 460.496 510.223 454.451L507.471 450.471C502.828 456.419 496.632 461.277 489.215 463.234C482.248 465.073 475.1 463.918 468.921 460.27C463.998 457.363 457.046 451.244 455.808 445.443C455.506 444.026 455.942 442.636 456.819 441.519C458.369 439.544 460.121 439.247 462.5 439.052C465.607 440.396 466.349 443.426 468.25 446.008C471.085 449.858 475.985 452.98 480.75 453.528C485.416 454.065 489.555 452.576 493.222 449.724C500.03 444.429 501.51 437.871 502.417 429.753Z"
     id="path22" />
  <path
     fill="#FEFEFE"
     d="M498.117 387.178C507.343 386.442 515.953 387.115 525 388.997C528.151 389.652 531.485 390.225 534.399 391.634C535.518 393.296 535.29 394.99 534.874 396.938C532.663 407.286 524.186 415.709 515.648 421.257L510.776 423.512C507.056 424.861 505.069 424.949 501.492 423.168C492.838 418.858 484.648 409.949 481.828 400.589C481.167 398.394 480.351 394.232 481.936 392.25C484.71 388.781 493.877 387.739 498.117 387.178Z"
     id="path23" />
  <path
     fill="#FF9AA3"
     d="M631.458 540.368L631.996 540.493C633.747 541.178 648.041 567.493 650.01 571.152C644.833 577.962 639.543 585.11 633.012 590.697C629.845 593.406 626.212 595.609 622.7 597.839L621 598.7C619.178 597.419 606.585 560.14 604.98 555.632L631.458 540.368Z"
     id="path24" />
  <path
     fill="#FEFEFE"
     d="M652.756 389.064C660.605 389.087 668.445 388.071 676.29 387.714L707.533 387.485C713.027 387.551 724.232 386.481 728.25 390.537C729.411 391.708 729.901 393.093 729.818 394.75C729.732 396.469 728.681 398.106 727.25 399.045C725.156 400.419 702.372 398.974 698.124 398.975L662.132 399.99L624.663 402.94L610.684 404.186C608.728 404.345 606.252 404.787 604.36 404.318C602.741 403.917 601.298 402.669 600.539 401.209C599.745 399.683 599.515 397.699 600.139 396.078C600.609 394.857 601.626 393.86 602.815 393.293C606.296 391.631 611.437 391.777 615.299 390.99C619.426 393.076 645.455 388.855 652.756 389.064Z"
     id="path25" />
  <path
     fill="#FF9AA3"
     d="M631.382 291.716C645.187 293.83 656.911 300.656 665.34 311.978C674.067 323.699 677.875 338.412 675.626 352.883C673.587 366.004 666.029 379.504 655.214 387.339L652.756 389.064C645.455 388.855 619.426 393.076 615.299 390.99C622.142 389.142 629.405 388.029 635.791 384.826C647.448 378.979 656.91 368.881 660.884 356.367C664.174 346.006 663.117 334.157 658.071 324.516C652.808 314.461 644.203 308.591 633.629 305.234C634.225 304.821 634.34 304.387 634.652 303.75C634.559 298.899 634.49 295.681 631.382 291.716Z"
     id="path26" />
  <path
     fill="#FF9AA3"
     d="M361.506 389.095C358.373 386.56 355.621 383.837 352.962 380.806C342.301 368.654 337.23 353.869 338.564 337.75C339.588 325.382 347.154 312.301 356.513 304.429C367.889 294.862 381.989 289.905 396.904 291.268C394.034 294.832 392.353 300.026 391.365 304.456C378.829 305.617 368.761 309.679 360.574 319.596C354.2 327.317 350.759 337.758 351.777 347.75C353.215 361.862 360.72 371.634 371.532 380.27C378.072 385.493 384.979 388.634 392.896 391.246L391.955 391.352C387.93 391.823 383.803 390.39 379.751 390.118C373.736 389.714 367.453 390.043 361.506 389.095Z"
     id="path27" />
  <path
     fill="#FF9AA3"
     d="M827.526 429.653C830.318 429.427 833.332 429.682 836 430.567C847.669 434.438 854.209 448.123 859.542 458.218C854.09 455.738 849.331 454.008 843.312 455.425C835.326 457.306 828.889 462.687 824.622 469.596C821.065 475.357 818.774 482.189 819.102 489.022C819.362 494.452 821.173 500.093 822.413 505.385C823.126 509.319 823.569 512.909 823.242 516.91C819.879 508.659 815.523 501.14 810.969 493.5C805.915 485.023 798.827 475.456 797.221 465.612C796.017 458.233 798.785 450.155 803.154 444.215C809.16 436.051 817.588 431.136 827.526 429.653Z"
     id="path28" />
  <path
     fill="#FF9AA3"
     d="M584.953 564.021C585.273 564.181 585.689 564.222 585.914 564.5C587.188 566.075 588.163 570.287 588.916 572.282L601.92 608.756C589.682 614.247 577.326 618.615 564.275 621.752L554.777 623.298L548.386 574.231C560.947 572.003 572.934 568.212 584.953 564.021Z"
     id="path29" />
  <path
     fill="#FF9AA3"
     d="M424.967 564.871C437.888 569.009 450.272 572.884 463.83 574.416C462.926 586.663 460.76 599.059 459.107 611.24C458.616 614.864 458.608 620.954 457.163 624.106L450.322 622.787C435.871 619.399 422.549 614.676 409.076 608.45L424.967 564.871Z"
     id="path30" />
  <path
     fill="#FF9AA3"
     d="M522.551 577.75C524.224 577.566 525.729 577.432 527.406 577.616C528.988 581.909 529.044 587.604 529.669 592.171L534.242 626.972C519.582 628.867 504.367 629.215 489.623 628.168L478.94 627.374C479.003 618.72 480.607 609.915 481.83 601.358L484.637 577.951C489.627 578.261 494.536 578.862 499.545 578.924C507.216 579.019 514.909 578.344 522.551 577.75Z"
     id="path31" />
  <path
     fill="#FEFEFE"
     d="M396.904 291.268C414.802 292.56 430.004 300.037 441.831 313.674C454.591 328.387 462.991 349.081 461.36 368.75C460.8 375.498 457.342 381.703 452.136 385.943C447.137 390.014 440.348 391.605 434 390.926C428.561 390.344 422.802 386.78 419.498 382.5C417.924 380.462 416.79 378.415 415.896 376L415.184 374.14C423.533 365.571 428.617 356.947 428.493 344.655C428.382 333.587 423.301 321.851 415.37 314.122C408.521 307.447 400.632 305.207 391.365 304.456C392.353 300.026 394.034 294.832 396.904 291.268Z"
     id="path32" />
  <path
     fill="#FEFEFE"
     d="M633.629 305.234L625.196 304.683C614.882 304.742 605.671 309.219 598.537 316.489C590.427 324.755 586.393 335.447 586.524 347C586.656 358.611 591.28 368.415 599.49 376.45C595.139 382.185 588.724 387.66 581.75 389.905C575.977 391.763 568.952 391.119 563.574 388.282C558.062 385.373 552.919 379.827 551.115 373.82L550.879 373C549.63 368.897 549.64 363.602 550.184 359.344C552.903 338.038 565.87 319.981 582.75 307.256C597.157 296.395 613.106 289.172 631.382 291.716C634.49 295.681 634.559 298.899 634.652 303.75C634.34 304.387 634.225 304.821 633.629 305.234Z"
     id="path33" />
  <path
     fill="#FF9AA3"
     d="M279.848 882.138L359.91 881.953C357.617 886.526 355.239 891.041 353.726 895.945C349.594 909.343 353.055 922.152 359.441 934.141L345.49 934.076L300.232 934.08L281.48 934.289C278.184 934.325 273.834 934.885 270.859 933.303C265.098 930.24 260.115 922.796 258.525 916.562C256.628 909.12 257.536 901.23 261.718 894.684C265.963 888.039 272.209 883.924 279.848 882.138Z"
     id="path34" />
  <path
     fill="#FF9AA3"
     d="M684.382 621.705C687.042 625.429 689.024 629.868 691.169 633.919C700.937 652.362 709.609 672.584 716.505 692.302C719.055 699.593 716.718 708.976 715.914 716.592C710.622 766.71 695.034 814.136 672.993 859.303L670.944 863.274L650.854 862.969C678.518 800.795 696.546 734.388 691.075 665.793C689.89 650.937 687.06 636.337 684.382 621.705Z"
     id="path35" />
  <path
     fill="#FF9AA3"
     d="M707.061 881.766L724.531 881.581C732.797 881.599 740.131 880.898 746.624 887.082C752.679 892.848 756.426 900.418 756.525 908.829C756.642 918.731 752.274 927.056 745.44 933.964L697.25 933.717L653.837 934.048L656.561 927.922C662.926 912.097 660.674 897.486 654.113 882.274L707.061 881.766Z"
     id="path36" />
  <path
     fill="#FF9AA3"
     d="M330.282 614.91L326.424 634.257C324.302 647.037 323.073 660.15 322.268 673.075C320.531 700.932 323.123 727.098 328.251 754.472C335.318 792.198 346.868 828.033 361.215 863.586L342.515 863.597L340.001 857.602C329.354 832.15 319.04 806.795 311.25 780.275C305.456 760.551 301.345 740.536 297.641 720.337L295.233 704.327C294.878 701.771 294.135 698.844 294.803 696.299C302.158 668.249 315.445 639.76 330.282 614.91Z"
     id="path37" />
  <path
     fill="#FF9AA3"
     d="M520.018 881.601L590.548 881.833L610.14 881.738C613.96 881.716 617.96 881.44 621.75 881.892C624.306 882.197 626.644 883.436 628.651 885.004C634.907 889.892 638.978 897.859 639.763 905.667C640.588 913.865 638.396 920.938 633.223 927.3C631.322 929.159 629.458 931.002 627.192 932.421L626.45 932.868C625.563 933.407 624.801 933.81 623.75 933.952C621.208 934.296 618.381 934.017 615.801 934.018L600.452 934.027L544.708 934.056C537.611 934.032 532.898 932.875 527.75 927.525C519.762 919.224 519.96 910.484 519.971 899.837L520.018 881.601Z"
     id="path38" />
  <path
     fill="#FF9AA3"
     d="M388.581 882.058L494.326 882L494.177 900.762C494.104 907.325 494.432 913.207 491.66 919.358C488.727 925.866 482.675 930.482 476.132 932.951C474.369 933.502 472.509 933.812 470.665 933.927C457.117 934.77 443.019 934.031 429.419 934.031C416.048 934.031 402.213 934.748 388.895 933.977C387.88 933.918 387.061 933.734 386.17 933.238L385.551 932.862C380.344 929.805 376.014 925.496 373.553 919.893C370.224 912.314 370.172 904.048 373.312 896.397C376.174 889.422 381.789 884.894 388.581 882.058Z"
     id="path39" />
  <path
     fill="#FF9AA3"
     d="M727.515 144.639L728.186 145.357C729.063 146.72 729.578 149.409 730.022 150.986L733.476 164.5C742.346 201.462 741.827 241.055 734.484 278.25L726.704 309.502L688.507 260.319L627.443 195.574C633.004 190.97 639.529 186.964 645.645 183.116C661.361 173.228 677.511 164.822 694.441 157.204C705.442 152.254 715.684 147.367 727.515 144.639Z"
     id="path40" />
  <path
     fill="#FF9AA3"
     d="M287.807 145.472C315.983 152.227 341.644 165.493 365.883 181.017C373.218 185.715 380.927 190.526 387.252 196.543L359.497 220.89C345.297 234.265 333.044 248.512 321.436 264.144C310.148 279.671 301.661 295.872 292.978 312.899C289.65 307.686 287.149 301.855 284.816 296.145C265.289 248.361 267.893 192.718 287.807 145.472Z"
     id="path41" />
  <path
     fill="#FF9AA3"
     d="M243.937 889.432L243.654 889.119C240.888 886.161 237.032 883.866 233.732 881.51L216.923 869.358C201.896 858.186 187.183 845.674 173.871 832.512C149.029 807.95 126.444 780.794 107.75 751.234C98.3242 736.33 90.1769 720.87 82.6392 704.944C52.9405 642.194 36.19 572.371 37.6797 502.71C38.4509 466.647 42.5917 431 51.25 395.933C63.0072 348.315 83.7212 301.249 110.12 259.93L124.333 239.838C140.618 217.167 158.797 195.492 178.987 176.184C192.888 162.89 207.158 150.231 222.478 138.591C233.248 130.408 244.555 122.421 256.044 115.269L270.356 107.093C292.208 94.2109 314.568 82.7163 338.131 73.2563C395.792 50.1068 458.037 38.9472 520.119 40.3492C636.188 42.9704 751.419 89.9122 836.498 168.834L855.915 187.282C900.243 233.719 936.333 289.747 958.8 350C978.505 402.844 987.34 459.18 985.963 515.484C983.909 599.446 959.214 682.248 913.75 753.065C893.514 784.585 868.878 813.558 841.731 839.309C825.298 854.897 807.795 869.513 789.098 882.319L773.734 891.964C769.402 881.071 764.082 874.606 754.347 868.05C753.988 867.807 753.283 867.759 753.266 867.326C753.22 866.123 759.177 854.503 760.138 852.295C763.835 843.799 767.721 834.686 769.159 825.5C770.776 815.175 769.265 804.492 767.665 794.243C765.39 779.68 762.316 765.333 757.63 751.339L766.802 746.123C783.583 735.815 799.4 722.622 813.237 708.647C849.827 671.689 874.966 626.53 887.235 575.965C898.332 530.229 896.057 478.056 870.998 437C863.791 425.192 852.693 414.344 838.907 411.082C826.473 408.14 813.971 410.881 803.25 417.602C793.843 423.5 785.845 432.594 781.498 442.828C767.29 476.28 793.839 494.975 803.851 523.515C809.72 540.246 810.112 555.703 806.196 572.899C797.903 609.316 773.844 642.516 747.117 667.912C742.685 672.123 737.801 677.58 732.661 680.814C729.477 675.435 727.742 667.928 725.376 662.071L709.849 628.201C692.182 593.878 669.806 563.11 647.658 531.669L648.054 531.062C649.304 529.794 651.736 528.652 653.263 527.658L664.083 520.254C673.224 513.569 681.449 506.084 689.557 498.198C689.955 497.811 690.211 497.17 690.75 497.037C690.82 497.02 693.273 498.443 693.389 498.509L710.932 509.531C715.273 512.346 722.689 518.664 728.085 517.946C730.655 517.604 733.243 515.808 734.771 513.769C736.599 511.329 737.01 508.939 736.422 505.926C736.097 504.265 734.72 502.795 733.507 501.703C730.847 499.31 727.457 497.682 724.462 495.751L703.904 482.502C709.106 476.939 713.352 470.379 717.338 463.917L748.75 476.397C751.389 477.363 753.104 478.195 755.717 476.953C758.328 475.712 760.96 473.374 761.78 470.507C762.336 468.563 762.213 465.871 761.245 464.068C760.505 462.691 759.394 461.348 758.071 460.5C754.78 458.388 750.509 457.03 746.882 455.5C740.137 452.656 733.525 449.65 726.598 447.256L731.923 435.862C732.782 433.761 733.562 429.725 734.737 428.019C736.083 426.064 768.717 434.727 774.366 431.548C776.427 430.389 778.99 427.642 779.425 425.25C779.897 422.653 779.623 419.704 777.997 417.557C776.993 416.23 775.452 414.909 773.9 414.277C770.506 412.892 765.945 412.647 762.306 412.096L740.588 409.065C742.735 402.973 743.825 397.071 744.156 390.636L772.356 390.386C776.044 390.328 781.493 390.829 785.009 389.754C786.095 389.422 787.347 388.407 788.16 387.642C790.114 385.804 791.014 383.404 791.058 380.75C791.104 377.936 790.344 376.175 788.328 374.201C787.131 373.03 785.457 372.119 783.785 371.886C779.445 371.282 774.375 371.871 769.965 371.927L746.427 371.868C747.1 360.366 747.174 348.905 746.204 337.419L744.959 326.024C744.724 324.361 744.052 322.019 744.401 320.424L749.663 302.012C761.664 255.364 763.923 205.835 752.702 158.762C751.008 151.651 749.328 141.747 745.421 135.55C742.309 130.616 735.577 126.187 729.79 125.164C722.662 123.903 714.067 126.449 707.038 127.843C666.41 135.903 626.451 151.258 592.217 174.8C584.981 171.888 577.297 170.051 569.733 168.197C532.081 158.965 492.013 158.19 454.082 166.363C451.285 166.966 426.219 174.046 426.157 174.036C425.457 173.926 423.514 172.39 422.844 171.964L412.971 165.803L398.132 157.551C375.765 145.919 351.633 137.244 327.163 131.286C315.305 128.399 302.76 125.83 290.556 125.129C284.771 124.797 278.677 127.317 274.492 131.291C268.787 136.707 266.016 146.465 263.593 153.752C250.877 191.997 248.01 234.929 257.501 274.238C259.678 283.253 262.282 292.491 265.888 301.044L270.827 311.534C271.344 312.586 272.574 314.413 272.789 315.505C272.996 316.561 271.823 320.102 271.55 321.38L267.74 341.056C266.162 350.941 266.039 361.053 265.714 371.04L242.726 371.065C239.396 371.063 235.06 370.579 231.854 371.337C230.456 371.667 229.298 372.427 228.255 373.391C226.489 375.023 225.621 376.649 225.598 379.071C225.576 381.277 226.492 383.396 228.072 384.929C229.049 385.877 230.561 386.997 231.906 387.328C234.982 388.083 239.18 387.553 242.425 387.536L266.79 387.398C267.579 395.2 269.435 402.739 271.415 410.306L257.132 412.036C251.552 412.644 241.914 412.566 237.77 416.833C235.962 418.695 235.753 421.603 235.934 424.06C236.119 426.575 237.041 427.699 238.967 429.265C240.118 430.201 241.222 430.851 242.724 431.024C247.846 431.616 254.719 429.842 259.868 429.125L276.992 427.238C280.577 435.857 284.831 443.391 289.879 451.217L273.026 456.105C268.394 457.469 260.759 458.573 258.499 463.25C257.654 465 257.553 467.938 258.236 469.755C259.031 471.866 260.62 473.618 262.684 474.54C264.013 475.134 265.535 475.413 266.985 475.281C270.441 474.967 274.174 473.606 277.503 472.632L298.689 465.743C300.617 466.985 302.27 469.5 303.745 471.25C307.449 475.644 311.039 480.204 315.082 484.293L315.638 484.851C313.492 486.764 309.569 487.997 306.929 489.191C301.408 491.688 279.981 500.656 277.862 505.201C277.06 506.923 277.268 509.754 277.956 511.5C278.901 513.895 280.897 516.282 283.382 517.18C284.918 517.734 286.829 517.66 288.383 517.217C293.314 515.811 298.353 512.641 303 510.377L328.112 498.51L367.814 531.725C347.435 555.172 328.04 579.965 312.437 606.912C301.103 626.486 291.826 647.474 284.476 668.844C281.171 678.454 278.542 688.312 276.134 698.18C275.156 702.19 274.797 706.864 273.411 710.665C271.828 715.007 269.313 719.171 267.312 723.343C264.868 728.439 262.726 733.748 260.757 739.044C244.806 781.929 241.328 828.593 260.677 871.023C252.332 875.773 248.053 880.794 243.937 889.432Z"
     id="path42" />
  <path
     fill="#FEFEFE"
     d="M846.408 280.959C850.093 286.785 853.102 292.937 857.186 298.523C863.856 307.647 872.956 314.935 881.063 322.74C872.578 331.834 863.388 339.842 855.92 349.896C852.342 354.713 849.664 359.981 846.518 365.058C841.667 357.349 836.674 349.284 830.568 342.48C824.238 335.426 816.973 329.197 810.241 322.528C819.496 314.694 828.692 307.389 836.107 297.656C840.038 292.497 843.223 286.598 846.408 280.959Z"
     id="path43" />
  <path
     fill="#FEFEFE"
     d="M184.189 454.362C188.276 454.802 190.527 460.774 192.506 464.038C195.686 469.284 198.806 474.599 202.681 479.376C208.546 486.609 215.674 492.611 223.044 498.235C220.874 501.07 217.946 503.255 215.32 505.657C211.25 509.38 207.13 513.297 203.545 517.501C196.852 525.348 192.442 535.497 185.11 542.733C182.295 540.998 180.03 536.904 178.173 534.21L167.622 519.232C161.533 511.34 153.886 505.238 146.676 498.471L154.051 492.589C160.161 487.226 165.477 480.875 170.167 474.259C174.728 467.826 178.854 460.109 184.189 454.362Z"
     id="path44" />
  <path
     fill="#FEFEFE"
     d="M193.22 289.742C195.557 290.896 196.792 293.302 198.151 295.414L205.149 306.086C208.005 310.276 211.131 314.508 214.399 318.388C219.802 324.804 226.462 329.414 232.423 335.173C226.564 341.751 219.182 347.155 213.118 353.67C206.05 361.264 200.362 370.472 194.135 378.793C191.679 377.592 190.178 374.922 188.72 372.707L181.88 362.413C173.892 351.486 164.898 343.308 154.989 334.274C165.356 325.484 174.399 317.27 182.253 306.075C185.967 300.78 188.905 294.54 193.22 289.742Z"
     id="path45" />
</svg>
