<?xml version="1.0" encoding="UTF-8" standalone="no"?>
<svg
   width="1024"
   height="1024"
   version="1.1"
   id="svg34"
   sodipodi:docname="goose.svg"
   inkscape:version="1.3.2 (091e20ef0f, 2023-11-25)"
   xmlns:inkscape="http://www.inkscape.org/namespaces/inkscape"
   xmlns:sodipodi="http://sodipodi.sourceforge.net/DTD/sodipodi-0.dtd"
   xmlns="http://www.w3.org/2000/svg"
   xmlns:svg="http://www.w3.org/2000/svg">
  <defs
     id="defs34" />
  <sodipodi:namedview
     id="namedview34"
     pagecolor="#ffffff"
     bordercolor="#000000"
     borderopacity="0.25"
     inkscape:showpageshadow="2"
     inkscape:pageopacity="0.0"
     inkscape:pagecheckerboard="0"
     inkscape:deskcolor="#d1d1d1"
     inkscape:zoom="0.47265625"
     inkscape:cx="512"
     inkscape:cy="510.94215"
     inkscape:window-width="1440"
     inkscape:window-height="831"
     inkscape:window-x="0"
     inkscape:window-y="0"
     inkscape:window-maximized="1"
     inkscape:current-layer="svg34" />
  <path
     d="M93.7784 778.577C90.725 774.174 88.3493 768.827 85.9077 764.027L68.558 726.483C48.864 679.124 37.1185 626.838 33.8279 575.698C32.6875 557.973 32.866 540.158 33.5438 522.422C35.6336 467.732 46.5833 412.204 67.6444 361.561C82.3575 326.182 100.212 292.29 122.247 260.898C163.167 202.603 217.983 153.71 280.097 119.134C294.088 111.346 308.393 103.881 323.202 97.753C406.568 63.2552 497.457 51.3345 586.389 68.8683L616.5 75.489C621.988 76.8967 627.509 78.1904 632.757 80.3722C660.343 70.7498 690.009 69.725 716.803 82.75C734.675 91.4376 750.545 104.628 760.373 122.087C762.017 125.007 763.499 127.945 764.804 131.033C765.526 132.743 766.139 134.997 767.097 136.542C771.88 138.833 776.317 142.307 780.689 145.307L806.147 163.848C878.542 219.75 934.065 296.146 964.508 382.5C990.27 455.576 997.699 535.988 986.828 612.75C985.273 623.73 982.793 634.546 980.457 645.374L973.307 675.951C965.743 702.403 955.291 728.241 943.349 753.004L930.366 777.403C926.59 783.645 923.165 790.616 918.806 796.424L902.806 819.553L888.03 839.015L870.494 859.137C864.572 865.748 858.201 873.621 851.19 878.997L837.656 892.111C835.553 894.139 833.002 897.108 830.475 898.558C806.385 919.169 780.482 936.299 752.575 951.267L737.118 958.903C734.115 960.298 730.613 962.247 727.27 962.471C721.909 962.831 716.316 962.529 710.935 962.534L677.973 962.535L577.451 962.506L370 962.543L320.189 962.711L306.561 962.739C304.364 962.736 301.75 963.014 299.649 962.307L299 962.066C293.393 960.027 287.996 956.974 282.647 954.307C265.06 945.538 248.733 935.817 232.243 925.161C219.897 917.183 206.935 908.472 196.076 898.532C193.977 897.404 191.759 895.042 189.904 893.453L173.066 878.288L153.052 858.631L135.502 838.521L119.618 818.453L106.321 798.527C101.528 792.625 97.3265 785.289 93.7784 778.577Z"
     id="path2" />
  <path
     fill="#FEFEFE"
     d="M383.917 683.099L384.287 683.285C378.822 689.214 372.463 694.401 366.179 699.431C358.649 705.458 350.478 711.716 341.77 715.92L337.905 713.579L333.422 710.892L353.884 698.75C363.758 692.995 373.223 687.307 383.917 683.099Z"
     id="path3" />
  <path
     fill="#FF9AA3"
     d="M550.181 808.724C551.474 808.582 551.688 808.355 552.874 809C552.41 812.499 552.671 816.046 552.789 819.562L482.375 819.652C481.192 819.657 480.297 819.619 479.169 819.25L485.665 809.18L550.181 808.724Z"
     id="path4" />
  <path
     fill="#FEFEFE"
     d="M299.74 538.374C300.101 538.464 300.579 538.364 300.823 538.645C301.273 539.164 301.873 544.181 302.127 545.285C304.088 553.8 309.365 563.537 315.788 569.551C318.417 572.012 321.577 574.06 324.513 576.14C320.28 581.821 314.403 586.894 309.618 592.213L308.75 592.924C306.145 590.666 304.385 586.943 302.702 583.973C295.691 571.605 290.518 558.88 285.583 545.588L299.74 538.374Z"
     id="path5" />
  <path
     fill="#FEFEFE"
     d="M331.726 591.403L331.996 591.903C338.166 603.305 346.169 612.62 358.112 618.332C361.747 620.07 365.702 621.196 369.555 622.343C366.299 623.673 362.121 625.457 360.188 628.569C359.086 630.343 358.846 632.897 359.34 634.903C360.525 639.721 363.882 645.125 368.059 647.819C383.439 657.737 405.618 653.933 422.4 650.466L411.553 662.173L396.677 675.213C386.099 667.29 374.858 660.486 364.491 652.178C359.093 647.852 354.232 642.546 349.375 637.613C339.156 627.233 329.168 616.635 320.264 605.091C323.298 600.332 328.066 595.778 331.726 591.403Z"
     id="path6" />
  <path
     fill="#FF9AA3"
     d="M554.288 838.746C554.624 838.724 555.128 839.093 555.43 839.25L557.686 859.342L476.875 859.048C475.394 859.038 474.367 859.236 473.064 858.5L474.288 838.847L554.288 838.746Z"
     id="path7" />
  <path
     fill="#FEFEFE"
     d="M456.003 828.056C457.261 829.313 456.571 886.131 456.597 893.231L456.697 905.76C456.744 907.755 456.685 910.171 457.539 912C458.442 913.936 460.118 915.592 462.14 916.341C467.219 918.222 474.855 917.287 480.296 917.265L509.476 917.16C512.942 917.152 518.127 916.506 521.313 917.867C523.531 918.815 524.161 920.151 524.921 922.25C524.717 924.014 524.293 925.615 523.058 926.965C520.965 929.252 518.456 928.944 515.625 928.982L480.66 928.908C474.106 928.869 466.773 929.308 460.328 928.166C456.648 927.514 452.97 925.975 450.343 923.25C447.708 920.517 445.725 916.451 445.159 912.691C444.713 909.731 445.016 906.336 445.035 903.323L445.16 886.633L445.04 834.134L456.003 828.056Z"
     id="path8" />
  <path
     fill="#FEFEFE"
     d="M222.576 586.47L223.121 586.751C225.952 598.262 234.493 605.347 243.269 612.373C239.164 614.874 234.499 616.794 230.11 618.774C219.541 623.541 208.567 627.604 197.457 630.926C193.742 632.037 189.668 633.765 185.781 633.687C176.801 629.014 169.361 620.863 163.658 612.645L222.576 586.47Z"
     id="path9" />
  <path
     fill="#FF9AA3"
     d="M758.926 165.007L759.636 165.374C761.341 169.774 763.22 174.073 765.897 177.981C774.28 190.219 787.615 197.456 801.044 202.858C806.672 205.123 812.512 206.879 817.954 209.582L817.712 220.488L799.379 219.413L739.886 214.637C746.92 206.484 752.168 194.768 750.489 183.75C750.051 180.874 747.992 177.097 749.206 174.326L749.481 173.75L750.266 171.788C752.453 167.401 754.589 166.448 758.926 165.007Z"
     id="path10" />
  <path
     fill="#FEFEFE"
     d="M584.994 825.063C586.464 827.088 585.734 886.131 585.767 893.196C585.793 898.878 585.203 905.511 586.259 911.044C586.801 913.886 588.772 916.088 591.528 917.002C594.92 918.127 600.035 917.399 603.649 917.395L636.039 917.378C640.863 917.377 646.516 916.817 651.24 917.585C652.224 917.745 653.124 918.264 653.916 918.848C655.355 919.908 656.364 921.148 656.536 922.974C656.717 924.891 656.192 926.07 654.879 927.455C652.567 929.894 650.209 929.458 647.125 929.454L608.287 929.367C601.77 929.342 593.584 930.104 587.27 928.631C582.988 927.633 579.114 924.325 576.851 920.667C575.589 918.628 574.406 916.197 574.093 913.795C573.677 910.606 573.976 907.043 573.976 903.802L574 883.788L574.083 847.999C574.102 842.711 573.323 835.416 574.595 830.343L584.994 825.063Z"
     id="path11" />
  <path
     fill="#FEFEFE"
     d="M434.795 725.621L435.399 725.538C435.715 725.714 436.196 725.737 436.347 726.066C436.59 726.594 436.582 728.463 436.649 729.129C436.941 731.996 437.117 734.907 437.583 737.75C438.341 742.376 439.796 747.164 441.666 751.463C446.866 763.414 456.825 773.841 469.1 778.513L469.948 778.831C456.557 779.81 443.32 780.032 430.184 776.712C422.538 774.289 415.654 771.302 409.376 766.199C399.442 758.124 393.587 745.137 392.28 732.578C392.997 731.739 399.561 731.489 401.022 731.333C412.404 730.122 423.572 727.797 434.795 725.621Z"
     id="path12" />
  <path
     fill="#FEFEFE"
     d="M257.38 622.053C258.343 623.139 257.409 627.742 257.334 629.25C257.211 631.703 257.343 634.396 258.056 636.75C260.553 644.992 268.605 648.96 275.58 652.881C272.505 655.908 242.47 665.519 237.578 666.946C231.163 668.816 217.705 673.887 211.704 670.601C206.997 667.686 203.236 664.001 199.325 660.122C196.372 657.192 193.389 654.355 190.976 650.949C191.861 650.006 193.842 649.543 195.05 649.06L203.642 645.465L257.38 622.053Z"
     id="path13" />
  <path
     fill="#FEFEFE"
     d="M287.163 663.786C288.428 668.584 290.493 673.142 293.463 677.125C301.066 687.321 313.329 689.447 325.12 691.176C314.125 697.463 302.381 703.521 290.595 708.167C286.034 709.966 281.135 711.933 276.233 712.469C272.316 712.898 269.149 712.846 265.238 712.216C251.09 707.472 235.269 697.981 225.679 686.479C234.361 682.206 244.403 679.853 253.577 676.783L287.163 663.786Z"
     id="path14" />
  <path
     fill="#FEFEFE"
     d="M490.331 468.624C491.281 468.648 491.173 468.377 491.466 469.063C492.718 471.987 492.881 476.295 493.47 479.532C494.599 485.733 495.846 491.947 497.758 497.961C505.066 520.944 520.271 542.628 538.76 558.007C555.549 571.972 574.965 582.418 596.95 584.728C605.541 585.63 613.811 585.135 622.379 584.356C620.991 588.076 619.52 594.492 617 597.337L612.287 597.542C588.469 598.441 567.301 592.758 546.934 580.355C507.515 556.352 488.502 514.023 478.208 470.858L490.331 468.624Z"
     id="path15" />
  <path
     fill="#FF9AA3"
     d="M830.475 898.558L709.012 898.421L708.993 879.389L851.19 878.997L837.656 892.111C835.553 894.139 833.002 897.108 830.475 898.558Z"
     id="path16" />
  <path
     fill="#FEFEFE"
     d="M429.537 483.503L430.5 483.323C430.722 483.465 431.035 483.521 431.167 483.75C431.7 484.673 431.556 489.48 431.656 490.765C431.958 494.641 432.47 498.457 433.359 502.246C436.58 515.974 443.947 530.095 454.597 539.521C458.664 543.121 463.278 545.901 467.866 548.772C465.85 550.772 460.943 554.735 460.499 557.471C459.941 560.903 464.459 568.506 466.253 571.458C472.789 582.213 483.694 591.999 495.297 596.931C499.674 598.791 504.251 599.84 508.86 600.948L506.602 604.75C506.338 607.78 506.944 608.852 508.895 611.123C513.952 617.012 521.824 621.304 528.787 624.507C548.462 633.56 567.486 637.248 588.916 638.655C585.829 642.063 582.323 645.051 578.715 647.889C572.341 647.536 566.376 646.415 560.135 645.127C553.234 643.709 546.245 641.846 539.701 639.211L527.143 633.75C525.873 633.178 523.589 631.792 522.277 631.595C520.653 631.352 515.879 634.066 514.087 634.836C506.872 637.937 499.555 640.141 492.002 642.212C497.714 637.501 505.255 630.817 509.227 624.563C509.351 624.367 509.625 624.201 509.594 623.97C509.554 623.67 503.745 619.879 502.97 619.365C493.512 613.088 485.044 606.65 477.26 598.313C448.723 567.749 425.2 529.981 416.014 488.827C418.916 486.424 425.839 484.849 429.537 483.503Z"
     id="path17" />
  <path
     fill="#FEFEFE"
     d="M362.165 509.967C363.119 510.227 362.777 509.929 363.113 510.939C365.894 519.287 368.598 527.402 373.514 534.813C381.171 546.355 388.165 556.524 402.548 559.456C401.024 561.348 397.665 564.598 397.56 567C397.482 568.776 398.498 570.768 399.226 572.353C402.46 579.385 407.421 585.567 412.866 591.013C420.686 598.836 431.185 604.95 442.312 606.357C446.181 606.846 450.328 606.638 454.233 606.653C449.363 609.426 442.6 609.89 437.385 612.462L438.913 617.093C442.83 626.29 450.036 635.591 458.912 640.397C462.378 642.273 466.219 643.491 469.865 644.98C465.915 645.557 461.546 644.817 457.762 645.75L457.527 647C457.979 648.729 458.759 649.967 459.876 651.352C464.041 656.517 469.74 660.397 475.28 663.927C490.381 673.55 508.554 681.25 526.44 683.335L524.585 684.504C523.557 685.101 521.318 686.319 520.198 686.466C518.973 686.626 516.131 685.711 514.752 685.455L490.694 680.102L470.746 693.836C452.179 704.954 432.751 711.664 411.753 716.652C416.213 713.588 421.59 711.579 426.312 708.897C436.547 703.084 469.089 683.681 474.332 674.446C474.38 673.141 474.63 672.538 473.728 671.497C472.181 669.711 469.45 668.27 467.534 666.854C461.672 662.519 454.979 657.293 451.199 650.94C449.658 648.349 448.785 644.082 447.01 641.966C444.544 639.026 440.266 636.524 437.268 634.001L418.853 617.555C388.261 588.858 365.086 554.362 351.649 514.47L362.165 509.967Z"
     id="path18" />
  <path
     fill="#FF9AA3"
     d="M173.066 878.288L428.504 878.464L428.582 898.601L196.076 898.532C193.977 897.404 191.759 895.042 189.904 893.453L173.066 878.288Z"
     id="path19" />
  <path
     fill="#FF9AA3"
     d="M106.321 798.527L159.017 798.667L278.628 798.7L344.596 798.855C347.864 798.992 351.09 800.264 354.221 801.149L366.938 804.303C383.135 807.855 399.412 810 416.005 810.501C417.98 813.543 420.01 816.446 422.55 819.053L119.618 818.453L106.321 798.527Z"
     id="path20" />
  <path
     fill="#FF9AA3"
     d="M870.494 859.137L603.835 859.072L603.923 838.888L888.03 839.015L870.494 859.137Z"
     id="path21" />
  <path
     fill="#FF9AA3"
     d="M135.502 838.521L428.511 838.635L428.539 858.489L226.942 858.516L173.856 858.533L160.665 858.478C158.208 858.454 155.465 858.191 153.052 858.631L135.502 838.521Z"
     id="path22" />
  <path
     fill="#FF9AA3"
     d="M902.806 819.553L603.91 819.52L603.897 800.746C607.448 799.753 611.384 798.101 615 797.557C621.716 796.546 629.67 797.346 636.52 797.375L680.895 797.467L836.357 797.001L890.248 796.944C899.354 796.908 909.099 797.533 918.13 796.505L918.806 796.424L902.806 819.553Z"
     id="path23" />
  <path
     fill="#FEFEFE"
     d="M669.133 368.903L669.824 369.143L682.316 402.753C688.208 417.07 695.252 430.951 702.391 444.68C712.583 464.282 725.153 482.981 733.332 503.59C735.216 508.337 737.796 515.038 735.562 520C733.921 523.644 731.285 525.724 727.581 527.054C719.92 529.805 710.496 527.906 703.357 524.427C699.415 522.506 697.954 520.967 696.465 516.88C694.981 512.444 693.432 508.127 691.083 504.064C687.509 497.88 682.391 492.1 677.954 486.496L654.295 459.421C649.096 454.037 641.832 448.017 638.363 441.414C636.994 438.807 636.424 435.5 635.696 432.663L630.68 411.066L620.694 373.214C625.897 375.979 632.087 377.492 637.895 378.29C650.428 380.012 659.442 376.456 669.133 368.903Z"
     id="path24" />
  <path
     fill="#FEFEFE"
     d="M654.726 100.189C668.072 98.2592 685.107 102.333 696.42 109.564C706.435 115.966 713.195 126.701 715.631 138.239C717.417 146.696 716.038 155.203 716.667 163.727C717.142 170.154 718.919 176.303 719.613 182.668C719.833 184.676 719.946 186.661 719.801 188.678C719.385 194.43 717.647 200.157 714.383 204.951C710.047 211.319 702.228 215.596 694.769 216.974C678.505 219.98 665.206 214.682 652.086 205.629C644.688 200.488 637.053 194.85 628.311 192.275C612.247 187.543 598.011 193.473 584.149 201.156C583.586 176.181 589.334 147.865 605.242 128.013C617.863 112.264 634.596 102.408 654.726 100.189Z"
     id="path25" />
  <path
     d="M683.834 127.625C688.298 127.392 692.258 127.776 696.266 130.007C700.492 132.36 703.542 136.311 704.75 140.985C705.921 145.518 705.04 149.841 702.647 153.825C699.731 158.678 695.935 161.042 690.601 162.413C686.648 162.8 682.886 162.8 679.258 161.017C675.129 158.989 671.127 155.14 669.742 150.666C668.279 145.935 668.55 140.585 670.994 136.225C673.771 131.272 678.594 129.022 683.834 127.625Z"
     id="path26" />
  <path
     fill="#FEFEFE"
     d="M688.353 132.903C689.876 132.941 690.971 133.186 692.428 133.639C693.647 134.956 694.314 135.513 694.058 137.5C693.809 139.43 692.427 140.489 691.08 141.748C689.255 141.528 688.049 141.558 686.75 140.029C685.89 139.016 685.417 137.84 685.502 136.5C685.617 134.702 687.098 133.923 688.353 132.903Z"
     id="path27" />
  <path
     fill="#FEFEFE"
     d="M636.854 464.442C640.321 468.339 644.763 471.242 648.564 474.804C655.117 480.944 661.418 487.834 666.451 495.274C682.715 519.317 689.542 549.296 690.34 577.947C691.612 623.576 670.796 668.332 639.8 701.022C601.567 741.343 549.664 762.333 494.436 763.909C482.737 763.224 472.081 761.659 463.274 753.176C454.377 744.608 453.005 734.127 452.695 722.428L510.104 705.373C562.917 684.732 608.236 649.864 631.333 596.847C634.696 589.126 637.841 580.534 639.273 572.223C641.294 560.489 640.846 548.081 639.844 536.253C638.243 517.348 635.098 499.297 628.165 481.557L636.854 464.442Z"
     id="path28" />
  <path
     fill="#FF9AA3"
     d="M767.097 136.542C771.88 138.833 776.317 142.307 780.689 145.307L806.147 163.848C878.542 219.75 934.065 296.146 964.508 382.5C990.27 455.576 997.699 535.988 986.828 612.75C985.273 623.73 982.793 634.546 980.457 645.374L973.307 675.951C965.743 702.403 955.291 728.241 943.349 753.004L930.366 777.403L662.153 778.515C697.843 762.84 729.464 735.909 748.339 701.579C777.184 649.118 780.06 582.867 763.701 526.05L753.256 496.92C749.829 488.624 745.392 480.67 741.306 472.678L720.75 431.899C691.545 371.431 670.211 304.616 668.526 237.019C681.734 238.284 695.328 238.453 708.293 235.297C711.645 234.481 714.792 233.28 717.996 232.019C720.195 231.154 722.072 230.018 724.512 230.097L783.59 234.738L817.974 237.185C822.584 237.589 825.452 240.84 830.5 240.963C831.298 240.38 831.692 239.969 832.182 239.083C836.697 230.934 840.902 220.226 838.084 210.888C832.541 192.519 812.652 190.353 797.935 182.462C787.522 176.879 780.063 169.376 774.346 159.117C772.959 156.627 771.392 153.997 770.546 151.267C769.073 146.517 768.54 141.407 767.097 136.542Z"
     id="path29" />
  <path
     fill="#FEFEFE"
     d="M852.259 699.141C858.691 698.392 864.86 699.07 871 701.081C889.142 707.023 904.216 722.859 912.635 739.609L864.25 739.37L802.444 739.3L806.4 732.5C817.544 716.263 832.41 702.75 852.259 699.141Z"
     id="path30" />
  <path
     fill="#FEFEFE"
     d="M753.256 496.92C759.53 490.135 766.039 483.407 773.455 477.851C786.825 467.833 803.938 461.148 820.713 460.528C844.755 459.64 869.589 467.101 887.447 483.785C900.578 496.052 909.245 510.1 916.841 526.251L763.701 526.05L753.256 496.92Z"
     id="path31" />
  <path
     fill="#FF9AA3"
     d="M93.7784 778.577C90.725 774.174 88.3493 768.827 85.9077 764.027L68.558 726.483C48.864 679.124 37.1185 626.838 33.8279 575.698C32.6875 557.973 32.866 540.158 33.5438 522.422C35.6336 467.732 46.5833 412.204 67.6444 361.561C82.3575 326.182 100.212 292.29 122.247 260.898C163.167 202.603 217.983 153.71 280.097 119.134C294.088 111.346 308.393 103.881 323.202 97.753C406.568 63.2552 497.457 51.3345 586.389 68.8683L616.5 75.489C621.988 76.8967 627.509 78.1904 632.757 80.3722C605.501 93.2428 581.179 117.217 571.027 146C564.57 164.309 562.49 184.49 562.349 203.817C561.953 258.212 576.945 310.357 593.269 361.784L608.568 414.25C611.034 423.79 613.801 433.484 614.805 443.31C615.349 448.635 614.949 454.26 614.865 459.616C592.488 456.197 569.792 453.536 547.141 453.074C517.026 452.46 486.491 454.78 456.903 460.501C393.838 472.695 333.508 498.331 277.775 529.746L234.65 555.294C227.951 559.362 220.625 563.139 214.345 567.809L213.467 568.48L159.5 542.483C151.387 538.646 142.682 533.509 134.097 531.025C130.178 529.891 125.671 529.279 121.714 530.593C117.852 531.875 114.926 534.756 113.253 538.43C109.598 546.458 110.956 554.563 114.135 562.409C115.701 566.272 117.706 569.731 119.967 573.219C114.856 573.816 109.579 574.276 106.107 578.578C103.186 582.197 101.955 586.915 102.692 591.5C104.326 601.665 115.585 610.192 123.654 615.602L133.79 621.721C135.871 622.862 138.4 623.921 140.181 625.45C133.857 623.996 124.376 620.822 118.434 624.776C115.698 626.597 113.737 629.653 113.2 632.891C112.57 636.694 113.825 640.705 116.123 643.75C123.027 652.902 136.334 658.694 146.674 662.755L146.368 663.178C143.886 666.692 142.339 671.141 143.192 675.473C144.096 680.062 147.913 683.348 151.707 685.692C163.126 692.748 177.787 696.143 190.951 698.158C193.948 698.617 196.977 698.75 199.998 698.958C200.647 699.002 202.766 699.038 203.287 699.339C204.139 699.833 206.34 703.804 207.128 704.813L219.478 719.131C232.663 733.054 247.605 745.352 263.403 756.182C272.511 762.426 282.075 768.368 291.811 773.586L299.59 777.602C300.315 777.959 301.649 778.387 302.091 779.022L93.7784 778.577Z"
     id="path32" />
  <path
     fill="#FEFEFE"
     d="M233.856 429.219C246.256 428.652 258.481 430.574 270.154 434.786C289.061 441.609 305.703 454.849 317.026 471.41C321.377 477.773 324.766 484.618 328.002 491.593L245.25 492.275L150.359 492.006C153.554 480.597 160.826 469.432 168.516 460.564C185.094 441.445 208.946 431.015 233.856 429.219Z"
     id="path33" />
  <path
     fill="#FEFEFE"
     d="M353.755 272.205C366.923 270.592 382.292 273.34 394.75 277.528C413.623 283.872 431.406 296.633 443.681 312.26C449.995 320.297 455.184 329.712 459.699 338.853L371.25 338.583L263.739 338.588C267.95 326.923 275.032 316.789 283.004 307.395C295.069 293.175 312.645 281.519 330.505 276.149C338.048 273.881 345.93 272.849 353.755 272.205Z"
     id="path34" />
</svg>
