<?xml version="1.0" encoding="UTF-8" standalone="no"?>
<svg
   width="1024"
   height="1024"
   version="1.1"
   id="svg41"
   sodipodi:docname="totoro.svg"
   inkscape:version="1.3.2 (091e20ef0f, 2023-11-25)"
   xmlns:inkscape="http://www.inkscape.org/namespaces/inkscape"
   xmlns:sodipodi="http://sodipodi.sourceforge.net/DTD/sodipodi-0.dtd"
   xmlns="http://www.w3.org/2000/svg"
   xmlns:svg="http://www.w3.org/2000/svg">
  <defs
     id="defs41" />
  <sodipodi:namedview
     id="namedview41"
     pagecolor="#ffffff"
     bordercolor="#000000"
     borderopacity="0.25"
     inkscape:showpageshadow="2"
     inkscape:pageopacity="0.0"
     inkscape:pagecheckerboard="0"
     inkscape:deskcolor="#d1d1d1"
     inkscape:zoom="0.47265625"
     inkscape:cx="512"
     inkscape:cy="510.94215"
     inkscape:window-width="1440"
     inkscape:window-height="831"
     inkscape:window-x="0"
     inkscape:window-y="0"
     inkscape:window-maximized="1"
     inkscape:current-layer="svg41" />
  <path
     d="M376.472 62.8864C380.924 61.8363 385.122 59.9198 389.515 58.6595L412.954 52.8085C468.999 40.4685 526.679 38.5079 583.418 47.238C597.259 49.3678 610.811 52.543 624.367 56.0047C631.636 57.8609 639.952 61.1262 647.371 61.6592L647.969 61.6956L658.743 50.6654C660.886 48.5019 663.255 45.9012 665.852 44.3109L677.659 75.8727C695.297 80.3298 712.047 89.546 728.077 97.9629C807.286 139.553 873.445 202.392 919.16 279.293C962.326 351.907 983.757 436.411 981.996 520.718C981.343 552.024 977.644 583.888 969.798 614.25C959.606 653.695 943.779 692.648 923.01 727.726C914.402 742.265 904.697 755.992 894.499 769.445C854.45 822.278 803.706 866.761 746.491 900.223L727.561 910.672C722.71 913.227 716.326 915.658 712.596 919.678C722.169 931.045 731.044 943.327 732.989 958.495C733.854 965.237 733.528 972.18 733.513 978.966L533.641 978.895L533.653 965.518L486.157 965.213L486.12 978.57L286.667 978.599L286.756 961.122C288.423 945.687 298.933 932.675 310.551 923.233L310.483 915.284L294.145 907.895C222.886 871.673 159.946 816.924 115.742 750.244C93.1301 716.136 75.7416 679.28 63.0453 640.417C53.4282 610.98 47.7752 580.759 44.7737 549.996C40.0758 501.844 42.285 453.037 52.8684 405.729C61.1184 368.851 74.4201 333.316 91.6325 299.708C133.584 217.796 200.958 150.191 280.743 104.876C300.582 93.6081 322.152 82.6615 343.906 75.6268C347.498 64.9498 351.379 54.0367 356.665 44.056L376.472 62.8864Z"
     id="path2" />
  <path
     fill="#FEFEFE"
     d="M505.014 296.155C509.403 295.76 514.484 295.707 518.86 296.251C526.359 297.184 531.598 300.011 536.249 306.053L521.343 306.002L488.516 305.995C493.114 300.133 497.624 297.42 505.014 296.155Z"
     id="path3" />
  <path
     fill="#FF9AA3"
     d="M323.206 661.552C318.596 662.507 315.171 663.969 311.176 666.463L316.686 612.568L327.237 608.148C324.632 625.747 322.439 643.72 323.206 661.552Z"
     id="path4" />
  <path
     fill="#FEFEFE"
     d="M322.392 938.118L340.35 938.244L340.211 959.454L324.062 959.427L306.618 959.273C308.328 951.673 316.102 942.384 322.392 938.118Z"
     id="path5" />
  <path
     fill="#FEFEFE"
     d="M687.262 938.239C693.36 938.119 699.34 937.406 704.53 941.188C710.919 945.843 712.538 952.114 713.767 959.495L702.25 959.462L675.557 959.458L675.539 938.513L687.262 938.239Z"
     id="path6" />
  <path
     fill="#FEFEFE"
     d="M378.655 135.513L384.239 102.802C393.564 113.658 402.166 124.134 409.419 136.584C412.381 141.668 415.497 147.15 417.287 152.777C415.847 152.785 414.421 151.78 413.147 151.139L403.104 146.154L378.655 135.513Z"
     id="path7" />
  <path
     fill="#FEFEFE"
     d="M623.505 938.244L658.924 938.363C658.923 941.467 659.506 957.795 658.25 959.526L654.625 959.618L618.113 959.423L618.05 938.377L623.505 938.244Z"
     id="path8" />
  <path
     fill="#FEFEFE"
     d="M603.205 160.066C608.841 143.227 618.702 127.815 629.75 114.06C633.133 109.848 636.349 105.451 640.168 101.619L644.61 136.301C633.471 140.175 622.898 146.752 613.107 153.257C609.877 155.404 606.635 158.328 603.205 160.066Z"
     id="path9" />
  <path
     fill="#FEFEFE"
     d="M623.631 394.302L675.314 405.29C674.461 411.616 672.294 417.848 669.656 423.629C668.517 424.171 669.055 424.132 667.897 423.905C662.825 422.914 657.409 420.329 652.545 418.488C641.308 414.234 630.235 409.708 618.697 406.314C620.714 402.392 622.227 398.48 623.631 394.302Z"
     id="path10" />
  <path
     fill="#FEFEFE"
     d="M357.558 938.069L401.5 938.017L401.505 959.449L357.949 959.462L357.558 938.069Z"
     id="path11" />
  <path
     fill="#FEFEFE"
     d="M418.929 938.029L444.594 937.95C448.099 937.963 453.494 937.293 456.5 939.177C463.291 943.436 466.202 952.063 467.704 959.417L418.848 959.31L418.929 938.029Z"
     id="path12" />
  <path
     fill="#FEFEFE"
     d="M568.144 938.11L601.568 938.243L601.468 959.391L584.936 959.514L552.079 959.478C552.897 955.508 553.946 951.392 556.009 947.864C558.907 942.909 562.516 939.55 568.144 938.11Z"
     id="path13" />
  <path
     fill="#FEFEFE"
     d="M397.368 394.189C398.256 394.012 398.76 394.029 399.638 394.25L404.872 404.939L405.14 405.386L354.223 424.472L353 424.483C351.701 423.23 351.122 421.044 350.505 419.362C348.586 414.124 347.214 409.209 346.482 403.681L397.368 394.189Z"
     id="path14" />
  <path
     fill="#FEFEFE"
     d="M355.119 339.119L388.186 349.871C392.592 351.321 398.223 352.229 402.143 354.65C399.405 361.271 398.488 368.284 397.645 375.35L385.47 377.145L345.863 384.199C346.106 368.695 349.875 353.641 355.119 339.119Z"
     id="path15" />
  <path
     fill="#FEFEFE"
     d="M670.252 338.442L671.25 338.513C672.912 342.879 673.702 348.172 674.553 352.773C676.58 363.728 677.878 374.082 677.584 385.255L637.112 377.468L624.588 375.301C624.585 368.072 623.654 362.14 621.771 355.182C627.794 352.396 634.45 350.579 640.764 348.53L670.252 338.442Z"
     id="path16" />
  <path
     fill="#FF9AA3"
     d="M486.157 965.213C486.122 957.092 485.04 949.881 482.301 942.2C481.298 939.388 479.653 936.302 479.119 933.393C478.352 929.214 479.085 923.286 479.372 918.976C491.777 919.965 504.019 921.073 516.488 920.974L542.732 919.56C543.972 923.134 543.006 929.339 543.24 933.311C537.917 943.199 532.928 953.974 533.653 965.518L486.157 965.213Z"
     id="path17" />
  <path
     fill="#FF9AA3"
     d="M603.205 160.066C606.635 158.328 609.877 155.404 613.107 153.257C622.898 146.752 633.471 140.175 644.61 136.301L648.958 163.096C650.228 171.362 651.888 180.647 650.327 188.971C649.428 193.767 647.194 197.996 644.36 201.914C639.668 208.4 633.695 214.792 627.516 219.904C618.018 213.561 608.271 207.404 597.546 203.341C597.412 189.102 597.582 173.433 603.205 160.066Z"
     id="path18" />
  <path
     fill="#FEFEFE"
     d="M746.079 509.595L732.866 476.128C741.166 483.132 748.466 491.81 755.502 500.071C778.773 527.397 796.157 557.742 809.496 591C821.852 621.809 830.106 653.864 832.89 687L834.371 716.188C830.14 715.598 825.472 715.94 821.185 715.905L820.239 690.877C815.32 635.22 796.875 580.198 765.28 533.922C759.684 525.725 753.687 515.953 746.079 509.595Z"
     id="path19" />
  <path
     fill="#FF9AA3"
     d="M417.287 152.777C425.089 168.286 426.041 187.525 424.363 204.479C413.798 208.435 404.494 214.243 394.715 219.748C389.803 216.018 384.614 210.971 380.896 206.053C370.659 192.517 372.848 177.723 374.948 162L378.655 135.513L403.104 146.154L413.147 151.139C414.421 151.78 415.847 152.785 417.287 152.777Z"
     id="path20" />
  <path
     fill="#FEFEFE"
     d="M197.058 716.551L189.368 716.542L190.104 698.869C193.951 629.281 221.161 558.125 265.588 504.314C274.615 493.38 283.952 483.078 294.54 473.602L277.816 512.944C275.222 515.165 273.487 518.024 271.481 520.75L260.275 536.188C223.162 589.498 204.133 652.527 197.058 716.551Z"
     id="path21" />
  <path
     fill="#FEFEFE"
     d="M408.191 266.707C415.584 266.971 422.198 268.537 428.401 272.744C434.295 276.74 440.103 283.864 441.351 290.988C443.204 301.564 438.106 311.149 432.135 319.577C426.48 327.558 420.17 333.817 410.309 335.539C401.891 335.544 394.531 332.468 387.961 327.241C381.042 321.735 375.903 313.67 375.103 304.75C374.247 295.195 376.388 285.049 382.75 277.66C389.26 270.098 398.629 267.455 408.191 266.707Z"
     id="path22" />
  <path
     d="M401.427 282.572C404.736 282.214 408.063 282.153 411.165 283.493C416.044 285.599 419.74 289.333 421.626 294.314C423.248 298.6 423.307 304.07 421.247 308.25C418.581 313.659 414.11 316.737 408.524 318.55C404.054 319.179 400.307 318.711 396.2 316.66C391.903 314.514 388.632 310.919 387.197 306.31C385.627 301.267 385.957 295.564 388.61 290.975C391.423 286.108 396.264 284.011 401.427 282.572Z"
     id="path23" />
  <path
     fill="#FEFEFE"
     d="M610.444 267.178C618.349 266.665 626.174 267.89 632.945 272.246C640.597 277.169 645.684 286.163 647.639 294.915C649.414 302.859 647.631 310.226 643.279 316.999C637.269 326.351 628.858 332.855 617.935 335.233C610.725 335.753 605.273 331.867 599.573 327.847C589.839 320.981 581.723 310.296 579.75 298.289C578.716 291.991 580.331 286.188 584.18 281.13C590.678 272.591 600.061 268.524 610.444 267.178Z"
     id="path24" />
  <path
     d="M614.972 282.118C618.618 281.893 622.254 282.519 625.513 284.204C629.949 286.498 633.633 290.713 634.991 295.549C636.277 300.13 635.266 305.17 632.924 309.25C630.066 314.232 625.62 316.49 620.333 317.966C616.066 318.487 611.851 318.051 608.049 315.896C604.004 313.604 601.135 309.428 599.944 304.984C598.732 300.465 599.32 294.772 601.868 290.822C605.051 285.888 609.333 283.282 614.972 282.118Z"
     id="path25" />
  <path
     fill="#FF9AA3"
     d="M197.058 716.551C204.133 652.527 223.162 589.498 260.275 536.188L271.481 520.75C273.487 518.024 275.222 515.165 277.816 512.944L260.696 561.25C245.164 612.064 238.633 663.562 237.022 716.505C234.535 717.521 229.076 716.667 226.218 716.636L197.058 716.551Z"
     id="path26" />
  <path
     fill="#FF9AA3"
     d="M746.079 509.595C753.687 515.953 759.684 525.725 765.28 533.922C796.875 580.198 815.32 635.22 820.239 690.877L821.185 715.905C825.472 715.94 830.14 715.598 834.371 716.188C829.884 717.023 824.578 716.195 820 716.179L787.019 716.367C785.137 692.136 783.932 668.024 780.544 643.922C774.052 597.733 761.132 553.597 746.079 509.595Z"
     id="path27" />
  <path
     fill="#FEFEFE"
     d="M481.994 320.679C483.713 324.266 486.77 327.182 489.996 329.436C498.11 335.106 508.11 337.978 517.936 336.062C527.638 334.17 536.955 329.334 542.438 320.91L542.871 320.237C549.259 321.835 555.6 323.968 561.5 326.907C576.179 334.216 587.469 346.585 592.57 362.25C596.556 374.49 595.968 389.071 590.026 400.578C582.853 414.47 567.587 420.599 553.593 425.186L543.784 427.531C513.305 433.762 472.357 432.211 445.812 414.564C438.014 409.38 431.897 401.12 430.14 391.808C427.336 376.943 429.291 361.358 437.821 348.658C448.226 333.167 463.91 324.233 481.994 320.679Z"
     id="path28" />
  <path
     d="M509.268 339.609C521.22 339.228 530.107 345.541 540.579 350.35C543.712 351.789 546.986 353.488 550.393 354.163C552.634 354.607 555.612 354.884 557.832 354.306C560.362 353.647 562.383 352.21 565.126 352.359C567.564 352.492 569.299 353.724 570.8 355.583C572.416 357.584 572.828 359.71 572.406 362.25C571.891 365.35 569.353 368.114 566.75 369.684C549.184 380.28 531.058 362.107 514.81 358.141L514.113 357.975C508.202 357.724 503.58 360.383 498.397 362.838C491.173 366.259 483.693 370.335 475.804 371.893C469.328 373.172 460.639 372.769 455.116 368.854C452.893 367.278 451.056 365.015 450.688 362.244C450.385 359.966 450.968 356.95 452.5 355.176C457.913 348.903 463.182 355.169 469.131 354.614L469.75 354.537C484.08 352.893 495.297 342.145 509.268 339.609Z"
     id="path29" />
  <path
     fill="#FF9AA3"
     d="M709.255 736.413C707.13 744.126 705.234 751.842 702.325 759.31C696.181 775.08 686.031 790.339 674.915 802.988C637.332 845.751 581.382 865.662 525.739 869.23C468.089 872.926 404.961 854.929 361.343 816.305C336.728 794.508 319.774 765.092 314.05 732.689C312.172 722.063 311.614 711.079 310.972 700.32L320.484 696.013C323.497 705.15 326.565 714.382 330.876 723.004C339.674 740.597 354.118 757.85 369.647 769.992C378.994 777.3 389.218 783.185 399.784 788.512C460.843 819.291 535.994 820.719 600.268 799.466C629.682 789.74 658.41 774.333 683.534 756.25L702.374 742.004C704.693 740.205 706.865 738.086 709.255 736.413Z"
     id="path30" />
  <path
     fill="#FF9AA3"
     d="M376.472 62.8864C380.924 61.8363 385.122 59.9198 389.515 58.6595L412.954 52.8085C468.999 40.4685 526.679 38.5079 583.418 47.238C597.259 49.3678 610.811 52.543 624.367 56.0047C631.636 57.8609 639.952 61.1262 647.371 61.6592L647.969 61.6956L621.143 93.0067C603.305 115.621 586.75 141.359 581.494 170.125C579.898 178.858 579.99 187.843 580.053 196.682L506.033 193.615L466.797 195.376C459.336 195.782 451.603 195.629 444.197 196.432C444.62 186.856 444.204 177.232 442.227 167.819C435.284 134.747 412.879 102.468 390.395 77.8484L376.472 62.8864Z"
     id="path31" />
  <path
     fill="#FEFEFE"
     d="M327.237 608.148L369.226 595.405C368.078 587.272 365.469 579.258 358.581 574.149C354.271 570.951 348.35 569.041 342.995 569.86C335.968 570.934 331.658 574.507 326.796 579.347C331.966 555.183 351.377 536.497 371.487 523.429C413.206 496.32 466.457 488.324 515.327 488.825C537.022 489.047 558.43 490.782 579.679 495.343C604.323 500.631 627.373 508.52 649.149 521.329C663.671 529.871 677.372 540.652 686.55 555.008C692.256 563.933 697.033 575.208 697.819 585.846C693.988 578.847 690.234 573.78 682.255 571.352C677.067 569.774 670.681 570.427 665.92 573.002C660.353 576.013 655.862 581.443 654.163 587.519L652.632 595.219L708.607 612.289L713.15 649.55C713.8 656.394 714.617 663.215 714.585 670.101C708.055 665.229 702.62 662.77 694.229 663.953C687.716 664.871 681.482 668.942 677.647 674.244C675.119 677.739 674.343 681.118 673.583 685.249C678.666 687.331 683.957 688.741 689.131 690.562C697.896 693.647 706.556 697.148 714.664 701.715C714.124 713.347 712.24 725.171 709.255 736.413C706.865 738.086 704.693 740.205 702.374 742.004L683.534 756.25C658.41 774.333 629.682 789.74 600.268 799.466C535.994 820.719 460.843 819.291 399.784 788.512C389.218 783.185 378.994 777.3 369.647 769.992C354.118 757.85 339.674 740.597 330.876 723.004C326.565 714.382 323.497 705.15 320.484 696.013L349.907 685.309C348.845 679.523 347.12 674.146 343.181 669.611C337.839 663.462 330.956 662.05 323.206 661.552C322.439 643.72 324.632 625.747 327.237 608.148Z"
     id="path32" />
  <path
     d="M509.124 551.126C515.802 550.712 521.597 552.293 526.726 556.691C534.032 562.956 535.784 571.363 536.421 580.485L516.942 579.523L487.525 580.093C487.646 573.604 488.708 567.123 492.479 561.669C496.511 555.836 502.243 552.355 509.124 551.126Z"
     id="path33" />
  <path
     d="M386.936 648.089C393.589 647.276 399.744 648.313 405.312 652.299C412.296 657.299 414.322 664.364 415.72 672.372L392.232 676.145L368.787 681.676C368.58 681.279 368.496 681.159 368.363 680.671C366.556 674.068 367.452 665.717 370.705 659.75C374.206 653.329 380.122 649.966 386.936 648.089Z"
     id="path34" />
  <path
     d="M631.9 647.12C634.808 646.831 638.407 646.639 641.233 647.437C647.695 649.261 653.767 653.649 656.911 659.628C660.609 666.659 660.581 674.038 658.272 681.442L643.604 677.982L611.999 672.382C611.308 668.463 613.595 662.627 615.545 659.25C619.281 652.782 624.77 649.038 631.9 647.12Z"
     id="path35" />
  <path
     d="M551.375 637.626C558.387 636.865 564.858 637.513 570.536 642.165C575.067 645.878 578.857 652.622 579.387 658.5C579.627 661.16 580.17 666.683 578.354 668.812L561.622 667.199L531.59 666.01C531.922 660.279 532.493 654.333 535.369 649.249C538.866 643.067 544.729 639.504 551.375 637.626Z"
     id="path36" />
  <path
     d="M424.966 555.604C431.499 555.268 437.373 556.412 442.712 560.371C450.09 565.842 452.433 573.546 453.624 582.257L430.25 584.927L404.92 588.586C404.212 581.496 404.289 573.954 407.991 567.619C411.892 560.941 417.639 557.578 424.966 555.604Z"
     id="path37" />
  <path
     d="M465.066 637.117L465.51 637.079C472.151 636.727 478.577 638.638 483.501 643.236C490.361 649.64 491.775 657.036 491.905 665.974L470.226 666.915L444.582 668.656C443.801 661.13 444.217 654.005 448.491 647.5C452.527 641.358 458.139 638.626 465.066 637.117Z"
     id="path38" />
  <path
     d="M591.542 555.592C594.622 555.276 597.973 555.259 601 555.937C607.492 557.392 612.665 561.464 616.055 567.123C620.128 573.922 620.038 581.402 618.288 588.838L601.74 586.179L569.808 582.219C570.163 577.142 571.589 571.603 574.39 567.298C578.539 560.923 584.136 557.062 591.542 555.592Z"
     id="path39" />
  <path
     fill="#FF9AA3"
     d="M310.483 915.284L294.145 907.895C222.886 871.673 159.946 816.924 115.742 750.244C93.1301 716.136 75.7416 679.28 63.0453 640.417C53.4282 610.98 47.7752 580.759 44.7737 549.996C40.0758 501.844 42.285 453.037 52.8684 405.729C61.1184 368.851 74.4201 333.316 91.6325 299.708C133.584 217.796 200.958 150.191 280.743 104.876C300.582 93.6081 322.152 82.6615 343.906 75.6268C330.922 114.368 333.233 156.534 351.501 193.17C358.594 207.392 367.931 221.319 379.95 231.842C353.55 255.189 333.082 283.832 322.246 317.605L278.512 304.407C277.592 306.253 277.247 308.558 276.754 310.555L273.764 322.905L317.077 335.792L312.378 358.197L259.51 352.522L259.465 371.497L310.048 376.532L309.857 392.304L260.36 401.664L265.8 420.29L311.283 411.737L315.024 429.725C297.698 444.056 280.709 458.078 265.327 474.587C210.884 533.017 178.684 610.169 171.239 689.374C170.213 700.287 169.076 712.305 169.58 723.234C169.839 728.858 170.946 734.525 172.015 740.041C174.32 751.939 177.648 763.917 183.518 774.588C187.468 781.767 192.573 788.113 197.177 794.855C200.117 799.161 201.239 804.731 204.54 808.732C208.768 813.855 215.2 817.801 221.891 818.444C229.073 819.133 236.046 817.199 241.581 812.465C246.437 808.313 249.387 802.356 252.429 796.844C253.618 794.689 254.692 792.164 256.243 790.257C265.088 809.317 274.712 826.921 288.025 843.32C293.793 850.425 300.012 857.24 306.626 863.566C307.482 864.386 310.279 866.476 310.58 867.292C311.267 869.151 310.565 874.617 310.56 876.777L310.483 915.284Z"
     id="path40" />
  <path
     fill="#FF9AA3"
     d="M677.659 75.8727C695.297 80.3298 712.047 89.546 728.077 97.9629C807.286 139.553 873.445 202.392 919.16 279.293C962.326 351.907 983.757 436.411 981.996 520.718C981.343 552.024 977.644 583.888 969.798 614.25C959.606 653.695 943.779 692.648 923.01 727.726C914.402 742.265 904.697 755.992 894.499 769.445C854.45 822.278 803.706 866.761 746.491 900.223L727.561 910.672C722.71 913.227 716.326 915.658 712.596 919.678L712.547 866.759C722.034 858.627 730.503 848.847 738.057 838.915C749.091 824.407 758.938 808.506 765.548 791.471C768.649 798.86 772.857 805.603 779.287 810.561C786.042 815.77 795.668 817.474 803.984 816.273C812.28 815.075 820.091 810.86 825.119 804.07C830.562 796.719 834.68 787.999 838.465 779.679C842.549 770.703 846.385 761.303 848.734 751.709C855.865 722.592 853.15 690.66 848.554 661.281C846.71 649.495 843.871 637.796 840.811 626.269C826.986 574.177 801.815 524.751 766.253 484.093C749.336 464.752 729.208 446.965 708.477 431.827L710.554 411.54L760.287 421.008L763.177 400.658C757.358 400.247 751.218 398.601 745.492 397.458L711.94 390.899L711.17 375.597L766.401 371.212L762.832 350.421L708.615 355.609L704.561 339.309C707.884 337.383 713.118 336.463 716.852 335.281L750.874 324.606L743.178 305.341L698.852 318.63C691.307 294.571 679.679 272.186 663.668 252.654C657.373 244.974 650.328 238.029 643.345 230.987C653.571 220.732 662.992 209.926 670.048 197.197C683.244 173.39 688.768 146.323 686.475 119.25C685.225 104.486 681.707 90.0832 677.659 75.8727Z"
     id="path41" />
</svg>
