<?xml version="1.0" encoding="UTF-8" standalone="no"?>
<svg
   width="1024"
   height="1024"
   version="1.1"
   id="svg26"
   sodipodi:docname="favicon.svg"
   inkscape:version="1.3.2 (091e20ef0f, 2023-11-25)"
   xmlns:inkscape="http://www.inkscape.org/namespaces/inkscape"
   xmlns:sodipodi="http://sodipodi.sourceforge.net/DTD/sodipodi-0.dtd"
   xmlns="http://www.w3.org/2000/svg"
   xmlns:svg="http://www.w3.org/2000/svg">
  <defs
     id="defs26" />
  <sodipodi:namedview
     id="namedview26"
     pagecolor="#ffffff"
     bordercolor="#000000"
     borderopacity="0.25"
     inkscape:showpageshadow="2"
     inkscape:pageopacity="0.0"
     inkscape:pagecheckerboard="0"
     inkscape:deskcolor="#d1d1d1"
     inkscape:zoom="0.56933594"
     inkscape:cx="512"
     inkscape:cy="512"
     inkscape:window-width="1440"
     inkscape:window-height="831"
     inkscape:window-x="0"
     inkscape:window-y="0"
     inkscape:window-maximized="1"
     inkscape:current-layer="svg26" />
  <path
     d="M406.644 75.8283C414.707 69.247 422.849 62.6559 431.75 57.2185C461.416 39.0966 494.776 32.0708 529.183 35.5654C554.872 38.1745 578.898 48.7764 599.918 63.3577C605.434 67.1844 610.443 71.9498 616.019 75.6091C621.457 76.5417 626.668 78.4424 631.888 80.174C640.553 83.0485 649.063 86.194 657.588 89.453C720.673 113.567 778.08 151.875 824.712 200.656C839.01 215.613 852.416 231.299 864.319 248.25C876.811 266.039 888.525 284.125 898.685 303.368C945.366 391.789 962.617 493.038 945.169 591.75C936.022 643.499 919.262 692.175 894.528 738.5C891.364 744.426 888.383 750.439 884.951 756.222C860.979 796.618 830.584 832.64 795.577 863.869C801.359 867.345 807.382 872.665 809.146 879.445C810.107 883.135 809.694 887.725 809.689 891.537C809.68 898.711 809.658 905.885 809.624 913.059C809.591 919.936 810.312 927.857 809.39 934.625C809.029 937.282 807.813 940.219 806.331 942.463C803.591 946.614 799.352 949.522 795.216 952.121C786.533 957.578 776.877 960.832 767.118 963.783C752.946 968.069 738.399 971.288 723.815 973.815C640.86 988.189 554.825 990.91 470.828 988.649C414.542 987.135 358.644 983.572 303.105 973.961C284.29 970.706 265.371 966.619 247.324 960.3C239.622 957.602 231.329 954.515 224.66 949.709C220.857 946.968 216.327 942.483 215.491 937.685C214.874 934.141 215.083 930.393 215.069 926.802C215.046 920.962 215.03 915.122 215.018 909.282C215.005 902.749 215 896.216 214.988 889.683C214.98 885.582 214.337 880.849 215.893 877L216.173 876.295C218.495 870.749 223.948 867.385 228.861 864.358C218.424 854.745 207.712 845.3 197.895 835.046C182.375 818.835 167.545 801.475 154.586 783.136C126.503 743.393 104.473 697.385 91.082 650.596C82.5324 620.723 76.3145 589.443 73.75 558.458C72.6361 545 72.4073 531.6 72.3202 518.102C72.1951 498.732 72.7688 479.435 75.1387 460.191C82.0944 403.711 100.288 348.236 127.849 298.498C187.296 191.22 288.476 109.74 406.644 75.8283Z"
     id="path2" />
  <path
     fill="#FEFEFE"
     d="M760.2 834.59L760.969 835.25L760.545 860.687L752.118 862.615L751.43 862.18C750.757 859.641 751.191 856.232 751.236 853.575C751.331 847.99 751.396 842.405 751.473 836.82L760.2 834.59Z"
     id="path3" />
  <path
     fill="#FEFEFE"
     d="M776.956 911.1L778.077 911.5L778.016 938.581L768.174 942.509L767.451 942.401C766.155 940.744 766.944 917.793 766.944 913.792L776.956 911.1Z"
     id="path4" />
  <path
     fill="#FEFEFE"
     d="M640.563 406.966C644.713 407.028 650.12 407.523 653.489 410.153C656.289 412.338 658.006 415.465 658.396 419C658.944 423.978 658.529 429.142 655.093 433.068C651.748 436.89 648.166 437.679 643.358 438.065L628.645 437.973L636.442 434.109C640.841 431.472 643.674 427.358 644.903 422.39C646.36 416.504 643.388 411.817 640.563 406.966Z"
     id="path5" />
  <path
     fill="#FEFEFE"
     d="M705.412 716.571L706.582 716.75C707.593 721.197 706.858 727.361 706.858 731.984C706.859 743.962 707.171 756.052 706.5 768.011L698.445 767.938C697.892 767.856 697.552 767.55 697.091 767.25L697.324 718.936L705.412 716.571Z"
     id="path6" />
  <path
     fill="#FEFEFE"
     d="M623.708 220.399L633.436 221.425C632.068 233.37 629.876 245.039 625.044 256.132C619.171 269.615 608.761 282.174 594.804 287.678L585.789 289.562L588.25 287.918C610.017 272.451 619.644 245.659 623.708 220.399Z"
     id="path7" />
  <path
     fill="#FEFEFE"
     d="M558.975 89.7113L565.121 91.5858C589.337 101.488 605.935 119.283 615.796 143.424C616.891 146.105 620.953 155.71 620 157.952L616.898 158.999L609.331 160.903L607.774 156.75C598.049 130.092 583.243 109.768 556.964 97.5438L558.975 89.7113Z"
     id="path8" />
  <path
     fill="#FEFEFE"
     d="M425.419 456.195L600.25 456.686L600.388 457.75C599.509 459.661 598.803 460.508 597.001 461.6C594.225 462.921 591.731 463.692 588.658 463.942C581.367 464.535 573.651 464.14 566.311 464.188C549.929 464.296 533.55 464.233 517.168 464.215C501.107 464.198 485.047 464.177 468.987 464.148C460.103 464.132 450.974 464.493 442.121 463.844C436.764 463.452 428.719 461.721 425.068 457.5L425.419 456.195Z"
     id="path9" />
  <path
     fill="#FEFEFE"
     d="M577.202 558.801C578.738 558.861 578.853 558.74 579.979 559.75C581.082 568.086 583.673 576.476 585.744 584.634C591.287 606.476 598.229 628.57 606.652 649.481C612.623 664.305 619.521 678.645 625.968 693.25L625.569 694.141L623.527 694.604C603.189 672.726 590.613 642.207 582.574 613.826C579.451 602.802 576.732 591.827 575.177 580.466C574.553 575.907 573.562 571.113 573.451 566.518C573.363 562.9 574.834 561.28 577.202 558.801Z"
     id="path10" />
  <path
     fill="#FEFEFE"
     d="M421.062 341.164C433.555 340.793 446.109 341.108 458.611 341.127C479.04 341.158 499.471 341.091 519.9 341.064C537.565 341.041 555.229 341.017 572.894 341.008C581.859 341.003 591.002 340.63 599.941 341.046C601.792 341.132 604.001 341.351 605.59 342.38C607.572 343.663 608.603 345.204 609.013 347.5L608.25 348.543C606.355 349.598 604.24 349.413 602.125 349.465L412.33 349.399C412.983 347.932 413.626 346.374 414.52 345.037C416.159 342.587 418.293 341.781 421.062 341.164Z"
     id="path11" />
  <path
     fill="#FEFEFE"
     d="M396.783 411.729C409.327 411.603 421.874 411.732 434.419 411.691C441.729 411.666 449.738 411.01 456.974 411.967C459.54 412.307 462.247 413.106 464.348 414.665C467.218 416.795 468.366 419.451 468.71 422.9C469.01 425.908 468.518 428.36 466.528 430.676C463.103 434.66 459.866 435.787 454.812 436.094C441.791 436.174 428.769 436.073 415.748 436.165C408.771 436.215 400.869 437.046 394 436.068C391.543 435.718 389.38 434.954 387.389 433.446C384.905 431.565 382.765 428.674 382.473 425.511C382.165 422.177 382.85 418.91 385.087 416.328C388.289 412.631 392.223 412.079 396.783 411.729Z"
     id="path12" />
  <path
     fill="#FEFEFE"
     d="M431.542 312.262L595.238 311.936L593.468 323.884C593.34 324.418 593.083 324.669 592.75 325.094L432.6 325.363L431.542 312.262Z"
     id="path13" />
  <path
     fill="#FEFEFE"
     d="M698.517 692.5L698.826 692.786C699.537 693.981 699.338 694.501 699.026 695.75C695.29 700.139 688.401 702.326 683.056 704.167C658.007 712.795 631.358 715.602 605.102 717.991C584.176 719.895 563.007 721.038 542 721.45C509.757 722.083 477.697 721.379 445.5 719.843C418.742 718.567 391.559 716.993 365.219 711.891C354.897 709.891 341.467 707.684 333.197 700.789C331.521 698.88 330.356 697.435 330.262 694.823C330.591 694.69 330.902 694.354 331.25 694.424C332.674 694.71 335.194 696.649 336.64 697.356C339.558 698.784 342.649 699.978 345.744 700.958C356.333 704.31 368.035 705.514 379.024 706.981C403.011 710.183 426.934 711.586 451.088 712.619C489.61 714.268 528.093 714.266 566.624 712.861C591.444 711.957 616.353 711.354 641 708.018C660.298 705.407 681.086 701.497 698.517 692.5Z"
     id="path14" />
  <path
     fill="#FEFEFE"
     d="M577.097 481.384L587.024 481.513C593.412 539.597 611.182 596.744 637.657 648.786C642.418 658.146 647.678 667.328 653.378 676.146C655.409 679.289 657.527 682.359 659.692 685.411C660.892 687.102 662.636 689.048 663.388 690.962L661.966 691.639L652.648 693.448C646.479 686.046 640.054 678.955 634.869 670.793C612.433 635.472 599.444 594.308 589.678 553.931C583.951 530.251 579.131 505.69 577.097 481.384Z"
     id="path15" />
  <path
     fill="#FEFEFE"
     d="M319.476 832.646L396.48 842.379L396.253 879.217L319.245 869.782L319.476 832.646Z"
     id="path16" />
  <path
     fill="#FEFEFE"
     d="M277.688 916.924L363.564 928.737L363.496 965.17L277.789 952.292L277.688 916.924Z"
     id="path17" />
  <path
     fill="#FEFEFE"
     d="M712.73 795.443C713.793 795.721 714.567 797.03 715.079 798C715.485 798.771 715.694 799.568 715.316 800.368C713.088 805.081 702.6 808.016 697.949 809.484C672.346 817.562 644.925 820.475 618.25 822.732C598.692 824.387 579.117 824.963 559.509 825.565C506.437 827.194 452.845 826.463 399.933 821.834C379.378 820.036 358.268 818.549 338.291 813.174C331.743 811.412 325.676 808.716 319.675 805.598C316.468 803.848 314.331 801.993 312.116 799.134C347.127 807.927 383.285 811.672 419.23 814.404C470.275 818.284 521.887 818.37 573.027 816.63C602.167 815.639 630.931 814.235 659.808 809.94C677.739 807.273 696.562 803.951 712.73 795.443Z"
     id="path18" />
  <path
     fill="#FEFEFE"
     d="M384.768 364.722C394.562 364.444 404.426 364.682 414.228 364.625C447.019 364.436 479.813 364.845 512.606 364.843C542.538 364.841 572.467 364.702 602.4 364.801C614.002 364.839 625.743 364.424 637.324 364.805C639.069 364.862 640.797 365.091 642.366 365.903C644.272 366.89 646.067 368.735 646.665 370.827C647.347 373.21 647.145 375.972 645.804 378.092C644.298 380.472 641.884 381.304 639.293 381.979C617.93 382.293 596.514 381.977 575.145 381.99C535.436 382.014 495.724 382.116 456.015 381.996C440.732 381.95 425.451 381.885 410.168 381.903C400.71 381.913 390.403 382.828 381.123 381.104C378.996 379.474 376.947 378.016 376.303 375.257C375.844 373.291 376.17 370.36 377.413 368.708C379.381 366.094 381.653 365.263 384.768 364.722Z"
     id="path19" />
  <path
     fill="#FEFEFE"
     d="M342.458 722.896C354.164 725.828 365.654 728.753 377.594 730.662C391.33 732.859 405.266 733.765 419.137 734.633L419.119 794.061L342.159 786.31L342.458 722.896Z"
     id="path20" />
  <path
     fill="#FEFEFE"
     d="M245.448 873.42C247.083 873.109 248.549 874.187 249.982 874.882C253.421 876.549 256.863 878.167 260.452 879.496C268.877 882.615 277.974 885.241 286.743 887.207C328.604 896.588 372.43 899.509 415.177 901.833C505.961 906.768 597.133 905.689 687.5 895.03C704.333 893.044 721.064 890.741 737.679 887.359C752.006 884.444 766.724 881.052 779.211 873.173C782.668 874.429 787.232 875.823 789.25 879.169C789.931 880.297 789.96 881.671 789.555 882.901C788.464 886.213 784.14 887.913 781.215 889.247C755.993 899.069 727.988 903.201 701.25 906.659C668.168 910.938 634.816 913.522 601.514 915.283C557.238 917.625 512.987 918.076 468.673 917.049C428.256 916.113 387.957 914.123 347.75 909.799C322.179 907.049 296.664 903.972 271.5 898.549C262.758 896.665 254.065 894.709 245.626 891.705C241.543 890.252 237.399 888.83 234.127 885.886C233.625 884.527 233.367 883.846 233.831 882.428C235.135 878.437 241.913 875.212 245.448 873.42Z"
     id="path21" />
  <path
     fill="#FEFEFE"
     d="M474.515 61.6053C476.671 61.4743 478.855 61.5856 481 61.8455C489.531 62.8793 497.742 67.3025 502.888 74.2715C505.601 77.9465 506.919 82.0264 506.192 86.6025C505.008 94.0612 500.809 100.455 494.75 104.892C489.468 108.76 481.388 111.555 474.853 111.571C470.959 111.581 466.878 110.694 463.037 110.062C452.829 129.668 445.671 148.156 444.352 170.512C443.911 177.982 444.954 186.084 443.838 193.406C442.735 200.641 438.398 207.066 432.564 211.367C425.361 216.678 416.559 217.989 407.883 216.652C403.46 215.021 398.665 212.793 396.538 208.25C395.787 206.644 395.52 204.819 394.622 203.274C393.425 201.215 390.857 199.142 388.5 198.655C383.976 197.721 380.042 200.141 376.519 202.638C375.543 174.619 382.58 146.273 397.941 122.725C411.964 101.227 432.184 83.1818 454.371 70.4191C460.701 66.7776 467.319 63.1251 474.515 61.6053Z"
     id="path22" />
  <path
     d="M436.5 108.506C437.491 108.556 438.431 108.601 439.384 108.903C441.356 109.528 443.099 110.888 443.907 112.827C444.858 115.108 443.685 118.214 441.843 119.75C438.405 122.618 434.724 124.977 431.387 128.051C421.387 137.264 413.374 150.416 408.12 162.873C406.63 166.405 406.02 170.229 404.535 173.691C403.264 176.65 401.48 177.608 398.614 178.794C397.614 178.899 396.604 178.985 395.604 178.836C393.494 178.523 392.126 177.412 391.005 175.636C389.93 173.933 389.884 172.764 390.267 170.852C392.363 160.368 395.083 150.488 400.165 141.011C405.829 130.452 413.877 122.129 423.675 115.341C427.818 112.471 431.658 109.976 436.5 108.506Z"
     id="path23" />
  <path
     fill="#FEFEFE"
     d="M439.214 481.496L466.652 481.478C467.447 538.746 464.918 595.352 451.396 651.216C447.653 666.68 443.282 682.567 437.427 697.381L393.455 693.863L362.835 690.291C369.598 678.455 377.038 667.082 383.371 654.976C405.723 612.25 421.835 568.459 432.09 521.35C434.94 508.259 437.839 494.828 439.214 481.496Z"
     id="path24" />
  <path
     fill="#FF9AA3"
     d="M616.019 75.6091C621.457 76.5417 626.668 78.4424 631.888 80.174C640.553 83.0485 649.063 86.194 657.588 89.453C720.673 113.567 778.08 151.875 824.712 200.656C839.01 215.613 852.416 231.299 864.319 248.25C876.811 266.039 888.525 284.125 898.685 303.368C945.366 391.789 962.617 493.038 945.169 591.75C936.022 643.499 919.262 692.175 894.528 738.5C891.364 744.426 888.383 750.439 884.951 756.222C860.979 796.618 830.584 832.64 795.577 863.869L787.847 860.569C787.677 850.971 787.718 841.363 787.644 831.764C787.611 827.38 788.357 820.769 786.775 816.701L786.478 816C785.723 814.156 784.926 812.522 783.757 810.897C776.616 800.969 760.643 797.068 749.553 793.826C741.174 791.377 732.676 788.953 724.017 787.746C724.197 766.852 724.268 745.956 724.361 725.061C724.406 714.946 725.27 704.145 724.374 694.112C724.149 691.596 723.466 688.937 722.126 686.776C714.053 673.759 685.949 667.386 671.883 664.459C643.685 619.638 623.474 568.668 610.83 517.374C607.613 504.328 605.574 491.104 602.76 477.986C606.171 476.878 609.382 475.468 612.25 473.28C618.391 468.596 620.942 462.898 621.968 455.426C627.997 455.433 634.027 455.437 640.057 455.413C645.289 455.392 650.777 455.525 655.823 453.95C664.263 451.315 670.704 445.585 674.714 437.751C678.757 429.854 679.523 420.662 676.652 412.246C673.023 401.603 665.078 395.484 655.297 390.783C659.883 385.274 663.115 379.907 663.116 372.469C663.116 366.252 660.861 360.521 656.392 356.193C647.529 347.607 636.832 349.262 625.61 349.641C625.558 345.814 625.516 342.101 624.009 338.5C621.26 331.935 616.195 328.887 609.994 326.262L623.645 312.913C653.943 282.231 670.231 238.899 669.733 196.031C669.295 158.432 656.46 122.992 632.991 93.6371C627.839 87.1933 621.911 81.3668 616.019 75.6091Z"
     id="path25" />
  <path
     fill="#FF9AA3"
     d="M228.861 864.358C218.424 854.745 207.712 845.3 197.895 835.046C182.375 818.835 167.545 801.475 154.586 783.136C126.503 743.393 104.473 697.385 91.082 650.596C82.5324 620.723 76.3145 589.443 73.75 558.458C72.6361 545 72.4073 531.6 72.3202 518.102C72.1951 498.732 72.7688 479.435 75.1387 460.191C82.0944 403.711 100.288 348.236 127.849 298.498C187.296 191.22 288.476 109.74 406.644 75.8283C399.469 82.6772 392.348 89.8063 386.182 97.5951C364.79 124.617 353.906 156.138 353.126 190.448C352.155 233.155 366.684 277.87 396.552 308.967L416.085 326.749C408.57 328.801 403.039 331.305 398.97 338.298C396.826 341.983 396.372 345.606 395.936 349.758C386.102 349.142 376.369 347.692 368.339 354.855C363.266 359.379 360.5 365.687 360.15 372.439C359.851 378.189 361.397 384.481 365.418 388.75C366.945 390.371 368.745 392.057 370.556 393.354C360.814 396.461 353.508 400.101 348.54 409.537C344.679 416.872 343.77 426.032 346.469 433.905C349.204 441.881 355.413 448.501 363 452.069C375.367 457.885 391.909 455.085 405.357 455.403C406.246 462.975 408.975 468.754 415.071 473.469C417.217 475.129 419.564 476.234 422.027 477.338C419.39 490.43 417.33 503.657 414.214 516.646C402.064 567.277 382.362 617.727 354.376 661.759C342.095 664.138 329.925 666.734 318.6 672.255C313.567 674.709 308.409 677.966 305.162 682.623C303.399 685.152 301.969 688.405 301.573 691.473C301.091 695.2 301.347 699.299 301.33 703.06C301.301 709.677 301.28 716.293 301.262 722.91C301.21 743.104 300.815 763.393 301.26 783.579C290.668 787.318 280.087 791.091 269.493 794.82C261.625 797.59 253.018 799.78 245.973 804.356C241.428 807.31 237.844 811.071 235.527 816C232.426 822.597 233.606 831.888 233.605 839.084C233.604 846.724 233.573 854.363 233.534 862.002L228.861 864.358Z"
     id="path26" />
</svg>
